<?xml version="1.0" encoding="UTF-8" standalone="no"?>
<!DOCTYPE svg PUBLIC "-//W3C//DTD SVG 1.1//EN"
 "http://www.w3.org/Graphics/SVG/1.1/DTD/svg11.dtd">
<!-- Generated by graphviz version 2.43.0 (0)
 -->
<!-- Title: /home/runner/work/uniot&#45;core/uniot&#45;core/lib/Core/Date/SimpleNTP.h Pages: 1 -->
<svg width="219pt" height="159pt"
 viewBox="0.00 0.00 218.50 159.00" xmlns="http://www.w3.org/2000/svg" xmlns:xlink="http://www.w3.org/1999/xlink">
<g id="graph0" class="graph" transform="scale(1 1) rotate(0) translate(4 155)">
<title>/home/runner/work/uniot&#45;core/uniot&#45;core/lib/Core/Date/SimpleNTP.h</title>
<!-- Node1 -->
<g id="Node000001" class="node">
<title>Node1</title>
<g id="a_Node000001"><a xlink:title=" ">
<polygon fill="#999999" stroke="#666666" points="180,-151 43,-151 43,-110 180,-110 180,-151"/>
<text text-anchor="start" x="51" y="-139" font-family="Helvetica,sans-Serif" font-size="10.00">/home/runner/work/uniot</text>
<text text-anchor="start" x="51" y="-128" font-family="Helvetica,sans-Serif" font-size="10.00">&#45;core/uniot&#45;core/lib/Core</text>
<text text-anchor="middle" x="111.5" y="-117" font-family="Helvetica,sans-Serif" font-size="10.00">/Date/SimpleNTP.h</text>
</a>
</g>
</g>
<!-- Node2 -->
<g id="Node000002" class="node">
<title>Node2</title>
<g id="a_Node000002"><a xlink:href="../../d6/dec/_logger_8h.html" target="_top" xlink:title=" ">
<polygon fill="white" stroke="#666666" points="60.5,-74 2.5,-74 2.5,-55 60.5,-55 60.5,-74"/>
<text text-anchor="middle" x="31.5" y="-62" font-family="Helvetica,sans-Serif" font-size="10.00">Logger.h</text>
</a>
</g>
</g>
<!-- Node1&#45;&gt;Node2 -->
<g id="edge1_Node000001_Node000002" class="edge">
<title>Node1&#45;&gt;Node2</title>
<g id="a_edge1_Node000001_Node000002"><a xlink:title=" ">
<path fill="none" stroke="#63b8ff" d="M87.06,-109.95C75.32,-100.55 61.45,-89.46 50.5,-80.7"/>
<polygon fill="#63b8ff" stroke="#63b8ff" points="52.45,-77.77 42.45,-74.26 48.07,-83.24 52.45,-77.77"/>
</a>
</g>
</g>
<!-- Node4 -->
<g id="Node000004" class="node">
<title>Node4</title>
<g id="a_Node000004"><a xlink:title=" ">
<polygon fill="#e0e0e0" stroke="#999999" points="144.5,-74 78.5,-74 78.5,-55 144.5,-55 144.5,-74"/>
<text text-anchor="middle" x="111.5" y="-62" font-family="Helvetica,sans-Serif" font-size="10.00">WiFiUdp.h</text>
</a>
</g>
</g>
<!-- Node1&#45;&gt;Node4 -->
<g id="edge3_Node000001_Node000004" class="edge">
<title>Node1&#45;&gt;Node4</title>
<g id="a_edge3_Node000001_Node000004"><a xlink:title=" ">
<path fill="none" stroke="#63b8ff" d="M111.5,-109.95C111.5,-101.85 111.5,-92.5 111.5,-84.47"/>
<polygon fill="#63b8ff" stroke="#63b8ff" points="115,-84.26 111.5,-74.26 108,-84.26 115,-84.26"/>
</a>
</g>
</g>
<!-- Node5 -->
<g id="Node000005" class="node">
<title>Node5</title>
<g id="a_Node000005"><a xlink:title=" ">
<polygon fill="#e0e0e0" stroke="#999999" points="210.5,-74 162.5,-74 162.5,-55 210.5,-55 210.5,-74"/>
<text text-anchor="middle" x="186.5" y="-62" font-family="Helvetica,sans-Serif" font-size="10.00">time.h</text>
</a>
</g>
</g>
<!-- Node1&#45;&gt;Node5 -->
<g id="edge4_Node000001_Node000005" class="edge">
<title>Node1&#45;&gt;Node5</title>
<g id="a_edge4_Node000001_Node000005"><a xlink:title=" ">
<path fill="none" stroke="#63b8ff" d="M134.41,-109.95C145.31,-100.65 158.17,-89.68 168.38,-80.96"/>
<polygon fill="#63b8ff" stroke="#63b8ff" points="170.9,-83.41 176.23,-74.26 166.35,-78.09 170.9,-83.41"/>
</a>
</g>
</g>
<!-- Node3 -->
<g id="Node000003" class="node">
<title>Node3</title>
<g id="a_Node000003"><a xlink:title=" ">
<polygon fill="#e0e0e0" stroke="#999999" points="63,-19 0,-19 0,0 63,0 63,-19"/>
<text text-anchor="middle" x="31.5" y="-7" font-family="Helvetica,sans-Serif" font-size="10.00">Arduino.h</text>
</a>
</g>
</g>
<!-- Node2&#45;&gt;Node3 -->
<g id="edge2_Node000002_Node000003" class="edge">
<title>Node2&#45;&gt;Node3</title>
<g id="a_edge2_Node000002_Node000003"><a xlink:title=" ">
<path fill="none" stroke="#63b8ff" d="M31.5,-54.75C31.5,-47.8 31.5,-37.85 31.5,-29.13"/>
<polygon fill="#63b8ff" stroke="#63b8ff" points="35,-29.09 31.5,-19.09 28,-29.09 35,-29.09"/>
</a>
</g>
</g>
</g>
</svg>
