<?xml version="1.0" encoding="UTF-8" standalone="no"?>
<!DOCTYPE svg PUBLIC "-//W3C//DTD SVG 1.1//EN"
 "http://www.w3.org/Graphics/SVG/1.1/DTD/svg11.dtd">
<!-- Generated by graphviz version 2.43.0 (0)
 -->
<!-- Title: /home/runner/work/uniot&#45;core/uniot&#45;core/lib/Core/EventBus/EventListener.h Pages: 1 -->
<svg width="993pt" height="280pt"
 viewBox="0.00 0.00 993.00 280.00" xmlns="http://www.w3.org/2000/svg" xmlns:xlink="http://www.w3.org/1999/xlink">
<g id="graph0" class="graph" transform="scale(1 1) rotate(0) translate(4 276)">
<title>/home/runner/work/uniot&#45;core/uniot&#45;core/lib/Core/EventBus/EventListener.h</title>
<!-- Node1 -->
<g id="Node000001" class="node">
<title>Node1</title>
<g id="a_Node000001"><a xlink:title=" ">
<polygon fill="#999999" stroke="#666666" points="545,-272 402,-272 402,-231 545,-231 545,-272"/>
<text text-anchor="start" x="410" y="-260" font-family="Helvetica,sans-Serif" font-size="10.00">/home/runner/work/uniot</text>
<text text-anchor="start" x="410" y="-249" font-family="Helvetica,sans-Serif" font-size="10.00">&#45;core/uniot&#45;core/lib/Core</text>
<text text-anchor="middle" x="473.5" y="-238" font-family="Helvetica,sans-Serif" font-size="10.00">/EventBus/EventListener.h</text>
</a>
</g>
</g>
<!-- Node2 -->
<g id="Node000002" class="node">
<title>Node2</title>
<g id="a_Node000002"><a xlink:href="../../d8/de7/_lisp_device_8h.html" target="_top" xlink:title=" ">
<polygon fill="white" stroke="#666666" points="535.5,-118 391.5,-118 391.5,-77 535.5,-77 535.5,-118"/>
<text text-anchor="start" x="399.5" y="-106" font-family="Helvetica,sans-Serif" font-size="10.00">/home/runner/work/uniot</text>
<text text-anchor="start" x="399.5" y="-95" font-family="Helvetica,sans-Serif" font-size="10.00">&#45;core/uniot&#45;core/lib/AppKit</text>
<text text-anchor="middle" x="463.5" y="-84" font-family="Helvetica,sans-Serif" font-size="10.00">/LispDevice.h</text>
</a>
</g>
</g>
<!-- Node1&#45;&gt;Node2 -->
<g id="edge1_Node000001_Node000002" class="edge">
<title>Node1&#45;&gt;Node2</title>
<g id="a_edge1_Node000001_Node000002"><a xlink:title=" ">
<path fill="none" stroke="#63b8ff" d="M391.59,-242.48C329.75,-234.53 252.29,-219.86 232.5,-195 221.15,-180.74 221.22,-168.31 232.5,-154 242.54,-141.27 327.4,-123.23 391.38,-111.22"/>
<polygon fill="#63b8ff" stroke="#63b8ff" points="391.4,-245.98 401.76,-243.74 392.27,-239.03 391.4,-245.98"/>
</a>
</g>
</g>
<!-- Node4 -->
<g id="Node000004" class="node">
<title>Node4</title>
<g id="a_Node000004"><a xlink:href="../../d1/d2e/_callback_event_listener_8h.html" target="_top" xlink:title=" ">
<polygon fill="white" stroke="#666666" points="185,-195 0,-195 0,-154 185,-154 185,-195"/>
<text text-anchor="start" x="8" y="-183" font-family="Helvetica,sans-Serif" font-size="10.00">/home/runner/work/uniot</text>
<text text-anchor="start" x="8" y="-172" font-family="Helvetica,sans-Serif" font-size="10.00">&#45;core/uniot&#45;core/lib/Core</text>
<text text-anchor="middle" x="92.5" y="-161" font-family="Helvetica,sans-Serif" font-size="10.00">/EventBus/CallbackEventListener.h</text>
</a>
</g>
</g>
<!-- Node1&#45;&gt;Node4 -->
<g id="edge3_Node000001_Node000004" class="edge">
<title>Node1&#45;&gt;Node4</title>
<g id="a_edge3_Node000001_Node000004"><a xlink:title=" ">
<path fill="none" stroke="#63b8ff" d="M391.91,-234.44C331.22,-222.49 248.31,-206.17 185.12,-193.73"/>
<polygon fill="#63b8ff" stroke="#63b8ff" points="391.35,-237.9 401.84,-236.39 392.7,-231.03 391.35,-237.9"/>
</a>
</g>
</g>
<!-- Node6 -->
<g id="Node000006" class="node">
<title>Node6</title>
<g id="a_Node000006"><a xlink:href="../../de/d06/_event_bus_8cpp.html" target="_top" xlink:title=" ">
<polygon fill="white" stroke="#666666" points="378,-195 241,-195 241,-154 378,-154 378,-195"/>
<text text-anchor="start" x="249" y="-183" font-family="Helvetica,sans-Serif" font-size="10.00">/home/runner/work/uniot</text>
<text text-anchor="start" x="249" y="-172" font-family="Helvetica,sans-Serif" font-size="10.00">&#45;core/uniot&#45;core/lib/Core</text>
<text text-anchor="middle" x="309.5" y="-161" font-family="Helvetica,sans-Serif" font-size="10.00">/EventBus/EventBus.cpp</text>
</a>
</g>
</g>
<!-- Node1&#45;&gt;Node6 -->
<g id="edge6_Node000001_Node000006" class="edge">
<title>Node1&#45;&gt;Node6</title>
<g id="a_edge6_Node000001_Node000006"><a xlink:title=" ">
<path fill="none" stroke="#63b8ff" d="M421.51,-226.72C399.18,-216.51 373.42,-204.73 352.23,-195.04"/>
<polygon fill="#63b8ff" stroke="#63b8ff" points="420.29,-230.01 430.84,-230.99 423.2,-223.65 420.29,-230.01"/>
</a>
</g>
</g>
<!-- Node7 -->
<g id="Node000007" class="node">
<title>Node7</title>
<g id="a_Node000007"><a xlink:href="../../d0/def/_event_listener_8cpp.html" target="_top" xlink:title=" ">
<polygon fill="white" stroke="#666666" points="551,-195 396,-195 396,-154 551,-154 551,-195"/>
<text text-anchor="start" x="404" y="-183" font-family="Helvetica,sans-Serif" font-size="10.00">/home/runner/work/uniot</text>
<text text-anchor="start" x="404" y="-172" font-family="Helvetica,sans-Serif" font-size="10.00">&#45;core/uniot&#45;core/lib/Core</text>
<text text-anchor="middle" x="473.5" y="-161" font-family="Helvetica,sans-Serif" font-size="10.00">/EventBus/EventListener.cpp</text>
</a>
</g>
</g>
<!-- Node1&#45;&gt;Node7 -->
<g id="edge7_Node000001_Node000007" class="edge">
<title>Node1&#45;&gt;Node7</title>
<g id="a_edge7_Node000001_Node000007"><a xlink:title=" ">
<path fill="none" stroke="#63b8ff" d="M473.5,-220.69C473.5,-212.08 473.5,-202.9 473.5,-195.07"/>
<polygon fill="#63b8ff" stroke="#63b8ff" points="470,-220.79 473.5,-230.79 477,-220.79 470,-220.79"/>
</a>
</g>
</g>
<!-- Node8 -->
<g id="Node000008" class="node">
<title>Node8</title>
<g id="a_Node000008"><a xlink:href="../../dc/d47/un_lisp_8h.html" target="_top" xlink:title=" ">
<polygon fill="white" stroke="#666666" points="706,-195 569,-195 569,-154 706,-154 706,-195"/>
<text text-anchor="start" x="577" y="-183" font-family="Helvetica,sans-Serif" font-size="10.00">/home/runner/work/uniot</text>
<text text-anchor="start" x="577" y="-172" font-family="Helvetica,sans-Serif" font-size="10.00">&#45;core/uniot&#45;core/lib/Core</text>
<text text-anchor="middle" x="637.5" y="-161" font-family="Helvetica,sans-Serif" font-size="10.00">/LispWrapper/unLisp.h</text>
</a>
</g>
</g>
<!-- Node1&#45;&gt;Node8 -->
<g id="edge8_Node000001_Node000008" class="edge">
<title>Node1&#45;&gt;Node8</title>
<g id="a_edge8_Node000001_Node000008"><a xlink:title=" ">
<path fill="none" stroke="#63b8ff" d="M525.49,-226.72C547.82,-216.51 573.58,-204.73 594.77,-195.04"/>
<polygon fill="#63b8ff" stroke="#63b8ff" points="523.8,-223.65 516.16,-230.99 526.71,-230.01 523.8,-223.65"/>
</a>
</g>
</g>
<!-- Node9 -->
<g id="Node000009" class="node">
<title>Node9</title>
<g id="a_Node000009"><a xlink:href="../../dc/d26/_m_q_t_t_kit_8h.html" target="_top" xlink:title=" ">
<polygon fill="white" stroke="#666666" points="867,-195 724,-195 724,-154 867,-154 867,-195"/>
<text text-anchor="start" x="732" y="-183" font-family="Helvetica,sans-Serif" font-size="10.00">/home/runner/work/uniot</text>
<text text-anchor="start" x="732" y="-172" font-family="Helvetica,sans-Serif" font-size="10.00">&#45;core/uniot&#45;core/lib/Core</text>
<text text-anchor="middle" x="795.5" y="-161" font-family="Helvetica,sans-Serif" font-size="10.00">/MQTTWrapper/MQTTKit.h</text>
</a>
</g>
</g>
<!-- Node1&#45;&gt;Node9 -->
<g id="edge11_Node000001_Node000009" class="edge">
<title>Node1&#45;&gt;Node9</title>
<g id="a_edge11_Node000001_Node000009"><a xlink:title=" ">
<path fill="none" stroke="#63b8ff" d="M554.85,-232.13C601.84,-221.45 662.04,-207.64 715.5,-195 718.28,-194.34 721.12,-193.67 723.98,-192.98"/>
<polygon fill="#63b8ff" stroke="#63b8ff" points="554.01,-228.74 545.04,-234.36 555.56,-235.56 554.01,-228.74"/>
</a>
</g>
</g>
<!-- Node11 -->
<g id="Node000011" class="node">
<title>Node11</title>
<g id="a_Node000011"><a xlink:href="../../d9/d89/_network_controller_8h.html" target="_top" xlink:title=" ">
<polygon fill="white" stroke="#666666" points="985,-118 824,-118 824,-77 985,-77 985,-118"/>
<text text-anchor="start" x="832" y="-106" font-family="Helvetica,sans-Serif" font-size="10.00">/home/runner/work/uniot</text>
<text text-anchor="start" x="832" y="-95" font-family="Helvetica,sans-Serif" font-size="10.00">&#45;core/uniot&#45;core/lib/Core</text>
<text text-anchor="middle" x="904.5" y="-84" font-family="Helvetica,sans-Serif" font-size="10.00">/Network/NetworkController.h</text>
</a>
</g>
</g>
<!-- Node1&#45;&gt;Node11 -->
<g id="edge14_Node000001_Node000011" class="edge">
<title>Node1&#45;&gt;Node11</title>
<g id="a_edge14_Node000001_Node000011"><a xlink:title=" ">
<path fill="none" stroke="#63b8ff" d="M555.53,-249.47C659.21,-246.46 829.83,-235.33 876.5,-195 898.67,-175.84 903.8,-140.27 904.71,-118.08"/>
<polygon fill="#63b8ff" stroke="#63b8ff" points="555.3,-245.97 545.4,-249.74 555.49,-252.97 555.3,-245.97"/>
</a>
</g>
</g>
<!-- Node3 -->
<g id="Node000003" class="node">
<title>Node3</title>
<g id="a_Node000003"><a xlink:href="../../dc/d7b/_app_kit_8h.html" target="_top" xlink:title=" ">
<polygon fill="white" stroke="#666666" points="635.5,-41 491.5,-41 491.5,0 635.5,0 635.5,-41"/>
<text text-anchor="start" x="499.5" y="-29" font-family="Helvetica,sans-Serif" font-size="10.00">/home/runner/work/uniot</text>
<text text-anchor="start" x="499.5" y="-18" font-family="Helvetica,sans-Serif" font-size="10.00">&#45;core/uniot&#45;core/lib/AppKit</text>
<text text-anchor="middle" x="563.5" y="-7" font-family="Helvetica,sans-Serif" font-size="10.00">/AppKit.h</text>
</a>
</g>
</g>
<!-- Node2&#45;&gt;Node3 -->
<g id="edge2_Node000002_Node000003" class="edge">
<title>Node2&#45;&gt;Node3</title>
<g id="a_edge2_Node000002_Node000003"><a xlink:title=" ">
<path fill="none" stroke="#63b8ff" d="M497.75,-70.82C510.68,-61.11 525.18,-50.24 537.27,-41.17"/>
<polygon fill="#63b8ff" stroke="#63b8ff" points="495.41,-68.19 489.51,-76.99 499.61,-73.79 495.41,-68.19"/>
</a>
</g>
</g>
<!-- Node4&#45;&gt;Node3 -->
<g id="edge4_Node000004_Node000003" class="edge">
<title>Node4&#45;&gt;Node3</title>
<g id="a_edge4_Node000004_Node000003"><a xlink:title=" ">
<path fill="none" stroke="#63b8ff" d="M89.89,-143.65C89.76,-122 93.56,-93.69 111.5,-77 138.78,-51.62 370.95,-33.53 491.49,-25.75"/>
<polygon fill="#63b8ff" stroke="#63b8ff" points="86.39,-143.78 90.22,-153.66 93.39,-143.55 86.39,-143.78"/>
</a>
</g>
</g>
<!-- Node5 -->
<g id="Node000005" class="node">
<title>Node5</title>
<g id="a_Node000005"><a xlink:href="../../dd/db0/_callback_event_listener_8cpp.html" target="_top" xlink:title=" ">
<polygon fill="white" stroke="#666666" points="318,-118 121,-118 121,-77 318,-77 318,-118"/>
<text text-anchor="start" x="129" y="-106" font-family="Helvetica,sans-Serif" font-size="10.00">/home/runner/work/uniot</text>
<text text-anchor="start" x="129" y="-95" font-family="Helvetica,sans-Serif" font-size="10.00">&#45;core/uniot&#45;core/lib/Core</text>
<text text-anchor="middle" x="219.5" y="-84" font-family="Helvetica,sans-Serif" font-size="10.00">/EventBus/CallbackEventListener.cpp</text>
</a>
</g>
</g>
<!-- Node4&#45;&gt;Node5 -->
<g id="edge5_Node000004_Node000005" class="edge">
<title>Node4&#45;&gt;Node5</title>
<g id="a_edge5_Node000004_Node000005"><a xlink:title=" ">
<path fill="none" stroke="#63b8ff" d="M134.59,-148.64C151.36,-138.74 170.4,-127.5 186.19,-118.17"/>
<polygon fill="#63b8ff" stroke="#63b8ff" points="132.37,-145.89 125.54,-153.99 135.93,-151.92 132.37,-145.89"/>
</a>
</g>
</g>
<!-- Node8&#45;&gt;Node2 -->
<g id="edge10_Node000008_Node000002" class="edge">
<title>Node8&#45;&gt;Node2</title>
<g id="a_edge10_Node000008_Node000002"><a xlink:title=" ">
<path fill="none" stroke="#63b8ff" d="M582.97,-150C559.14,-139.72 531.52,-127.82 508.84,-118.04"/>
<polygon fill="#63b8ff" stroke="#63b8ff" points="581.67,-153.25 592.24,-153.99 584.44,-146.82 581.67,-153.25"/>
</a>
</g>
</g>
<!-- Node8&#45;&gt;Node3 -->
<g id="edge9_Node000008_Node000003" class="edge">
<title>Node8&#45;&gt;Node3</title>
<g id="a_edge9_Node000008_Node000003"><a xlink:title=" ">
<path fill="none" stroke="#63b8ff" d="M605.69,-146.94C597.34,-138.48 589.11,-128.56 583.5,-118 570.5,-93.52 565.95,-61.38 564.35,-41.08"/>
<polygon fill="#63b8ff" stroke="#63b8ff" points="603.36,-149.56 613,-153.96 608.22,-144.51 603.36,-149.56"/>
</a>
</g>
</g>
<!-- Node9&#45;&gt;Node3 -->
<g id="edge12_Node000009_Node000003" class="edge">
<title>Node9&#45;&gt;Node3</title>
<g id="a_edge12_Node000009_Node000003"><a xlink:title=" ">
<path fill="none" stroke="#63b8ff" d="M797.44,-143.64C797.15,-122.42 793.12,-94.66 776.5,-77 757.22,-56.51 689.65,-41.23 635.72,-31.95"/>
<polygon fill="#63b8ff" stroke="#63b8ff" points="793.94,-143.71 797.31,-153.76 800.94,-143.8 793.94,-143.71"/>
</a>
</g>
</g>
<!-- Node10 -->
<g id="Node000010" class="node">
<title>Node10</title>
<g id="a_Node000010"><a xlink:href="../../da/d02/_m_q_t_t_device_8cpp.html" target="_top" xlink:title=" ">
<polygon fill="white" stroke="#666666" points="767,-118 592,-118 592,-77 767,-77 767,-118"/>
<text text-anchor="start" x="600" y="-106" font-family="Helvetica,sans-Serif" font-size="10.00">/home/runner/work/uniot</text>
<text text-anchor="start" x="600" y="-95" font-family="Helvetica,sans-Serif" font-size="10.00">&#45;core/uniot&#45;core/lib/Core</text>
<text text-anchor="middle" x="679.5" y="-84" font-family="Helvetica,sans-Serif" font-size="10.00">/MQTTWrapper/MQTTDevice.cpp</text>
</a>
</g>
</g>
<!-- Node9&#45;&gt;Node10 -->
<g id="edge13_Node000009_Node000010" class="edge">
<title>Node9&#45;&gt;Node10</title>
<g id="a_edge13_Node000009_Node000010"><a xlink:title=" ">
<path fill="none" stroke="#63b8ff" d="M756.63,-148.37C741.41,-138.53 724.21,-127.41 709.93,-118.17"/>
<polygon fill="#63b8ff" stroke="#63b8ff" points="755.03,-151.5 765.33,-153.99 758.83,-145.62 755.03,-151.5"/>
</a>
</g>
</g>
<!-- Node11&#45;&gt;Node3 -->
<g id="edge15_Node000011_Node000003" class="edge">
<title>Node11&#45;&gt;Node3</title>
<g id="a_edge15_Node000011_Node000003"><a xlink:title=" ">
<path fill="none" stroke="#63b8ff" d="M813.81,-76.55C758.04,-64.29 687.57,-48.79 635.62,-37.36"/>
<polygon fill="#63b8ff" stroke="#63b8ff" points="813.17,-80 823.69,-78.73 814.67,-73.16 813.17,-80"/>
</a>
</g>
</g>
</g>
</svg>
