<?xml version="1.0" encoding="UTF-8" standalone="no"?>
<!DOCTYPE svg PUBLIC "-//W3C//DTD SVG 1.1//EN"
 "http://www.w3.org/Graphics/SVG/1.1/DTD/svg11.dtd">
<!-- Generated by graphviz version 2.43.0 (0)
 -->
<!-- Title: /home/runner/work/uniot&#45;core/uniot&#45;core/lib/Core/Hardware/Button.h Pages: 1 -->
<svg width="332pt" height="203pt"
 viewBox="0.00 0.00 331.50 203.00" xmlns="http://www.w3.org/2000/svg" xmlns:xlink="http://www.w3.org/1999/xlink">
<g id="graph0" class="graph" transform="scale(1 1) rotate(0) translate(4 199)">
<title>/home/runner/work/uniot&#45;core/uniot&#45;core/lib/Core/Hardware/Button.h</title>
<!-- Node1 -->
<g id="Node000001" class="node">
<title>Node1</title>
<g id="a_Node000001"><a xlink:title=" ">
<polygon fill="#999999" stroke="#666666" points="225.5,-195 88.5,-195 88.5,-154 225.5,-154 225.5,-195"/>
<text text-anchor="start" x="96.5" y="-183" font-family="Helvetica,sans-Serif" font-size="10.00">/home/runner/work/uniot</text>
<text text-anchor="start" x="96.5" y="-172" font-family="Helvetica,sans-Serif" font-size="10.00">&#45;core/uniot&#45;core/lib/Core</text>
<text text-anchor="middle" x="157" y="-161" font-family="Helvetica,sans-Serif" font-size="10.00">/Hardware/Button.h</text>
</a>
</g>
</g>
<!-- Node2 -->
<g id="Node000002" class="node">
<title>Node2</title>
<g id="a_Node000002"><a xlink:href="_lisp_primitives_8h.html" target="_top" xlink:title=" ">
<polygon fill="white" stroke="#666666" points="144,-118 0,-118 0,-77 144,-77 144,-118"/>
<text text-anchor="start" x="8" y="-106" font-family="Helvetica,sans-Serif" font-size="10.00">/home/runner/work/uniot</text>
<text text-anchor="start" x="8" y="-95" font-family="Helvetica,sans-Serif" font-size="10.00">&#45;core/uniot&#45;core/lib/AppKit</text>
<text text-anchor="middle" x="72" y="-84" font-family="Helvetica,sans-Serif" font-size="10.00">/LispPrimitives.h</text>
</a>
</g>
</g>
<!-- Node1&#45;&gt;Node2 -->
<g id="edge1_Node000001_Node000002" class="edge">
<title>Node1&#45;&gt;Node2</title>
<g id="a_edge1_Node000001_Node000002"><a xlink:title=" ">
<path fill="none" stroke="#63b8ff" d="M127.05,-147.07C116.23,-137.52 104.22,-126.93 94.18,-118.07"/>
<polygon fill="#63b8ff" stroke="#63b8ff" points="124.85,-149.8 134.67,-153.79 129.48,-144.55 124.85,-149.8"/>
</a>
</g>
</g>
<!-- Node4 -->
<g id="Node000004" class="node">
<title>Node4</title>
<g id="a_Node000004"><a xlink:href="_network_controller_8h.html" target="_top" xlink:title=" ">
<polygon fill="white" stroke="#666666" points="323.5,-118 162.5,-118 162.5,-77 323.5,-77 323.5,-118"/>
<text text-anchor="start" x="170.5" y="-106" font-family="Helvetica,sans-Serif" font-size="10.00">/home/runner/work/uniot</text>
<text text-anchor="start" x="170.5" y="-95" font-family="Helvetica,sans-Serif" font-size="10.00">&#45;core/uniot&#45;core/lib/Core</text>
<text text-anchor="middle" x="243" y="-84" font-family="Helvetica,sans-Serif" font-size="10.00">/Network/NetworkController.h</text>
</a>
</g>
</g>
<!-- Node1&#45;&gt;Node4 -->
<g id="edge3_Node000001_Node000004" class="edge">
<title>Node1&#45;&gt;Node4</title>
<g id="a_edge3_Node000001_Node000004"><a xlink:title=" ">
<path fill="none" stroke="#63b8ff" d="M187.31,-147.07C198.25,-137.52 210.4,-126.93 220.56,-118.07"/>
<polygon fill="#63b8ff" stroke="#63b8ff" points="184.83,-144.58 179.6,-153.79 189.43,-149.86 184.83,-144.58"/>
</a>
</g>
</g>
<!-- Node3 -->
<g id="Node000003" class="node">
<title>Node3</title>
<g id="a_Node000003"><a xlink:href="_app_kit_8h.html" target="_top" xlink:title=" ">
<polygon fill="white" stroke="#666666" points="229,-41 85,-41 85,0 229,0 229,-41"/>
<text text-anchor="start" x="93" y="-29" font-family="Helvetica,sans-Serif" font-size="10.00">/home/runner/work/uniot</text>
<text text-anchor="start" x="93" y="-18" font-family="Helvetica,sans-Serif" font-size="10.00">&#45;core/uniot&#45;core/lib/AppKit</text>
<text text-anchor="middle" x="157" y="-7" font-family="Helvetica,sans-Serif" font-size="10.00">/AppKit.h</text>
</a>
</g>
</g>
<!-- Node2&#45;&gt;Node3 -->
<g id="edge2_Node000002_Node000003" class="edge">
<title>Node2&#45;&gt;Node3</title>
<g id="a_edge2_Node000002_Node000003"><a xlink:title=" ">
<path fill="none" stroke="#63b8ff" d="M101.95,-70.07C112.77,-60.52 124.78,-49.93 134.82,-41.07"/>
<polygon fill="#63b8ff" stroke="#63b8ff" points="99.52,-67.55 94.33,-76.79 104.15,-72.8 99.52,-67.55"/>
</a>
</g>
</g>
<!-- Node4&#45;&gt;Node3 -->
<g id="edge4_Node000004_Node000003" class="edge">
<title>Node4&#45;&gt;Node3</title>
<g id="a_edge4_Node000004_Node000003"><a xlink:title=" ">
<path fill="none" stroke="#63b8ff" d="M212.69,-70.07C201.75,-60.52 189.6,-49.93 179.44,-41.07"/>
<polygon fill="#63b8ff" stroke="#63b8ff" points="210.57,-72.86 220.4,-76.79 215.17,-67.58 210.57,-72.86"/>
</a>
</g>
</g>
</g>
</svg>
