<?xml version="1.0" encoding="UTF-8" standalone="no"?>
<!DOCTYPE svg PUBLIC "-//W3C//DTD SVG 1.1//EN"
 "http://www.w3.org/Graphics/SVG/1.1/DTD/svg11.dtd">
<!-- Generated by graphviz version 2.43.0 (0)
 -->
<!-- Title: /home/runner/work/uniot&#45;core/uniot&#45;core/lib/Core/MQTTWrapper/CallbackMQTTDevice.h Pages: 1 -->
<svg width="508pt" height="269pt"
 viewBox="0.00 0.00 508.47 269.00" xmlns="http://www.w3.org/2000/svg" xmlns:xlink="http://www.w3.org/1999/xlink">
<g id="graph0" class="graph" transform="scale(1 1) rotate(0) translate(4 265)">
<title>/home/runner/work/uniot&#45;core/uniot&#45;core/lib/Core/MQTTWrapper/CallbackMQTTDevice.h</title>
<!-- Node1 -->
<g id="Node000001" class="node">
<title>Node1</title>
<g id="a_Node000001"><a xlink:title=" ">
<polygon fill="#999999" stroke="#666666" points="250.47,-261 44.47,-261 44.47,-220 250.47,-220 250.47,-261"/>
<text text-anchor="start" x="52.47" y="-249" font-family="Helvetica,sans-Serif" font-size="10.00">/home/runner/work/uniot</text>
<text text-anchor="start" x="52.47" y="-238" font-family="Helvetica,sans-Serif" font-size="10.00">&#45;core/uniot&#45;core/lib/Core</text>
<text text-anchor="middle" x="147.47" y="-227" font-family="Helvetica,sans-Serif" font-size="10.00">/MQTTWrapper/CallbackMQTTDevice.h</text>
</a>
</g>
</g>
<!-- Node2 -->
<g id="Node000002" class="node">
<title>Node2</title>
<g id="a_Node000002"><a xlink:title=" ">
<polygon fill="#e0e0e0" stroke="#999999" points="89.97,-19 24.97,-19 24.97,0 89.97,0 89.97,-19"/>
<text text-anchor="middle" x="57.47" y="-7" font-family="Helvetica,sans-Serif" font-size="10.00">functional</text>
</a>
</g>
</g>
<!-- Node1&#45;&gt;Node2 -->
<g id="edge1_Node000001_Node000002" class="edge">
<title>Node1&#45;&gt;Node2</title>
<g id="a_edge1_Node000001_Node000002"><a xlink:title=" ">
<path fill="none" stroke="#63b8ff" d="M116.77,-219.94C88.31,-200.27 46.82,-167.41 22.47,-129 4.45,-100.58 -7.46,-85.63 6.47,-55 12.09,-42.63 23.04,-32.36 33.35,-24.81"/>
<polygon fill="#63b8ff" stroke="#63b8ff" points="35.43,-27.63 41.74,-19.12 31.5,-21.84 35.43,-27.63"/>
</a>
</g>
</g>
<!-- Node3 -->
<g id="Node000003" class="node">
<title>Node3</title>
<g id="a_Node000003"><a xlink:href="_m_q_t_t_device_8h.html" target="_top" xlink:title=" ">
<polygon fill="white" stroke="#666666" points="191.47,-184 103.47,-184 103.47,-165 191.47,-165 191.47,-184"/>
<text text-anchor="middle" x="147.47" y="-172" font-family="Helvetica,sans-Serif" font-size="10.00">MQTTDevice.h</text>
</a>
</g>
</g>
<!-- Node1&#45;&gt;Node3 -->
<g id="edge2_Node000001_Node000003" class="edge">
<title>Node1&#45;&gt;Node3</title>
<g id="a_edge2_Node000001_Node000003"><a xlink:title=" ">
<path fill="none" stroke="#63b8ff" d="M147.47,-219.95C147.47,-211.85 147.47,-202.5 147.47,-194.47"/>
<polygon fill="#63b8ff" stroke="#63b8ff" points="150.97,-194.26 147.47,-184.26 143.97,-194.26 150.97,-194.26"/>
</a>
</g>
</g>
<!-- Node8 -->
<g id="Node000008" class="node">
<title>Node8</title>
<g id="a_Node000008"><a xlink:href="_logger_8h.html" target="_top" xlink:title=" ">
<polygon fill="white" stroke="#666666" points="383.47,-74 325.47,-74 325.47,-55 383.47,-55 383.47,-74"/>
<text text-anchor="middle" x="354.47" y="-62" font-family="Helvetica,sans-Serif" font-size="10.00">Logger.h</text>
</a>
</g>
</g>
<!-- Node1&#45;&gt;Node8 -->
<g id="edge16_Node000001_Node000008" class="edge">
<title>Node1&#45;&gt;Node8</title>
<g id="a_edge16_Node000001_Node000008"><a xlink:title=" ">
<path fill="none" stroke="#63b8ff" d="M170.81,-219.88C212.32,-184.99 298.13,-112.86 335.92,-81.09"/>
<polygon fill="#63b8ff" stroke="#63b8ff" points="338.63,-83.39 344.03,-74.27 334.12,-78.03 338.63,-83.39"/>
</a>
</g>
</g>
<!-- Node4 -->
<g id="Node000004" class="node">
<title>Node4</title>
<g id="a_Node000004"><a xlink:href="_bytes_8h.html" target="_top" xlink:title=" ">
<polygon fill="white" stroke="#666666" points="241.97,-129 188.97,-129 188.97,-110 241.97,-110 241.97,-129"/>
<text text-anchor="middle" x="215.47" y="-117" font-family="Helvetica,sans-Serif" font-size="10.00">Bytes.h</text>
</a>
</g>
</g>
<!-- Node3&#45;&gt;Node4 -->
<g id="edge3_Node000003_Node000004" class="edge">
<title>Node3&#45;&gt;Node4</title>
<g id="a_edge3_Node000003_Node000004"><a xlink:title=" ">
<path fill="none" stroke="#63b8ff" d="M158.39,-164.98C168.54,-157.07 183.89,-145.11 196.11,-135.58"/>
<polygon fill="#63b8ff" stroke="#63b8ff" points="198.61,-138.08 204.34,-129.17 194.31,-132.56 198.61,-138.08"/>
</a>
</g>
</g>
<!-- Node12 -->
<g id="Node000012" class="node">
<title>Node12</title>
<g id="a_Node000012"><a xlink:href="_iterable_queue_8h.html" target="_top" xlink:title=" ">
<polygon fill="white" stroke="#666666" points="126.97,-129 31.97,-129 31.97,-110 126.97,-110 126.97,-129"/>
<text text-anchor="middle" x="79.47" y="-117" font-family="Helvetica,sans-Serif" font-size="10.00">IterableQueue.h</text>
</a>
</g>
</g>
<!-- Node3&#45;&gt;Node12 -->
<g id="edge12_Node000003_Node000012" class="edge">
<title>Node3&#45;&gt;Node12</title>
<g id="a_edge12_Node000003_Node000012"><a xlink:title=" ">
<path fill="none" stroke="#63b8ff" d="M136.54,-164.98C126.39,-157.07 111.05,-145.11 98.82,-135.58"/>
<polygon fill="#63b8ff" stroke="#63b8ff" points="100.63,-132.56 90.59,-129.17 96.33,-138.08 100.63,-132.56"/>
</a>
</g>
</g>
<!-- Node4&#45;&gt;Node2 -->
<g id="edge10_Node000004_Node000002" class="edge">
<title>Node4&#45;&gt;Node2</title>
<g id="a_edge10_Node000004_Node000002"><a xlink:title=" ">
<path fill="none" stroke="#63b8ff" d="M201.86,-109.99C187.85,-101.17 165.46,-86.89 146.47,-74 122.53,-57.75 95.54,-38.34 77.63,-25.29"/>
<polygon fill="#63b8ff" stroke="#63b8ff" points="79.29,-22.17 69.15,-19.1 75.16,-27.83 79.29,-22.17"/>
</a>
</g>
</g>
<!-- Node5 -->
<g id="Node000005" class="node">
<title>Node5</title>
<g id="a_Node000005"><a xlink:href="_common_8h.html" target="_top" xlink:title=" ">
<polygon fill="white" stroke="#666666" points="471.47,-74 401.47,-74 401.47,-55 471.47,-55 471.47,-74"/>
<text text-anchor="middle" x="436.47" y="-62" font-family="Helvetica,sans-Serif" font-size="10.00">Common.h</text>
</a>
</g>
</g>
<!-- Node4&#45;&gt;Node5 -->
<g id="edge4_Node000004_Node000005" class="edge">
<title>Node4&#45;&gt;Node5</title>
<g id="a_edge4_Node000004_Node000005"><a xlink:title=" ">
<path fill="none" stroke="#63b8ff" d="M242.13,-112.11C279.16,-103.23 346.68,-87.03 391.57,-76.27"/>
<polygon fill="#63b8ff" stroke="#63b8ff" points="392.43,-79.66 401.34,-73.92 390.8,-72.85 392.43,-79.66"/>
</a>
</g>
</g>
<!-- Node4&#45;&gt;Node8 -->
<g id="edge7_Node000004_Node000008" class="edge">
<title>Node4&#45;&gt;Node8</title>
<g id="a_edge7_Node000004_Node000008"><a xlink:title=" ">
<path fill="none" stroke="#63b8ff" d="M237.8,-109.98C260.67,-101.27 296.43,-87.63 322.33,-77.75"/>
<polygon fill="#63b8ff" stroke="#63b8ff" points="323.63,-81 331.73,-74.17 321.14,-74.46 323.63,-81"/>
</a>
</g>
</g>
<!-- Node10 -->
<g id="Node000010" class="node">
<title>Node10</title>
<g id="a_Node000010"><a xlink:title=" ">
<polygon fill="#e0e0e0" stroke="#999999" points="219.47,-74 155.47,-74 155.47,-55 219.47,-55 219.47,-74"/>
<text text-anchor="middle" x="187.47" y="-62" font-family="Helvetica,sans-Serif" font-size="10.00">WString.h</text>
</a>
</g>
</g>
<!-- Node4&#45;&gt;Node10 -->
<g id="edge9_Node000004_Node000010" class="edge">
<title>Node4&#45;&gt;Node10</title>
<g id="a_edge9_Node000004_Node000010"><a xlink:title=" ">
<path fill="none" stroke="#63b8ff" d="M210.84,-109.75C207.01,-102.49 201.44,-91.95 196.7,-82.98"/>
<polygon fill="#63b8ff" stroke="#63b8ff" points="199.77,-81.3 192.01,-74.09 193.58,-84.57 199.77,-81.3"/>
</a>
</g>
</g>
<!-- Node11 -->
<g id="Node000011" class="node">
<title>Node11</title>
<g id="a_Node000011"><a xlink:title=" ">
<polygon fill="#e0e0e0" stroke="#999999" points="306.97,-74 237.97,-74 237.97,-55 306.97,-55 306.97,-74"/>
<text text-anchor="middle" x="272.47" y="-62" font-family="Helvetica,sans-Serif" font-size="10.00">type_traits</text>
</a>
</g>
</g>
<!-- Node4&#45;&gt;Node11 -->
<g id="edge11_Node000004_Node000011" class="edge">
<title>Node4&#45;&gt;Node11</title>
<g id="a_edge11_Node000004_Node000011"><a xlink:title=" ">
<path fill="none" stroke="#63b8ff" d="M224.63,-109.98C232.97,-102.23 245.5,-90.58 255.65,-81.14"/>
<polygon fill="#63b8ff" stroke="#63b8ff" points="258.2,-83.54 263.14,-74.17 253.44,-78.42 258.2,-83.54"/>
</a>
</g>
</g>
<!-- Node6 -->
<g id="Node000006" class="node">
<title>Node6</title>
<g id="a_Node000006"><a xlink:title=" ">
<polygon fill="#e0e0e0" stroke="#999999" points="500.47,-19 442.47,-19 442.47,0 500.47,0 500.47,-19"/>
<text text-anchor="middle" x="471.47" y="-7" font-family="Helvetica,sans-Serif" font-size="10.00">memory</text>
</a>
</g>
</g>
<!-- Node5&#45;&gt;Node6 -->
<g id="edge5_Node000005_Node000006" class="edge">
<title>Node5&#45;&gt;Node6</title>
<g id="a_edge5_Node000005_Node000006"><a xlink:title=" ">
<path fill="none" stroke="#63b8ff" d="M442.25,-54.75C447.09,-47.42 454.15,-36.73 460.11,-27.7"/>
<polygon fill="#63b8ff" stroke="#63b8ff" points="463.21,-29.36 465.8,-19.09 457.37,-25.5 463.21,-29.36"/>
</a>
</g>
</g>
<!-- Node7 -->
<g id="Node000007" class="node">
<title>Node7</title>
<g id="a_Node000007"><a xlink:title=" ">
<polygon fill="#e0e0e0" stroke="#999999" points="423.97,-19 378.97,-19 378.97,0 423.97,0 423.97,-19"/>
<text text-anchor="middle" x="401.47" y="-7" font-family="Helvetica,sans-Serif" font-size="10.00">utility</text>
</a>
</g>
</g>
<!-- Node5&#45;&gt;Node7 -->
<g id="edge6_Node000005_Node000007" class="edge">
<title>Node5&#45;&gt;Node7</title>
<g id="a_edge6_Node000005_Node000007"><a xlink:title=" ">
<path fill="none" stroke="#63b8ff" d="M430.69,-54.75C425.85,-47.42 418.79,-36.73 412.82,-27.7"/>
<polygon fill="#63b8ff" stroke="#63b8ff" points="415.57,-25.5 407.14,-19.09 409.73,-29.36 415.57,-25.5"/>
</a>
</g>
</g>
<!-- Node9 -->
<g id="Node000009" class="node">
<title>Node9</title>
<g id="a_Node000009"><a xlink:title=" ">
<polygon fill="#e0e0e0" stroke="#999999" points="283.97,-19 220.97,-19 220.97,0 283.97,0 283.97,-19"/>
<text text-anchor="middle" x="252.47" y="-7" font-family="Helvetica,sans-Serif" font-size="10.00">Arduino.h</text>
</a>
</g>
</g>
<!-- Node8&#45;&gt;Node9 -->
<g id="edge8_Node000008_Node000009" class="edge">
<title>Node8&#45;&gt;Node9</title>
<g id="a_edge8_Node000008_Node000009"><a xlink:title=" ">
<path fill="none" stroke="#63b8ff" d="M338.08,-54.98C321.89,-46.57 296.9,-33.59 278.09,-23.81"/>
<polygon fill="#63b8ff" stroke="#63b8ff" points="279.64,-20.68 269.15,-19.17 276.41,-26.89 279.64,-20.68"/>
</a>
</g>
</g>
<!-- Node13 -->
<g id="Node000013" class="node">
<title>Node13</title>
<g id="a_Node000013"><a xlink:href="_clear_queue_8h.html" target="_top" xlink:title=" ">
<polygon fill="white" stroke="#666666" points="98.97,-74 15.97,-74 15.97,-55 98.97,-55 98.97,-74"/>
<text text-anchor="middle" x="57.47" y="-62" font-family="Helvetica,sans-Serif" font-size="10.00">ClearQueue.h</text>
</a>
</g>
</g>
<!-- Node12&#45;&gt;Node13 -->
<g id="edge13_Node000012_Node000013" class="edge">
<title>Node12&#45;&gt;Node13</title>
<g id="a_edge13_Node000012_Node000013"><a xlink:title=" ">
<path fill="none" stroke="#63b8ff" d="M75.84,-109.75C72.89,-102.65 68.64,-92.4 64.96,-83.56"/>
<polygon fill="#63b8ff" stroke="#63b8ff" points="68.1,-81.98 61.03,-74.09 61.64,-84.67 68.1,-81.98"/>
</a>
</g>
</g>
<!-- Node13&#45;&gt;Node2 -->
<g id="edge15_Node000013_Node000002" class="edge">
<title>Node13&#45;&gt;Node2</title>
<g id="a_edge15_Node000013_Node000002"><a xlink:title=" ">
<path fill="none" stroke="#63b8ff" d="M57.47,-54.75C57.47,-47.8 57.47,-37.85 57.47,-29.13"/>
<polygon fill="#63b8ff" stroke="#63b8ff" points="60.97,-29.09 57.47,-19.09 53.97,-29.09 60.97,-29.09"/>
</a>
</g>
</g>
<!-- Node13&#45;&gt;Node9 -->
<g id="edge14_Node000013_Node000009" class="edge">
<title>Node13&#45;&gt;Node9</title>
<g id="a_edge14_Node000013_Node000009"><a xlink:title=" ">
<path fill="none" stroke="#63b8ff" d="M88.8,-54.98C121.96,-45.97 174.46,-31.7 211.03,-21.76"/>
<polygon fill="#63b8ff" stroke="#63b8ff" points="212.16,-25.08 220.89,-19.08 210.32,-18.33 212.16,-25.08"/>
</a>
</g>
</g>
</g>
</svg>
