<?xml version="1.0" encoding="UTF-8" standalone="no"?>
<!DOCTYPE svg PUBLIC "-//W3C//DTD SVG 1.1//EN"
 "http://www.w3.org/Graphics/SVG/1.1/DTD/svg11.dtd">
<!-- Generated by graphviz version 2.43.0 (0)
 -->
<!-- Title: /home/runner/work/uniot&#45;core/uniot&#45;core/lib/Core/EventBus/EventEntity.cpp Pages: 1 -->
<svg width="908pt" height="379pt"
 viewBox="0.00 0.00 908.10 379.00" xmlns="http://www.w3.org/2000/svg" xmlns:xlink="http://www.w3.org/1999/xlink">
<g id="graph0" class="graph" transform="scale(1 1) rotate(0) translate(4 375)">
<title>/home/runner/work/uniot&#45;core/uniot&#45;core/lib/Core/EventBus/EventEntity.cpp</title>
<!-- Node1 -->
<g id="Node000001" class="node">
<title>Node1</title>
<g id="a_Node000001"><a xlink:title=" ">
<polygon fill="#999999" stroke="#666666" points="143,-371 0,-371 0,-330 143,-330 143,-371"/>
<text text-anchor="start" x="8" y="-359" font-family="Helvetica,sans-Serif" font-size="10.00">/home/runner/work/uniot</text>
<text text-anchor="start" x="8" y="-348" font-family="Helvetica,sans-Serif" font-size="10.00">&#45;core/uniot&#45;core/lib/Core</text>
<text text-anchor="middle" x="71.5" y="-337" font-family="Helvetica,sans-Serif" font-size="10.00">/EventBus/EventEntity.cpp</text>
</a>
</g>
</g>
<!-- Node2 -->
<g id="Node000002" class="node">
<title>Node2</title>
<g id="a_Node000002"><a xlink:href="_event_entity_8h.html" target="_top" xlink:title=" ">
<polygon fill="white" stroke="#666666" points="417.5,-184 337.5,-184 337.5,-165 417.5,-165 417.5,-184"/>
<text text-anchor="middle" x="377.5" y="-172" font-family="Helvetica,sans-Serif" font-size="10.00">EventEntity.h</text>
</a>
</g>
</g>
<!-- Node1&#45;&gt;Node2 -->
<g id="edge1_Node000001_Node000002" class="edge">
<title>Node1&#45;&gt;Node2</title>
<g id="a_edge1_Node000001_Node000002"><a xlink:title=" ">
<path fill="none" stroke="#63b8ff" d="M67.91,-329.71C64,-301.27 61.7,-249.04 90.5,-220 122.74,-187.5 253.62,-178.72 327,-176.36"/>
<polygon fill="#63b8ff" stroke="#63b8ff" points="327.5,-179.84 337.39,-176.05 327.29,-172.85 327.5,-179.84"/>
</a>
</g>
</g>
<!-- Node5 -->
<g id="Node000005" class="node">
<title>Node5</title>
<g id="a_Node000005"><a xlink:title=" ">
<polygon fill="#e0e0e0" stroke="#999999" points="486,-19 423,-19 423,0 486,0 486,-19"/>
<text text-anchor="middle" x="454.5" y="-7" font-family="Helvetica,sans-Serif" font-size="10.00">Arduino.h</text>
</a>
</g>
</g>
<!-- Node1&#45;&gt;Node5 -->
<g id="edge9_Node000001_Node000005" class="edge">
<title>Node1&#45;&gt;Node5</title>
<g id="a_edge9_Node000001_Node000005"><a xlink:title=" ">
<path fill="none" stroke="#63b8ff" d="M61.12,-329.9C49.87,-306.8 33.5,-266.93 33.5,-230.5 33.5,-230.5 33.5,-230.5 33.5,-118.5 33.5,-40.73 306.47,-18.18 412.8,-12.34"/>
<polygon fill="#63b8ff" stroke="#63b8ff" points="413.05,-15.84 422.86,-11.82 412.69,-8.85 413.05,-15.84"/>
</a>
</g>
</g>
<!-- Node9 -->
<g id="Node000009" class="node">
<title>Node9</title>
<g id="a_Node000009"><a xlink:href="_event_bus_8h.html" target="_top" xlink:title=" ">
<polygon fill="white" stroke="#666666" points="295,-294 224,-294 224,-275 295,-275 295,-294"/>
<text text-anchor="middle" x="259.5" y="-282" font-family="Helvetica,sans-Serif" font-size="10.00">EventBus.h</text>
</a>
</g>
</g>
<!-- Node1&#45;&gt;Node9 -->
<g id="edge10_Node000001_Node000009" class="edge">
<title>Node1&#45;&gt;Node9</title>
<g id="a_edge10_Node000001_Node000009"><a xlink:title=" ">
<path fill="none" stroke="#63b8ff" d="M128.93,-329.95C160.14,-319.32 197.73,-306.53 224.55,-297.4"/>
<polygon fill="#63b8ff" stroke="#63b8ff" points="225.92,-300.63 234.26,-294.09 223.67,-294 225.92,-300.63"/>
</a>
</g>
</g>
<!-- Node3 -->
<g id="Node000003" class="node">
<title>Node3</title>
<g id="a_Node000003"><a xlink:href="_iterable_queue_8h.html" target="_top" xlink:title=" ">
<polygon fill="white" stroke="#666666" points="547,-129 452,-129 452,-110 547,-110 547,-129"/>
<text text-anchor="middle" x="499.5" y="-117" font-family="Helvetica,sans-Serif" font-size="10.00">IterableQueue.h</text>
</a>
</g>
</g>
<!-- Node2&#45;&gt;Node3 -->
<g id="edge2_Node000002_Node000003" class="edge">
<title>Node2&#45;&gt;Node3</title>
<g id="a_edge2_Node000002_Node000003"><a xlink:title=" ">
<path fill="none" stroke="#63b8ff" d="M397.1,-164.98C416.82,-156.42 447.45,-143.11 470.08,-133.28"/>
<polygon fill="#63b8ff" stroke="#63b8ff" points="471.76,-136.37 479.54,-129.17 468.98,-129.94 471.76,-136.37"/>
</a>
</g>
</g>
<!-- Node7 -->
<g id="Node000007" class="node">
<title>Node7</title>
<g id="a_Node000007"><a xlink:href="_logger_8h.html" target="_top" xlink:title=" ">
<polygon fill="white" stroke="#666666" points="623.5,-129 565.5,-129 565.5,-110 623.5,-110 623.5,-129"/>
<text text-anchor="middle" x="594.5" y="-117" font-family="Helvetica,sans-Serif" font-size="10.00">Logger.h</text>
</a>
</g>
</g>
<!-- Node2&#45;&gt;Node7 -->
<g id="edge6_Node000002_Node000007" class="edge">
<title>Node2&#45;&gt;Node7</title>
<g id="a_edge6_Node000002_Node000007"><a xlink:title=" ">
<path fill="none" stroke="#63b8ff" d="M412.36,-164.98C451.46,-155.44 514.71,-139.99 555.45,-130.04"/>
<polygon fill="#63b8ff" stroke="#63b8ff" points="556.4,-133.41 565.29,-127.63 554.74,-126.61 556.4,-133.41"/>
</a>
</g>
</g>
<!-- Node8 -->
<g id="Node000008" class="node">
<title>Node8</title>
<g id="a_Node000008"><a xlink:href="_type_id_8h.html" target="_top" xlink:title=" ">
<polygon fill="white" stroke="#666666" points="395,-129 338,-129 338,-110 395,-110 395,-129"/>
<text text-anchor="middle" x="366.5" y="-117" font-family="Helvetica,sans-Serif" font-size="10.00">TypeId.h</text>
</a>
</g>
</g>
<!-- Node2&#45;&gt;Node8 -->
<g id="edge8_Node000002_Node000008" class="edge">
<title>Node2&#45;&gt;Node8</title>
<g id="a_edge8_Node000002_Node000008"><a xlink:title=" ">
<path fill="none" stroke="#63b8ff" d="M375.68,-164.75C374.24,-157.8 372.18,-147.85 370.37,-139.13"/>
<polygon fill="#63b8ff" stroke="#63b8ff" points="373.74,-138.17 368.28,-129.09 366.89,-139.59 373.74,-138.17"/>
</a>
</g>
</g>
<!-- Node4 -->
<g id="Node000004" class="node">
<title>Node4</title>
<g id="a_Node000004"><a xlink:href="_clear_queue_8h.html" target="_top" xlink:title=" ">
<polygon fill="white" stroke="#666666" points="496,-74 413,-74 413,-55 496,-55 496,-74"/>
<text text-anchor="middle" x="454.5" y="-62" font-family="Helvetica,sans-Serif" font-size="10.00">ClearQueue.h</text>
</a>
</g>
</g>
<!-- Node3&#45;&gt;Node4 -->
<g id="edge3_Node000003_Node000004" class="edge">
<title>Node3&#45;&gt;Node4</title>
<g id="a_edge3_Node000003_Node000004"><a xlink:title=" ">
<path fill="none" stroke="#63b8ff" d="M492.07,-109.75C485.65,-102.18 476.19,-91.05 468.38,-81.84"/>
<polygon fill="#63b8ff" stroke="#63b8ff" points="470.93,-79.45 461.79,-74.09 465.6,-83.98 470.93,-79.45"/>
</a>
</g>
</g>
<!-- Node4&#45;&gt;Node5 -->
<g id="edge4_Node000004_Node000005" class="edge">
<title>Node4&#45;&gt;Node5</title>
<g id="a_edge4_Node000004_Node000005"><a xlink:title=" ">
<path fill="none" stroke="#63b8ff" d="M454.5,-54.75C454.5,-47.8 454.5,-37.85 454.5,-29.13"/>
<polygon fill="#63b8ff" stroke="#63b8ff" points="458,-29.09 454.5,-19.09 451,-29.09 458,-29.09"/>
</a>
</g>
</g>
<!-- Node6 -->
<g id="Node000006" class="node">
<title>Node6</title>
<g id="a_Node000006"><a xlink:title=" ">
<polygon fill="#e0e0e0" stroke="#999999" points="771,-19 706,-19 706,0 771,0 771,-19"/>
<text text-anchor="middle" x="738.5" y="-7" font-family="Helvetica,sans-Serif" font-size="10.00">functional</text>
</a>
</g>
</g>
<!-- Node4&#45;&gt;Node6 -->
<g id="edge5_Node000004_Node000006" class="edge">
<title>Node4&#45;&gt;Node6</title>
<g id="a_edge5_Node000004_Node000006"><a xlink:title=" ">
<path fill="none" stroke="#63b8ff" d="M496.1,-55.74C549.51,-45.77 641.72,-28.56 695.7,-18.49"/>
<polygon fill="#63b8ff" stroke="#63b8ff" points="696.45,-21.91 705.64,-16.63 695.17,-15.03 696.45,-21.91"/>
</a>
</g>
</g>
<!-- Node7&#45;&gt;Node5 -->
<g id="edge7_Node000007_Node000005" class="edge">
<title>Node7&#45;&gt;Node5</title>
<g id="a_edge7_Node000007_Node000005"><a xlink:title=" ">
<path fill="none" stroke="#63b8ff" d="M583.04,-109.66C559.03,-91.14 503.21,-48.08 473.65,-25.28"/>
<polygon fill="#63b8ff" stroke="#63b8ff" points="475.78,-22.5 465.72,-19.16 471.5,-28.04 475.78,-22.5"/>
</a>
</g>
</g>
<!-- Node9&#45;&gt;Node4 -->
<g id="edge19_Node000009_Node000004" class="edge">
<title>Node9&#45;&gt;Node4</title>
<g id="a_edge19_Node000009_Node000004"><a xlink:title=" ">
<path fill="none" stroke="#63b8ff" d="M290.92,-274.97C308.84,-268.32 329.8,-257.09 340.5,-239 344.8,-231.73 341.85,-228.34 340.5,-220 337.8,-203.35 331.2,-200.65 328.5,-184 323.23,-151.54 309.51,-136.85 328.5,-110 345.31,-86.24 375.91,-75.08 402.74,-69.88"/>
<polygon fill="#63b8ff" stroke="#63b8ff" points="403.54,-73.29 412.81,-68.16 402.36,-66.39 403.54,-73.29"/>
</a>
</g>
</g>
<!-- Node10 -->
<g id="Node000010" class="node">
<title>Node10</title>
<g id="a_Node000010"><a xlink:href="_bytes_8h.html" target="_top" xlink:title=" ">
<polygon fill="white" stroke="#666666" points="703,-184 650,-184 650,-165 703,-165 703,-184"/>
<text text-anchor="middle" x="676.5" y="-172" font-family="Helvetica,sans-Serif" font-size="10.00">Bytes.h</text>
</a>
</g>
</g>
<!-- Node9&#45;&gt;Node10 -->
<g id="edge11_Node000009_Node000010" class="edge">
<title>Node9&#45;&gt;Node10</title>
<g id="a_edge11_Node000009_Node000010"><a xlink:title=" ">
<path fill="none" stroke="#63b8ff" d="M295.34,-283.87C356.53,-283.36 484.16,-277.28 583.5,-239 612.66,-227.76 641.66,-205.8 659.34,-190.89"/>
<polygon fill="#63b8ff" stroke="#63b8ff" points="661.78,-193.4 667.05,-184.21 657.2,-188.11 661.78,-193.4"/>
</a>
</g>
</g>
<!-- Node16 -->
<g id="Node000016" class="node">
<title>Node16</title>
<g id="a_Node000016"><a xlink:href="_data_channels_8h.html" target="_top" xlink:title=" ">
<polygon fill="white" stroke="#666666" points="574.5,-239 480.5,-239 480.5,-220 574.5,-220 574.5,-239"/>
<text text-anchor="middle" x="527.5" y="-227" font-family="Helvetica,sans-Serif" font-size="10.00">DataChannels.h</text>
</a>
</g>
</g>
<!-- Node9&#45;&gt;Node16 -->
<g id="edge20_Node000009_Node000016" class="edge">
<title>Node9&#45;&gt;Node16</title>
<g id="a_edge20_Node000009_Node000016"><a xlink:title=" ">
<path fill="none" stroke="#63b8ff" d="M295.09,-276.46C340.97,-267.39 421.16,-251.53 474.29,-241.02"/>
<polygon fill="#63b8ff" stroke="#63b8ff" points="475.08,-244.43 484.21,-239.06 473.73,-237.57 475.08,-244.43"/>
</a>
</g>
</g>
<!-- Node19 -->
<g id="Node000019" class="node">
<title>Node19</title>
<g id="a_Node000019"><a xlink:href="_i_executor_8h.html" target="_top" xlink:title=" ">
<polygon fill="white" stroke="#666666" points="169.5,-239 99.5,-239 99.5,-220 169.5,-220 169.5,-239"/>
<text text-anchor="middle" x="134.5" y="-227" font-family="Helvetica,sans-Serif" font-size="10.00">IExecutor.h</text>
</a>
</g>
</g>
<!-- Node9&#45;&gt;Node19 -->
<g id="edge27_Node000009_Node000019" class="edge">
<title>Node9&#45;&gt;Node19</title>
<g id="a_edge27_Node000009_Node000019"><a xlink:title=" ">
<path fill="none" stroke="#63b8ff" d="M239.42,-274.98C219.13,-266.38 187.54,-252.99 164.33,-243.15"/>
<polygon fill="#63b8ff" stroke="#63b8ff" points="165.52,-239.85 154.95,-239.17 162.79,-246.3 165.52,-239.85"/>
</a>
</g>
</g>
<!-- Node20 -->
<g id="Node000020" class="node">
<title>Node20</title>
<g id="a_Node000020"><a xlink:href="_i_event_bus_connection_kit_8h.html" target="_top" xlink:title="Defines the interface for components that can connect to an EventBus.">
<polygon fill="white" stroke="#666666" points="331,-239 188,-239 188,-220 331,-220 331,-239"/>
<text text-anchor="middle" x="259.5" y="-227" font-family="Helvetica,sans-Serif" font-size="10.00">IEventBusConnectionKit.h</text>
</a>
</g>
</g>
<!-- Node9&#45;&gt;Node20 -->
<g id="edge28_Node000009_Node000020" class="edge">
<title>Node9&#45;&gt;Node20</title>
<g id="a_edge28_Node000009_Node000020"><a xlink:title=" ">
<path fill="none" stroke="#63b8ff" d="M254.33,-274.75C252.84,-267.8 252.4,-257.85 253.02,-249.13"/>
<polygon fill="#63b8ff" stroke="#63b8ff" points="256.51,-249.47 254.37,-239.09 249.57,-248.53 256.51,-249.47"/>
</a>
</g>
</g>
<!-- Node10&#45;&gt;Node6 -->
<g id="edge17_Node000010_Node000006" class="edge">
<title>Node10&#45;&gt;Node6</title>
<g id="a_edge17_Node000010_Node000006"><a xlink:title=" ">
<path fill="none" stroke="#63b8ff" d="M703.18,-172.01C755.21,-168.5 867.15,-157.7 890.5,-129 929.14,-81.5 834.85,-41.35 777.95,-22.32"/>
<polygon fill="#63b8ff" stroke="#63b8ff" points="778.73,-18.89 768.14,-19.12 776.56,-25.55 778.73,-18.89"/>
</a>
</g>
</g>
<!-- Node10&#45;&gt;Node7 -->
<g id="edge15_Node000010_Node000007" class="edge">
<title>Node10&#45;&gt;Node7</title>
<g id="a_edge15_Node000010_Node000007"><a xlink:title=" ">
<path fill="none" stroke="#63b8ff" d="M663.33,-164.98C650.73,-156.84 631.5,-144.41 616.56,-134.76"/>
<polygon fill="#63b8ff" stroke="#63b8ff" points="618.21,-131.66 607.91,-129.17 614.41,-137.54 618.21,-131.66"/>
</a>
</g>
</g>
<!-- Node11 -->
<g id="Node000011" class="node">
<title>Node11</title>
<g id="a_Node000011"><a xlink:href="_common_8h.html" target="_top" xlink:title=" ">
<polygon fill="white" stroke="#666666" points="711.5,-129 641.5,-129 641.5,-110 711.5,-110 711.5,-129"/>
<text text-anchor="middle" x="676.5" y="-117" font-family="Helvetica,sans-Serif" font-size="10.00">Common.h</text>
</a>
</g>
</g>
<!-- Node10&#45;&gt;Node11 -->
<g id="edge12_Node000010_Node000011" class="edge">
<title>Node10&#45;&gt;Node11</title>
<g id="a_edge12_Node000010_Node000011"><a xlink:title=" ">
<path fill="none" stroke="#63b8ff" d="M676.5,-164.75C676.5,-157.8 676.5,-147.85 676.5,-139.13"/>
<polygon fill="#63b8ff" stroke="#63b8ff" points="680,-139.09 676.5,-129.09 673,-139.09 680,-139.09"/>
</a>
</g>
</g>
<!-- Node14 -->
<g id="Node000014" class="node">
<title>Node14</title>
<g id="a_Node000014"><a xlink:title=" ">
<polygon fill="#e0e0e0" stroke="#999999" points="793.5,-129 729.5,-129 729.5,-110 793.5,-110 793.5,-129"/>
<text text-anchor="middle" x="761.5" y="-117" font-family="Helvetica,sans-Serif" font-size="10.00">WString.h</text>
</a>
</g>
</g>
<!-- Node10&#45;&gt;Node14 -->
<g id="edge16_Node000010_Node000014" class="edge">
<title>Node10&#45;&gt;Node14</title>
<g id="a_edge16_Node000010_Node000014"><a xlink:title=" ">
<path fill="none" stroke="#63b8ff" d="M690.16,-164.98C703.34,-156.77 723.53,-144.18 739.07,-134.49"/>
<polygon fill="#63b8ff" stroke="#63b8ff" points="740.96,-137.43 747.59,-129.17 737.26,-131.49 740.96,-137.43"/>
</a>
</g>
</g>
<!-- Node15 -->
<g id="Node000015" class="node">
<title>Node15</title>
<g id="a_Node000015"><a xlink:title=" ">
<polygon fill="#e0e0e0" stroke="#999999" points="881,-129 812,-129 812,-110 881,-110 881,-129"/>
<text text-anchor="middle" x="846.5" y="-117" font-family="Helvetica,sans-Serif" font-size="10.00">type_traits</text>
</a>
</g>
</g>
<!-- Node10&#45;&gt;Node15 -->
<g id="edge18_Node000010_Node000015" class="edge">
<title>Node10&#45;&gt;Node15</title>
<g id="a_edge18_Node000010_Node000015"><a xlink:title=" ">
<path fill="none" stroke="#63b8ff" d="M703.06,-165.22C731.54,-156.34 776.99,-142.17 809.09,-132.16"/>
<polygon fill="#63b8ff" stroke="#63b8ff" points="810.49,-135.39 819,-129.07 808.41,-128.71 810.49,-135.39"/>
</a>
</g>
</g>
<!-- Node12 -->
<g id="Node000012" class="node">
<title>Node12</title>
<g id="a_Node000012"><a xlink:title=" ">
<polygon fill="#e0e0e0" stroke="#999999" points="670.5,-74 612.5,-74 612.5,-55 670.5,-55 670.5,-74"/>
<text text-anchor="middle" x="641.5" y="-62" font-family="Helvetica,sans-Serif" font-size="10.00">memory</text>
</a>
</g>
</g>
<!-- Node11&#45;&gt;Node12 -->
<g id="edge13_Node000011_Node000012" class="edge">
<title>Node11&#45;&gt;Node12</title>
<g id="a_edge13_Node000011_Node000012"><a xlink:title=" ">
<path fill="none" stroke="#63b8ff" d="M670.72,-109.75C665.88,-102.42 658.82,-91.73 652.86,-82.7"/>
<polygon fill="#63b8ff" stroke="#63b8ff" points="655.6,-80.5 647.17,-74.09 649.76,-84.36 655.6,-80.5"/>
</a>
</g>
</g>
<!-- Node13 -->
<g id="Node000013" class="node">
<title>Node13</title>
<g id="a_Node000013"><a xlink:title=" ">
<polygon fill="#e0e0e0" stroke="#999999" points="734,-74 689,-74 689,-55 734,-55 734,-74"/>
<text text-anchor="middle" x="711.5" y="-62" font-family="Helvetica,sans-Serif" font-size="10.00">utility</text>
</a>
</g>
</g>
<!-- Node11&#45;&gt;Node13 -->
<g id="edge14_Node000011_Node000013" class="edge">
<title>Node11&#45;&gt;Node13</title>
<g id="a_edge14_Node000011_Node000013"><a xlink:title=" ">
<path fill="none" stroke="#63b8ff" d="M682.28,-109.75C687.12,-102.42 694.18,-91.73 700.14,-82.7"/>
<polygon fill="#63b8ff" stroke="#63b8ff" points="703.24,-84.36 705.83,-74.09 697.4,-80.5 703.24,-84.36"/>
</a>
</g>
</g>
<!-- Node16&#45;&gt;Node10 -->
<g id="edge21_Node000016_Node000010" class="edge">
<title>Node16&#45;&gt;Node10</title>
<g id="a_edge21_Node000016_Node000010"><a xlink:title=" ">
<path fill="none" stroke="#63b8ff" d="M551.44,-219.98C576.06,-211.23 614.62,-197.51 642.42,-187.62"/>
<polygon fill="#63b8ff" stroke="#63b8ff" points="643.88,-190.82 652.12,-184.17 641.53,-184.22 643.88,-190.82"/>
</a>
</g>
</g>
<!-- Node17 -->
<g id="Node000017" class="node">
<title>Node17</title>
<g id="a_Node000017"><a xlink:href="_limited_queue_8h.html" target="_top" xlink:title=" ">
<polygon fill="white" stroke="#666666" points="529.5,-184 435.5,-184 435.5,-165 529.5,-165 529.5,-184"/>
<text text-anchor="middle" x="482.5" y="-172" font-family="Helvetica,sans-Serif" font-size="10.00">LimitedQueue.h</text>
</a>
</g>
</g>
<!-- Node16&#45;&gt;Node17 -->
<g id="edge22_Node000016_Node000017" class="edge">
<title>Node16&#45;&gt;Node17</title>
<g id="a_edge22_Node000016_Node000017"><a xlink:title=" ">
<path fill="none" stroke="#63b8ff" d="M520.07,-219.75C513.65,-212.18 504.19,-201.05 496.38,-191.84"/>
<polygon fill="#63b8ff" stroke="#63b8ff" points="498.93,-189.45 489.79,-184.09 493.6,-193.98 498.93,-189.45"/>
</a>
</g>
</g>
<!-- Node18 -->
<g id="Node000018" class="node">
<title>Node18</title>
<g id="a_Node000018"><a xlink:href="_map_8h.html" target="_top" xlink:title=" ">
<polygon fill="white" stroke="#666666" points="595,-184 548,-184 548,-165 595,-165 595,-184"/>
<text text-anchor="middle" x="571.5" y="-172" font-family="Helvetica,sans-Serif" font-size="10.00">Map.h</text>
</a>
</g>
</g>
<!-- Node16&#45;&gt;Node18 -->
<g id="edge24_Node000016_Node000018" class="edge">
<title>Node16&#45;&gt;Node18</title>
<g id="a_edge24_Node000016_Node000018"><a xlink:title=" ">
<path fill="none" stroke="#63b8ff" d="M534.77,-219.75C541.04,-212.18 550.29,-201.05 557.93,-191.84"/>
<polygon fill="#63b8ff" stroke="#63b8ff" points="560.67,-194.02 564.37,-184.09 555.29,-189.55 560.67,-194.02"/>
</a>
</g>
</g>
<!-- Node17&#45;&gt;Node4 -->
<g id="edge23_Node000017_Node000004" class="edge">
<title>Node17&#45;&gt;Node4</title>
<g id="a_edge23_Node000017_Node000004"><a xlink:title=" ">
<path fill="none" stroke="#63b8ff" d="M471.51,-164.99C462.05,-156.9 449.07,-143.81 443.5,-129 438.02,-114.44 441.74,-96.96 446.28,-84.03"/>
<polygon fill="#63b8ff" stroke="#63b8ff" points="449.67,-84.99 450.11,-74.4 443.16,-82.4 449.67,-84.99"/>
</a>
</g>
</g>
<!-- Node18&#45;&gt;Node3 -->
<g id="edge26_Node000018_Node000003" class="edge">
<title>Node18&#45;&gt;Node3</title>
<g id="a_edge26_Node000018_Node000003"><a xlink:title=" ">
<path fill="none" stroke="#63b8ff" d="M559.93,-164.98C549.08,-157 532.62,-144.88 519.62,-135.31"/>
<polygon fill="#63b8ff" stroke="#63b8ff" points="521.41,-132.28 511.28,-129.17 517.26,-137.92 521.41,-132.28"/>
</a>
</g>
</g>
<!-- Node18&#45;&gt;Node11 -->
<g id="edge25_Node000018_Node000011" class="edge">
<title>Node18&#45;&gt;Node11</title>
<g id="a_edge25_Node000018_Node000011"><a xlink:title=" ">
<path fill="none" stroke="#63b8ff" d="M588.37,-164.98C605.11,-156.54 631,-143.47 650.39,-133.68"/>
<polygon fill="#63b8ff" stroke="#63b8ff" points="651.97,-136.8 659.32,-129.17 648.82,-130.55 651.97,-136.8"/>
</a>
</g>
</g>
<!-- Node20&#45;&gt;Node9 -->
<g id="edge29_Node000020_Node000009" class="edge">
<title>Node20&#45;&gt;Node9</title>
<g id="a_edge29_Node000020_Node000009"><a xlink:title=" ">
<path fill="none" stroke="#63b8ff" d="M264.63,-239.09C266.14,-245.99 266.59,-255.93 265.99,-264.66"/>
<polygon fill="#63b8ff" stroke="#63b8ff" points="262.5,-264.38 264.67,-274.75 269.44,-265.29 262.5,-264.38"/>
</a>
</g>
</g>
</g>
</svg>
