<?xml version="1.0" encoding="UTF-8" standalone="no"?>
<!DOCTYPE svg PUBLIC "-//W3C//DTD SVG 1.1//EN"
 "http://www.w3.org/Graphics/SVG/1.1/DTD/svg11.dtd">
<!-- Generated by graphviz version 2.43.0 (0)
 -->
<!-- Title: /home/runner/work/uniot&#45;core/uniot&#45;core/lib/Core/EventBus/EventEntity.h Pages: 1 -->
<svg width="1401pt" height="434pt"
 viewBox="0.00 0.00 1401.00 434.00" xmlns="http://www.w3.org/2000/svg" xmlns:xlink="http://www.w3.org/1999/xlink">
<g id="graph0" class="graph" transform="scale(1 1) rotate(0) translate(4 430)">
<title>/home/runner/work/uniot&#45;core/uniot&#45;core/lib/Core/EventBus/EventEntity.h</title>
<!-- Node1 -->
<g id="Node000001" class="node">
<title>Node1</title>
<g id="a_Node000001"><a xlink:title=" ">
<polygon fill="#999999" stroke="#666666" points="1290,-426 1153,-426 1153,-385 1290,-385 1290,-426"/>
<text text-anchor="start" x="1161" y="-414" font-family="Helvetica,sans-Serif" font-size="10.00">/home/runner/work/uniot</text>
<text text-anchor="start" x="1161" y="-403" font-family="Helvetica,sans-Serif" font-size="10.00">&#45;core/uniot&#45;core/lib/Core</text>
<text text-anchor="middle" x="1221.5" y="-392" font-family="Helvetica,sans-Serif" font-size="10.00">/EventBus/EventEntity.h</text>
</a>
</g>
</g>
<!-- Node2 -->
<g id="Node000002" class="node">
<title>Node2</title>
<g id="a_Node000002"><a xlink:href="_event_bus_8cpp.html" target="_top" xlink:title=" ">
<polygon fill="white" stroke="#666666" points="1345,-195 1208,-195 1208,-154 1345,-154 1345,-195"/>
<text text-anchor="start" x="1216" y="-183" font-family="Helvetica,sans-Serif" font-size="10.00">/home/runner/work/uniot</text>
<text text-anchor="start" x="1216" y="-172" font-family="Helvetica,sans-Serif" font-size="10.00">&#45;core/uniot&#45;core/lib/Core</text>
<text text-anchor="middle" x="1276.5" y="-161" font-family="Helvetica,sans-Serif" font-size="10.00">/EventBus/EventBus.cpp</text>
</a>
</g>
</g>
<!-- Node1&#45;&gt;Node2 -->
<g id="edge1_Node000001_Node000002" class="edge">
<title>Node1&#45;&gt;Node2</title>
<g id="a_edge1_Node000001_Node000002"><a xlink:title=" ">
<path fill="none" stroke="#63b8ff" d="M1227.2,-374.91C1231,-355.77 1236.24,-330.34 1241.5,-308 1250.99,-267.7 1263.75,-220.97 1270.95,-195.17"/>
<polygon fill="#63b8ff" stroke="#63b8ff" points="1223.75,-374.35 1225.25,-384.84 1230.61,-375.7 1223.75,-374.35"/>
</a>
</g>
</g>
<!-- Node3 -->
<g id="Node000003" class="node">
<title>Node3</title>
<g id="a_Node000003"><a xlink:href="_event_emitter_8h.html" target="_top" xlink:title=" ">
<polygon fill="white" stroke="#666666" points="899.5,-349 759.5,-349 759.5,-308 899.5,-308 899.5,-349"/>
<text text-anchor="start" x="767.5" y="-337" font-family="Helvetica,sans-Serif" font-size="10.00">/home/runner/work/uniot</text>
<text text-anchor="start" x="767.5" y="-326" font-family="Helvetica,sans-Serif" font-size="10.00">&#45;core/uniot&#45;core/lib/Core</text>
<text text-anchor="middle" x="829.5" y="-315" font-family="Helvetica,sans-Serif" font-size="10.00">/EventBus/EventEmitter.h</text>
</a>
</g>
</g>
<!-- Node1&#45;&gt;Node3 -->
<g id="edge2_Node000001_Node000003" class="edge">
<title>Node1&#45;&gt;Node3</title>
<g id="a_edge2_Node000001_Node000003"><a xlink:title=" ">
<path fill="none" stroke="#63b8ff" d="M1142.53,-389.39C1071.48,-375.8 968.05,-356.01 899.8,-342.95"/>
<polygon fill="#63b8ff" stroke="#63b8ff" points="1142.29,-392.91 1152.77,-391.35 1143.61,-386.03 1142.29,-392.91"/>
</a>
</g>
</g>
<!-- Node20 -->
<g id="Node000020" class="node">
<title>Node20</title>
<g id="a_Node000020"><a xlink:href="_event_entity_8cpp.html" target="_top" xlink:title=" ">
<polygon fill="white" stroke="#666666" points="1393,-349 1250,-349 1250,-308 1393,-308 1393,-349"/>
<text text-anchor="start" x="1258" y="-337" font-family="Helvetica,sans-Serif" font-size="10.00">/home/runner/work/uniot</text>
<text text-anchor="start" x="1258" y="-326" font-family="Helvetica,sans-Serif" font-size="10.00">&#45;core/uniot&#45;core/lib/Core</text>
<text text-anchor="middle" x="1321.5" y="-315" font-family="Helvetica,sans-Serif" font-size="10.00">/EventBus/EventEntity.cpp</text>
</a>
</g>
</g>
<!-- Node1&#45;&gt;Node20 -->
<g id="edge32_Node000001_Node000020" class="edge">
<title>Node1&#45;&gt;Node20</title>
<g id="a_edge32_Node000001_Node000020"><a xlink:title=" ">
<path fill="none" stroke="#63b8ff" d="M1255.75,-378.82C1268.68,-369.11 1283.18,-358.24 1295.27,-349.17"/>
<polygon fill="#63b8ff" stroke="#63b8ff" points="1253.41,-376.19 1247.51,-384.99 1257.61,-381.79 1253.41,-376.19"/>
</a>
</g>
</g>
<!-- Node3&#45;&gt;Node2 -->
<g id="edge14_Node000003_Node000002" class="edge">
<title>Node3&#45;&gt;Node2</title>
<g id="a_edge14_Node000003_Node000002"><a xlink:title=" ">
<path fill="none" stroke="#63b8ff" d="M899.06,-304.76C929.33,-294.8 965.2,-282.92 997.5,-272 1075.06,-245.78 1164.47,-214.7 1220.73,-195.04"/>
<polygon fill="#63b8ff" stroke="#63b8ff" points="897.84,-301.48 889.44,-307.92 900.03,-308.13 897.84,-301.48"/>
</a>
</g>
</g>
<!-- Node4 -->
<g id="Node000004" class="node">
<title>Node4</title>
<g id="a_Node000004"><a xlink:href="_date_8h.html" target="_top" xlink:title=" ">
<polygon fill="white" stroke="#666666" points="441,-195 304,-195 304,-154 441,-154 441,-195"/>
<text text-anchor="start" x="312" y="-183" font-family="Helvetica,sans-Serif" font-size="10.00">/home/runner/work/uniot</text>
<text text-anchor="start" x="312" y="-172" font-family="Helvetica,sans-Serif" font-size="10.00">&#45;core/uniot&#45;core/lib/Core</text>
<text text-anchor="middle" x="372.5" y="-161" font-family="Helvetica,sans-Serif" font-size="10.00">/Date/Date.h</text>
</a>
</g>
</g>
<!-- Node3&#45;&gt;Node4 -->
<g id="edge3_Node000003_Node000004" class="edge">
<title>Node3&#45;&gt;Node4</title>
<g id="a_edge3_Node000003_Node000004"><a xlink:title=" ">
<path fill="none" stroke="#63b8ff" d="M749.52,-308.67C721.9,-300.04 691.61,-288.07 666.5,-272 645.32,-258.44 649.5,-243.18 627.5,-231 557.26,-192.12 528.79,-212.74 450.5,-195 447.51,-194.32 444.45,-193.62 441.36,-192.89"/>
<polygon fill="#63b8ff" stroke="#63b8ff" points="748.58,-312.05 759.16,-311.59 750.6,-305.34 748.58,-312.05"/>
</a>
</g>
</g>
<!-- Node12 -->
<g id="Node000012" class="node">
<title>Node12</title>
<g id="a_Node000012"><a xlink:href="_event_emitter_8cpp.html" target="_top" xlink:title=" ">
<polygon fill="white" stroke="#666666" points="988.5,-272 836.5,-272 836.5,-231 988.5,-231 988.5,-272"/>
<text text-anchor="start" x="844.5" y="-260" font-family="Helvetica,sans-Serif" font-size="10.00">/home/runner/work/uniot</text>
<text text-anchor="start" x="844.5" y="-249" font-family="Helvetica,sans-Serif" font-size="10.00">&#45;core/uniot&#45;core/lib/Core</text>
<text text-anchor="middle" x="912.5" y="-238" font-family="Helvetica,sans-Serif" font-size="10.00">/EventBus/EventEmitter.cpp</text>
</a>
</g>
</g>
<!-- Node3&#45;&gt;Node12 -->
<g id="edge15_Node000003_Node000012" class="edge">
<title>Node3&#45;&gt;Node12</title>
<g id="a_edge15_Node000003_Node000012"><a xlink:title=" ">
<path fill="none" stroke="#63b8ff" d="M858.75,-301.07C869.31,-291.52 881.04,-280.93 890.84,-272.07"/>
<polygon fill="#63b8ff" stroke="#63b8ff" points="856.38,-298.49 851.31,-307.79 861.07,-303.69 856.38,-298.49"/>
</a>
</g>
</g>
<!-- Node13 -->
<g id="Node000013" class="node">
<title>Node13</title>
<g id="a_Node000013"><a xlink:href="_event_listener_8h.html" target="_top" xlink:title=" ">
<polygon fill="white" stroke="#666666" points="818,-272 675,-272 675,-231 818,-231 818,-272"/>
<text text-anchor="start" x="683" y="-260" font-family="Helvetica,sans-Serif" font-size="10.00">/home/runner/work/uniot</text>
<text text-anchor="start" x="683" y="-249" font-family="Helvetica,sans-Serif" font-size="10.00">&#45;core/uniot&#45;core/lib/Core</text>
<text text-anchor="middle" x="746.5" y="-238" font-family="Helvetica,sans-Serif" font-size="10.00">/EventBus/EventListener.h</text>
</a>
</g>
</g>
<!-- Node3&#45;&gt;Node13 -->
<g id="edge16_Node000003_Node000013" class="edge">
<title>Node3&#45;&gt;Node13</title>
<g id="a_edge16_Node000003_Node000013"><a xlink:title=" ">
<path fill="none" stroke="#63b8ff" d="M800.25,-301.07C789.69,-291.52 777.96,-280.93 768.16,-272.07"/>
<polygon fill="#63b8ff" stroke="#63b8ff" points="797.93,-303.69 807.69,-307.79 802.62,-298.49 797.93,-303.69"/>
</a>
</g>
</g>
<!-- Node19 -->
<g id="Node000019" class="node">
<title>Node19</title>
<g id="a_Node000019"><a xlink:href="_network_scheduler_8h.html" target="_top" xlink:title=" ">
<polygon fill="white" stroke="#666666" points="618,-272 457,-272 457,-231 618,-231 618,-272"/>
<text text-anchor="start" x="465" y="-260" font-family="Helvetica,sans-Serif" font-size="10.00">/home/runner/work/uniot</text>
<text text-anchor="start" x="465" y="-249" font-family="Helvetica,sans-Serif" font-size="10.00">&#45;core/uniot&#45;core/lib/Core</text>
<text text-anchor="middle" x="537.5" y="-238" font-family="Helvetica,sans-Serif" font-size="10.00">/Network/NetworkScheduler.h</text>
</a>
</g>
</g>
<!-- Node3&#45;&gt;Node19 -->
<g id="edge29_Node000003_Node000019" class="edge">
<title>Node3&#45;&gt;Node19</title>
<g id="a_edge29_Node000003_Node000019"><a xlink:title=" ">
<path fill="none" stroke="#63b8ff" d="M749.47,-306.94C707.1,-296.06 655.36,-282.77 613.6,-272.05"/>
<polygon fill="#63b8ff" stroke="#63b8ff" points="748.63,-310.34 759.19,-309.44 750.37,-303.56 748.63,-310.34"/>
</a>
</g>
</g>
<!-- Node5 -->
<g id="Node000005" class="node">
<title>Node5</title>
<g id="a_Node000005"><a xlink:href="_app_kit_8h.html" target="_top" xlink:title=" ">
<polygon fill="white" stroke="#666666" points="623.5,-41 479.5,-41 479.5,0 623.5,0 623.5,-41"/>
<text text-anchor="start" x="487.5" y="-29" font-family="Helvetica,sans-Serif" font-size="10.00">/home/runner/work/uniot</text>
<text text-anchor="start" x="487.5" y="-18" font-family="Helvetica,sans-Serif" font-size="10.00">&#45;core/uniot&#45;core/lib/AppKit</text>
<text text-anchor="middle" x="551.5" y="-7" font-family="Helvetica,sans-Serif" font-size="10.00">/AppKit.h</text>
</a>
</g>
</g>
<!-- Node4&#45;&gt;Node5 -->
<g id="edge4_Node000004_Node000005" class="edge">
<title>Node4&#45;&gt;Node5</title>
<g id="a_edge4_Node000004_Node000005"><a xlink:title=" ">
<path fill="none" stroke="#63b8ff" d="M443.56,-149.91C461.51,-141.71 479.84,-131.18 494.5,-118 518.38,-96.54 535.16,-62.65 544.07,-41.28"/>
<polygon fill="#63b8ff" stroke="#63b8ff" points="441.99,-146.78 434.23,-153.99 444.79,-153.19 441.99,-146.78"/>
</a>
</g>
</g>
<!-- Node6 -->
<g id="Node000006" class="node">
<title>Node6</title>
<g id="a_Node000006"><a xlink:href="_lisp_device_8h.html" target="_top" xlink:title=" ">
<polygon fill="white" stroke="#666666" points="723.5,-118 579.5,-118 579.5,-77 723.5,-77 723.5,-118"/>
<text text-anchor="start" x="587.5" y="-106" font-family="Helvetica,sans-Serif" font-size="10.00">/home/runner/work/uniot</text>
<text text-anchor="start" x="587.5" y="-95" font-family="Helvetica,sans-Serif" font-size="10.00">&#45;core/uniot&#45;core/lib/AppKit</text>
<text text-anchor="middle" x="651.5" y="-84" font-family="Helvetica,sans-Serif" font-size="10.00">/LispDevice.h</text>
</a>
</g>
</g>
<!-- Node4&#45;&gt;Node6 -->
<g id="edge5_Node000004_Node000006" class="edge">
<title>Node4&#45;&gt;Node6</title>
<g id="a_edge5_Node000004_Node000006"><a xlink:title=" ">
<path fill="none" stroke="#63b8ff" d="M450.89,-152.43C491.16,-141.6 539.9,-128.5 579.26,-117.92"/>
<polygon fill="#63b8ff" stroke="#63b8ff" points="449.86,-149.08 441.11,-155.06 451.67,-155.84 449.86,-149.08"/>
</a>
</g>
</g>
<!-- Node7 -->
<g id="Node000007" class="node">
<title>Node7</title>
<g id="a_Node000007"><a xlink:href="_top_device_8h.html" target="_top" xlink:title=" ">
<polygon fill="white" stroke="#666666" points="485.5,-118 341.5,-118 341.5,-77 485.5,-77 485.5,-118"/>
<text text-anchor="start" x="349.5" y="-106" font-family="Helvetica,sans-Serif" font-size="10.00">/home/runner/work/uniot</text>
<text text-anchor="start" x="349.5" y="-95" font-family="Helvetica,sans-Serif" font-size="10.00">&#45;core/uniot&#45;core/lib/AppKit</text>
<text text-anchor="middle" x="413.5" y="-84" font-family="Helvetica,sans-Serif" font-size="10.00">/TopDevice.h</text>
</a>
</g>
</g>
<!-- Node4&#45;&gt;Node7 -->
<g id="edge7_Node000004_Node000007" class="edge">
<title>Node4&#45;&gt;Node7</title>
<g id="a_edge7_Node000004_Node000007"><a xlink:title=" ">
<path fill="none" stroke="#63b8ff" d="M388.17,-144.83C393.06,-135.89 398.34,-126.24 402.8,-118.07"/>
<polygon fill="#63b8ff" stroke="#63b8ff" points="385,-143.34 383.27,-153.79 391.14,-146.7 385,-143.34"/>
</a>
</g>
</g>
<!-- Node8 -->
<g id="Node000008" class="node">
<title>Node8</title>
<g id="a_Node000008"><a xlink:href="_m_q_t_t_kit_8h.html" target="_top" xlink:title=" ">
<polygon fill="white" stroke="#666666" points="167,-118 24,-118 24,-77 167,-77 167,-118"/>
<text text-anchor="start" x="32" y="-106" font-family="Helvetica,sans-Serif" font-size="10.00">/home/runner/work/uniot</text>
<text text-anchor="start" x="32" y="-95" font-family="Helvetica,sans-Serif" font-size="10.00">&#45;core/uniot&#45;core/lib/Core</text>
<text text-anchor="middle" x="95.5" y="-84" font-family="Helvetica,sans-Serif" font-size="10.00">/MQTTWrapper/MQTTKit.h</text>
</a>
</g>
</g>
<!-- Node4&#45;&gt;Node8 -->
<g id="edge9_Node000004_Node000008" class="edge">
<title>Node4&#45;&gt;Node8</title>
<g id="a_edge9_Node000004_Node000008"><a xlink:title=" ">
<path fill="none" stroke="#63b8ff" d="M294,-152.25C254.19,-141.47 206.19,-128.47 167.36,-117.96"/>
<polygon fill="#63b8ff" stroke="#63b8ff" points="293.1,-155.63 303.67,-154.86 294.93,-148.87 293.1,-155.63"/>
</a>
</g>
</g>
<!-- Node10 -->
<g id="Node000010" class="node">
<title>Node10</title>
<g id="a_Node000010"><a xlink:href="_uniot_8h.html" target="_top" xlink:title=" ">
<polygon fill="white" stroke="#666666" points="323.5,-118 185.5,-118 185.5,-77 323.5,-77 323.5,-118"/>
<text text-anchor="start" x="193.5" y="-106" font-family="Helvetica,sans-Serif" font-size="10.00">/home/runner/work/uniot</text>
<text text-anchor="start" x="193.5" y="-95" font-family="Helvetica,sans-Serif" font-size="10.00">&#45;core/uniot&#45;core/lib/Uniot</text>
<text text-anchor="middle" x="254.5" y="-84" font-family="Helvetica,sans-Serif" font-size="10.00">/Uniot.h</text>
</a>
</g>
</g>
<!-- Node4&#45;&gt;Node10 -->
<g id="edge12_Node000004_Node000010" class="edge">
<title>Node4&#45;&gt;Node10</title>
<g id="a_edge12_Node000004_Node000010"><a xlink:title=" ">
<path fill="none" stroke="#63b8ff" d="M332.96,-148.37C317.48,-138.53 299.99,-127.41 285.45,-118.17"/>
<polygon fill="#63b8ff" stroke="#63b8ff" points="331.49,-151.58 341.8,-153.99 335.24,-145.67 331.49,-151.58"/>
</a>
</g>
</g>
<!-- Node6&#45;&gt;Node5 -->
<g id="edge6_Node000006_Node000005" class="edge">
<title>Node6&#45;&gt;Node5</title>
<g id="a_edge6_Node000006_Node000005"><a xlink:title=" ">
<path fill="none" stroke="#63b8ff" d="M617.25,-70.82C604.32,-61.11 589.82,-50.24 577.73,-41.17"/>
<polygon fill="#63b8ff" stroke="#63b8ff" points="615.39,-73.79 625.49,-76.99 619.59,-68.19 615.39,-73.79"/>
</a>
</g>
</g>
<!-- Node7&#45;&gt;Node5 -->
<g id="edge8_Node000007_Node000005" class="edge">
<title>Node7&#45;&gt;Node5</title>
<g id="a_edge8_Node000007_Node000005"><a xlink:title=" ">
<path fill="none" stroke="#63b8ff" d="M458.22,-72.19C476.7,-62.15 497.83,-50.67 515.3,-41.17"/>
<polygon fill="#63b8ff" stroke="#63b8ff" points="456.51,-69.14 449.4,-76.99 459.86,-75.29 456.51,-69.14"/>
</a>
</g>
</g>
<!-- Node8&#45;&gt;Node5 -->
<g id="edge10_Node000008_Node000005" class="edge">
<title>Node8&#45;&gt;Node5</title>
<g id="a_edge10_Node000008_Node000005"><a xlink:title=" ">
<path fill="none" stroke="#63b8ff" d="M177.43,-76.9C288.3,-55.72 405.75,-39.58 479.29,-30.24"/>
<polygon fill="#63b8ff" stroke="#63b8ff" points="176.57,-73.5 167.42,-78.83 177.9,-80.38 176.57,-73.5"/>
</a>
</g>
</g>
<!-- Node9 -->
<g id="Node000009" class="node">
<title>Node9</title>
<g id="a_Node000009"><a xlink:href="_m_q_t_t_device_8cpp.html" target="_top" xlink:title=" ">
<polygon fill="white" stroke="#666666" points="175,-41 0,-41 0,0 175,0 175,-41"/>
<text text-anchor="start" x="8" y="-29" font-family="Helvetica,sans-Serif" font-size="10.00">/home/runner/work/uniot</text>
<text text-anchor="start" x="8" y="-18" font-family="Helvetica,sans-Serif" font-size="10.00">&#45;core/uniot&#45;core/lib/Core</text>
<text text-anchor="middle" x="87.5" y="-7" font-family="Helvetica,sans-Serif" font-size="10.00">/MQTTWrapper/MQTTDevice.cpp</text>
</a>
</g>
</g>
<!-- Node8&#45;&gt;Node9 -->
<g id="edge11_Node000008_Node000009" class="edge">
<title>Node8&#45;&gt;Node9</title>
<g id="a_edge11_Node000008_Node000009"><a xlink:title=" ">
<path fill="none" stroke="#63b8ff" d="M92.32,-66.69C91.4,-58.08 90.42,-48.9 89.59,-41.07"/>
<polygon fill="#63b8ff" stroke="#63b8ff" points="88.86,-67.22 93.4,-76.79 95.82,-66.48 88.86,-67.22"/>
</a>
</g>
</g>
<!-- Node11 -->
<g id="Node000011" class="node">
<title>Node11</title>
<g id="a_Node000011"><a xlink:href="_uniot_8cpp.html" target="_top" xlink:title=" ">
<polygon fill="white" stroke="#666666" points="331.5,-41 193.5,-41 193.5,0 331.5,0 331.5,-41"/>
<text text-anchor="start" x="201.5" y="-29" font-family="Helvetica,sans-Serif" font-size="10.00">/home/runner/work/uniot</text>
<text text-anchor="start" x="201.5" y="-18" font-family="Helvetica,sans-Serif" font-size="10.00">&#45;core/uniot&#45;core/lib/Uniot</text>
<text text-anchor="middle" x="262.5" y="-7" font-family="Helvetica,sans-Serif" font-size="10.00">/Uniot.cpp</text>
</a>
</g>
</g>
<!-- Node10&#45;&gt;Node11 -->
<g id="edge13_Node000010_Node000011" class="edge">
<title>Node10&#45;&gt;Node11</title>
<g id="a_edge13_Node000010_Node000011"><a xlink:title=" ">
<path fill="none" stroke="#63b8ff" d="M257.68,-66.69C258.6,-58.08 259.58,-48.9 260.41,-41.07"/>
<polygon fill="#63b8ff" stroke="#63b8ff" points="254.18,-66.48 256.6,-76.79 261.14,-67.22 254.18,-66.48"/>
</a>
</g>
</g>
<!-- Node13&#45;&gt;Node2 -->
<g id="edge21_Node000013_Node000002" class="edge">
<title>Node13&#45;&gt;Node2</title>
<g id="a_edge21_Node000013_Node000002"><a xlink:title=" ">
<path fill="none" stroke="#63b8ff" d="M828.37,-230.99C993.1,-204.26 1039.05,-222.91 1199.5,-195 1202.22,-194.53 1204.98,-194.01 1207.76,-193.46"/>
<polygon fill="#63b8ff" stroke="#63b8ff" points="827.68,-227.56 818.38,-232.64 828.82,-234.46 827.68,-227.56"/>
</a>
</g>
</g>
<!-- Node13&#45;&gt;Node6 -->
<g id="edge17_Node000013_Node000006" class="edge">
<title>Node13&#45;&gt;Node6</title>
<g id="a_edge17_Node000013_Node000006"><a xlink:title=" ">
<path fill="none" stroke="#63b8ff" d="M698.48,-225.13C687.04,-216.95 676,-206.87 668.5,-195 653.69,-171.56 650.85,-138.84 650.74,-118.17"/>
<polygon fill="#63b8ff" stroke="#63b8ff" points="696.58,-228.07 706.83,-230.75 700.49,-222.26 696.58,-228.07"/>
</a>
</g>
</g>
<!-- Node13&#45;&gt;Node8 -->
<g id="edge26_Node000013_Node000008" class="edge">
<title>Node13&#45;&gt;Node8</title>
<g id="a_edge26_Node000013_Node000008"><a xlink:title=" ">
<path fill="none" stroke="#63b8ff" d="M664.9,-236.52C652.39,-234.56 639.61,-232.65 627.5,-231 479.99,-210.96 437.58,-236.08 294.5,-195 290.33,-193.8 192.58,-146.06 135.66,-118.19"/>
<polygon fill="#63b8ff" stroke="#63b8ff" points="664.43,-239.99 674.86,-238.11 665.53,-233.08 664.43,-239.99"/>
</a>
</g>
</g>
<!-- Node14 -->
<g id="Node000014" class="node">
<title>Node14</title>
<g id="a_Node000014"><a xlink:href="_callback_event_listener_8h.html" target="_top" xlink:title=" ">
<polygon fill="white" stroke="#666666" points="1017,-195 832,-195 832,-154 1017,-154 1017,-195"/>
<text text-anchor="start" x="840" y="-183" font-family="Helvetica,sans-Serif" font-size="10.00">/home/runner/work/uniot</text>
<text text-anchor="start" x="840" y="-172" font-family="Helvetica,sans-Serif" font-size="10.00">&#45;core/uniot&#45;core/lib/Core</text>
<text text-anchor="middle" x="924.5" y="-161" font-family="Helvetica,sans-Serif" font-size="10.00">/EventBus/CallbackEventListener.h</text>
</a>
</g>
</g>
<!-- Node13&#45;&gt;Node14 -->
<g id="edge18_Node000013_Node000014" class="edge">
<title>Node13&#45;&gt;Node14</title>
<g id="a_edge18_Node000013_Node000014"><a xlink:title=" ">
<path fill="none" stroke="#63b8ff" d="M802.28,-227C826.66,-216.72 854.92,-204.82 878.12,-195.04"/>
<polygon fill="#63b8ff" stroke="#63b8ff" points="800.66,-223.88 792.8,-230.99 803.38,-230.33 800.66,-223.88"/>
</a>
</g>
</g>
<!-- Node16 -->
<g id="Node000016" class="node">
<title>Node16</title>
<g id="a_Node000016"><a xlink:href="_event_listener_8cpp.html" target="_top" xlink:title=" ">
<polygon fill="white" stroke="#666666" points="1190,-195 1035,-195 1035,-154 1190,-154 1190,-195"/>
<text text-anchor="start" x="1043" y="-183" font-family="Helvetica,sans-Serif" font-size="10.00">/home/runner/work/uniot</text>
<text text-anchor="start" x="1043" y="-172" font-family="Helvetica,sans-Serif" font-size="10.00">&#45;core/uniot&#45;core/lib/Core</text>
<text text-anchor="middle" x="1112.5" y="-161" font-family="Helvetica,sans-Serif" font-size="10.00">/EventBus/EventListener.cpp</text>
</a>
</g>
</g>
<!-- Node13&#45;&gt;Node16 -->
<g id="edge22_Node000013_Node000016" class="edge">
<title>Node13&#45;&gt;Node16</title>
<g id="a_edge22_Node000013_Node000016"><a xlink:title=" ">
<path fill="none" stroke="#63b8ff" d="M828.01,-230.96C917.15,-212.48 941.53,-212.31 1026.5,-195 1029.2,-194.45 1031.95,-193.88 1034.72,-193.3"/>
<polygon fill="#63b8ff" stroke="#63b8ff" points="827.07,-227.58 818,-233.05 828.51,-234.43 827.07,-227.58"/>
</a>
</g>
</g>
<!-- Node17 -->
<g id="Node000017" class="node">
<title>Node17</title>
<g id="a_Node000017"><a xlink:href="un_lisp_8h.html" target="_top" xlink:title=" ">
<polygon fill="white" stroke="#666666" points="814,-195 677,-195 677,-154 814,-154 814,-195"/>
<text text-anchor="start" x="685" y="-183" font-family="Helvetica,sans-Serif" font-size="10.00">/home/runner/work/uniot</text>
<text text-anchor="start" x="685" y="-172" font-family="Helvetica,sans-Serif" font-size="10.00">&#45;core/uniot&#45;core/lib/Core</text>
<text text-anchor="middle" x="745.5" y="-161" font-family="Helvetica,sans-Serif" font-size="10.00">/LispWrapper/unLisp.h</text>
</a>
</g>
</g>
<!-- Node13&#45;&gt;Node17 -->
<g id="edge23_Node000013_Node000017" class="edge">
<title>Node13&#45;&gt;Node17</title>
<g id="a_edge23_Node000013_Node000017"><a xlink:title=" ">
<path fill="none" stroke="#63b8ff" d="M746.1,-220.69C745.99,-212.08 745.87,-202.9 745.76,-195.07"/>
<polygon fill="#63b8ff" stroke="#63b8ff" points="742.6,-220.84 746.24,-230.79 749.6,-220.75 742.6,-220.84"/>
</a>
</g>
</g>
<!-- Node18 -->
<g id="Node000018" class="node">
<title>Node18</title>
<g id="a_Node000018"><a xlink:href="_network_controller_8h.html" target="_top" xlink:title=" ">
<polygon fill="white" stroke="#666666" points="620,-195 459,-195 459,-154 620,-154 620,-195"/>
<text text-anchor="start" x="467" y="-183" font-family="Helvetica,sans-Serif" font-size="10.00">/home/runner/work/uniot</text>
<text text-anchor="start" x="467" y="-172" font-family="Helvetica,sans-Serif" font-size="10.00">&#45;core/uniot&#45;core/lib/Core</text>
<text text-anchor="middle" x="539.5" y="-161" font-family="Helvetica,sans-Serif" font-size="10.00">/Network/NetworkController.h</text>
</a>
</g>
</g>
<!-- Node13&#45;&gt;Node18 -->
<g id="edge27_Node000013_Node000018" class="edge">
<title>Node13&#45;&gt;Node18</title>
<g id="a_edge27_Node000013_Node000018"><a xlink:title=" ">
<path fill="none" stroke="#63b8ff" d="M683.13,-227.54C654.44,-217.15 620.89,-204.99 593.44,-195.04"/>
<polygon fill="#63b8ff" stroke="#63b8ff" points="682.06,-230.87 692.65,-230.99 684.44,-224.29 682.06,-230.87"/>
</a>
</g>
</g>
<!-- Node14&#45;&gt;Node5 -->
<g id="edge19_Node000014_Node000005" class="edge">
<title>Node14&#45;&gt;Node5</title>
<g id="a_edge19_Node000014_Node000005"><a xlink:title=" ">
<path fill="none" stroke="#63b8ff" d="M875.57,-149.31C857.16,-139.9 836.18,-128.8 817.5,-118 788.25,-101.09 784.36,-90.74 753.5,-77 712.14,-58.58 663.23,-44.95 623.9,-35.81"/>
<polygon fill="#63b8ff" stroke="#63b8ff" points="874.15,-152.51 884.65,-153.92 877.32,-146.27 874.15,-152.51"/>
</a>
</g>
</g>
<!-- Node15 -->
<g id="Node000015" class="node">
<title>Node15</title>
<g id="a_Node000015"><a xlink:href="_callback_event_listener_8cpp.html" target="_top" xlink:title=" ">
<polygon fill="white" stroke="#666666" points="1023,-118 826,-118 826,-77 1023,-77 1023,-118"/>
<text text-anchor="start" x="834" y="-106" font-family="Helvetica,sans-Serif" font-size="10.00">/home/runner/work/uniot</text>
<text text-anchor="start" x="834" y="-95" font-family="Helvetica,sans-Serif" font-size="10.00">&#45;core/uniot&#45;core/lib/Core</text>
<text text-anchor="middle" x="924.5" y="-84" font-family="Helvetica,sans-Serif" font-size="10.00">/EventBus/CallbackEventListener.cpp</text>
</a>
</g>
</g>
<!-- Node14&#45;&gt;Node15 -->
<g id="edge20_Node000014_Node000015" class="edge">
<title>Node14&#45;&gt;Node15</title>
<g id="a_edge20_Node000014_Node000015"><a xlink:title=" ">
<path fill="none" stroke="#63b8ff" d="M924.5,-143.69C924.5,-135.08 924.5,-125.9 924.5,-118.07"/>
<polygon fill="#63b8ff" stroke="#63b8ff" points="921,-143.79 924.5,-153.79 928,-143.79 921,-143.79"/>
</a>
</g>
</g>
<!-- Node17&#45;&gt;Node5 -->
<g id="edge24_Node000017_Node000005" class="edge">
<title>Node17&#45;&gt;Node5</title>
<g id="a_edge24_Node000017_Node000005"><a xlink:title=" ">
<path fill="none" stroke="#63b8ff" d="M749.32,-143.65C750.3,-122.66 747.94,-95.2 732.5,-77 705.81,-45.55 661.79,-31.59 623.85,-25.54"/>
<polygon fill="#63b8ff" stroke="#63b8ff" points="745.83,-143.42 748.58,-153.65 752.81,-143.94 745.83,-143.42"/>
</a>
</g>
</g>
<!-- Node17&#45;&gt;Node6 -->
<g id="edge25_Node000017_Node000006" class="edge">
<title>Node17&#45;&gt;Node6</title>
<g id="a_edge25_Node000017_Node000006"><a xlink:title=" ">
<path fill="none" stroke="#63b8ff" d="M712.72,-147.35C700.67,-137.73 687.24,-127.01 676.03,-118.07"/>
<polygon fill="#63b8ff" stroke="#63b8ff" points="710.8,-150.29 720.8,-153.79 715.17,-144.82 710.8,-150.29"/>
</a>
</g>
</g>
<!-- Node18&#45;&gt;Node5 -->
<g id="edge28_Node000018_Node000005" class="edge">
<title>Node18&#45;&gt;Node5</title>
<g id="a_edge28_Node000018_Node000005"><a xlink:title=" ">
<path fill="none" stroke="#63b8ff" d="M541.86,-143.58C544.25,-113.36 547.87,-67.53 549.92,-41.47"/>
<polygon fill="#63b8ff" stroke="#63b8ff" points="538.34,-143.7 541.04,-153.94 545.32,-144.25 538.34,-143.7"/>
</a>
</g>
</g>
<!-- Node19&#45;&gt;Node8 -->
<g id="edge30_Node000019_Node000008" class="edge">
<title>Node19&#45;&gt;Node8</title>
<g id="a_edge30_Node000019_Node000008"><a xlink:title=" ">
<path fill="none" stroke="#63b8ff" d="M446.95,-245.28C383.17,-239.02 296.94,-225.26 226.5,-195 182.9,-176.27 140.11,-140.56 115.84,-118.23"/>
<polygon fill="#63b8ff" stroke="#63b8ff" points="446.7,-248.77 456.99,-246.22 447.36,-241.8 446.7,-248.77"/>
</a>
</g>
</g>
<!-- Node19&#45;&gt;Node18 -->
<g id="edge31_Node000019_Node000018" class="edge">
<title>Node19&#45;&gt;Node18</title>
<g id="a_edge31_Node000019_Node000018"><a xlink:title=" ">
<path fill="none" stroke="#63b8ff" d="M538.29,-220.69C538.52,-212.08 538.77,-202.9 538.98,-195.07"/>
<polygon fill="#63b8ff" stroke="#63b8ff" points="534.79,-220.7 538.03,-230.79 541.79,-220.89 534.79,-220.7"/>
</a>
</g>
</g>
</g>
</svg>
