<?xml version="1.0" encoding="UTF-8" standalone="no"?>
<!DOCTYPE svg PUBLIC "-//W3C//DTD SVG 1.1//EN"
 "http://www.w3.org/Graphics/SVG/1.1/DTD/svg11.dtd">
<!-- Generated by graphviz version 2.43.0 (0)
 -->
<!-- Title: /home/runner/work/uniot&#45;core/uniot&#45;core/lib/Core/Utils/GlobalBufferMemoryManager.cpp Pages: 1 -->
<svg width="328pt" height="159pt"
 viewBox="0.00 0.00 328.00 159.00" xmlns="http://www.w3.org/2000/svg" xmlns:xlink="http://www.w3.org/1999/xlink">
<g id="graph0" class="graph" transform="scale(1 1) rotate(0) translate(4 155)">
<title>/home/runner/work/uniot&#45;core/uniot&#45;core/lib/Core/Utils/GlobalBufferMemoryManager.cpp</title>
<!-- Node1 -->
<g id="Node000001" class="node">
<title>Node1</title>
<g id="a_Node000001"><a xlink:title=" ">
<polygon fill="#999999" stroke="#666666" points="320,-151 111,-151 111,-110 320,-110 320,-151"/>
<text text-anchor="start" x="119" y="-139" font-family="Helvetica,sans-Serif" font-size="10.00">/home/runner/work/uniot</text>
<text text-anchor="start" x="119" y="-128" font-family="Helvetica,sans-Serif" font-size="10.00">&#45;core/uniot&#45;core/lib/Core</text>
<text text-anchor="middle" x="215.5" y="-117" font-family="Helvetica,sans-Serif" font-size="10.00">/Utils/GlobalBufferMemoryManager.cpp</text>
</a>
</g>
</g>
<!-- Node2 -->
<g id="Node000002" class="node">
<title>Node2</title>
<g id="a_Node000002"><a xlink:href="_global_buffer_memory_manager_8h.html" target="_top" xlink:title=" ">
<polygon fill="white" stroke="#666666" points="169,-74 0,-74 0,-55 169,-55 169,-74"/>
<text text-anchor="middle" x="84.5" y="-62" font-family="Helvetica,sans-Serif" font-size="10.00">GlobalBufferMemoryManager.h</text>
</a>
</g>
</g>
<!-- Node1&#45;&gt;Node2 -->
<g id="edge1_Node000001_Node000002" class="edge">
<title>Node1&#45;&gt;Node2</title>
<g id="a_edge1_Node000001_Node000002"><a xlink:title=" ">
<path fill="none" stroke="#63b8ff" d="M175.48,-109.95C154.6,-99.75 129.61,-87.54 111.11,-78.5"/>
<polygon fill="#63b8ff" stroke="#63b8ff" points="112.61,-75.34 102.09,-74.09 109.54,-81.63 112.61,-75.34"/>
</a>
</g>
</g>
<!-- Node4 -->
<g id="Node000004" class="node">
<title>Node4</title>
<g id="a_Node000004"><a xlink:href="_logger_8h.html" target="_top" xlink:title=" ">
<polygon fill="white" stroke="#666666" points="244.5,-74 186.5,-74 186.5,-55 244.5,-55 244.5,-74"/>
<text text-anchor="middle" x="215.5" y="-62" font-family="Helvetica,sans-Serif" font-size="10.00">Logger.h</text>
</a>
</g>
</g>
<!-- Node1&#45;&gt;Node4 -->
<g id="edge3_Node000001_Node000004" class="edge">
<title>Node1&#45;&gt;Node4</title>
<g id="a_edge3_Node000001_Node000004"><a xlink:title=" ">
<path fill="none" stroke="#63b8ff" d="M215.5,-109.95C215.5,-101.85 215.5,-92.5 215.5,-84.47"/>
<polygon fill="#63b8ff" stroke="#63b8ff" points="219,-84.26 215.5,-74.26 212,-84.26 219,-84.26"/>
</a>
</g>
</g>
<!-- Node5 -->
<g id="Node000005" class="node">
<title>Node5</title>
<g id="a_Node000005"><a xlink:title=" ">
<polygon fill="#e0e0e0" stroke="#999999" points="314.5,-74 262.5,-74 262.5,-55 314.5,-55 314.5,-74"/>
<text text-anchor="middle" x="288.5" y="-62" font-family="Helvetica,sans-Serif" font-size="10.00">cassert</text>
</a>
</g>
</g>
<!-- Node1&#45;&gt;Node5 -->
<g id="edge5_Node000001_Node000005" class="edge">
<title>Node1&#45;&gt;Node5</title>
<g id="a_edge5_Node000001_Node000005"><a xlink:title=" ">
<path fill="none" stroke="#63b8ff" d="M237.8,-109.95C248.41,-100.65 260.92,-89.68 270.86,-80.96"/>
<polygon fill="#63b8ff" stroke="#63b8ff" points="273.3,-83.48 278.51,-74.26 268.68,-78.22 273.3,-83.48"/>
</a>
</g>
</g>
<!-- Node3 -->
<g id="Node000003" class="node">
<title>Node3</title>
<g id="a_Node000003"><a xlink:title=" ">
<polygon fill="#e0e0e0" stroke="#999999" points="181,-19 118,-19 118,0 181,0 181,-19"/>
<text text-anchor="middle" x="149.5" y="-7" font-family="Helvetica,sans-Serif" font-size="10.00">Arduino.h</text>
</a>
</g>
</g>
<!-- Node2&#45;&gt;Node3 -->
<g id="edge2_Node000002_Node000003" class="edge">
<title>Node2&#45;&gt;Node3</title>
<g id="a_edge2_Node000002_Node000003"><a xlink:title=" ">
<path fill="none" stroke="#63b8ff" d="M94.94,-54.98C104.65,-47.07 119.32,-35.11 131,-25.58"/>
<polygon fill="#63b8ff" stroke="#63b8ff" points="133.33,-28.2 138.87,-19.17 128.9,-22.78 133.33,-28.2"/>
</a>
</g>
</g>
<!-- Node4&#45;&gt;Node3 -->
<g id="edge4_Node000004_Node000003" class="edge">
<title>Node4&#45;&gt;Node3</title>
<g id="a_edge4_Node000004_Node000003"><a xlink:title=" ">
<path fill="none" stroke="#63b8ff" d="M204.9,-54.98C195.04,-47.07 180.15,-35.11 168.28,-25.58"/>
<polygon fill="#63b8ff" stroke="#63b8ff" points="170.29,-22.7 160.3,-19.17 165.9,-28.16 170.29,-22.7"/>
</a>
</g>
</g>
</g>
</svg>
