<?xml version="1.0" encoding="UTF-8" standalone="no"?>
<!DOCTYPE svg PUBLIC "-//W3C//DTD SVG 1.1//EN"
 "http://www.w3.org/Graphics/SVG/1.1/DTD/svg11.dtd">
<!-- Generated by graphviz version 2.43.0 (0)
 -->
<!-- Title: /home/runner/work/uniot&#45;core/uniot&#45;core/lib/Core/Scheduler/IExecutor.h Pages: 1 -->
<svg width="1811pt" height="357pt"
 viewBox="0.00 0.00 1810.90 357.00" xmlns="http://www.w3.org/2000/svg" xmlns:xlink="http://www.w3.org/1999/xlink">
<g id="graph0" class="graph" transform="scale(1 1) rotate(0) translate(4 353)">
<title>/home/runner/work/uniot&#45;core/uniot&#45;core/lib/Core/Scheduler/IExecutor.h</title>
<!-- Node1 -->
<g id="Node000001" class="node">
<title>Node1</title>
<g id="a_Node000001"><a xlink:title=" ">
<polygon fill="#999999" stroke="#666666" points="715.9,-349 578.9,-349 578.9,-308 715.9,-308 715.9,-349"/>
<text text-anchor="start" x="586.9" y="-337" font-family="Helvetica,sans-Serif" font-size="10.00">/home/runner/work/uniot</text>
<text text-anchor="start" x="586.9" y="-326" font-family="Helvetica,sans-Serif" font-size="10.00">&#45;core/uniot&#45;core/lib/Core</text>
<text text-anchor="middle" x="647.4" y="-315" font-family="Helvetica,sans-Serif" font-size="10.00">/Scheduler/IExecutor.h</text>
</a>
</g>
</g>
<!-- Node2 -->
<g id="Node000002" class="node">
<title>Node2</title>
<g id="a_Node000002"><a xlink:href="_date_8h.html" target="_top" xlink:title=" ">
<polygon fill="white" stroke="#666666" points="294.9,-272 157.9,-272 157.9,-231 294.9,-231 294.9,-272"/>
<text text-anchor="start" x="165.9" y="-260" font-family="Helvetica,sans-Serif" font-size="10.00">/home/runner/work/uniot</text>
<text text-anchor="start" x="165.9" y="-249" font-family="Helvetica,sans-Serif" font-size="10.00">&#45;core/uniot&#45;core/lib/Core</text>
<text text-anchor="middle" x="226.4" y="-238" font-family="Helvetica,sans-Serif" font-size="10.00">/Date/Date.h</text>
</a>
</g>
</g>
<!-- Node1&#45;&gt;Node2 -->
<g id="edge1_Node000001_Node000002" class="edge">
<title>Node1&#45;&gt;Node2</title>
<g id="a_edge1_Node000001_Node000002"><a xlink:title=" ">
<path fill="none" stroke="#63b8ff" d="M568.95,-313.52C490.18,-299.49 370.02,-278.08 294.95,-264.71"/>
<polygon fill="#63b8ff" stroke="#63b8ff" points="568.37,-316.97 578.83,-315.28 569.59,-310.08 568.37,-316.97"/>
</a>
</g>
</g>
<!-- Node10 -->
<g id="Node000010" class="node">
<title>Node10</title>
<g id="a_Node000010"><a xlink:href="_event_bus_8h.html" target="_top" xlink:title=" ">
<polygon fill="white" stroke="#666666" points="1114.9,-272 977.9,-272 977.9,-231 1114.9,-231 1114.9,-272"/>
<text text-anchor="start" x="985.9" y="-260" font-family="Helvetica,sans-Serif" font-size="10.00">/home/runner/work/uniot</text>
<text text-anchor="start" x="985.9" y="-249" font-family="Helvetica,sans-Serif" font-size="10.00">&#45;core/uniot&#45;core/lib/Core</text>
<text text-anchor="middle" x="1046.4" y="-238" font-family="Helvetica,sans-Serif" font-size="10.00">/EventBus/EventBus.h</text>
</a>
</g>
</g>
<!-- Node1&#45;&gt;Node10 -->
<g id="edge12_Node000001_Node000010" class="edge">
<title>Node1&#45;&gt;Node10</title>
<g id="a_edge12_Node000001_Node000010"><a xlink:title=" ">
<path fill="none" stroke="#63b8ff" d="M726.11,-312.71C799.46,-298.92 907.76,-278.56 977.71,-265.41"/>
<polygon fill="#63b8ff" stroke="#63b8ff" points="725.18,-309.32 715.99,-314.61 726.47,-316.2 725.18,-309.32"/>
</a>
</g>
</g>
<!-- Node18 -->
<g id="Node000018" class="node">
<title>Node18</title>
<g id="a_Node000018"><a xlink:href="_button_8h.html" target="_top" xlink:title=" ">
<polygon fill="white" stroke="#666666" points="713.9,-195 576.9,-195 576.9,-154 713.9,-154 713.9,-195"/>
<text text-anchor="start" x="584.9" y="-183" font-family="Helvetica,sans-Serif" font-size="10.00">/home/runner/work/uniot</text>
<text text-anchor="start" x="584.9" y="-172" font-family="Helvetica,sans-Serif" font-size="10.00">&#45;core/uniot&#45;core/lib/Core</text>
<text text-anchor="middle" x="645.4" y="-161" font-family="Helvetica,sans-Serif" font-size="10.00">/Hardware/Button.h</text>
</a>
</g>
</g>
<!-- Node1&#45;&gt;Node18 -->
<g id="edge26_Node000001_Node000018" class="edge">
<title>Node1&#45;&gt;Node18</title>
<g id="a_edge26_Node000001_Node000018"><a xlink:title=" ">
<path fill="none" stroke="#63b8ff" d="M647.01,-297.58C646.61,-267.36 646.01,-221.53 645.67,-195.47"/>
<polygon fill="#63b8ff" stroke="#63b8ff" points="643.51,-297.99 647.15,-307.94 650.51,-297.89 643.51,-297.99"/>
</a>
</g>
</g>
<!-- Node20 -->
<g id="Node000020" class="node">
<title>Node20</title>
<g id="a_Node000020"><a xlink:href="_config_captive_portal_8h.html" target="_top" xlink:title=" ">
<polygon fill="white" stroke="#666666" points="870.4,-272 700.4,-272 700.4,-231 870.4,-231 870.4,-272"/>
<text text-anchor="start" x="708.4" y="-260" font-family="Helvetica,sans-Serif" font-size="10.00">/home/runner/work/uniot</text>
<text text-anchor="start" x="708.4" y="-249" font-family="Helvetica,sans-Serif" font-size="10.00">&#45;core/uniot&#45;core/lib/Core</text>
<text text-anchor="middle" x="785.4" y="-238" font-family="Helvetica,sans-Serif" font-size="10.00">/Network/ConfigCaptivePortal.h</text>
</a>
</g>
</g>
<!-- Node1&#45;&gt;Node20 -->
<g id="edge30_Node000001_Node000020" class="edge">
<title>Node1&#45;&gt;Node20</title>
<g id="a_edge30_Node000001_Node000020"><a xlink:title=" ">
<path fill="none" stroke="#63b8ff" d="M692.13,-303.19C710.6,-293.15 731.73,-281.67 749.21,-272.17"/>
<polygon fill="#63b8ff" stroke="#63b8ff" points="690.42,-300.14 683.3,-307.99 693.76,-306.29 690.42,-300.14"/>
</a>
</g>
</g>
<!-- Node21 -->
<g id="Node000021" class="node">
<title>Node21</title>
<g id="a_Node000021"><a xlink:href="_task_scheduler_8h.html" target="_top" xlink:title=" ">
<polygon fill="white" stroke="#666666" points="619.9,-272 470.9,-272 470.9,-231 619.9,-231 619.9,-272"/>
<text text-anchor="start" x="478.9" y="-260" font-family="Helvetica,sans-Serif" font-size="10.00">/home/runner/work/uniot</text>
<text text-anchor="start" x="478.9" y="-249" font-family="Helvetica,sans-Serif" font-size="10.00">&#45;core/uniot&#45;core/lib/Core</text>
<text text-anchor="middle" x="545.4" y="-238" font-family="Helvetica,sans-Serif" font-size="10.00">/Scheduler/TaskScheduler.h</text>
</a>
</g>
</g>
<!-- Node1&#45;&gt;Node21 -->
<g id="edge32_Node000001_Node000021" class="edge">
<title>Node1&#45;&gt;Node21</title>
<g id="a_edge32_Node000001_Node000021"><a xlink:title=" ">
<path fill="none" stroke="#63b8ff" d="M612.47,-301.82C599.28,-292.11 584.49,-281.24 572.16,-272.17"/>
<polygon fill="#63b8ff" stroke="#63b8ff" points="610.74,-304.89 620.87,-307.99 614.89,-299.25 610.74,-304.89"/>
</a>
</g>
</g>
<!-- Node3 -->
<g id="Node000003" class="node">
<title>Node3</title>
<g id="a_Node000003"><a xlink:href="_app_kit_8h.html" target="_top" xlink:title=" ">
<polygon fill="white" stroke="#666666" points="462.4,-41 318.4,-41 318.4,0 462.4,0 462.4,-41"/>
<text text-anchor="start" x="326.4" y="-29" font-family="Helvetica,sans-Serif" font-size="10.00">/home/runner/work/uniot</text>
<text text-anchor="start" x="326.4" y="-18" font-family="Helvetica,sans-Serif" font-size="10.00">&#45;core/uniot&#45;core/lib/AppKit</text>
<text text-anchor="middle" x="390.4" y="-7" font-family="Helvetica,sans-Serif" font-size="10.00">/AppKit.h</text>
</a>
</g>
</g>
<!-- Node2&#45;&gt;Node3 -->
<g id="edge2_Node000002_Node000003" class="edge">
<title>Node2&#45;&gt;Node3</title>
<g id="a_edge2_Node000002_Node000003"><a xlink:title=" ">
<path fill="none" stroke="#63b8ff" d="M147.86,-240.92C92.02,-232.3 23.93,-217.5 6.4,-195 -15.46,-166.94 27.2,-80.58 31.4,-77 73.49,-41.18 226.19,-28.4 318.34,-23.89"/>
<polygon fill="#63b8ff" stroke="#63b8ff" points="147.37,-244.38 157.78,-242.4 148.4,-237.46 147.37,-244.38"/>
</a>
</g>
</g>
<!-- Node4 -->
<g id="Node000004" class="node">
<title>Node4</title>
<g id="a_Node000004"><a xlink:href="_lisp_device_8h.html" target="_top" xlink:title=" ">
<polygon fill="white" stroke="#666666" points="195.4,-118 51.4,-118 51.4,-77 195.4,-77 195.4,-118"/>
<text text-anchor="start" x="59.4" y="-106" font-family="Helvetica,sans-Serif" font-size="10.00">/home/runner/work/uniot</text>
<text text-anchor="start" x="59.4" y="-95" font-family="Helvetica,sans-Serif" font-size="10.00">&#45;core/uniot&#45;core/lib/AppKit</text>
<text text-anchor="middle" x="123.4" y="-84" font-family="Helvetica,sans-Serif" font-size="10.00">/LispDevice.h</text>
</a>
</g>
</g>
<!-- Node2&#45;&gt;Node4 -->
<g id="edge3_Node000002_Node000004" class="edge">
<title>Node2&#45;&gt;Node4</title>
<g id="a_edge3_Node000002_Node000004"><a xlink:title=" ">
<path fill="none" stroke="#63b8ff" d="M147.71,-239.69C95.44,-230.72 33.56,-216 17.4,-195 6.29,-180.56 7.97,-169.59 17.4,-154 27.08,-138.01 43.06,-126.4 59.71,-118.07"/>
<polygon fill="#63b8ff" stroke="#63b8ff" points="147.24,-243.16 157.68,-241.36 148.39,-236.26 147.24,-243.16"/>
</a>
</g>
</g>
<!-- Node5 -->
<g id="Node000005" class="node">
<title>Node5</title>
<g id="a_Node000005"><a xlink:href="_top_device_8h.html" target="_top" xlink:title=" ">
<polygon fill="white" stroke="#666666" points="170.4,-195 26.4,-195 26.4,-154 170.4,-154 170.4,-195"/>
<text text-anchor="start" x="34.4" y="-183" font-family="Helvetica,sans-Serif" font-size="10.00">/home/runner/work/uniot</text>
<text text-anchor="start" x="34.4" y="-172" font-family="Helvetica,sans-Serif" font-size="10.00">&#45;core/uniot&#45;core/lib/AppKit</text>
<text text-anchor="middle" x="98.4" y="-161" font-family="Helvetica,sans-Serif" font-size="10.00">/TopDevice.h</text>
</a>
</g>
</g>
<!-- Node2&#45;&gt;Node5 -->
<g id="edge5_Node000002_Node000005" class="edge">
<title>Node2&#45;&gt;Node5</title>
<g id="a_edge5_Node000002_Node000005"><a xlink:title=" ">
<path fill="none" stroke="#63b8ff" d="M184.45,-225.92C167.43,-215.95 148.04,-204.58 131.98,-195.17"/>
<polygon fill="#63b8ff" stroke="#63b8ff" points="182.71,-228.95 193.11,-230.99 186.25,-222.92 182.71,-228.95"/>
</a>
</g>
</g>
<!-- Node6 -->
<g id="Node000006" class="node">
<title>Node6</title>
<g id="a_Node000006"><a xlink:href="_m_q_t_t_kit_8h.html" target="_top" xlink:title=" ">
<polygon fill="white" stroke="#666666" points="550.9,-118 407.9,-118 407.9,-77 550.9,-77 550.9,-118"/>
<text text-anchor="start" x="415.9" y="-106" font-family="Helvetica,sans-Serif" font-size="10.00">/home/runner/work/uniot</text>
<text text-anchor="start" x="415.9" y="-95" font-family="Helvetica,sans-Serif" font-size="10.00">&#45;core/uniot&#45;core/lib/Core</text>
<text text-anchor="middle" x="479.4" y="-84" font-family="Helvetica,sans-Serif" font-size="10.00">/MQTTWrapper/MQTTKit.h</text>
</a>
</g>
</g>
<!-- Node2&#45;&gt;Node6 -->
<g id="edge7_Node000002_Node000006" class="edge">
<title>Node2&#45;&gt;Node6</title>
<g id="a_edge7_Node000002_Node000006"><a xlink:title=" ">
<path fill="none" stroke="#63b8ff" d="M281.83,-226.48C299.38,-217.73 318.38,-206.99 334.4,-195 354.54,-179.93 353.33,-169.15 373.4,-154 391.98,-139.99 414.59,-127.61 434.15,-118.13"/>
<polygon fill="#63b8ff" stroke="#63b8ff" points="280.26,-223.35 272.8,-230.88 283.32,-229.65 280.26,-223.35"/>
</a>
</g>
</g>
<!-- Node8 -->
<g id="Node000008" class="node">
<title>Node8</title>
<g id="a_Node000008"><a xlink:href="_uniot_8h.html" target="_top" xlink:title=" ">
<polygon fill="white" stroke="#666666" points="520.4,-195 382.4,-195 382.4,-154 520.4,-154 520.4,-195"/>
<text text-anchor="start" x="390.4" y="-183" font-family="Helvetica,sans-Serif" font-size="10.00">/home/runner/work/uniot</text>
<text text-anchor="start" x="390.4" y="-172" font-family="Helvetica,sans-Serif" font-size="10.00">&#45;core/uniot&#45;core/lib/Uniot</text>
<text text-anchor="middle" x="451.4" y="-161" font-family="Helvetica,sans-Serif" font-size="10.00">/Uniot.h</text>
</a>
</g>
</g>
<!-- Node2&#45;&gt;Node8 -->
<g id="edge10_Node000002_Node000008" class="edge">
<title>Node2&#45;&gt;Node8</title>
<g id="a_edge10_Node000002_Node000008"><a xlink:title=" ">
<path fill="none" stroke="#63b8ff" d="M294.47,-227.81C325.83,-217.36 362.67,-205.08 392.78,-195.04"/>
<polygon fill="#63b8ff" stroke="#63b8ff" points="293.31,-224.51 284.93,-230.99 295.53,-231.15 293.31,-224.51"/>
</a>
</g>
</g>
<!-- Node4&#45;&gt;Node3 -->
<g id="edge4_Node000004_Node000003" class="edge">
<title>Node4&#45;&gt;Node3</title>
<g id="a_edge4_Node000004_Node000003"><a xlink:title=" ">
<path fill="none" stroke="#63b8ff" d="M202.74,-74.21C240.26,-63.68 284.65,-51.21 320.83,-41.04"/>
<polygon fill="#63b8ff" stroke="#63b8ff" points="201.54,-70.92 192.86,-76.99 203.43,-77.66 201.54,-70.92"/>
</a>
</g>
</g>
<!-- Node5&#45;&gt;Node3 -->
<g id="edge6_Node000005_Node000003" class="edge">
<title>Node5&#45;&gt;Node3</title>
<g id="a_edge6_Node000005_Node000003"><a xlink:title=" ">
<path fill="none" stroke="#63b8ff" d="M65.63,-146.82C44.54,-126.45 24.18,-98.35 42.4,-77 77.15,-36.27 227.01,-25.29 318.37,-22.42"/>
<polygon fill="#63b8ff" stroke="#63b8ff" points="63.34,-149.47 73.06,-153.68 68.08,-144.32 63.34,-149.47"/>
</a>
</g>
</g>
<!-- Node6&#45;&gt;Node3 -->
<g id="edge8_Node000006_Node000003" class="edge">
<title>Node6&#45;&gt;Node3</title>
<g id="a_edge8_Node000006_Node000003"><a xlink:title=" ">
<path fill="none" stroke="#63b8ff" d="M448.37,-70.35C436.96,-60.73 424.24,-50.01 413.63,-41.07"/>
<polygon fill="#63b8ff" stroke="#63b8ff" points="446.12,-73.03 456.02,-76.79 450.63,-67.67 446.12,-73.03"/>
</a>
</g>
</g>
<!-- Node7 -->
<g id="Node000007" class="node">
<title>Node7</title>
<g id="a_Node000007"><a xlink:href="_m_q_t_t_device_8cpp.html" target="_top" xlink:title=" ">
<polygon fill="white" stroke="#666666" points="655.9,-41 480.9,-41 480.9,0 655.9,0 655.9,-41"/>
<text text-anchor="start" x="488.9" y="-29" font-family="Helvetica,sans-Serif" font-size="10.00">/home/runner/work/uniot</text>
<text text-anchor="start" x="488.9" y="-18" font-family="Helvetica,sans-Serif" font-size="10.00">&#45;core/uniot&#45;core/lib/Core</text>
<text text-anchor="middle" x="568.4" y="-7" font-family="Helvetica,sans-Serif" font-size="10.00">/MQTTWrapper/MQTTDevice.cpp</text>
</a>
</g>
</g>
<!-- Node6&#45;&gt;Node7 -->
<g id="edge9_Node000006_Node000007" class="edge">
<title>Node6&#45;&gt;Node7</title>
<g id="a_edge9_Node000006_Node000007"><a xlink:title=" ">
<path fill="none" stroke="#63b8ff" d="M510.44,-70.35C521.85,-60.73 534.57,-50.01 545.18,-41.07"/>
<polygon fill="#63b8ff" stroke="#63b8ff" points="508.18,-67.67 502.79,-76.79 512.69,-73.03 508.18,-67.67"/>
</a>
</g>
</g>
<!-- Node9 -->
<g id="Node000009" class="node">
<title>Node9</title>
<g id="a_Node000009"><a xlink:href="_uniot_8cpp.html" target="_top" xlink:title=" ">
<polygon fill="white" stroke="#666666" points="389.4,-118 251.4,-118 251.4,-77 389.4,-77 389.4,-118"/>
<text text-anchor="start" x="259.4" y="-106" font-family="Helvetica,sans-Serif" font-size="10.00">/home/runner/work/uniot</text>
<text text-anchor="start" x="259.4" y="-95" font-family="Helvetica,sans-Serif" font-size="10.00">&#45;core/uniot&#45;core/lib/Uniot</text>
<text text-anchor="middle" x="320.4" y="-84" font-family="Helvetica,sans-Serif" font-size="10.00">/Uniot.cpp</text>
</a>
</g>
</g>
<!-- Node8&#45;&gt;Node9 -->
<g id="edge11_Node000008_Node000009" class="edge">
<title>Node8&#45;&gt;Node9</title>
<g id="a_edge11_Node000008_Node000009"><a xlink:title=" ">
<path fill="none" stroke="#63b8ff" d="M408.47,-148.92C391.05,-138.95 371.2,-127.58 354.76,-118.17"/>
<polygon fill="#63b8ff" stroke="#63b8ff" points="406.91,-152.06 417.33,-153.99 410.39,-145.98 406.91,-152.06"/>
</a>
</g>
</g>
<!-- Node10&#45;&gt;Node3 -->
<g id="edge13_Node000010_Node000003" class="edge">
<title>Node10&#45;&gt;Node3</title>
<g id="a_edge13_Node000010_Node000003"><a xlink:title=" ">
<path fill="none" stroke="#63b8ff" d="M980.81,-226.24C965.89,-218.19 951.26,-207.89 940.4,-195 904.91,-152.86 945.54,-111.27 902.4,-77 827.33,-17.35 567.09,-56.13 472.4,-41 469.22,-40.49 465.99,-39.93 462.72,-39.32"/>
<polygon fill="#63b8ff" stroke="#63b8ff" points="979.6,-229.55 990.1,-230.97 982.77,-223.31 979.6,-229.55"/>
</a>
</g>
</g>
<!-- Node10&#45;&gt;Node8 -->
<g id="edge25_Node000010_Node000008" class="edge">
<title>Node10&#45;&gt;Node8</title>
<g id="a_edge25_Node000010_Node000008"><a xlink:title=" ">
<path fill="none" stroke="#63b8ff" d="M967.66,-241.29C939.78,-238.03 908.2,-234.35 879.4,-231 741.19,-214.93 706.18,-214.44 568.4,-195 552.91,-192.81 536.3,-190.21 520.61,-187.62"/>
<polygon fill="#63b8ff" stroke="#63b8ff" points="967.41,-244.78 977.75,-242.47 968.22,-237.83 967.41,-244.78"/>
</a>
</g>
</g>
<!-- Node11 -->
<g id="Node000011" class="node">
<title>Node11</title>
<g id="a_Node000011"><a xlink:href="_event_bus_8cpp.html" target="_top" xlink:title=" ">
<polygon fill="white" stroke="#666666" points="1802.9,-195 1665.9,-195 1665.9,-154 1802.9,-154 1802.9,-195"/>
<text text-anchor="start" x="1673.9" y="-183" font-family="Helvetica,sans-Serif" font-size="10.00">/home/runner/work/uniot</text>
<text text-anchor="start" x="1673.9" y="-172" font-family="Helvetica,sans-Serif" font-size="10.00">&#45;core/uniot&#45;core/lib/Core</text>
<text text-anchor="middle" x="1734.4" y="-161" font-family="Helvetica,sans-Serif" font-size="10.00">/EventBus/EventBus.cpp</text>
</a>
</g>
</g>
<!-- Node10&#45;&gt;Node11 -->
<g id="edge14_Node000010_Node000011" class="edge">
<title>Node10&#45;&gt;Node11</title>
<g id="a_edge14_Node000010_Node000011"><a xlink:title=" ">
<path fill="none" stroke="#63b8ff" d="M1125.41,-247.3C1242.35,-241.67 1468.1,-227.36 1657.4,-195 1660.12,-194.54 1662.89,-194.02 1665.67,-193.48"/>
<polygon fill="#63b8ff" stroke="#63b8ff" points="1124.95,-243.82 1115.13,-247.79 1125.28,-250.81 1124.95,-243.82"/>
</a>
</g>
</g>
<!-- Node12 -->
<g id="Node000012" class="node">
<title>Node12</title>
<g id="a_Node000012"><a xlink:href="_event_emitter_8cpp.html" target="_top" xlink:title=" ">
<polygon fill="white" stroke="#666666" points="1313.4,-195 1161.4,-195 1161.4,-154 1313.4,-154 1313.4,-195"/>
<text text-anchor="start" x="1169.4" y="-183" font-family="Helvetica,sans-Serif" font-size="10.00">/home/runner/work/uniot</text>
<text text-anchor="start" x="1169.4" y="-172" font-family="Helvetica,sans-Serif" font-size="10.00">&#45;core/uniot&#45;core/lib/Core</text>
<text text-anchor="middle" x="1237.4" y="-161" font-family="Helvetica,sans-Serif" font-size="10.00">/EventBus/EventEmitter.cpp</text>
</a>
</g>
</g>
<!-- Node10&#45;&gt;Node12 -->
<g id="edge15_Node000010_Node000012" class="edge">
<title>Node10&#45;&gt;Node12</title>
<g id="a_edge15_Node000010_Node000012"><a xlink:title=" ">
<path fill="none" stroke="#63b8ff" d="M1105.57,-227.27C1131.88,-216.94 1162.52,-204.9 1187.64,-195.04"/>
<polygon fill="#63b8ff" stroke="#63b8ff" points="1104.12,-224.08 1096.09,-230.99 1106.68,-230.59 1104.12,-224.08"/>
</a>
</g>
</g>
<!-- Node13 -->
<g id="Node000013" class="node">
<title>Node13</title>
<g id="a_Node000013"><a xlink:href="_event_entity_8cpp.html" target="_top" xlink:title=" ">
<polygon fill="white" stroke="#666666" points="1474.9,-195 1331.9,-195 1331.9,-154 1474.9,-154 1474.9,-195"/>
<text text-anchor="start" x="1339.9" y="-183" font-family="Helvetica,sans-Serif" font-size="10.00">/home/runner/work/uniot</text>
<text text-anchor="start" x="1339.9" y="-172" font-family="Helvetica,sans-Serif" font-size="10.00">&#45;core/uniot&#45;core/lib/Core</text>
<text text-anchor="middle" x="1403.4" y="-161" font-family="Helvetica,sans-Serif" font-size="10.00">/EventBus/EventEntity.cpp</text>
</a>
</g>
</g>
<!-- Node10&#45;&gt;Node13 -->
<g id="edge16_Node000010_Node000013" class="edge">
<title>Node10&#45;&gt;Node13</title>
<g id="a_edge16_Node000010_Node000013"><a xlink:title=" ">
<path fill="none" stroke="#63b8ff" d="M1125.26,-235.47C1180.55,-224.72 1256.13,-209.63 1322.4,-195 1325.51,-194.31 1328.68,-193.6 1331.88,-192.87"/>
<polygon fill="#63b8ff" stroke="#63b8ff" points="1124.33,-232.08 1115.18,-237.42 1125.66,-238.95 1124.33,-232.08"/>
</a>
</g>
</g>
<!-- Node14 -->
<g id="Node000014" class="node">
<title>Node14</title>
<g id="a_Node000014"><a xlink:href="_event_listener_8cpp.html" target="_top" xlink:title=" ">
<polygon fill="white" stroke="#666666" points="1647.9,-195 1492.9,-195 1492.9,-154 1647.9,-154 1647.9,-195"/>
<text text-anchor="start" x="1500.9" y="-183" font-family="Helvetica,sans-Serif" font-size="10.00">/home/runner/work/uniot</text>
<text text-anchor="start" x="1500.9" y="-172" font-family="Helvetica,sans-Serif" font-size="10.00">&#45;core/uniot&#45;core/lib/Core</text>
<text text-anchor="middle" x="1570.4" y="-161" font-family="Helvetica,sans-Serif" font-size="10.00">/EventBus/EventListener.cpp</text>
</a>
</g>
</g>
<!-- Node10&#45;&gt;Node14 -->
<g id="edge17_Node000010_Node000014" class="edge">
<title>Node10&#45;&gt;Node14</title>
<g id="a_edge17_Node000010_Node000014"><a xlink:title=" ">
<path fill="none" stroke="#63b8ff" d="M1125.16,-242.85C1213.11,-233.76 1359.51,-217.02 1484.4,-195 1487.12,-194.52 1489.87,-194.01 1492.66,-193.48"/>
<polygon fill="#63b8ff" stroke="#63b8ff" points="1124.58,-239.39 1114.99,-243.89 1125.3,-246.35 1124.58,-239.39"/>
</a>
</g>
</g>
<!-- Node15 -->
<g id="Node000015" class="node">
<title>Node15</title>
<g id="a_Node000015"><a xlink:href="_i_event_bus_connection_kit_8h.html" target="_top" xlink:title="Defines the interface for components that can connect to an EventBus.">
<polygon fill="white" stroke="#666666" points="1143.4,-195 949.4,-195 949.4,-154 1143.4,-154 1143.4,-195"/>
<text text-anchor="start" x="957.4" y="-183" font-family="Helvetica,sans-Serif" font-size="10.00">/home/runner/work/uniot</text>
<text text-anchor="start" x="957.4" y="-172" font-family="Helvetica,sans-Serif" font-size="10.00">&#45;core/uniot&#45;core/lib/Core</text>
<text text-anchor="middle" x="1046.4" y="-161" font-family="Helvetica,sans-Serif" font-size="10.00">/EventBus/IEventBusConnectionKit.h</text>
</a>
</g>
</g>
<!-- Node10&#45;&gt;Node15 -->
<g id="edge18_Node000010_Node000015" class="edge">
<title>Node10&#45;&gt;Node15</title>
<g id="a_edge18_Node000010_Node000015"><a xlink:title=" ">
<path fill="none" stroke="#63b8ff" d="M1039.78,-220.69C1039.49,-212.08 1039.69,-202.9 1040.39,-195.07"/>
<polygon fill="#63b8ff" stroke="#63b8ff" points="1036.29,-221.02 1040.38,-230.79 1043.28,-220.6 1036.29,-221.02"/>
</a>
</g>
</g>
<!-- Node16 -->
<g id="Node000016" class="node">
<title>Node16</title>
<g id="a_Node000016"><a xlink:href="_network_scheduler_8h.html" target="_top" xlink:title=" ">
<polygon fill="white" stroke="#666666" points="892.9,-195 731.9,-195 731.9,-154 892.9,-154 892.9,-195"/>
<text text-anchor="start" x="739.9" y="-183" font-family="Helvetica,sans-Serif" font-size="10.00">/home/runner/work/uniot</text>
<text text-anchor="start" x="739.9" y="-172" font-family="Helvetica,sans-Serif" font-size="10.00">&#45;core/uniot&#45;core/lib/Core</text>
<text text-anchor="middle" x="812.4" y="-161" font-family="Helvetica,sans-Serif" font-size="10.00">/Network/NetworkScheduler.h</text>
</a>
</g>
</g>
<!-- Node10&#45;&gt;Node16 -->
<g id="edge21_Node000010_Node000016" class="edge">
<title>Node10&#45;&gt;Node16</title>
<g id="a_edge21_Node000010_Node000016"><a xlink:title=" ">
<path fill="none" stroke="#63b8ff" d="M975.61,-227.81C943,-217.36 904.68,-205.08 873.37,-195.04"/>
<polygon fill="#63b8ff" stroke="#63b8ff" points="974.94,-231.27 985.53,-230.99 977.08,-224.61 974.94,-231.27"/>
</a>
</g>
</g>
<!-- Node15&#45;&gt;Node3 -->
<g id="edge19_Node000015_Node000003" class="edge">
<title>Node15&#45;&gt;Node3</title>
<g id="a_edge19_Node000015_Node000003"><a xlink:title=" ">
<path fill="none" stroke="#63b8ff" d="M1024.08,-146.12C1003.65,-123.23 971.22,-92 935.4,-77 840.21,-37.13 574.36,-56.99 472.4,-41 469.22,-40.5 465.98,-39.94 462.72,-39.34"/>
<polygon fill="#63b8ff" stroke="#63b8ff" points="1021.59,-148.58 1030.8,-153.82 1026.87,-143.98 1021.59,-148.58"/>
</a>
</g>
</g>
<!-- Node15&#45;&gt;Node10 -->
<g id="edge20_Node000015_Node000010" class="edge">
<title>Node15&#45;&gt;Node10</title>
<g id="a_edge20_Node000015_Node000010"><a xlink:title=" ">
<path fill="none" stroke="#63b8ff" d="M1053.02,-205.16C1053.32,-213.77 1053.12,-222.96 1052.43,-230.79"/>
<polygon fill="#63b8ff" stroke="#63b8ff" points="1056.51,-204.85 1052.42,-195.07 1049.52,-205.27 1056.51,-204.85"/>
</a>
</g>
</g>
<!-- Node16&#45;&gt;Node6 -->
<g id="edge22_Node000016_Node000006" class="edge">
<title>Node16&#45;&gt;Node6</title>
<g id="a_edge22_Node000016_Node000006"><a xlink:title=" ">
<path fill="none" stroke="#63b8ff" d="M721.64,-153.6C656.07,-139.21 576.34,-121.67 560.4,-118 557.3,-117.29 554.14,-116.55 550.94,-115.8"/>
<polygon fill="#63b8ff" stroke="#63b8ff" points="721.1,-157.06 731.61,-155.79 722.6,-150.23 721.1,-157.06"/>
</a>
</g>
</g>
<!-- Node17 -->
<g id="Node000017" class="node">
<title>Node17</title>
<g id="a_Node000017"><a xlink:href="_network_controller_8h.html" target="_top" xlink:title=" ">
<polygon fill="white" stroke="#666666" points="892.9,-118 731.9,-118 731.9,-77 892.9,-77 892.9,-118"/>
<text text-anchor="start" x="739.9" y="-106" font-family="Helvetica,sans-Serif" font-size="10.00">/home/runner/work/uniot</text>
<text text-anchor="start" x="739.9" y="-95" font-family="Helvetica,sans-Serif" font-size="10.00">&#45;core/uniot&#45;core/lib/Core</text>
<text text-anchor="middle" x="812.4" y="-84" font-family="Helvetica,sans-Serif" font-size="10.00">/Network/NetworkController.h</text>
</a>
</g>
</g>
<!-- Node16&#45;&gt;Node17 -->
<g id="edge23_Node000016_Node000017" class="edge">
<title>Node16&#45;&gt;Node17</title>
<g id="a_edge23_Node000016_Node000017"><a xlink:title=" ">
<path fill="none" stroke="#63b8ff" d="M812.4,-143.69C812.4,-135.08 812.4,-125.9 812.4,-118.07"/>
<polygon fill="#63b8ff" stroke="#63b8ff" points="808.9,-143.79 812.4,-153.79 815.9,-143.79 808.9,-143.79"/>
</a>
</g>
</g>
<!-- Node17&#45;&gt;Node3 -->
<g id="edge24_Node000017_Node000003" class="edge">
<title>Node17&#45;&gt;Node3</title>
<g id="a_edge24_Node000017_Node000003"><a xlink:title=" ">
<path fill="none" stroke="#63b8ff" d="M721.56,-76.92C610.2,-57.36 579.55,-61.41 472.4,-41 469.24,-40.4 466.02,-39.75 462.76,-39.08"/>
<polygon fill="#63b8ff" stroke="#63b8ff" points="721.05,-80.38 731.5,-78.69 722.27,-73.49 721.05,-80.38"/>
</a>
</g>
</g>
<!-- Node18&#45;&gt;Node17 -->
<g id="edge29_Node000018_Node000017" class="edge">
<title>Node18&#45;&gt;Node17</title>
<g id="a_edge29_Node000018_Node000017"><a xlink:title=" ">
<path fill="none" stroke="#63b8ff" d="M698.04,-149.86C720.85,-139.62 747.22,-127.77 768.89,-118.04"/>
<polygon fill="#63b8ff" stroke="#63b8ff" points="696.53,-146.7 688.84,-153.99 699.4,-153.09 696.53,-146.7"/>
</a>
</g>
</g>
<!-- Node19 -->
<g id="Node000019" class="node">
<title>Node19</title>
<g id="a_Node000019"><a xlink:href="_lisp_primitives_8h.html" target="_top" xlink:title=" ">
<polygon fill="white" stroke="#666666" points="713.4,-118 569.4,-118 569.4,-77 713.4,-77 713.4,-118"/>
<text text-anchor="start" x="577.4" y="-106" font-family="Helvetica,sans-Serif" font-size="10.00">/home/runner/work/uniot</text>
<text text-anchor="start" x="577.4" y="-95" font-family="Helvetica,sans-Serif" font-size="10.00">&#45;core/uniot&#45;core/lib/AppKit</text>
<text text-anchor="middle" x="641.4" y="-84" font-family="Helvetica,sans-Serif" font-size="10.00">/LispPrimitives.h</text>
</a>
</g>
</g>
<!-- Node18&#45;&gt;Node19 -->
<g id="edge27_Node000018_Node000019" class="edge">
<title>Node18&#45;&gt;Node19</title>
<g id="a_edge27_Node000018_Node000019"><a xlink:title=" ">
<path fill="none" stroke="#63b8ff" d="M643.81,-143.69C643.35,-135.08 642.86,-125.9 642.45,-118.07"/>
<polygon fill="#63b8ff" stroke="#63b8ff" points="640.32,-144 644.35,-153.79 647.31,-143.62 640.32,-144"/>
</a>
</g>
</g>
<!-- Node19&#45;&gt;Node3 -->
<g id="edge28_Node000019_Node000003" class="edge">
<title>Node19&#45;&gt;Node3</title>
<g id="a_edge28_Node000019_Node000003"><a xlink:title=" ">
<path fill="none" stroke="#63b8ff" d="M566.37,-74.08C531.2,-63.57 489.68,-51.16 455.8,-41.04"/>
<polygon fill="#63b8ff" stroke="#63b8ff" points="565.53,-77.48 576.11,-76.99 567.53,-70.77 565.53,-77.48"/>
</a>
</g>
</g>
<!-- Node20&#45;&gt;Node16 -->
<g id="edge31_Node000020_Node000016" class="edge">
<title>Node20&#45;&gt;Node16</title>
<g id="a_edge31_Node000020_Node000016"><a xlink:title=" ">
<path fill="none" stroke="#63b8ff" d="M795.93,-221.26C799.09,-212.48 802.48,-203.07 805.36,-195.07"/>
<polygon fill="#63b8ff" stroke="#63b8ff" points="792.59,-220.2 792.5,-230.79 799.18,-222.57 792.59,-220.2"/>
</a>
</g>
</g>
<!-- Node21&#45;&gt;Node5 -->
<g id="edge33_Node000021_Node000005" class="edge">
<title>Node21&#45;&gt;Node5</title>
<g id="a_edge33_Node000021_Node000005"><a xlink:title=" ">
<path fill="none" stroke="#63b8ff" d="M460.52,-239.73C386.12,-229.79 275.18,-213.75 179.4,-195 176.56,-194.44 173.67,-193.86 170.76,-193.24"/>
<polygon fill="#63b8ff" stroke="#63b8ff" points="460.4,-243.24 470.78,-241.09 461.32,-236.31 460.4,-243.24"/>
</a>
</g>
</g>
<!-- Node21&#45;&gt;Node6 -->
<g id="edge38_Node000021_Node000006" class="edge">
<title>Node21&#45;&gt;Node6</title>
<g id="a_edge38_Node000021_Node000006"><a xlink:title=" ">
<path fill="none" stroke="#63b8ff" d="M544.75,-220.42C543.3,-200.68 539.41,-174.78 529.4,-154 522.93,-140.56 512.19,-128 502.31,-118.23"/>
<polygon fill="#63b8ff" stroke="#63b8ff" points="541.27,-220.88 545.33,-230.67 548.26,-220.49 541.27,-220.88"/>
</a>
</g>
</g>
<!-- Node21&#45;&gt;Node8 -->
<g id="edge40_Node000021_Node000008" class="edge">
<title>Node21&#45;&gt;Node8</title>
<g id="a_edge40_Node000021_Node000008"><a xlink:title=" ">
<path fill="none" stroke="#63b8ff" d="M512.63,-224.35C500.57,-214.73 487.14,-204.01 475.94,-195.07"/>
<polygon fill="#63b8ff" stroke="#63b8ff" points="510.71,-227.29 520.71,-230.79 515.07,-221.82 510.71,-227.29"/>
</a>
</g>
</g>
<!-- Node21&#45;&gt;Node16 -->
<g id="edge39_Node000021_Node000016" class="edge">
<title>Node21&#45;&gt;Node16</title>
<g id="a_edge39_Node000021_Node000016"><a xlink:title=" ">
<path fill="none" stroke="#63b8ff" d="M624.74,-228.21C662.26,-217.68 706.65,-205.21 742.83,-195.04"/>
<polygon fill="#63b8ff" stroke="#63b8ff" points="623.54,-224.92 614.86,-230.99 625.43,-231.66 623.54,-224.92"/>
</a>
</g>
</g>
<!-- Node21&#45;&gt;Node18 -->
<g id="edge34_Node000021_Node000018" class="edge">
<title>Node21&#45;&gt;Node18</title>
<g id="a_edge34_Node000021_Node000018"><a xlink:title=" ">
<path fill="none" stroke="#63b8ff" d="M579.65,-224.82C592.58,-215.11 607.09,-204.24 619.17,-195.17"/>
<polygon fill="#63b8ff" stroke="#63b8ff" points="577.32,-222.19 571.42,-230.99 581.52,-227.79 577.32,-222.19"/>
</a>
</g>
</g>
<!-- Node22 -->
<g id="Node000022" class="node">
<title>Node22</title>
<g id="a_Node000022"><a xlink:href="un_lisp_8h.html" target="_top" xlink:title=" ">
<polygon fill="white" stroke="#666666" points="325.9,-195 188.9,-195 188.9,-154 325.9,-154 325.9,-195"/>
<text text-anchor="start" x="196.9" y="-183" font-family="Helvetica,sans-Serif" font-size="10.00">/home/runner/work/uniot</text>
<text text-anchor="start" x="196.9" y="-172" font-family="Helvetica,sans-Serif" font-size="10.00">&#45;core/uniot&#45;core/lib/Core</text>
<text text-anchor="middle" x="257.4" y="-161" font-family="Helvetica,sans-Serif" font-size="10.00">/LispWrapper/unLisp.h</text>
</a>
</g>
</g>
<!-- Node21&#45;&gt;Node22 -->
<g id="edge35_Node000021_Node000022" class="edge">
<title>Node21&#45;&gt;Node22</title>
<g id="a_edge35_Node000021_Node000022"><a xlink:title=" ">
<path fill="none" stroke="#63b8ff" d="M461,-228.52C418.11,-217.35 366.65,-203.95 326.2,-193.42"/>
<polygon fill="#63b8ff" stroke="#63b8ff" points="460.3,-231.95 470.86,-231.09 462.07,-225.18 460.3,-231.95"/>
</a>
</g>
</g>
<!-- Node22&#45;&gt;Node3 -->
<g id="edge36_Node000022_Node000003" class="edge">
<title>Node22&#45;&gt;Node3</title>
<g id="a_edge36_Node000022_Node000003"><a xlink:title=" ">
<path fill="none" stroke="#63b8ff" d="M242.9,-144.72C234.77,-124.15 228.73,-96.73 242.4,-77 259.68,-52.08 289.61,-38.33 318.06,-30.75"/>
<polygon fill="#63b8ff" stroke="#63b8ff" points="239.69,-146.12 246.85,-153.92 246.12,-143.35 239.69,-146.12"/>
</a>
</g>
</g>
<!-- Node22&#45;&gt;Node4 -->
<g id="edge37_Node000022_Node000004" class="edge">
<title>Node22&#45;&gt;Node4</title>
<g id="a_edge37_Node000022_Node000004"><a xlink:title=" ">
<path fill="none" stroke="#63b8ff" d="M213.49,-148.92C195.67,-138.95 175.37,-127.58 158.55,-118.17"/>
<polygon fill="#63b8ff" stroke="#63b8ff" points="212.11,-152.16 222.55,-153.99 215.53,-146.05 212.11,-152.16"/>
</a>
</g>
</g>
</g>
</svg>
