<?xml version="1.0" encoding="UTF-8" standalone="no"?>
<!DOCTYPE svg PUBLIC "-//W3C//DTD SVG 1.1//EN"
 "http://www.w3.org/Graphics/SVG/1.1/DTD/svg11.dtd">
<!-- Generated by graphviz version 2.43.0 (0)
 -->
<!-- Title: /home/runner/work/uniot&#45;core/uniot&#45;core/lib/Core/Register/ObjectRegisterRecord.h Pages: 1 -->
<svg width="413pt" height="588pt"
 viewBox="0.00 0.00 412.50 588.00" xmlns="http://www.w3.org/2000/svg" xmlns:xlink="http://www.w3.org/1999/xlink">
<g id="graph0" class="graph" transform="scale(1 1) rotate(0) translate(4 584)">
<title>/home/runner/work/uniot&#45;core/uniot&#45;core/lib/Core/Register/ObjectRegisterRecord.h</title>
<!-- Node1 -->
<g id="Node000001" class="node">
<title>Node1</title>
<g id="a_Node000001"><a xlink:title=" ">
<polygon fill="#999999" stroke="#666666" points="282.5,-580 104.5,-580 104.5,-539 282.5,-539 282.5,-580"/>
<text text-anchor="start" x="112.5" y="-568" font-family="Helvetica,sans-Serif" font-size="10.00">/home/runner/work/uniot</text>
<text text-anchor="start" x="112.5" y="-557" font-family="Helvetica,sans-Serif" font-size="10.00">&#45;core/uniot&#45;core/lib/Core</text>
<text text-anchor="middle" x="193.5" y="-546" font-family="Helvetica,sans-Serif" font-size="10.00">/Register/ObjectRegisterRecord.h</text>
</a>
</g>
</g>
<!-- Node2 -->
<g id="Node000002" class="node">
<title>Node2</title>
<g id="a_Node000002"><a xlink:href="_button_8h.html" target="_top" xlink:title=" ">
<polygon fill="white" stroke="#666666" points="183,-272 46,-272 46,-231 183,-231 183,-272"/>
<text text-anchor="start" x="54" y="-260" font-family="Helvetica,sans-Serif" font-size="10.00">/home/runner/work/uniot</text>
<text text-anchor="start" x="54" y="-249" font-family="Helvetica,sans-Serif" font-size="10.00">&#45;core/uniot&#45;core/lib/Core</text>
<text text-anchor="middle" x="114.5" y="-238" font-family="Helvetica,sans-Serif" font-size="10.00">/Hardware/Button.h</text>
</a>
</g>
</g>
<!-- Node1&#45;&gt;Node2 -->
<g id="edge1_Node000001_Node000002" class="edge">
<title>Node1&#45;&gt;Node2</title>
<g id="a_edge1_Node000001_Node000002"><a xlink:title=" ">
<path fill="none" stroke="#63b8ff" d="M177.16,-529.73C172.89,-521.32 168.61,-511.96 165.5,-503 136.62,-419.77 121.86,-315 116.69,-272.14"/>
<polygon fill="#63b8ff" stroke="#63b8ff" points="174.17,-531.55 181.92,-538.77 180.36,-528.29 174.17,-531.55"/>
</a>
</g>
</g>
<!-- Node6 -->
<g id="Node000006" class="node">
<title>Node6</title>
<g id="a_Node000006"><a xlink:href="_object_register_8h.html" target="_top" xlink:title=" ">
<polygon fill="white" stroke="#666666" points="318,-503 175,-503 175,-462 318,-462 318,-503"/>
<text text-anchor="start" x="183" y="-491" font-family="Helvetica,sans-Serif" font-size="10.00">/home/runner/work/uniot</text>
<text text-anchor="start" x="183" y="-480" font-family="Helvetica,sans-Serif" font-size="10.00">&#45;core/uniot&#45;core/lib/Core</text>
<text text-anchor="middle" x="246.5" y="-469" font-family="Helvetica,sans-Serif" font-size="10.00">/Register/ObjectRegister.h</text>
</a>
</g>
</g>
<!-- Node1&#45;&gt;Node6 -->
<g id="edge6_Node000001_Node000006" class="edge">
<title>Node1&#45;&gt;Node6</title>
<g id="a_edge6_Node000001_Node000006"><a xlink:title=" ">
<path fill="none" stroke="#63b8ff" d="M213.36,-530.39C219.79,-521.3 226.78,-511.41 232.67,-503.07"/>
<polygon fill="#63b8ff" stroke="#63b8ff" points="210.34,-528.61 207.43,-538.79 216.05,-532.65 210.34,-528.61"/>
</a>
</g>
</g>
<!-- Node3 -->
<g id="Node000003" class="node">
<title>Node3</title>
<g id="a_Node000003"><a xlink:href="_lisp_primitives_8h.html" target="_top" xlink:title=" ">
<polygon fill="white" stroke="#666666" points="246.5,-195 102.5,-195 102.5,-154 246.5,-154 246.5,-195"/>
<text text-anchor="start" x="110.5" y="-183" font-family="Helvetica,sans-Serif" font-size="10.00">/home/runner/work/uniot</text>
<text text-anchor="start" x="110.5" y="-172" font-family="Helvetica,sans-Serif" font-size="10.00">&#45;core/uniot&#45;core/lib/AppKit</text>
<text text-anchor="middle" x="174.5" y="-161" font-family="Helvetica,sans-Serif" font-size="10.00">/LispPrimitives.h</text>
</a>
</g>
</g>
<!-- Node2&#45;&gt;Node3 -->
<g id="edge2_Node000002_Node000003" class="edge">
<title>Node2&#45;&gt;Node3</title>
<g id="a_edge2_Node000002_Node000003"><a xlink:title=" ">
<path fill="none" stroke="#63b8ff" d="M136.54,-222.95C143.94,-213.7 152.03,-203.58 158.84,-195.07"/>
<polygon fill="#63b8ff" stroke="#63b8ff" points="133.78,-220.8 130.26,-230.79 139.24,-225.17 133.78,-220.8"/>
</a>
</g>
</g>
<!-- Node5 -->
<g id="Node000005" class="node">
<title>Node5</title>
<g id="a_Node000005"><a xlink:href="_network_controller_8h.html" target="_top" xlink:title=" ">
<polygon fill="white" stroke="#666666" points="161,-118 0,-118 0,-77 161,-77 161,-118"/>
<text text-anchor="start" x="8" y="-106" font-family="Helvetica,sans-Serif" font-size="10.00">/home/runner/work/uniot</text>
<text text-anchor="start" x="8" y="-95" font-family="Helvetica,sans-Serif" font-size="10.00">&#45;core/uniot&#45;core/lib/Core</text>
<text text-anchor="middle" x="80.5" y="-84" font-family="Helvetica,sans-Serif" font-size="10.00">/Network/NetworkController.h</text>
</a>
</g>
</g>
<!-- Node2&#45;&gt;Node5 -->
<g id="edge4_Node000002_Node000005" class="edge">
<title>Node2&#45;&gt;Node5</title>
<g id="a_edge4_Node000002_Node000005"><a xlink:title=" ">
<path fill="none" stroke="#63b8ff" d="M102.08,-221.43C98.88,-213.03 95.72,-203.76 93.5,-195 86.91,-168.94 83.49,-138.03 81.85,-118.34"/>
<polygon fill="#63b8ff" stroke="#63b8ff" points="98.86,-222.81 105.8,-230.82 105.37,-220.23 98.86,-222.81"/>
</a>
</g>
</g>
<!-- Node4 -->
<g id="Node000004" class="node">
<title>Node4</title>
<g id="a_Node000004"><a xlink:href="_app_kit_8h.html" target="_top" xlink:title=" ">
<polygon fill="white" stroke="#666666" points="283.5,-41 139.5,-41 139.5,0 283.5,0 283.5,-41"/>
<text text-anchor="start" x="147.5" y="-29" font-family="Helvetica,sans-Serif" font-size="10.00">/home/runner/work/uniot</text>
<text text-anchor="start" x="147.5" y="-18" font-family="Helvetica,sans-Serif" font-size="10.00">&#45;core/uniot&#45;core/lib/AppKit</text>
<text text-anchor="middle" x="211.5" y="-7" font-family="Helvetica,sans-Serif" font-size="10.00">/AppKit.h</text>
</a>
</g>
</g>
<!-- Node3&#45;&gt;Node4 -->
<g id="edge3_Node000003_Node000004" class="edge">
<title>Node3&#45;&gt;Node4</title>
<g id="a_edge3_Node000003_Node000004"><a xlink:title=" ">
<path fill="none" stroke="#63b8ff" d="M181.69,-143.98C189.04,-113.76 200.27,-67.64 206.64,-41.47"/>
<polygon fill="#63b8ff" stroke="#63b8ff" points="178.23,-143.4 179.26,-153.94 185.03,-145.05 178.23,-143.4"/>
</a>
</g>
</g>
<!-- Node5&#45;&gt;Node4 -->
<g id="edge5_Node000005_Node000004" class="edge">
<title>Node5&#45;&gt;Node4</title>
<g id="a_edge5_Node000005_Node000004"><a xlink:title=" ">
<path fill="none" stroke="#63b8ff" d="M123.43,-71.92C140.86,-61.95 160.7,-50.58 177.14,-41.17"/>
<polygon fill="#63b8ff" stroke="#63b8ff" points="121.52,-68.98 114.58,-76.99 124.99,-75.06 121.52,-68.98"/>
</a>
</g>
</g>
<!-- Node7 -->
<g id="Node000007" class="node">
<title>Node7</title>
<g id="a_Node000007"><a xlink:href="_register_manager_8h.html" target="_top" xlink:title=" ">
<polygon fill="white" stroke="#666666" points="333,-426 178,-426 178,-385 333,-385 333,-426"/>
<text text-anchor="start" x="186" y="-414" font-family="Helvetica,sans-Serif" font-size="10.00">/home/runner/work/uniot</text>
<text text-anchor="start" x="186" y="-403" font-family="Helvetica,sans-Serif" font-size="10.00">&#45;core/uniot&#45;core/lib/Core</text>
<text text-anchor="middle" x="255.5" y="-392" font-family="Helvetica,sans-Serif" font-size="10.00">/Register/RegisterManager.h</text>
</a>
</g>
</g>
<!-- Node6&#45;&gt;Node7 -->
<g id="edge7_Node000006_Node000007" class="edge">
<title>Node6&#45;&gt;Node7</title>
<g id="a_edge7_Node000006_Node000007"><a xlink:title=" ">
<path fill="none" stroke="#63b8ff" d="M250.08,-451.69C251.11,-443.08 252.21,-433.9 253.15,-426.07"/>
<polygon fill="#63b8ff" stroke="#63b8ff" points="246.58,-451.45 248.86,-461.79 253.53,-452.28 246.58,-451.45"/>
</a>
</g>
</g>
<!-- Node8 -->
<g id="Node000008" class="node">
<title>Node8</title>
<g id="a_Node000008"><a xlink:href="_register_manager_proxy_8h.html" target="_top" xlink:title=" ">
<polygon fill="white" stroke="#666666" points="368.5,-349 186.5,-349 186.5,-308 368.5,-308 368.5,-349"/>
<text text-anchor="start" x="194.5" y="-337" font-family="Helvetica,sans-Serif" font-size="10.00">/home/runner/work/uniot</text>
<text text-anchor="start" x="194.5" y="-326" font-family="Helvetica,sans-Serif" font-size="10.00">&#45;core/uniot&#45;core/lib/Core</text>
<text text-anchor="middle" x="277.5" y="-315" font-family="Helvetica,sans-Serif" font-size="10.00">/Register/RegisterManagerProxy.h</text>
</a>
</g>
</g>
<!-- Node7&#45;&gt;Node8 -->
<g id="edge8_Node000007_Node000008" class="edge">
<title>Node7&#45;&gt;Node8</title>
<g id="a_edge8_Node000007_Node000008"><a xlink:title=" ">
<path fill="none" stroke="#63b8ff" d="M264.16,-374.98C266.71,-366.28 269.44,-356.98 271.76,-349.07"/>
<polygon fill="#63b8ff" stroke="#63b8ff" points="260.74,-374.21 261.28,-384.79 267.45,-376.18 260.74,-374.21"/>
</a>
</g>
</g>
<!-- Node9 -->
<g id="Node000009" class="node">
<title>Node9</title>
<g id="a_Node000009"><a xlink:href="_primitive_expeditor_8h.html" target="_top" xlink:title=" ">
<polygon fill="white" stroke="#666666" points="383.5,-272 201.5,-272 201.5,-231 383.5,-231 383.5,-272"/>
<text text-anchor="start" x="209.5" y="-260" font-family="Helvetica,sans-Serif" font-size="10.00">/home/runner/work/uniot</text>
<text text-anchor="start" x="209.5" y="-249" font-family="Helvetica,sans-Serif" font-size="10.00">&#45;core/uniot&#45;core/lib/Core</text>
<text text-anchor="middle" x="292.5" y="-238" font-family="Helvetica,sans-Serif" font-size="10.00">/LispWrapper/PrimitiveExpeditor.h</text>
</a>
</g>
</g>
<!-- Node8&#45;&gt;Node9 -->
<g id="edge9_Node000008_Node000009" class="edge">
<title>Node8&#45;&gt;Node9</title>
<g id="a_edge9_Node000008_Node000009"><a xlink:title=" ">
<path fill="none" stroke="#63b8ff" d="M283.4,-297.98C285.14,-289.28 287,-279.98 288.59,-272.07"/>
<polygon fill="#63b8ff" stroke="#63b8ff" points="279.97,-297.3 281.44,-307.79 286.83,-298.68 279.97,-297.3"/>
</a>
</g>
</g>
<!-- Node9&#45;&gt;Node3 -->
<g id="edge10_Node000009_Node000003" class="edge">
<title>Node9&#45;&gt;Node3</title>
<g id="a_edge10_Node000009_Node000003"><a xlink:title=" ">
<path fill="none" stroke="#63b8ff" d="M252.96,-225.37C237.48,-215.53 219.99,-204.41 205.45,-195.17"/>
<polygon fill="#63b8ff" stroke="#63b8ff" points="251.49,-228.58 261.8,-230.99 255.24,-222.67 251.49,-228.58"/>
</a>
</g>
</g>
<!-- Node10 -->
<g id="Node000010" class="node">
<title>Node10</title>
<g id="a_Node000010"><a xlink:href="un_lisp_8h.html" target="_top" xlink:title=" ">
<polygon fill="white" stroke="#666666" points="402,-195 265,-195 265,-154 402,-154 402,-195"/>
<text text-anchor="start" x="273" y="-183" font-family="Helvetica,sans-Serif" font-size="10.00">/home/runner/work/uniot</text>
<text text-anchor="start" x="273" y="-172" font-family="Helvetica,sans-Serif" font-size="10.00">&#45;core/uniot&#45;core/lib/Core</text>
<text text-anchor="middle" x="333.5" y="-161" font-family="Helvetica,sans-Serif" font-size="10.00">/LispWrapper/unLisp.h</text>
</a>
</g>
</g>
<!-- Node9&#45;&gt;Node10 -->
<g id="edge11_Node000009_Node000010" class="edge">
<title>Node9&#45;&gt;Node10</title>
<g id="a_edge11_Node000009_Node000010"><a xlink:title=" ">
<path fill="none" stroke="#63b8ff" d="M308.17,-221.83C313.06,-212.89 318.34,-203.24 322.8,-195.07"/>
<polygon fill="#63b8ff" stroke="#63b8ff" points="305,-220.34 303.27,-230.79 311.14,-223.7 305,-220.34"/>
</a>
</g>
</g>
<!-- Node10&#45;&gt;Node4 -->
<g id="edge12_Node000010_Node000004" class="edge">
<title>Node10&#45;&gt;Node4</title>
<g id="a_edge12_Node000010_Node000004"><a xlink:title=" ">
<path fill="none" stroke="#63b8ff" d="M286.5,-148.47C273.9,-140.07 261.12,-129.8 251.5,-118 232.7,-94.95 221.57,-61.83 216,-41"/>
<polygon fill="#63b8ff" stroke="#63b8ff" points="284.84,-151.56 295.16,-153.98 288.6,-145.65 284.84,-151.56"/>
</a>
</g>
</g>
<!-- Node11 -->
<g id="Node000011" class="node">
<title>Node11</title>
<g id="a_Node000011"><a xlink:href="_lisp_device_8h.html" target="_top" xlink:title=" ">
<polygon fill="white" stroke="#666666" points="404.5,-118 260.5,-118 260.5,-77 404.5,-77 404.5,-118"/>
<text text-anchor="start" x="268.5" y="-106" font-family="Helvetica,sans-Serif" font-size="10.00">/home/runner/work/uniot</text>
<text text-anchor="start" x="268.5" y="-95" font-family="Helvetica,sans-Serif" font-size="10.00">&#45;core/uniot&#45;core/lib/AppKit</text>
<text text-anchor="middle" x="332.5" y="-84" font-family="Helvetica,sans-Serif" font-size="10.00">/LispDevice.h</text>
</a>
</g>
</g>
<!-- Node10&#45;&gt;Node11 -->
<g id="edge13_Node000010_Node000011" class="edge">
<title>Node10&#45;&gt;Node11</title>
<g id="a_edge13_Node000010_Node000011"><a xlink:title=" ">
<path fill="none" stroke="#63b8ff" d="M333.1,-143.69C332.99,-135.08 332.87,-125.9 332.76,-118.07"/>
<polygon fill="#63b8ff" stroke="#63b8ff" points="329.6,-143.84 333.24,-153.79 336.6,-143.75 329.6,-143.84"/>
</a>
</g>
</g>
<!-- Node11&#45;&gt;Node4 -->
<g id="edge14_Node000011_Node000004" class="edge">
<title>Node11&#45;&gt;Node4</title>
<g id="a_edge14_Node000011_Node000004"><a xlink:title=" ">
<path fill="none" stroke="#63b8ff" d="M292.4,-71.64C276.42,-61.74 258.28,-50.5 243.24,-41.17"/>
<polygon fill="#63b8ff" stroke="#63b8ff" points="290.68,-74.7 301.02,-76.99 294.37,-68.75 290.68,-74.7"/>
</a>
</g>
</g>
</g>
</svg>
