<?xml version="1.0" encoding="UTF-8" standalone="no"?>
<!DOCTYPE svg PUBLIC "-//W3C//DTD SVG 1.1//EN"
 "http://www.w3.org/Graphics/SVG/1.1/DTD/svg11.dtd">
<!-- Generated by graphviz version 2.43.0 (0)
 -->
<!-- Title: /home/runner/work/uniot&#45;core/uniot&#45;core/lib/Core/Date/SimpleNTP.h Pages: 1 -->
<svg width="661pt" height="280pt"
 viewBox="0.00 0.00 661.24 280.00" xmlns="http://www.w3.org/2000/svg" xmlns:xlink="http://www.w3.org/1999/xlink">
<g id="graph0" class="graph" transform="scale(1 1) rotate(0) translate(4 276)">
<title>/home/runner/work/uniot&#45;core/uniot&#45;core/lib/Core/Date/SimpleNTP.h</title>
<!-- Node1 -->
<g id="Node000001" class="node">
<title>Node1</title>
<g id="a_Node000001"><a xlink:title=" ">
<polygon fill="#999999" stroke="#666666" points="319.74,-272 182.74,-272 182.74,-231 319.74,-231 319.74,-272"/>
<text text-anchor="start" x="190.74" y="-260" font-family="Helvetica,sans-Serif" font-size="10.00">/home/runner/work/uniot</text>
<text text-anchor="start" x="190.74" y="-249" font-family="Helvetica,sans-Serif" font-size="10.00">&#45;core/uniot&#45;core/lib/Core</text>
<text text-anchor="middle" x="251.24" y="-238" font-family="Helvetica,sans-Serif" font-size="10.00">/Date/SimpleNTP.h</text>
</a>
</g>
</g>
<!-- Node2 -->
<g id="Node000002" class="node">
<title>Node2</title>
<g id="a_Node000002"><a xlink:href="_date_8h.html" target="_top" xlink:title=" ">
<polygon fill="white" stroke="#666666" points="319.74,-195 182.74,-195 182.74,-154 319.74,-154 319.74,-195"/>
<text text-anchor="start" x="190.74" y="-183" font-family="Helvetica,sans-Serif" font-size="10.00">/home/runner/work/uniot</text>
<text text-anchor="start" x="190.74" y="-172" font-family="Helvetica,sans-Serif" font-size="10.00">&#45;core/uniot&#45;core/lib/Core</text>
<text text-anchor="middle" x="251.24" y="-161" font-family="Helvetica,sans-Serif" font-size="10.00">/Date/Date.h</text>
</a>
</g>
</g>
<!-- Node1&#45;&gt;Node2 -->
<g id="edge1_Node000001_Node000002" class="edge">
<title>Node1&#45;&gt;Node2</title>
<g id="a_edge1_Node000001_Node000002"><a xlink:title=" ">
<path fill="none" stroke="#63b8ff" d="M251.24,-220.69C251.24,-212.08 251.24,-202.9 251.24,-195.07"/>
<polygon fill="#63b8ff" stroke="#63b8ff" points="247.74,-220.79 251.24,-230.79 254.74,-220.79 247.74,-220.79"/>
</a>
</g>
</g>
<!-- Node3 -->
<g id="Node000003" class="node">
<title>Node3</title>
<g id="a_Node000003"><a xlink:href="_app_kit_8h.html" target="_top" xlink:title=" ">
<polygon fill="white" stroke="#666666" points="234.24,-41 90.24,-41 90.24,0 234.24,0 234.24,-41"/>
<text text-anchor="start" x="98.24" y="-29" font-family="Helvetica,sans-Serif" font-size="10.00">/home/runner/work/uniot</text>
<text text-anchor="start" x="98.24" y="-18" font-family="Helvetica,sans-Serif" font-size="10.00">&#45;core/uniot&#45;core/lib/AppKit</text>
<text text-anchor="middle" x="162.24" y="-7" font-family="Helvetica,sans-Serif" font-size="10.00">/AppKit.h</text>
</a>
</g>
</g>
<!-- Node2&#45;&gt;Node3 -->
<g id="edge2_Node000002_Node000003" class="edge">
<title>Node2&#45;&gt;Node3</title>
<g id="a_edge2_Node000002_Node000003"><a xlink:title=" ">
<path fill="none" stroke="#63b8ff" d="M172.62,-166.07C109.67,-158.3 28.63,-143.57 8.24,-118 -3.12,-103.75 -2.23,-91.91 8.24,-77 26.87,-50.49 59.44,-36.59 89.85,-29.32"/>
<polygon fill="#63b8ff" stroke="#63b8ff" points="172.21,-169.54 182.56,-167.25 173.05,-162.59 172.21,-169.54"/>
</a>
</g>
</g>
<!-- Node4 -->
<g id="Node000004" class="node">
<title>Node4</title>
<g id="a_Node000004"><a xlink:href="_lisp_device_8h.html" target="_top" xlink:title=" ">
<polygon fill="white" stroke="#666666" points="161.24,-118 17.24,-118 17.24,-77 161.24,-77 161.24,-118"/>
<text text-anchor="start" x="25.24" y="-106" font-family="Helvetica,sans-Serif" font-size="10.00">/home/runner/work/uniot</text>
<text text-anchor="start" x="25.24" y="-95" font-family="Helvetica,sans-Serif" font-size="10.00">&#45;core/uniot&#45;core/lib/AppKit</text>
<text text-anchor="middle" x="89.24" y="-84" font-family="Helvetica,sans-Serif" font-size="10.00">/LispDevice.h</text>
</a>
</g>
</g>
<!-- Node2&#45;&gt;Node4 -->
<g id="edge3_Node000002_Node000004" class="edge">
<title>Node2&#45;&gt;Node4</title>
<g id="a_edge3_Node000002_Node000004"><a xlink:title=" ">
<path fill="none" stroke="#63b8ff" d="M199.88,-149.72C177.83,-139.51 152.38,-127.73 131.45,-118.04"/>
<polygon fill="#63b8ff" stroke="#63b8ff" points="198.56,-152.97 209.1,-153.99 201.5,-146.61 198.56,-152.97"/>
</a>
</g>
</g>
<!-- Node5 -->
<g id="Node000005" class="node">
<title>Node5</title>
<g id="a_Node000005"><a xlink:href="_top_device_8h.html" target="_top" xlink:title=" ">
<polygon fill="white" stroke="#666666" points="323.24,-118 179.24,-118 179.24,-77 323.24,-77 323.24,-118"/>
<text text-anchor="start" x="187.24" y="-106" font-family="Helvetica,sans-Serif" font-size="10.00">/home/runner/work/uniot</text>
<text text-anchor="start" x="187.24" y="-95" font-family="Helvetica,sans-Serif" font-size="10.00">&#45;core/uniot&#45;core/lib/AppKit</text>
<text text-anchor="middle" x="251.24" y="-84" font-family="Helvetica,sans-Serif" font-size="10.00">/TopDevice.h</text>
</a>
</g>
</g>
<!-- Node2&#45;&gt;Node5 -->
<g id="edge5_Node000002_Node000005" class="edge">
<title>Node2&#45;&gt;Node5</title>
<g id="a_edge5_Node000002_Node000005"><a xlink:title=" ">
<path fill="none" stroke="#63b8ff" d="M251.24,-143.69C251.24,-135.08 251.24,-125.9 251.24,-118.07"/>
<polygon fill="#63b8ff" stroke="#63b8ff" points="247.74,-143.79 251.24,-153.79 254.74,-143.79 247.74,-143.79"/>
</a>
</g>
</g>
<!-- Node6 -->
<g id="Node000006" class="node">
<title>Node6</title>
<g id="a_Node000006"><a xlink:href="_m_q_t_t_kit_8h.html" target="_top" xlink:title=" ">
<polygon fill="white" stroke="#666666" points="484.74,-118 341.74,-118 341.74,-77 484.74,-77 484.74,-118"/>
<text text-anchor="start" x="349.74" y="-106" font-family="Helvetica,sans-Serif" font-size="10.00">/home/runner/work/uniot</text>
<text text-anchor="start" x="349.74" y="-95" font-family="Helvetica,sans-Serif" font-size="10.00">&#45;core/uniot&#45;core/lib/Core</text>
<text text-anchor="middle" x="413.24" y="-84" font-family="Helvetica,sans-Serif" font-size="10.00">/MQTTWrapper/MQTTKit.h</text>
</a>
</g>
</g>
<!-- Node2&#45;&gt;Node6 -->
<g id="edge7_Node000002_Node000006" class="edge">
<title>Node2&#45;&gt;Node6</title>
<g id="a_edge7_Node000002_Node000006"><a xlink:title=" ">
<path fill="none" stroke="#63b8ff" d="M302.6,-149.72C324.65,-139.51 350.1,-127.73 371.03,-118.04"/>
<polygon fill="#63b8ff" stroke="#63b8ff" points="300.99,-146.61 293.38,-153.99 303.93,-152.97 300.99,-146.61"/>
</a>
</g>
</g>
<!-- Node8 -->
<g id="Node000008" class="node">
<title>Node8</title>
<g id="a_Node000008"><a xlink:href="_uniot_8h.html" target="_top" xlink:title=" ">
<polygon fill="white" stroke="#666666" points="649.24,-118 511.24,-118 511.24,-77 649.24,-77 649.24,-118"/>
<text text-anchor="start" x="519.24" y="-106" font-family="Helvetica,sans-Serif" font-size="10.00">/home/runner/work/uniot</text>
<text text-anchor="start" x="519.24" y="-95" font-family="Helvetica,sans-Serif" font-size="10.00">&#45;core/uniot&#45;core/lib/Uniot</text>
<text text-anchor="middle" x="580.24" y="-84" font-family="Helvetica,sans-Serif" font-size="10.00">/Uniot.h</text>
</a>
</g>
</g>
<!-- Node2&#45;&gt;Node8 -->
<g id="edge10_Node000002_Node000008" class="edge">
<title>Node2&#45;&gt;Node8</title>
<g id="a_edge10_Node000002_Node000008"><a xlink:title=" ">
<path fill="none" stroke="#63b8ff" d="M329.9,-155.57C385.11,-142.98 458.24,-126.31 511.2,-114.24"/>
<polygon fill="#63b8ff" stroke="#63b8ff" points="328.78,-152.23 319.81,-157.87 330.34,-159.06 328.78,-152.23"/>
</a>
</g>
</g>
<!-- Node4&#45;&gt;Node3 -->
<g id="edge4_Node000004_Node000003" class="edge">
<title>Node4&#45;&gt;Node3</title>
<g id="a_edge4_Node000004_Node000003"><a xlink:title=" ">
<path fill="none" stroke="#63b8ff" d="M115.51,-69.51C124.66,-60.11 134.74,-49.76 143.19,-41.07"/>
<polygon fill="#63b8ff" stroke="#63b8ff" points="112.89,-67.19 108.42,-76.79 117.91,-72.07 112.89,-67.19"/>
</a>
</g>
</g>
<!-- Node5&#45;&gt;Node3 -->
<g id="edge6_Node000005_Node000003" class="edge">
<title>Node5&#45;&gt;Node3</title>
<g id="a_edge6_Node000005_Node000003"><a xlink:title=" ">
<path fill="none" stroke="#63b8ff" d="M220.21,-70.35C208.8,-60.73 196.08,-50.01 185.47,-41.07"/>
<polygon fill="#63b8ff" stroke="#63b8ff" points="217.96,-73.03 227.86,-76.79 222.47,-67.67 217.96,-73.03"/>
</a>
</g>
</g>
<!-- Node6&#45;&gt;Node3 -->
<g id="edge8_Node000006_Node000003" class="edge">
<title>Node6&#45;&gt;Node3</title>
<g id="a_edge8_Node000006_Node000003"><a xlink:title=" ">
<path fill="none" stroke="#63b8ff" d="M338.21,-74.08C303.04,-63.57 261.52,-51.16 227.64,-41.04"/>
<polygon fill="#63b8ff" stroke="#63b8ff" points="337.37,-77.48 347.95,-76.99 339.37,-70.77 337.37,-77.48"/>
</a>
</g>
</g>
<!-- Node7 -->
<g id="Node000007" class="node">
<title>Node7</title>
<g id="a_Node000007"><a xlink:href="_m_q_t_t_device_8cpp.html" target="_top" xlink:title=" ">
<polygon fill="white" stroke="#666666" points="496.74,-41 321.74,-41 321.74,0 496.74,0 496.74,-41"/>
<text text-anchor="start" x="329.74" y="-29" font-family="Helvetica,sans-Serif" font-size="10.00">/home/runner/work/uniot</text>
<text text-anchor="start" x="329.74" y="-18" font-family="Helvetica,sans-Serif" font-size="10.00">&#45;core/uniot&#45;core/lib/Core</text>
<text text-anchor="middle" x="409.24" y="-7" font-family="Helvetica,sans-Serif" font-size="10.00">/MQTTWrapper/MQTTDevice.cpp</text>
</a>
</g>
</g>
<!-- Node6&#45;&gt;Node7 -->
<g id="edge9_Node000006_Node000007" class="edge">
<title>Node6&#45;&gt;Node7</title>
<g id="a_edge9_Node000006_Node000007"><a xlink:title=" ">
<path fill="none" stroke="#63b8ff" d="M411.65,-66.69C411.19,-58.08 410.7,-48.9 410.29,-41.07"/>
<polygon fill="#63b8ff" stroke="#63b8ff" points="408.17,-67 412.19,-76.79 415.16,-66.62 408.17,-67"/>
</a>
</g>
</g>
<!-- Node9 -->
<g id="Node000009" class="node">
<title>Node9</title>
<g id="a_Node000009"><a xlink:href="_uniot_8cpp.html" target="_top" xlink:title=" ">
<polygon fill="white" stroke="#666666" points="653.24,-41 515.24,-41 515.24,0 653.24,0 653.24,-41"/>
<text text-anchor="start" x="523.24" y="-29" font-family="Helvetica,sans-Serif" font-size="10.00">/home/runner/work/uniot</text>
<text text-anchor="start" x="523.24" y="-18" font-family="Helvetica,sans-Serif" font-size="10.00">&#45;core/uniot&#45;core/lib/Uniot</text>
<text text-anchor="middle" x="584.24" y="-7" font-family="Helvetica,sans-Serif" font-size="10.00">/Uniot.cpp</text>
</a>
</g>
</g>
<!-- Node8&#45;&gt;Node9 -->
<g id="edge11_Node000008_Node000009" class="edge">
<title>Node8&#45;&gt;Node9</title>
<g id="a_edge11_Node000008_Node000009"><a xlink:title=" ">
<path fill="none" stroke="#63b8ff" d="M581.83,-66.69C582.29,-58.08 582.78,-48.9 583.2,-41.07"/>
<polygon fill="#63b8ff" stroke="#63b8ff" points="578.33,-66.62 581.29,-76.79 585.32,-67 578.33,-66.62"/>
</a>
</g>
</g>
</g>
</svg>
