<?xml version="1.0" encoding="UTF-8" standalone="no"?>
<!DOCTYPE svg PUBLIC "-//W3C//DTD SVG 1.1//EN"
 "http://www.w3.org/Graphics/SVG/1.1/DTD/svg11.dtd">
<!-- Generated by graphviz version 2.43.0 (0)
 -->
<!-- Title: uniot::IWithType Pages: 1 -->
<svg width="821pt" height="242pt"
 viewBox="0.00 0.00 821.00 242.00" xmlns="http://www.w3.org/2000/svg" xmlns:xlink="http://www.w3.org/1999/xlink">
<g id="graph0" class="graph" transform="scale(1 1) rotate(0) translate(4 238)">
<title>uniot::IWithType</title>
<!-- Node1 -->
<g id="Node000001" class="node">
<title>Node1</title>
<g id="a_Node000001"><a xlink:title="Interface for objects that expose their runtime type information.">
<polygon fill="#999999" stroke="#666666" points="95,-96.5 0,-96.5 0,-77.5 95,-77.5 95,-96.5"/>
<text text-anchor="middle" x="47.5" y="-84.5" font-family="Helvetica,sans-Serif" font-size="10.00">uniot::IWithType</text>
</a>
</g>
</g>
<!-- Node2 -->
<g id="Node000002" class="node">
<title>Node2</title>
<g id="a_Node000002"><a xlink:href="classuniot_1_1_event_entity.html" target="_top" xlink:title="Entity that can connect to and interact with EventBus instances.">
<polygon fill="white" stroke="#666666" points="264,-131.5 151,-131.5 151,-90.5 264,-90.5 264,-131.5"/>
<text text-anchor="start" x="159" y="-119.5" font-family="Helvetica,sans-Serif" font-size="10.00">uniot::EventEntity</text>
<text text-anchor="start" x="159" y="-108.5" font-family="Helvetica,sans-Serif" font-size="10.00">&lt; T_topic, T_msg, T</text>
<text text-anchor="middle" x="207.5" y="-97.5" font-family="Helvetica,sans-Serif" font-size="10.00">_data &gt;</text>
</a>
</g>
</g>
<!-- Node1&#45;&gt;Node2 -->
<g id="edge1_Node000001_Node000002" class="edge">
<title>Node1&#45;&gt;Node2</title>
<g id="a_edge1_Node000001_Node000002"><a xlink:title=" ">
<path fill="none" stroke="#63b8ff" d="M105.12,-95.6C119.98,-97.86 135.99,-100.29 150.8,-102.54"/>
<polygon fill="#63b8ff" stroke="#63b8ff" points="105.46,-92.11 95.05,-94.07 104.41,-99.03 105.46,-92.11"/>
</a>
</g>
</g>
<!-- Node12 -->
<g id="Node000012" class="node">
<title>Node12</title>
<g id="a_Node000012"><a xlink:href="classuniot_1_1_object_register_record.html" target="_top" xlink:title=" ">
<polygon fill="white" stroke="#666666" points="284,-72.5 131,-72.5 131,-53.5 284,-53.5 284,-72.5"/>
<text text-anchor="middle" x="207.5" y="-60.5" font-family="Helvetica,sans-Serif" font-size="10.00">uniot::ObjectRegisterRecord</text>
</a>
</g>
</g>
<!-- Node1&#45;&gt;Node12 -->
<g id="edge11_Node000001_Node000012" class="edge">
<title>Node1&#45;&gt;Node12</title>
<g id="a_edge11_Node000001_Node000012"><a xlink:title=" ">
<path fill="none" stroke="#63b8ff" d="M104.96,-78.42C117.58,-76.51 131.03,-74.46 143.88,-72.51"/>
<polygon fill="#63b8ff" stroke="#63b8ff" points="104.41,-74.97 95.05,-79.93 105.46,-81.89 104.41,-74.97"/>
</a>
</g>
</g>
<!-- Node3 -->
<g id="Node000003" class="node">
<title>Node3</title>
<g id="a_Node000003"><a xlink:href="classuniot_1_1_event_emitter.html" target="_top" xlink:title=" ">
<polygon fill="white" stroke="#666666" points="433,-131.5 320,-131.5 320,-90.5 433,-90.5 433,-131.5"/>
<text text-anchor="start" x="328" y="-119.5" font-family="Helvetica,sans-Serif" font-size="10.00">uniot::EventEmitter</text>
<text text-anchor="start" x="328" y="-108.5" font-family="Helvetica,sans-Serif" font-size="10.00">&lt; T_topic, T_msg, T</text>
<text text-anchor="middle" x="376.5" y="-97.5" font-family="Helvetica,sans-Serif" font-size="10.00">_data &gt;</text>
</a>
</g>
</g>
<!-- Node2&#45;&gt;Node3 -->
<g id="edge2_Node000002_Node000003" class="edge">
<title>Node2&#45;&gt;Node3</title>
<g id="a_edge2_Node000002_Node000003"><a xlink:title=" ">
<path fill="none" stroke="#63b8ff" d="M274.37,-111C289.43,-111 305.28,-111 319.85,-111"/>
<polygon fill="#63b8ff" stroke="#63b8ff" points="274.11,-107.5 264.11,-111 274.11,-114.5 274.11,-107.5"/>
</a>
</g>
</g>
<!-- Node4 -->
<g id="Node000004" class="node">
<title>Node4</title>
<g id="a_Node000004"><a xlink:href="classuniot_1_1_date.html" target="_top" xlink:title=" ">
<polygon fill="white" stroke="#666666" points="608,-174 482,-174 482,-144 608,-144 608,-174"/>
<text text-anchor="start" x="490" y="-162" font-family="Helvetica,sans-Serif" font-size="10.00">uniot::Date&lt; unsigned</text>
<text text-anchor="middle" x="545" y="-151" font-family="Helvetica,sans-Serif" font-size="10.00"> int, int, Bytes &gt;</text>
</a>
</g>
</g>
<!-- Node3&#45;&gt;Node4 -->
<g id="edge3_Node000003_Node000004" class="edge">
<title>Node3&#45;&gt;Node4</title>
<g id="a_edge3_Node000003_Node000004"><a xlink:title=" ">
<path fill="none" stroke="#63b8ff" d="M443.31,-129.97C459.45,-134.63 476.5,-139.54 491.9,-143.98"/>
<polygon fill="#63b8ff" stroke="#63b8ff" points="443.98,-126.52 433.41,-127.12 442.04,-133.25 443.98,-126.52"/>
</a>
</g>
</g>
<!-- Node5 -->
<g id="Node000005" class="node">
<title>Node5</title>
<g id="a_Node000005"><a xlink:href="classuniot_1_1_event_listener.html" target="_top" xlink:title=" ">
<polygon fill="white" stroke="#666666" points="621,-126 469,-126 469,-96 621,-96 621,-126"/>
<text text-anchor="start" x="477" y="-114" font-family="Helvetica,sans-Serif" font-size="10.00">uniot::EventListener</text>
<text text-anchor="middle" x="545" y="-103" font-family="Helvetica,sans-Serif" font-size="10.00">&lt; T_topic, T_msg, T_data &gt;</text>
</a>
</g>
</g>
<!-- Node3&#45;&gt;Node5 -->
<g id="edge4_Node000003_Node000005" class="edge">
<title>Node3&#45;&gt;Node5</title>
<g id="a_edge4_Node000003_Node000005"><a xlink:title=" ">
<path fill="none" stroke="#63b8ff" d="M443.68,-111C451.91,-111 460.37,-111 468.72,-111"/>
<polygon fill="#63b8ff" stroke="#63b8ff" points="443.41,-107.5 433.41,-111 443.41,-114.5 443.41,-107.5"/>
</a>
</g>
</g>
<!-- Node11 -->
<g id="Node000011" class="node">
<title>Node11</title>
<g id="a_Node000011"><a xlink:href="classuniot_1_1_network_scheduler.html" target="_top" xlink:title=" ">
<polygon fill="white" stroke="#666666" points="621,-78 469,-78 469,-48 621,-48 621,-78"/>
<text text-anchor="start" x="477" y="-66" font-family="Helvetica,sans-Serif" font-size="10.00">uniot::NetworkScheduler</text>
<text text-anchor="middle" x="545" y="-55" font-family="Helvetica,sans-Serif" font-size="10.00">&lt; unsigned int, int, Bytes &gt;</text>
</a>
</g>
</g>
<!-- Node3&#45;&gt;Node11 -->
<g id="edge10_Node000003_Node000011" class="edge">
<title>Node3&#45;&gt;Node11</title>
<g id="a_edge10_Node000003_Node000011"><a xlink:title=" ">
<path fill="none" stroke="#63b8ff" d="M443.31,-92.03C459.45,-87.37 476.5,-82.46 491.9,-78.02"/>
<polygon fill="#63b8ff" stroke="#63b8ff" points="442.04,-88.75 433.41,-94.88 443.98,-95.48 442.04,-88.75"/>
</a>
</g>
</g>
<!-- Node6 -->
<g id="Node000006" class="node">
<title>Node6</title>
<g id="a_Node000006"><a xlink:href="classuniot_1_1_callback_event_listener.html" target="_top" xlink:title=" ">
<polygon fill="white" stroke="#666666" points="813,-234 657,-234 657,-204 813,-204 813,-234"/>
<text text-anchor="start" x="665" y="-222" font-family="Helvetica,sans-Serif" font-size="10.00">uniot::CallbackEventListener</text>
<text text-anchor="middle" x="735" y="-211" font-family="Helvetica,sans-Serif" font-size="10.00">&lt; T_topic, T_msg, T_data &gt;</text>
</a>
</g>
</g>
<!-- Node5&#45;&gt;Node6 -->
<g id="edge5_Node000005_Node000006" class="edge">
<title>Node5&#45;&gt;Node6</title>
<g id="a_edge5_Node000005_Node000006"><a xlink:title=" ">
<path fill="none" stroke="#63b8ff" d="M615.98,-131.38C617.72,-132.52 619.39,-133.73 621,-135 645.37,-154.31 632.55,-175.78 657,-195 661.4,-198.46 666.31,-201.43 671.46,-203.97"/>
<polygon fill="#63b8ff" stroke="#63b8ff" points="617.34,-128.12 606.92,-126.17 613.85,-134.19 617.34,-128.12"/>
</a>
</g>
</g>
<!-- Node7 -->
<g id="Node000007" class="node">
<title>Node7</title>
<g id="a_Node000007"><a xlink:href="classuniot_1_1_lisp_device.html" target="_top" xlink:title=" ">
<polygon fill="white" stroke="#666666" points="789.5,-185.5 680.5,-185.5 680.5,-144.5 789.5,-144.5 789.5,-185.5"/>
<text text-anchor="start" x="688.5" y="-173.5" font-family="Helvetica,sans-Serif" font-size="10.00">uniot::LispDevice&lt;</text>
<text text-anchor="start" x="688.5" y="-162.5" font-family="Helvetica,sans-Serif" font-size="10.00"> unsigned int, int,</text>
<text text-anchor="middle" x="735" y="-151.5" font-family="Helvetica,sans-Serif" font-size="10.00"> Bytes &gt;</text>
</a>
</g>
</g>
<!-- Node5&#45;&gt;Node7 -->
<g id="edge6_Node000005_Node000007" class="edge">
<title>Node5&#45;&gt;Node7</title>
<g id="a_edge6_Node000005_Node000007"><a xlink:title=" ">
<path fill="none" stroke="#63b8ff" d="M608.16,-128.86C631.49,-135.56 657.78,-143.11 680.28,-149.57"/>
<polygon fill="#63b8ff" stroke="#63b8ff" points="608.95,-125.44 598.37,-126.04 607.01,-132.17 608.95,-125.44"/>
</a>
</g>
</g>
<!-- Node8 -->
<g id="Node000008" class="node">
<title>Node8</title>
<g id="a_Node000008"><a xlink:href="classuniot_1_1_m_q_t_t_kit.html" target="_top" xlink:title=" ">
<polygon fill="white" stroke="#666666" points="807.5,-126 662.5,-126 662.5,-96 807.5,-96 807.5,-126"/>
<text text-anchor="start" x="670.5" y="-114" font-family="Helvetica,sans-Serif" font-size="10.00">uniot::MQTTKit&lt; unsigned</text>
<text text-anchor="middle" x="735" y="-103" font-family="Helvetica,sans-Serif" font-size="10.00"> int, int, Bytes &gt;</text>
</a>
</g>
</g>
<!-- Node5&#45;&gt;Node8 -->
<g id="edge7_Node000005_Node000008" class="edge">
<title>Node5&#45;&gt;Node8</title>
<g id="a_edge7_Node000005_Node000008"><a xlink:title=" ">
<path fill="none" stroke="#63b8ff" d="M631.4,-111C641.75,-111 652.24,-111 662.37,-111"/>
<polygon fill="#63b8ff" stroke="#63b8ff" points="631.11,-107.5 621.11,-111 631.11,-114.5 631.11,-107.5"/>
</a>
</g>
</g>
<!-- Node9 -->
<g id="Node000009" class="node">
<title>Node9</title>
<g id="a_Node000009"><a xlink:href="classuniot_1_1_network_controller.html" target="_top" xlink:title=" ">
<polygon fill="white" stroke="#666666" points="811,-78 659,-78 659,-48 811,-48 811,-78"/>
<text text-anchor="start" x="667" y="-66" font-family="Helvetica,sans-Serif" font-size="10.00">uniot::NetworkController</text>
<text text-anchor="middle" x="735" y="-55" font-family="Helvetica,sans-Serif" font-size="10.00">&lt; unsigned int, int, Bytes &gt;</text>
</a>
</g>
</g>
<!-- Node5&#45;&gt;Node9 -->
<g id="edge8_Node000005_Node000009" class="edge">
<title>Node5&#45;&gt;Node9</title>
<g id="a_edge8_Node000005_Node000009"><a xlink:title=" ">
<path fill="none" stroke="#63b8ff" d="M614.86,-93.42C634.67,-88.36 656.1,-82.89 675.24,-78"/>
<polygon fill="#63b8ff" stroke="#63b8ff" points="613.79,-90.08 604.97,-95.94 615.52,-96.86 613.79,-90.08"/>
</a>
</g>
</g>
<!-- Node10 -->
<g id="Node000010" class="node">
<title>Node10</title>
<g id="a_Node000010"><a xlink:href="classuniot_1_1un_lisp.html" target="_top" xlink:title=" ">
<polygon fill="white" stroke="#666666" points="802,-30 668,-30 668,0 802,0 802,-30"/>
<text text-anchor="start" x="676" y="-18" font-family="Helvetica,sans-Serif" font-size="10.00">uniot::unLisp&lt; unsigned</text>
<text text-anchor="middle" x="735" y="-7" font-family="Helvetica,sans-Serif" font-size="10.00"> int, int, Bytes &gt;</text>
</a>
</g>
</g>
<!-- Node5&#45;&gt;Node10 -->
<g id="edge9_Node000005_Node000010" class="edge">
<title>Node5&#45;&gt;Node10</title>
<g id="a_edge9_Node000005_Node000010"><a xlink:title=" ">
<path fill="none" stroke="#63b8ff" d="M614.45,-91.21C616.71,-89.89 618.9,-88.49 621,-87 642.73,-71.54 635.22,-54.38 657,-39 661.8,-35.61 667.1,-32.68 672.61,-30.16"/>
<polygon fill="#63b8ff" stroke="#63b8ff" points="612.69,-88.18 605.42,-95.88 615.91,-94.4 612.69,-88.18"/>
</a>
</g>
</g>
<!-- Node13 -->
<g id="Node000013" class="node">
<title>Node13</title>
<g id="a_Node000013"><a xlink:href="classuniot_1_1_button.html" target="_top" xlink:title=" ">
<polygon fill="white" stroke="#666666" points="416.5,-72.5 336.5,-72.5 336.5,-53.5 416.5,-53.5 416.5,-72.5"/>
<text text-anchor="middle" x="376.5" y="-60.5" font-family="Helvetica,sans-Serif" font-size="10.00">uniot::Button</text>
</a>
</g>
</g>
<!-- Node12&#45;&gt;Node13 -->
<g id="edge12_Node000012_Node000013" class="edge">
<title>Node12&#45;&gt;Node13</title>
<g id="a_edge12_Node000012_Node000013"><a xlink:title=" ">
<path fill="none" stroke="#63b8ff" d="M294.31,-63C308.95,-63 323.49,-63 336.13,-63"/>
<polygon fill="#63b8ff" stroke="#63b8ff" points="294.18,-59.5 284.18,-63 294.18,-66.5 294.18,-59.5"/>
</a>
</g>
</g>
</g>
</svg>
