<?xml version="1.0" encoding="UTF-8" standalone="no"?>
<!DOCTYPE svg PUBLIC "-//W3C//DTD SVG 1.1//EN"
 "http://www.w3.org/Graphics/SVG/1.1/DTD/svg11.dtd">
<!-- Generated by graphviz version 2.43.0 (0)
 -->
<!-- Title: /home/runner/work/uniot&#45;core/uniot&#45;core/lib/Core/LispWrapper/unLisp.h Pages: 1 -->
<svg width="202pt" height="203pt"
 viewBox="0.00 0.00 202.00 203.00" xmlns="http://www.w3.org/2000/svg" xmlns:xlink="http://www.w3.org/1999/xlink">
<g id="graph0" class="graph" transform="scale(1 1) rotate(0) translate(4 199)">
<title>/home/runner/work/uniot&#45;core/uniot&#45;core/lib/Core/LispWrapper/unLisp.h</title>
<!-- Node1 -->
<g id="Node000001" class="node">
<title>Node1</title>
<g id="a_Node000001"><a xlink:title=" ">
<polygon fill="#999999" stroke="#666666" points="140.5,-195 3.5,-195 3.5,-154 140.5,-154 140.5,-195"/>
<text text-anchor="start" x="11.5" y="-183" font-family="Helvetica,sans-Serif" font-size="10.00">/home/runner/work/uniot</text>
<text text-anchor="start" x="11.5" y="-172" font-family="Helvetica,sans-Serif" font-size="10.00">&#45;core/uniot&#45;core/lib/Core</text>
<text text-anchor="middle" x="72" y="-161" font-family="Helvetica,sans-Serif" font-size="10.00">/LispWrapper/unLisp.h</text>
</a>
</g>
</g>
<!-- Node2 -->
<g id="Node000002" class="node">
<title>Node2</title>
<g id="a_Node000002"><a xlink:href="_app_kit_8h.html" target="_top" xlink:title=" ">
<polygon fill="white" stroke="#666666" points="144,-41 0,-41 0,0 144,0 144,-41"/>
<text text-anchor="start" x="8" y="-29" font-family="Helvetica,sans-Serif" font-size="10.00">/home/runner/work/uniot</text>
<text text-anchor="start" x="8" y="-18" font-family="Helvetica,sans-Serif" font-size="10.00">&#45;core/uniot&#45;core/lib/AppKit</text>
<text text-anchor="middle" x="72" y="-7" font-family="Helvetica,sans-Serif" font-size="10.00">/AppKit.h</text>
</a>
</g>
</g>
<!-- Node1&#45;&gt;Node2 -->
<g id="edge1_Node000001_Node000002" class="edge">
<title>Node1&#45;&gt;Node2</title>
<g id="a_edge1_Node000001_Node000002"><a xlink:title=" ">
<path fill="none" stroke="#63b8ff" d="M52.53,-145.13C47.81,-136.76 43.43,-127.33 41,-118 36.41,-100.37 36.41,-94.63 41,-77 44.31,-64.29 51.24,-51.4 57.71,-41.25"/>
<polygon fill="#63b8ff" stroke="#63b8ff" points="49.56,-146.98 57.71,-153.75 55.56,-143.37 49.56,-146.98"/>
</a>
</g>
</g>
<!-- Node3 -->
<g id="Node000003" class="node">
<title>Node3</title>
<g id="a_Node000003"><a xlink:href="_lisp_device_8h.html" target="_top" xlink:title=" ">
<polygon fill="white" stroke="#666666" points="194,-118 50,-118 50,-77 194,-77 194,-118"/>
<text text-anchor="start" x="58" y="-106" font-family="Helvetica,sans-Serif" font-size="10.00">/home/runner/work/uniot</text>
<text text-anchor="start" x="58" y="-95" font-family="Helvetica,sans-Serif" font-size="10.00">&#45;core/uniot&#45;core/lib/AppKit</text>
<text text-anchor="middle" x="122" y="-84" font-family="Helvetica,sans-Serif" font-size="10.00">/LispDevice.h</text>
</a>
</g>
</g>
<!-- Node1&#45;&gt;Node3 -->
<g id="edge2_Node000001_Node000003" class="edge">
<title>Node1&#45;&gt;Node3</title>
<g id="a_edge2_Node000001_Node000003"><a xlink:title=" ">
<path fill="none" stroke="#63b8ff" d="M90.74,-145.39C96.8,-136.3 103.39,-126.41 108.95,-118.07"/>
<polygon fill="#63b8ff" stroke="#63b8ff" points="87.77,-143.53 85.14,-153.79 93.6,-147.42 87.77,-143.53"/>
</a>
</g>
</g>
<!-- Node3&#45;&gt;Node2 -->
<g id="edge3_Node000003_Node000002" class="edge">
<title>Node3&#45;&gt;Node2</title>
<g id="a_edge3_Node000003_Node000002"><a xlink:title=" ">
<path fill="none" stroke="#63b8ff" d="M103.26,-68.39C97.2,-59.3 90.61,-49.41 85.05,-41.07"/>
<polygon fill="#63b8ff" stroke="#63b8ff" points="100.4,-70.42 108.86,-76.79 106.23,-66.53 100.4,-70.42"/>
</a>
</g>
</g>
</g>
</svg>
