<?xml version="1.0" encoding="UTF-8" standalone="no"?>
<!DOCTYPE svg PUBLIC "-//W3C//DTD SVG 1.1//EN"
 "http://www.w3.org/Graphics/SVG/1.1/DTD/svg11.dtd">
<!-- Generated by graphviz version 2.43.0 (0)
 -->
<!-- Title: /home/runner/work/uniot&#45;core/uniot&#45;core/lib/Core/Storage/Storage.h Pages: 1 -->
<svg width="1039pt" height="434pt"
 viewBox="0.00 0.00 1038.50 434.00" xmlns="http://www.w3.org/2000/svg" xmlns:xlink="http://www.w3.org/1999/xlink">
<g id="graph0" class="graph" transform="scale(1 1) rotate(0) translate(4 430)">
<title>/home/runner/work/uniot&#45;core/uniot&#45;core/lib/Core/Storage/Storage.h</title>
<!-- Node1 -->
<g id="Node000001" class="node">
<title>Node1</title>
<g id="a_Node000001"><a xlink:title=" ">
<polygon fill="#999999" stroke="#666666" points="933.5,-426 796.5,-426 796.5,-385 933.5,-385 933.5,-426"/>
<text text-anchor="start" x="804.5" y="-414" font-family="Helvetica,sans-Serif" font-size="10.00">/home/runner/work/uniot</text>
<text text-anchor="start" x="804.5" y="-403" font-family="Helvetica,sans-Serif" font-size="10.00">&#45;core/uniot&#45;core/lib/Core</text>
<text text-anchor="middle" x="865" y="-392" font-family="Helvetica,sans-Serif" font-size="10.00">/Storage/Storage.h</text>
</a>
</g>
</g>
<!-- Node2 -->
<g id="Node000002" class="node">
<title>Node2</title>
<g id="a_Node000002"><a xlink:href="../../db/d93/_c_b_o_r_storage_8h.html" target="_top" xlink:title=" ">
<polygon fill="white" stroke="#666666" points="596.5,-349 459.5,-349 459.5,-308 596.5,-308 596.5,-349"/>
<text text-anchor="start" x="467.5" y="-337" font-family="Helvetica,sans-Serif" font-size="10.00">/home/runner/work/uniot</text>
<text text-anchor="start" x="467.5" y="-326" font-family="Helvetica,sans-Serif" font-size="10.00">&#45;core/uniot&#45;core/lib/Core</text>
<text text-anchor="middle" x="528" y="-315" font-family="Helvetica,sans-Serif" font-size="10.00">/Storage/CBORStorage.h</text>
</a>
</g>
</g>
<!-- Node1&#45;&gt;Node2 -->
<g id="edge1_Node000001_Node000002" class="edge">
<title>Node1&#45;&gt;Node2</title>
<g id="a_edge1_Node000001_Node000002"><a xlink:title=" ">
<path fill="none" stroke="#63b8ff" d="M786.61,-387.06C729.05,-374.24 651.6,-357.01 596.51,-344.75"/>
<polygon fill="#63b8ff" stroke="#63b8ff" points="785.88,-390.48 796.4,-389.23 787.4,-383.64 785.88,-390.48"/>
</a>
</g>
</g>
<!-- Node16 -->
<g id="Node000016" class="node">
<title>Node16</title>
<g id="a_Node000016"><a xlink:href="../../d7/d34/_crash_storage_8h.html" target="_top" xlink:title=" ">
<polygon fill="white" stroke="#666666" points="996.5,-118 859.5,-118 859.5,-77 996.5,-77 996.5,-118"/>
<text text-anchor="start" x="867.5" y="-106" font-family="Helvetica,sans-Serif" font-size="10.00">/home/runner/work/uniot</text>
<text text-anchor="start" x="867.5" y="-95" font-family="Helvetica,sans-Serif" font-size="10.00">&#45;core/uniot&#45;core/lib/Core</text>
<text text-anchor="middle" x="928" y="-84" font-family="Helvetica,sans-Serif" font-size="10.00">/Storage/CrashStorage.h</text>
</a>
</g>
</g>
<!-- Node1&#45;&gt;Node16 -->
<g id="edge25_Node000001_Node000016" class="edge">
<title>Node1&#45;&gt;Node16</title>
<g id="a_edge25_Node000001_Node000016"><a xlink:title=" ">
<path fill="none" stroke="#63b8ff" d="M871.08,-374.97C883.84,-312.99 913.13,-170.73 923.92,-118.34"/>
<polygon fill="#63b8ff" stroke="#63b8ff" points="867.63,-374.39 869.04,-384.89 874.48,-375.8 867.63,-374.39"/>
</a>
</g>
</g>
<!-- Node18 -->
<g id="Node000018" class="node">
<title>Node18</title>
<g id="a_Node000018"><a xlink:href="../../da/dd6/_storage_8cpp.html" target="_top" xlink:title=" ">
<polygon fill="white" stroke="#666666" points="1030.5,-349 893.5,-349 893.5,-308 1030.5,-308 1030.5,-349"/>
<text text-anchor="start" x="901.5" y="-337" font-family="Helvetica,sans-Serif" font-size="10.00">/home/runner/work/uniot</text>
<text text-anchor="start" x="901.5" y="-326" font-family="Helvetica,sans-Serif" font-size="10.00">&#45;core/uniot&#45;core/lib/Core</text>
<text text-anchor="middle" x="962" y="-315" font-family="Helvetica,sans-Serif" font-size="10.00">/Storage/Storage.cpp</text>
</a>
</g>
</g>
<!-- Node1&#45;&gt;Node18 -->
<g id="edge29_Node000001_Node000018" class="edge">
<title>Node1&#45;&gt;Node18</title>
<g id="a_edge29_Node000001_Node000018"><a xlink:title=" ">
<path fill="none" stroke="#63b8ff" d="M898.22,-378.82C910.77,-369.11 924.83,-358.24 936.56,-349.17"/>
<polygon fill="#63b8ff" stroke="#63b8ff" points="896,-376.1 890.23,-384.99 900.28,-381.64 896,-376.1"/>
</a>
</g>
</g>
<!-- Node3 -->
<g id="Node000003" class="node">
<title>Node3</title>
<g id="a_Node000003"><a xlink:href="../../d8/de7/_lisp_device_8h.html" target="_top" xlink:title=" ">
<polygon fill="white" stroke="#666666" points="144,-118 0,-118 0,-77 144,-77 144,-118"/>
<text text-anchor="start" x="8" y="-106" font-family="Helvetica,sans-Serif" font-size="10.00">/home/runner/work/uniot</text>
<text text-anchor="start" x="8" y="-95" font-family="Helvetica,sans-Serif" font-size="10.00">&#45;core/uniot&#45;core/lib/AppKit</text>
<text text-anchor="middle" x="72" y="-84" font-family="Helvetica,sans-Serif" font-size="10.00">/LispDevice.h</text>
</a>
</g>
</g>
<!-- Node2&#45;&gt;Node3 -->
<g id="edge2_Node000002_Node000003" class="edge">
<title>Node2&#45;&gt;Node3</title>
<g id="a_edge2_Node000002_Node000003"><a xlink:title=" ">
<path fill="none" stroke="#63b8ff" d="M449.26,-313.71C407.16,-304.77 355.07,-291.18 311,-272 252.89,-246.71 242.36,-232.12 191,-195 156.29,-169.91 118.17,-138.21 94.66,-118.14"/>
<polygon fill="#63b8ff" stroke="#63b8ff" points="448.69,-317.16 459.19,-315.77 450.11,-310.31 448.69,-317.16"/>
</a>
</g>
</g>
<!-- Node5 -->
<g id="Node000005" class="node">
<title>Node5</title>
<g id="a_Node000005"><a xlink:href="../../df/d86/_credentials_8h.html" target="_top" xlink:title=" ">
<polygon fill="white" stroke="#666666" points="673.5,-272 536.5,-272 536.5,-231 673.5,-231 673.5,-272"/>
<text text-anchor="start" x="544.5" y="-260" font-family="Helvetica,sans-Serif" font-size="10.00">/home/runner/work/uniot</text>
<text text-anchor="start" x="544.5" y="-249" font-family="Helvetica,sans-Serif" font-size="10.00">&#45;core/uniot&#45;core/lib/Core</text>
<text text-anchor="middle" x="605" y="-238" font-family="Helvetica,sans-Serif" font-size="10.00">/Credentials.h</text>
</a>
</g>
</g>
<!-- Node2&#45;&gt;Node5 -->
<g id="edge4_Node000002_Node000005" class="edge">
<title>Node2&#45;&gt;Node5</title>
<g id="a_edge4_Node000002_Node000005"><a xlink:title=" ">
<path fill="none" stroke="#63b8ff" d="M555.42,-300.79C565.15,-291.32 575.9,-280.84 584.9,-272.07"/>
<polygon fill="#63b8ff" stroke="#63b8ff" points="552.95,-298.31 548.23,-307.79 557.84,-303.32 552.95,-298.31"/>
</a>
</g>
</g>
<!-- Node10 -->
<g id="Node000010" class="node">
<title>Node10</title>
<g id="a_Node000010"><a xlink:href="../../d9/d89/_network_controller_8h.html" target="_top" xlink:title=" ">
<polygon fill="white" stroke="#666666" points="841.5,-118 680.5,-118 680.5,-77 841.5,-77 841.5,-118"/>
<text text-anchor="start" x="688.5" y="-106" font-family="Helvetica,sans-Serif" font-size="10.00">/home/runner/work/uniot</text>
<text text-anchor="start" x="688.5" y="-95" font-family="Helvetica,sans-Serif" font-size="10.00">&#45;core/uniot&#45;core/lib/Core</text>
<text text-anchor="middle" x="761" y="-84" font-family="Helvetica,sans-Serif" font-size="10.00">/Network/NetworkController.h</text>
</a>
</g>
</g>
<!-- Node2&#45;&gt;Node10 -->
<g id="edge22_Node000002_Node000010" class="edge">
<title>Node2&#45;&gt;Node10</title>
<g id="a_edge22_Node000002_Node000010"><a xlink:title=" ">
<path fill="none" stroke="#63b8ff" d="M606.63,-312.56C633.41,-304.28 661.88,-291.53 683,-272 729.32,-229.18 749.94,-153.68 757.43,-118.1"/>
<polygon fill="#63b8ff" stroke="#63b8ff" points="605.48,-309.25 596.86,-315.42 607.44,-315.97 605.48,-309.25"/>
</a>
</g>
</g>
<!-- Node13 -->
<g id="Node000013" class="node">
<title>Node13</title>
<g id="a_Node000013"><a xlink:href="../../d5/de5/_date_8h.html" target="_top" xlink:title=" ">
<polygon fill="white" stroke="#666666" points="337.5,-195 200.5,-195 200.5,-154 337.5,-154 337.5,-195"/>
<text text-anchor="start" x="208.5" y="-183" font-family="Helvetica,sans-Serif" font-size="10.00">/home/runner/work/uniot</text>
<text text-anchor="start" x="208.5" y="-172" font-family="Helvetica,sans-Serif" font-size="10.00">&#45;core/uniot&#45;core/lib/Core</text>
<text text-anchor="middle" x="269" y="-161" font-family="Helvetica,sans-Serif" font-size="10.00">/Date/Date.h</text>
</a>
</g>
</g>
<!-- Node2&#45;&gt;Node13 -->
<g id="edge15_Node000002_Node000013" class="edge">
<title>Node2&#45;&gt;Node13</title>
<g id="a_edge15_Node000002_Node000013"><a xlink:title=" ">
<path fill="none" stroke="#63b8ff" d="M449.54,-309.08C421.28,-300.39 389.97,-288.28 364,-272 330.93,-251.28 300.8,-216.85 283.71,-195.21"/>
<polygon fill="#63b8ff" stroke="#63b8ff" points="448.82,-312.52 459.4,-312.01 450.81,-305.81 448.82,-312.52"/>
</a>
</g>
</g>
<!-- Node15 -->
<g id="Node000015" class="node">
<title>Node15</title>
<g id="a_Node000015"><a xlink:href="../../d1/d04/_wifi_storage_8h.html" target="_top" xlink:title=" ">
<polygon fill="white" stroke="#666666" points="509.5,-272 372.5,-272 372.5,-231 509.5,-231 509.5,-272"/>
<text text-anchor="start" x="380.5" y="-260" font-family="Helvetica,sans-Serif" font-size="10.00">/home/runner/work/uniot</text>
<text text-anchor="start" x="380.5" y="-249" font-family="Helvetica,sans-Serif" font-size="10.00">&#45;core/uniot&#45;core/lib/Core</text>
<text text-anchor="middle" x="441" y="-238" font-family="Helvetica,sans-Serif" font-size="10.00">/Storage/WifiStorage.h</text>
</a>
</g>
</g>
<!-- Node2&#45;&gt;Node15 -->
<g id="edge23_Node000002_Node000015" class="edge">
<title>Node2&#45;&gt;Node15</title>
<g id="a_edge23_Node000002_Node000015"><a xlink:title=" ">
<path fill="none" stroke="#63b8ff" d="M497.34,-301.07C486.27,-291.52 473.98,-280.93 463.71,-272.07"/>
<polygon fill="#63b8ff" stroke="#63b8ff" points="495.28,-303.92 505.14,-307.79 499.85,-298.61 495.28,-303.92"/>
</a>
</g>
</g>
<!-- Node4 -->
<g id="Node000004" class="node">
<title>Node4</title>
<g id="a_Node000004"><a xlink:href="../../dc/d7b/_app_kit_8h.html" target="_top" xlink:title=" ">
<polygon fill="white" stroke="#666666" points="344,-41 200,-41 200,0 344,0 344,-41"/>
<text text-anchor="start" x="208" y="-29" font-family="Helvetica,sans-Serif" font-size="10.00">/home/runner/work/uniot</text>
<text text-anchor="start" x="208" y="-18" font-family="Helvetica,sans-Serif" font-size="10.00">&#45;core/uniot&#45;core/lib/AppKit</text>
<text text-anchor="middle" x="272" y="-7" font-family="Helvetica,sans-Serif" font-size="10.00">/AppKit.h</text>
</a>
</g>
</g>
<!-- Node3&#45;&gt;Node4 -->
<g id="edge3_Node000003_Node000004" class="edge">
<title>Node3&#45;&gt;Node4</title>
<g id="a_edge3_Node000003_Node000004"><a xlink:title=" ">
<path fill="none" stroke="#63b8ff" d="M133.59,-73.4C161.23,-63.04 193.47,-50.95 219.89,-41.04"/>
<polygon fill="#63b8ff" stroke="#63b8ff" points="132.16,-70.2 124.03,-76.99 134.62,-76.76 132.16,-70.2"/>
</a>
</g>
</g>
<!-- Node6 -->
<g id="Node000006" class="node">
<title>Node6</title>
<g id="a_Node000006"><a xlink:href="../../d3/dd0/_m_q_t_t_path_8h.html" target="_top" xlink:title=" ">
<polygon fill="white" stroke="#666666" points="685.5,-195 534.5,-195 534.5,-154 685.5,-154 685.5,-195"/>
<text text-anchor="start" x="542.5" y="-183" font-family="Helvetica,sans-Serif" font-size="10.00">/home/runner/work/uniot</text>
<text text-anchor="start" x="542.5" y="-172" font-family="Helvetica,sans-Serif" font-size="10.00">&#45;core/uniot&#45;core/lib/Core</text>
<text text-anchor="middle" x="610" y="-161" font-family="Helvetica,sans-Serif" font-size="10.00">/MQTTWrapper/MQTTPath.h</text>
</a>
</g>
</g>
<!-- Node5&#45;&gt;Node6 -->
<g id="edge5_Node000005_Node000006" class="edge">
<title>Node5&#45;&gt;Node6</title>
<g id="a_edge5_Node000005_Node000006"><a xlink:title=" ">
<path fill="none" stroke="#63b8ff" d="M606.99,-220.69C607.56,-212.08 608.17,-202.9 608.7,-195.07"/>
<polygon fill="#63b8ff" stroke="#63b8ff" points="603.49,-220.58 606.31,-230.79 610.47,-221.05 603.49,-220.58"/>
</a>
</g>
</g>
<!-- Node9 -->
<g id="Node000009" class="node">
<title>Node9</title>
<g id="a_Node000009"><a xlink:href="../../da/dc0/_network_scheduler_8h.html" target="_top" xlink:title=" ">
<polygon fill="white" stroke="#666666" points="516.5,-195 355.5,-195 355.5,-154 516.5,-154 516.5,-195"/>
<text text-anchor="start" x="363.5" y="-183" font-family="Helvetica,sans-Serif" font-size="10.00">/home/runner/work/uniot</text>
<text text-anchor="start" x="363.5" y="-172" font-family="Helvetica,sans-Serif" font-size="10.00">&#45;core/uniot&#45;core/lib/Core</text>
<text text-anchor="middle" x="436" y="-161" font-family="Helvetica,sans-Serif" font-size="10.00">/Network/NetworkScheduler.h</text>
</a>
</g>
</g>
<!-- Node5&#45;&gt;Node9 -->
<g id="edge9_Node000005_Node000009" class="edge">
<title>Node5&#45;&gt;Node9</title>
<g id="a_edge9_Node000005_Node000009"><a xlink:title=" ">
<path fill="none" stroke="#63b8ff" d="M551.73,-226.86C528.65,-216.62 501.96,-204.77 480.03,-195.04"/>
<polygon fill="#63b8ff" stroke="#63b8ff" points="550.48,-230.13 561.04,-230.99 553.32,-223.73 550.48,-230.13"/>
</a>
</g>
</g>
<!-- Node11 -->
<g id="Node000011" class="node">
<title>Node11</title>
<g id="a_Node000011"><a xlink:href="../../d4/d2b/_uniot_8h.html" target="_top" xlink:title=" ">
<polygon fill="white" stroke="#666666" points="662,-118 524,-118 524,-77 662,-77 662,-118"/>
<text text-anchor="start" x="532" y="-106" font-family="Helvetica,sans-Serif" font-size="10.00">/home/runner/work/uniot</text>
<text text-anchor="start" x="532" y="-95" font-family="Helvetica,sans-Serif" font-size="10.00">&#45;core/uniot&#45;core/lib/Uniot</text>
<text text-anchor="middle" x="593" y="-84" font-family="Helvetica,sans-Serif" font-size="10.00">/Uniot.h</text>
</a>
</g>
</g>
<!-- Node5&#45;&gt;Node11 -->
<g id="edge13_Node000005_Node000011" class="edge">
<title>Node5&#45;&gt;Node11</title>
<g id="a_edge13_Node000005_Node000011"><a xlink:title=" ">
<path fill="none" stroke="#63b8ff" d="M664.88,-225.47C676.92,-217.55 688.02,-207.51 695,-195 703.88,-179.09 704.31,-169.66 695,-154 685.52,-138.06 669.69,-126.4 653.28,-118.02"/>
<polygon fill="#63b8ff" stroke="#63b8ff" points="662.72,-222.68 655.98,-230.86 666.35,-228.67 662.72,-222.68"/>
</a>
</g>
</g>
<!-- Node7 -->
<g id="Node000007" class="node">
<title>Node7</title>
<g id="a_Node000007"><a xlink:href="../../dc/d26/_m_q_t_t_kit_8h.html" target="_top" xlink:title=" ">
<polygon fill="white" stroke="#666666" points="505.5,-118 362.5,-118 362.5,-77 505.5,-77 505.5,-118"/>
<text text-anchor="start" x="370.5" y="-106" font-family="Helvetica,sans-Serif" font-size="10.00">/home/runner/work/uniot</text>
<text text-anchor="start" x="370.5" y="-95" font-family="Helvetica,sans-Serif" font-size="10.00">&#45;core/uniot&#45;core/lib/Core</text>
<text text-anchor="middle" x="434" y="-84" font-family="Helvetica,sans-Serif" font-size="10.00">/MQTTWrapper/MQTTKit.h</text>
</a>
</g>
</g>
<!-- Node6&#45;&gt;Node7 -->
<g id="edge6_Node000006_Node000007" class="edge">
<title>Node6&#45;&gt;Node7</title>
<g id="a_edge6_Node000006_Node000007"><a xlink:title=" ">
<path fill="none" stroke="#63b8ff" d="M554.84,-150C530.74,-139.72 502.8,-127.82 479.86,-118.04"/>
<polygon fill="#63b8ff" stroke="#63b8ff" points="553.65,-153.29 564.22,-153.99 556.39,-146.85 553.65,-153.29"/>
</a>
</g>
</g>
<!-- Node7&#45;&gt;Node4 -->
<g id="edge7_Node000007_Node000004" class="edge">
<title>Node7&#45;&gt;Node4</title>
<g id="a_edge7_Node000007_Node000004"><a xlink:title=" ">
<path fill="none" stroke="#63b8ff" d="M382.64,-72.72C360.59,-62.51 335.14,-50.73 314.21,-41.04"/>
<polygon fill="#63b8ff" stroke="#63b8ff" points="381.31,-75.97 391.86,-76.99 384.26,-69.61 381.31,-75.97"/>
</a>
</g>
</g>
<!-- Node8 -->
<g id="Node000008" class="node">
<title>Node8</title>
<g id="a_Node000008"><a xlink:href="../../da/d02/_m_q_t_t_device_8cpp.html" target="_top" xlink:title=" ">
<polygon fill="white" stroke="#666666" points="537.5,-41 362.5,-41 362.5,0 537.5,0 537.5,-41"/>
<text text-anchor="start" x="370.5" y="-29" font-family="Helvetica,sans-Serif" font-size="10.00">/home/runner/work/uniot</text>
<text text-anchor="start" x="370.5" y="-18" font-family="Helvetica,sans-Serif" font-size="10.00">&#45;core/uniot&#45;core/lib/Core</text>
<text text-anchor="middle" x="450" y="-7" font-family="Helvetica,sans-Serif" font-size="10.00">/MQTTWrapper/MQTTDevice.cpp</text>
</a>
</g>
</g>
<!-- Node7&#45;&gt;Node8 -->
<g id="edge8_Node000007_Node000008" class="edge">
<title>Node7&#45;&gt;Node8</title>
<g id="a_edge8_Node000007_Node000008"><a xlink:title=" ">
<path fill="none" stroke="#63b8ff" d="M440.3,-66.98C442.15,-58.28 444.14,-48.98 445.82,-41.07"/>
<polygon fill="#63b8ff" stroke="#63b8ff" points="436.87,-66.28 438.2,-76.79 443.71,-67.74 436.87,-66.28"/>
</a>
</g>
</g>
<!-- Node9&#45;&gt;Node7 -->
<g id="edge10_Node000009_Node000007" class="edge">
<title>Node9&#45;&gt;Node7</title>
<g id="a_edge10_Node000009_Node000007"><a xlink:title=" ">
<path fill="none" stroke="#63b8ff" d="M435.21,-143.69C434.98,-135.08 434.73,-125.9 434.52,-118.07"/>
<polygon fill="#63b8ff" stroke="#63b8ff" points="431.71,-143.89 435.47,-153.79 438.71,-143.7 431.71,-143.89"/>
</a>
</g>
</g>
<!-- Node9&#45;&gt;Node10 -->
<g id="edge11_Node000009_Node000010" class="edge">
<title>Node9&#45;&gt;Node10</title>
<g id="a_edge11_Node000009_Node000010"><a xlink:title=" ">
<path fill="none" stroke="#63b8ff" d="M526.57,-152.6C574.84,-141.46 633.71,-127.88 680.38,-117.1"/>
<polygon fill="#63b8ff" stroke="#63b8ff" points="525.71,-149.21 516.75,-154.86 527.29,-156.03 525.71,-149.21"/>
</a>
</g>
</g>
<!-- Node10&#45;&gt;Node4 -->
<g id="edge12_Node000010_Node000004" class="edge">
<title>Node10&#45;&gt;Node4</title>
<g id="a_edge12_Node000010_Node000004"><a xlink:title=" ">
<path fill="none" stroke="#63b8ff" d="M670.24,-76.97C529.36,-54.46 490.53,-64.9 354,-41 350.83,-40.44 347.6,-39.84 344.34,-39.2"/>
<polygon fill="#63b8ff" stroke="#63b8ff" points="669.69,-80.43 680.12,-78.58 670.81,-73.52 669.69,-80.43"/>
</a>
</g>
</g>
<!-- Node12 -->
<g id="Node000012" class="node">
<title>Node12</title>
<g id="a_Node000012"><a xlink:href="../../d9/d1c/_uniot_8cpp.html" target="_top" xlink:title=" ">
<polygon fill="white" stroke="#666666" points="766,-41 628,-41 628,0 766,0 766,-41"/>
<text text-anchor="start" x="636" y="-29" font-family="Helvetica,sans-Serif" font-size="10.00">/home/runner/work/uniot</text>
<text text-anchor="start" x="636" y="-18" font-family="Helvetica,sans-Serif" font-size="10.00">&#45;core/uniot&#45;core/lib/Uniot</text>
<text text-anchor="middle" x="697" y="-7" font-family="Helvetica,sans-Serif" font-size="10.00">/Uniot.cpp</text>
</a>
</g>
</g>
<!-- Node11&#45;&gt;Node12 -->
<g id="edge14_Node000011_Node000012" class="edge">
<title>Node11&#45;&gt;Node12</title>
<g id="a_edge14_Node000011_Node000012"><a xlink:title=" ">
<path fill="none" stroke="#63b8ff" d="M628.23,-71.09C641.78,-61.32 657.03,-50.32 669.72,-41.17"/>
<polygon fill="#63b8ff" stroke="#63b8ff" points="626.12,-68.3 620.05,-76.99 630.21,-73.98 626.12,-68.3"/>
</a>
</g>
</g>
<!-- Node13&#45;&gt;Node3 -->
<g id="edge17_Node000013_Node000003" class="edge">
<title>Node13&#45;&gt;Node3</title>
<g id="a_edge17_Node000013_Node000003"><a xlink:title=" ">
<path fill="none" stroke="#63b8ff" d="M208.33,-150.4C181.11,-140.04 149.35,-127.95 123.33,-118.04"/>
<polygon fill="#63b8ff" stroke="#63b8ff" points="207.16,-153.7 217.75,-153.99 209.65,-147.16 207.16,-153.7"/>
</a>
</g>
</g>
<!-- Node13&#45;&gt;Node4 -->
<g id="edge16_Node000013_Node000004" class="edge">
<title>Node13&#45;&gt;Node4</title>
<g id="a_edge16_Node000013_Node000004"><a xlink:title=" ">
<path fill="none" stroke="#63b8ff" d="M218.25,-148.01C207.32,-139.98 197.19,-130.01 191,-118 182.65,-101.8 182.5,-93.12 191,-77 199.03,-61.77 213.33,-49.92 227.7,-41.15"/>
<polygon fill="#63b8ff" stroke="#63b8ff" points="216.48,-151.04 226.72,-153.77 220.42,-145.25 216.48,-151.04"/>
</a>
</g>
</g>
<!-- Node13&#45;&gt;Node7 -->
<g id="edge20_Node000013_Node000007" class="edge">
<title>Node13&#45;&gt;Node7</title>
<g id="a_edge20_Node000013_Node000007"><a xlink:title=" ">
<path fill="none" stroke="#63b8ff" d="M321.31,-149.72C343.77,-139.51 369.69,-127.73 391.01,-118.04"/>
<polygon fill="#63b8ff" stroke="#63b8ff" points="319.58,-146.67 311.92,-153.99 322.47,-153.04 319.58,-146.67"/>
</a>
</g>
</g>
<!-- Node13&#45;&gt;Node11 -->
<g id="edge21_Node000013_Node000011" class="edge">
<title>Node13&#45;&gt;Node11</title>
<g id="a_edge21_Node000013_Node000011"><a xlink:title=" ">
<path fill="none" stroke="#63b8ff" d="M347.83,-153.85C423.06,-136.59 443.67,-134.55 515,-118 517.86,-117.34 520.77,-116.65 523.71,-115.95"/>
<polygon fill="#63b8ff" stroke="#63b8ff" points="346.83,-150.49 337.87,-156.15 348.4,-157.31 346.83,-150.49"/>
</a>
</g>
</g>
<!-- Node14 -->
<g id="Node000014" class="node">
<title>Node14</title>
<g id="a_Node000014"><a xlink:href="../../db/dfc/_top_device_8h.html" target="_top" xlink:title=" ">
<polygon fill="white" stroke="#666666" points="344,-118 200,-118 200,-77 344,-77 344,-118"/>
<text text-anchor="start" x="208" y="-106" font-family="Helvetica,sans-Serif" font-size="10.00">/home/runner/work/uniot</text>
<text text-anchor="start" x="208" y="-95" font-family="Helvetica,sans-Serif" font-size="10.00">&#45;core/uniot&#45;core/lib/AppKit</text>
<text text-anchor="middle" x="272" y="-84" font-family="Helvetica,sans-Serif" font-size="10.00">/TopDevice.h</text>
</a>
</g>
</g>
<!-- Node13&#45;&gt;Node14 -->
<g id="edge18_Node000013_Node000014" class="edge">
<title>Node13&#45;&gt;Node14</title>
<g id="a_edge18_Node000013_Node000014"><a xlink:title=" ">
<path fill="none" stroke="#63b8ff" d="M270.19,-143.69C270.54,-135.08 270.9,-125.9 271.22,-118.07"/>
<polygon fill="#63b8ff" stroke="#63b8ff" points="266.69,-143.66 269.79,-153.79 273.69,-143.94 266.69,-143.66"/>
</a>
</g>
</g>
<!-- Node14&#45;&gt;Node4 -->
<g id="edge19_Node000014_Node000004" class="edge">
<title>Node14&#45;&gt;Node4</title>
<g id="a_edge19_Node000014_Node000004"><a xlink:title=" ">
<path fill="none" stroke="#63b8ff" d="M272,-66.69C272,-58.08 272,-48.9 272,-41.07"/>
<polygon fill="#63b8ff" stroke="#63b8ff" points="268.5,-66.79 272,-76.79 275.5,-66.79 268.5,-66.79"/>
</a>
</g>
</g>
<!-- Node15&#45;&gt;Node9 -->
<g id="edge24_Node000015_Node000009" class="edge">
<title>Node15&#45;&gt;Node9</title>
<g id="a_edge24_Node000015_Node000009"><a xlink:title=" ">
<path fill="none" stroke="#63b8ff" d="M439.01,-220.69C438.44,-212.08 437.83,-202.9 437.3,-195.07"/>
<polygon fill="#63b8ff" stroke="#63b8ff" points="435.53,-221.05 439.69,-230.79 442.51,-220.58 435.53,-221.05"/>
</a>
</g>
</g>
<!-- Node16&#45;&gt;Node4 -->
<g id="edge26_Node000016_Node000004" class="edge">
<title>Node16&#45;&gt;Node4</title>
<g id="a_edge26_Node000016_Node000004"><a xlink:title=" ">
<path fill="none" stroke="#63b8ff" d="M849.09,-76.84C630.53,-42.66 569.57,-74.22 354,-41 350.82,-40.51 347.58,-39.96 344.31,-39.36"/>
<polygon fill="#63b8ff" stroke="#63b8ff" points="848.85,-80.34 859.28,-78.46 849.95,-73.43 848.85,-80.34"/>
</a>
</g>
</g>
<!-- Node16&#45;&gt;Node12 -->
<g id="edge28_Node000016_Node000012" class="edge">
<title>Node16&#45;&gt;Node12</title>
<g id="a_edge28_Node000016_Node000012"><a xlink:title=" ">
<path fill="none" stroke="#63b8ff" d="M858.11,-73.81C825.92,-63.36 788.1,-51.08 757.19,-41.04"/>
<polygon fill="#63b8ff" stroke="#63b8ff" points="857.32,-77.23 867.91,-76.99 859.48,-70.57 857.32,-77.23"/>
</a>
</g>
</g>
<!-- Node17 -->
<g id="Node000017" class="node">
<title>Node17</title>
<g id="a_Node000017"><a xlink:href="../../d0/d3b/_crash_storage_8cpp.html" target="_top" xlink:title=" ">
<polygon fill="white" stroke="#666666" points="1001,-41 855,-41 855,0 1001,0 1001,-41"/>
<text text-anchor="start" x="863" y="-29" font-family="Helvetica,sans-Serif" font-size="10.00">/home/runner/work/uniot</text>
<text text-anchor="start" x="863" y="-18" font-family="Helvetica,sans-Serif" font-size="10.00">&#45;core/uniot&#45;core/lib/Core</text>
<text text-anchor="middle" x="928" y="-7" font-family="Helvetica,sans-Serif" font-size="10.00">/Storage/CrashStorage.cpp</text>
</a>
</g>
</g>
<!-- Node16&#45;&gt;Node17 -->
<g id="edge27_Node000016_Node000017" class="edge">
<title>Node16&#45;&gt;Node17</title>
<g id="a_edge27_Node000016_Node000017"><a xlink:title=" ">
<path fill="none" stroke="#63b8ff" d="M928,-66.69C928,-58.08 928,-48.9 928,-41.07"/>
<polygon fill="#63b8ff" stroke="#63b8ff" points="924.5,-66.79 928,-76.79 931.5,-66.79 924.5,-66.79"/>
</a>
</g>
</g>
</g>
</svg>
