<?xml version="1.0" encoding="UTF-8" standalone="no"?>
<!DOCTYPE svg PUBLIC "-//W3C//DTD SVG 1.1//EN"
 "http://www.w3.org/Graphics/SVG/1.1/DTD/svg11.dtd">
<!-- Generated by graphviz version 2.43.0 (0)
 -->
<!-- Title: /home/runner/work/uniot&#45;core/uniot&#45;core/lib/Core/CBORWrapper/CBORObject.h Pages: 1 -->
<svg width="555pt" height="214pt"
 viewBox="0.00 0.00 555.00 214.00" xmlns="http://www.w3.org/2000/svg" xmlns:xlink="http://www.w3.org/1999/xlink">
<g id="graph0" class="graph" transform="scale(1 1) rotate(0) translate(4 210)">
<title>/home/runner/work/uniot&#45;core/uniot&#45;core/lib/Core/CBORWrapper/CBORObject.h</title>
<!-- Node1 -->
<g id="Node000001" class="node">
<title>Node1</title>
<g id="a_Node000001"><a xlink:title=" ">
<polygon fill="#999999" stroke="#666666" points="306.5,-206 146.5,-206 146.5,-165 306.5,-165 306.5,-206"/>
<text text-anchor="start" x="154.5" y="-194" font-family="Helvetica,sans-Serif" font-size="10.00">/home/runner/work/uniot</text>
<text text-anchor="start" x="154.5" y="-183" font-family="Helvetica,sans-Serif" font-size="10.00">&#45;core/uniot&#45;core/lib/Core</text>
<text text-anchor="middle" x="226.5" y="-172" font-family="Helvetica,sans-Serif" font-size="10.00">/CBORWrapper/CBORObject.h</text>
</a>
</g>
</g>
<!-- Node2 -->
<g id="Node000002" class="node">
<title>Node2</title>
<g id="a_Node000002"><a xlink:title=" ">
<polygon fill="#e0e0e0" stroke="#999999" points="63,-19 0,-19 0,0 63,0 63,-19"/>
<text text-anchor="middle" x="31.5" y="-7" font-family="Helvetica,sans-Serif" font-size="10.00">Arduino.h</text>
</a>
</g>
</g>
<!-- Node1&#45;&gt;Node2 -->
<g id="edge1_Node000001_Node000002" class="edge">
<title>Node1&#45;&gt;Node2</title>
<g id="a_edge1_Node000001_Node000002"><a xlink:title=" ">
<path fill="none" stroke="#63b8ff" d="M149.85,-164.99C103.76,-148.84 48.87,-120.75 21.5,-74 13.49,-60.32 17.45,-42.27 22.56,-28.92"/>
<polygon fill="#63b8ff" stroke="#63b8ff" points="25.92,-29.95 26.7,-19.38 19.5,-27.16 25.92,-29.95"/>
</a>
</g>
</g>
<!-- Node3 -->
<g id="Node000003" class="node">
<title>Node3</title>
<g id="a_Node000003"><a xlink:href="_bytes_8h.html" target="_top" xlink:title=" ">
<polygon fill="white" stroke="#666666" points="253,-129 200,-129 200,-110 253,-110 253,-129"/>
<text text-anchor="middle" x="226.5" y="-117" font-family="Helvetica,sans-Serif" font-size="10.00">Bytes.h</text>
</a>
</g>
</g>
<!-- Node1&#45;&gt;Node3 -->
<g id="edge2_Node000001_Node000003" class="edge">
<title>Node1&#45;&gt;Node3</title>
<g id="a_edge2_Node000001_Node000003"><a xlink:title=" ">
<path fill="none" stroke="#63b8ff" d="M226.5,-164.95C226.5,-156.85 226.5,-147.5 226.5,-139.47"/>
<polygon fill="#63b8ff" stroke="#63b8ff" points="230,-139.26 226.5,-129.26 223,-139.26 230,-139.26"/>
</a>
</g>
</g>
<!-- Node5 -->
<g id="Node000005" class="node">
<title>Node5</title>
<g id="a_Node000005"><a xlink:title=" ">
<polygon fill="#e0e0e0" stroke="#999999" points="363.5,-19 305.5,-19 305.5,0 363.5,0 363.5,-19"/>
<text text-anchor="middle" x="334.5" y="-7" font-family="Helvetica,sans-Serif" font-size="10.00">memory</text>
</a>
</g>
</g>
<!-- Node1&#45;&gt;Node5 -->
<g id="edge13_Node000001_Node000005" class="edge">
<title>Node1&#45;&gt;Node5</title>
<g id="a_edge13_Node000001_Node000005"><a xlink:title=" ">
<path fill="none" stroke="#63b8ff" d="M306.37,-164.98C353.4,-148.93 409.08,-120.96 437.5,-74 455.05,-45 409.57,-27.34 373.54,-18.23"/>
<polygon fill="#63b8ff" stroke="#63b8ff" points="374.22,-14.8 363.68,-15.89 372.6,-21.61 374.22,-14.8"/>
</a>
</g>
</g>
<!-- Node7 -->
<g id="Node000007" class="node">
<title>Node7</title>
<g id="a_Node000007"><a xlink:href="_logger_8h.html" target="_top" xlink:title=" ">
<polygon fill="white" stroke="#666666" points="88.5,-74 30.5,-74 30.5,-55 88.5,-55 88.5,-74"/>
<text text-anchor="middle" x="59.5" y="-62" font-family="Helvetica,sans-Serif" font-size="10.00">Logger.h</text>
</a>
</g>
</g>
<!-- Node1&#45;&gt;Node7 -->
<g id="edge11_Node000001_Node000007" class="edge">
<title>Node1&#45;&gt;Node7</title>
<g id="a_edge11_Node000001_Node000007"><a xlink:title=" ">
<path fill="none" stroke="#63b8ff" d="M198.92,-164.85C165.51,-141.04 109.98,-101.47 80.08,-80.16"/>
<polygon fill="#63b8ff" stroke="#63b8ff" points="81.85,-77.13 71.67,-74.18 77.79,-82.83 81.85,-77.13"/>
</a>
</g>
</g>
<!-- Node11 -->
<g id="Node000011" class="node">
<title>Node11</title>
<g id="a_Node000011"><a xlink:title=" ">
<polygon fill="#e0e0e0" stroke="#999999" points="547,-129 486,-129 486,-110 547,-110 547,-129"/>
<text text-anchor="middle" x="516.5" y="-117" font-family="Helvetica,sans-Serif" font-size="10.00">cn&#45;cbor.h</text>
</a>
</g>
</g>
<!-- Node1&#45;&gt;Node11 -->
<g id="edge12_Node000001_Node000011" class="edge">
<title>Node1&#45;&gt;Node11</title>
<g id="a_edge12_Node000001_Node000011"><a xlink:title=" ">
<path fill="none" stroke="#63b8ff" d="M306.51,-166.84C361.46,-154.72 432.1,-139.13 475.83,-129.48"/>
<polygon fill="#63b8ff" stroke="#63b8ff" points="476.8,-132.85 485.81,-127.27 475.29,-126.01 476.8,-132.85"/>
</a>
</g>
</g>
<!-- Node4 -->
<g id="Node000004" class="node">
<title>Node4</title>
<g id="a_Node000004"><a xlink:href="_common_8h.html" target="_top" xlink:title=" ">
<polygon fill="white" stroke="#666666" points="176.5,-74 106.5,-74 106.5,-55 176.5,-55 176.5,-74"/>
<text text-anchor="middle" x="141.5" y="-62" font-family="Helvetica,sans-Serif" font-size="10.00">Common.h</text>
</a>
</g>
</g>
<!-- Node3&#45;&gt;Node4 -->
<g id="edge3_Node000003_Node000004" class="edge">
<title>Node3&#45;&gt;Node4</title>
<g id="a_edge3_Node000003_Node000004"><a xlink:title=" ">
<path fill="none" stroke="#63b8ff" d="M212.84,-109.98C199.66,-101.77 179.47,-89.18 163.93,-79.49"/>
<polygon fill="#63b8ff" stroke="#63b8ff" points="165.74,-76.49 155.41,-74.17 162.04,-82.43 165.74,-76.49"/>
</a>
</g>
</g>
<!-- Node3&#45;&gt;Node7 -->
<g id="edge6_Node000003_Node000007" class="edge">
<title>Node3&#45;&gt;Node7</title>
<g id="a_edge6_Node000003_Node000007"><a xlink:title=" ">
<path fill="none" stroke="#63b8ff" d="M199.67,-109.98C171.63,-101.09 127.45,-87.07 96.2,-77.15"/>
<polygon fill="#63b8ff" stroke="#63b8ff" points="97.13,-73.77 86.54,-74.08 95.01,-80.44 97.13,-73.77"/>
</a>
</g>
</g>
<!-- Node8 -->
<g id="Node000008" class="node">
<title>Node8</title>
<g id="a_Node000008"><a xlink:title=" ">
<polygon fill="#e0e0e0" stroke="#999999" points="258.5,-74 194.5,-74 194.5,-55 258.5,-55 258.5,-74"/>
<text text-anchor="middle" x="226.5" y="-62" font-family="Helvetica,sans-Serif" font-size="10.00">WString.h</text>
</a>
</g>
</g>
<!-- Node3&#45;&gt;Node8 -->
<g id="edge8_Node000003_Node000008" class="edge">
<title>Node3&#45;&gt;Node8</title>
<g id="a_edge8_Node000003_Node000008"><a xlink:title=" ">
<path fill="none" stroke="#63b8ff" d="M226.5,-109.75C226.5,-102.8 226.5,-92.85 226.5,-84.13"/>
<polygon fill="#63b8ff" stroke="#63b8ff" points="230,-84.09 226.5,-74.09 223,-84.09 230,-84.09"/>
</a>
</g>
</g>
<!-- Node9 -->
<g id="Node000009" class="node">
<title>Node9</title>
<g id="a_Node000009"><a xlink:title=" ">
<polygon fill="#e0e0e0" stroke="#999999" points="342,-74 277,-74 277,-55 342,-55 342,-74"/>
<text text-anchor="middle" x="309.5" y="-62" font-family="Helvetica,sans-Serif" font-size="10.00">functional</text>
</a>
</g>
</g>
<!-- Node3&#45;&gt;Node9 -->
<g id="edge9_Node000003_Node000009" class="edge">
<title>Node3&#45;&gt;Node9</title>
<g id="a_edge9_Node000003_Node000009"><a xlink:title=" ">
<path fill="none" stroke="#63b8ff" d="M239.84,-109.98C252.59,-101.84 272.05,-89.41 287.17,-79.76"/>
<polygon fill="#63b8ff" stroke="#63b8ff" points="289.38,-82.5 295.92,-74.17 285.61,-76.6 289.38,-82.5"/>
</a>
</g>
</g>
<!-- Node10 -->
<g id="Node000010" class="node">
<title>Node10</title>
<g id="a_Node000010"><a xlink:title=" ">
<polygon fill="#e0e0e0" stroke="#999999" points="429,-74 360,-74 360,-55 429,-55 429,-74"/>
<text text-anchor="middle" x="394.5" y="-62" font-family="Helvetica,sans-Serif" font-size="10.00">type_traits</text>
</a>
</g>
</g>
<!-- Node3&#45;&gt;Node10 -->
<g id="edge10_Node000003_Node000010" class="edge">
<title>Node3&#45;&gt;Node10</title>
<g id="a_edge10_Node000003_Node000010"><a xlink:title=" ">
<path fill="none" stroke="#63b8ff" d="M253.12,-110.1C281.34,-101.2 326.11,-87.08 357.69,-77.11"/>
<polygon fill="#63b8ff" stroke="#63b8ff" points="358.96,-80.38 367.45,-74.03 356.86,-73.71 358.96,-80.38"/>
</a>
</g>
</g>
<!-- Node4&#45;&gt;Node5 -->
<g id="edge4_Node000004_Node000005" class="edge">
<title>Node4&#45;&gt;Node5</title>
<g id="a_edge4_Node000004_Node000005"><a xlink:title=" ">
<path fill="none" stroke="#63b8ff" d="M172.51,-54.98C206.01,-45.78 259.46,-31.11 295.72,-21.15"/>
<polygon fill="#63b8ff" stroke="#63b8ff" points="296.75,-24.5 305.46,-18.47 294.89,-17.75 296.75,-24.5"/>
</a>
</g>
</g>
<!-- Node6 -->
<g id="Node000006" class="node">
<title>Node6</title>
<g id="a_Node000006"><a xlink:title=" ">
<polygon fill="#e0e0e0" stroke="#999999" points="164,-19 119,-19 119,0 164,0 164,-19"/>
<text text-anchor="middle" x="141.5" y="-7" font-family="Helvetica,sans-Serif" font-size="10.00">utility</text>
</a>
</g>
</g>
<!-- Node4&#45;&gt;Node6 -->
<g id="edge5_Node000004_Node000006" class="edge">
<title>Node4&#45;&gt;Node6</title>
<g id="a_edge5_Node000004_Node000006"><a xlink:title=" ">
<path fill="none" stroke="#63b8ff" d="M141.5,-54.75C141.5,-47.8 141.5,-37.85 141.5,-29.13"/>
<polygon fill="#63b8ff" stroke="#63b8ff" points="145,-29.09 141.5,-19.09 138,-29.09 145,-29.09"/>
</a>
</g>
</g>
<!-- Node7&#45;&gt;Node2 -->
<g id="edge7_Node000007_Node000002" class="edge">
<title>Node7&#45;&gt;Node2</title>
<g id="a_edge7_Node000007_Node000002"><a xlink:title=" ">
<path fill="none" stroke="#63b8ff" d="M54.88,-54.75C51.04,-47.49 45.48,-36.95 40.74,-27.98"/>
<polygon fill="#63b8ff" stroke="#63b8ff" points="43.8,-26.3 36.04,-19.09 37.61,-29.57 43.8,-26.3"/>
</a>
</g>
</g>
</g>
</svg>
