<?xml version="1.0" encoding="UTF-8" standalone="no"?>
<!DOCTYPE svg PUBLIC "-//W3C//DTD SVG 1.1//EN"
 "http://www.w3.org/Graphics/SVG/1.1/DTD/svg11.dtd">
<!-- Generated by graphviz version 2.43.0 (0)
 -->
<!-- Title: /home/runner/work/uniot&#45;core/uniot&#45;core/lib/Core/Scheduler/ESP8266Task.h Pages: 1 -->
<svg width="899pt" height="357pt"
 viewBox="0.00 0.00 898.50 357.00" xmlns="http://www.w3.org/2000/svg" xmlns:xlink="http://www.w3.org/1999/xlink">
<g id="graph0" class="graph" transform="scale(1 1) rotate(0) translate(4 353)">
<title>/home/runner/work/uniot&#45;core/uniot&#45;core/lib/Core/Scheduler/ESP8266Task.h</title>
<!-- Node1 -->
<g id="Node000001" class="node">
<title>Node1</title>
<g id="a_Node000001"><a xlink:title=" ">
<polygon fill="#999999" stroke="#666666" points="541,-349 398,-349 398,-308 541,-308 541,-349"/>
<text text-anchor="start" x="406" y="-337" font-family="Helvetica,sans-Serif" font-size="10.00">/home/runner/work/uniot</text>
<text text-anchor="start" x="406" y="-326" font-family="Helvetica,sans-Serif" font-size="10.00">&#45;core/uniot&#45;core/lib/Core</text>
<text text-anchor="middle" x="469.5" y="-315" font-family="Helvetica,sans-Serif" font-size="10.00">/Scheduler/ESP8266Task.h</text>
</a>
</g>
</g>
<!-- Node2 -->
<g id="Node000002" class="node">
<title>Node2</title>
<g id="a_Node000002"><a xlink:href="_task_scheduler_8h.html" target="_top" xlink:title=" ">
<polygon fill="white" stroke="#666666" points="544,-272 395,-272 395,-231 544,-231 544,-272"/>
<text text-anchor="start" x="403" y="-260" font-family="Helvetica,sans-Serif" font-size="10.00">/home/runner/work/uniot</text>
<text text-anchor="start" x="403" y="-249" font-family="Helvetica,sans-Serif" font-size="10.00">&#45;core/uniot&#45;core/lib/Core</text>
<text text-anchor="middle" x="469.5" y="-238" font-family="Helvetica,sans-Serif" font-size="10.00">/Scheduler/TaskScheduler.h</text>
</a>
</g>
</g>
<!-- Node1&#45;&gt;Node2 -->
<g id="edge1_Node000001_Node000002" class="edge">
<title>Node1&#45;&gt;Node2</title>
<g id="a_edge1_Node000001_Node000002"><a xlink:title=" ">
<path fill="none" stroke="#63b8ff" d="M469.5,-297.69C469.5,-289.08 469.5,-279.9 469.5,-272.07"/>
<polygon fill="#63b8ff" stroke="#63b8ff" points="466,-297.79 469.5,-307.79 473,-297.79 466,-297.79"/>
</a>
</g>
</g>
<!-- Node3 -->
<g id="Node000003" class="node">
<title>Node3</title>
<g id="a_Node000003"><a xlink:href="_top_device_8h.html" target="_top" xlink:title=" ">
<polygon fill="white" stroke="#666666" points="299.5,-195 155.5,-195 155.5,-154 299.5,-154 299.5,-195"/>
<text text-anchor="start" x="163.5" y="-183" font-family="Helvetica,sans-Serif" font-size="10.00">/home/runner/work/uniot</text>
<text text-anchor="start" x="163.5" y="-172" font-family="Helvetica,sans-Serif" font-size="10.00">&#45;core/uniot&#45;core/lib/AppKit</text>
<text text-anchor="middle" x="227.5" y="-161" font-family="Helvetica,sans-Serif" font-size="10.00">/TopDevice.h</text>
</a>
</g>
</g>
<!-- Node2&#45;&gt;Node3 -->
<g id="edge2_Node000002_Node000003" class="edge">
<title>Node2&#45;&gt;Node3</title>
<g id="a_edge2_Node000002_Node000003"><a xlink:title=" ">
<path fill="none" stroke="#63b8ff" d="M396.72,-227.94C362.9,-217.46 323.07,-205.12 290.56,-195.04"/>
<polygon fill="#63b8ff" stroke="#63b8ff" points="395.96,-231.37 406.55,-230.99 398.03,-224.69 395.96,-231.37"/>
</a>
</g>
</g>
<!-- Node5 -->
<g id="Node000005" class="node">
<title>Node5</title>
<g id="a_Node000005"><a xlink:href="_button_8h.html" target="_top" xlink:title=" ">
<polygon fill="white" stroke="#666666" points="455,-195 318,-195 318,-154 455,-154 455,-195"/>
<text text-anchor="start" x="326" y="-183" font-family="Helvetica,sans-Serif" font-size="10.00">/home/runner/work/uniot</text>
<text text-anchor="start" x="326" y="-172" font-family="Helvetica,sans-Serif" font-size="10.00">&#45;core/uniot&#45;core/lib/Core</text>
<text text-anchor="middle" x="386.5" y="-161" font-family="Helvetica,sans-Serif" font-size="10.00">/Hardware/Button.h</text>
</a>
</g>
</g>
<!-- Node2&#45;&gt;Node5 -->
<g id="edge4_Node000002_Node000005" class="edge">
<title>Node2&#45;&gt;Node5</title>
<g id="a_edge4_Node000002_Node000005"><a xlink:title=" ">
<path fill="none" stroke="#63b8ff" d="M440.25,-224.07C429.69,-214.52 417.96,-203.93 408.16,-195.07"/>
<polygon fill="#63b8ff" stroke="#63b8ff" points="437.93,-226.69 447.69,-230.79 442.62,-221.49 437.93,-226.69"/>
</a>
</g>
</g>
<!-- Node8 -->
<g id="Node000008" class="node">
<title>Node8</title>
<g id="a_Node000008"><a xlink:href="un_lisp_8h.html" target="_top" xlink:title=" ">
<polygon fill="white" stroke="#666666" points="137,-195 0,-195 0,-154 137,-154 137,-195"/>
<text text-anchor="start" x="8" y="-183" font-family="Helvetica,sans-Serif" font-size="10.00">/home/runner/work/uniot</text>
<text text-anchor="start" x="8" y="-172" font-family="Helvetica,sans-Serif" font-size="10.00">&#45;core/uniot&#45;core/lib/Core</text>
<text text-anchor="middle" x="68.5" y="-161" font-family="Helvetica,sans-Serif" font-size="10.00">/LispWrapper/unLisp.h</text>
</a>
</g>
</g>
<!-- Node2&#45;&gt;Node8 -->
<g id="edge9_Node000002_Node000008" class="edge">
<title>Node2&#45;&gt;Node8</title>
<g id="a_edge9_Node000002_Node000008"><a xlink:title=" ">
<path fill="none" stroke="#63b8ff" d="M384.54,-237.68C319.21,-227.4 226.83,-211.92 146.5,-195 143.5,-194.37 140.43,-193.7 137.34,-193.01"/>
<polygon fill="#63b8ff" stroke="#63b8ff" points="384.37,-241.2 394.79,-239.29 385.45,-234.28 384.37,-241.2"/>
</a>
</g>
</g>
<!-- Node10 -->
<g id="Node000010" class="node">
<title>Node10</title>
<g id="a_Node000010"><a xlink:href="_m_q_t_t_kit_8h.html" target="_top" xlink:title=" ">
<polygon fill="white" stroke="#666666" points="734,-118 591,-118 591,-77 734,-77 734,-118"/>
<text text-anchor="start" x="599" y="-106" font-family="Helvetica,sans-Serif" font-size="10.00">/home/runner/work/uniot</text>
<text text-anchor="start" x="599" y="-95" font-family="Helvetica,sans-Serif" font-size="10.00">&#45;core/uniot&#45;core/lib/Core</text>
<text text-anchor="middle" x="662.5" y="-84" font-family="Helvetica,sans-Serif" font-size="10.00">/MQTTWrapper/MQTTKit.h</text>
</a>
</g>
</g>
<!-- Node2&#45;&gt;Node10 -->
<g id="edge13_Node000002_Node000010" class="edge">
<title>Node2&#45;&gt;Node10</title>
<g id="a_edge13_Node000002_Node000010"><a xlink:title=" ">
<path fill="none" stroke="#63b8ff" d="M554.01,-241.89C586.28,-234.39 620.74,-220.52 643.5,-195 662.36,-173.84 664.75,-139.55 664.1,-118.05"/>
<polygon fill="#63b8ff" stroke="#63b8ff" points="553.13,-238.5 544.08,-244.02 554.6,-245.35 553.13,-238.5"/>
</a>
</g>
</g>
<!-- Node12 -->
<g id="Node000012" class="node">
<title>Node12</title>
<g id="a_Node000012"><a xlink:href="_network_scheduler_8h.html" target="_top" xlink:title=" ">
<polygon fill="white" stroke="#666666" points="634,-195 473,-195 473,-154 634,-154 634,-195"/>
<text text-anchor="start" x="481" y="-183" font-family="Helvetica,sans-Serif" font-size="10.00">/home/runner/work/uniot</text>
<text text-anchor="start" x="481" y="-172" font-family="Helvetica,sans-Serif" font-size="10.00">&#45;core/uniot&#45;core/lib/Core</text>
<text text-anchor="middle" x="553.5" y="-161" font-family="Helvetica,sans-Serif" font-size="10.00">/Network/NetworkScheduler.h</text>
</a>
</g>
</g>
<!-- Node2&#45;&gt;Node12 -->
<g id="edge16_Node000002_Node000012" class="edge">
<title>Node2&#45;&gt;Node12</title>
<g id="a_edge16_Node000002_Node000012"><a xlink:title=" ">
<path fill="none" stroke="#63b8ff" d="M499.1,-224.07C509.79,-214.52 521.66,-203.93 531.58,-195.07"/>
<polygon fill="#63b8ff" stroke="#63b8ff" points="496.7,-221.52 491.57,-230.79 501.36,-226.75 496.7,-221.52"/>
</a>
</g>
</g>
<!-- Node13 -->
<g id="Node000013" class="node">
<title>Node13</title>
<g id="a_Node000013"><a xlink:href="_uniot_8h.html" target="_top" xlink:title=" ">
<polygon fill="white" stroke="#666666" points="859.5,-195 721.5,-195 721.5,-154 859.5,-154 859.5,-195"/>
<text text-anchor="start" x="729.5" y="-183" font-family="Helvetica,sans-Serif" font-size="10.00">/home/runner/work/uniot</text>
<text text-anchor="start" x="729.5" y="-172" font-family="Helvetica,sans-Serif" font-size="10.00">&#45;core/uniot&#45;core/lib/Uniot</text>
<text text-anchor="middle" x="790.5" y="-161" font-family="Helvetica,sans-Serif" font-size="10.00">/Uniot.h</text>
</a>
</g>
</g>
<!-- Node2&#45;&gt;Node13 -->
<g id="edge19_Node000002_Node000013" class="edge">
<title>Node2&#45;&gt;Node13</title>
<g id="a_edge19_Node000002_Node000013"><a xlink:title=" ">
<path fill="none" stroke="#63b8ff" d="M554.25,-230.7C606.37,-218.52 672.33,-203.11 721.29,-191.67"/>
<polygon fill="#63b8ff" stroke="#63b8ff" points="553.3,-227.33 544.36,-233.01 554.89,-234.14 553.3,-227.33"/>
</a>
</g>
</g>
<!-- Node4 -->
<g id="Node000004" class="node">
<title>Node4</title>
<g id="a_Node000004"><a xlink:href="_app_kit_8h.html" target="_top" xlink:title=" ">
<polygon fill="white" stroke="#666666" points="343.5,-41 199.5,-41 199.5,0 343.5,0 343.5,-41"/>
<text text-anchor="start" x="207.5" y="-29" font-family="Helvetica,sans-Serif" font-size="10.00">/home/runner/work/uniot</text>
<text text-anchor="start" x="207.5" y="-18" font-family="Helvetica,sans-Serif" font-size="10.00">&#45;core/uniot&#45;core/lib/AppKit</text>
<text text-anchor="middle" x="271.5" y="-7" font-family="Helvetica,sans-Serif" font-size="10.00">/AppKit.h</text>
</a>
</g>
</g>
<!-- Node3&#45;&gt;Node4 -->
<g id="edge3_Node000003_Node000004" class="edge">
<title>Node3&#45;&gt;Node4</title>
<g id="a_edge3_Node000003_Node000004"><a xlink:title=" ">
<path fill="none" stroke="#63b8ff" d="M228.63,-143.71C230.06,-124.3 233.29,-98.65 240.5,-77 244.69,-64.44 251.76,-51.46 258.09,-41.21"/>
<polygon fill="#63b8ff" stroke="#63b8ff" points="225.13,-143.59 228.01,-153.79 232.12,-144.03 225.13,-143.59"/>
</a>
</g>
</g>
<!-- Node6 -->
<g id="Node000006" class="node">
<title>Node6</title>
<g id="a_Node000006"><a xlink:href="_lisp_primitives_8h.html" target="_top" xlink:title=" ">
<polygon fill="white" stroke="#666666" points="393.5,-118 249.5,-118 249.5,-77 393.5,-77 393.5,-118"/>
<text text-anchor="start" x="257.5" y="-106" font-family="Helvetica,sans-Serif" font-size="10.00">/home/runner/work/uniot</text>
<text text-anchor="start" x="257.5" y="-95" font-family="Helvetica,sans-Serif" font-size="10.00">&#45;core/uniot&#45;core/lib/AppKit</text>
<text text-anchor="middle" x="321.5" y="-84" font-family="Helvetica,sans-Serif" font-size="10.00">/LispPrimitives.h</text>
</a>
</g>
</g>
<!-- Node5&#45;&gt;Node6 -->
<g id="edge5_Node000005_Node000006" class="edge">
<title>Node5&#45;&gt;Node6</title>
<g id="a_edge5_Node000005_Node000006"><a xlink:title=" ">
<path fill="none" stroke="#63b8ff" d="M362.87,-146.23C354.79,-136.91 345.91,-126.67 338.46,-118.07"/>
<polygon fill="#63b8ff" stroke="#63b8ff" points="360.23,-148.53 369.42,-153.79 365.52,-143.95 360.23,-148.53"/>
</a>
</g>
</g>
<!-- Node7 -->
<g id="Node000007" class="node">
<title>Node7</title>
<g id="a_Node000007"><a xlink:href="_network_controller_8h.html" target="_top" xlink:title=" ">
<polygon fill="white" stroke="#666666" points="573,-118 412,-118 412,-77 573,-77 573,-118"/>
<text text-anchor="start" x="420" y="-106" font-family="Helvetica,sans-Serif" font-size="10.00">/home/runner/work/uniot</text>
<text text-anchor="start" x="420" y="-95" font-family="Helvetica,sans-Serif" font-size="10.00">&#45;core/uniot&#45;core/lib/Core</text>
<text text-anchor="middle" x="492.5" y="-84" font-family="Helvetica,sans-Serif" font-size="10.00">/Network/NetworkController.h</text>
</a>
</g>
</g>
<!-- Node5&#45;&gt;Node7 -->
<g id="edge7_Node000005_Node000007" class="edge">
<title>Node5&#45;&gt;Node7</title>
<g id="a_edge7_Node000005_Node000007"><a xlink:title=" ">
<path fill="none" stroke="#63b8ff" d="M422.41,-148.09C436.22,-138.32 451.76,-127.32 464.7,-118.17"/>
<polygon fill="#63b8ff" stroke="#63b8ff" points="420.22,-145.36 414.07,-153.99 424.26,-151.07 420.22,-145.36"/>
</a>
</g>
</g>
<!-- Node6&#45;&gt;Node4 -->
<g id="edge6_Node000006_Node000004" class="edge">
<title>Node6&#45;&gt;Node4</title>
<g id="a_edge6_Node000006_Node000004"><a xlink:title=" ">
<path fill="none" stroke="#63b8ff" d="M302.76,-68.39C296.7,-59.3 290.11,-49.41 284.55,-41.07"/>
<polygon fill="#63b8ff" stroke="#63b8ff" points="299.9,-70.42 308.36,-76.79 305.73,-66.53 299.9,-70.42"/>
</a>
</g>
</g>
<!-- Node7&#45;&gt;Node4 -->
<g id="edge8_Node000007_Node000004" class="edge">
<title>Node7&#45;&gt;Node4</title>
<g id="a_edge8_Node000007_Node000004"><a xlink:title=" ">
<path fill="none" stroke="#63b8ff" d="M425.24,-73.67C394.53,-63.25 358.53,-51.03 329.08,-41.04"/>
<polygon fill="#63b8ff" stroke="#63b8ff" points="424.42,-77.09 435.01,-76.99 426.67,-70.46 424.42,-77.09"/>
</a>
</g>
</g>
<!-- Node8&#45;&gt;Node4 -->
<g id="edge10_Node000008_Node000004" class="edge">
<title>Node8&#45;&gt;Node4</title>
<g id="a_edge10_Node000008_Node000004"><a xlink:title=" ">
<path fill="none" stroke="#63b8ff" d="M47.89,-145.08C35.58,-124.35 25.07,-96.57 40.5,-77 60.1,-52.14 139.24,-37.14 199.48,-29.11"/>
<polygon fill="#63b8ff" stroke="#63b8ff" points="45.08,-147.2 53.39,-153.77 51,-143.45 45.08,-147.2"/>
</a>
</g>
</g>
<!-- Node9 -->
<g id="Node000009" class="node">
<title>Node9</title>
<g id="a_Node000009"><a xlink:href="_lisp_device_8h.html" target="_top" xlink:title=" ">
<polygon fill="white" stroke="#666666" points="193.5,-118 49.5,-118 49.5,-77 193.5,-77 193.5,-118"/>
<text text-anchor="start" x="57.5" y="-106" font-family="Helvetica,sans-Serif" font-size="10.00">/home/runner/work/uniot</text>
<text text-anchor="start" x="57.5" y="-95" font-family="Helvetica,sans-Serif" font-size="10.00">&#45;core/uniot&#45;core/lib/AppKit</text>
<text text-anchor="middle" x="121.5" y="-84" font-family="Helvetica,sans-Serif" font-size="10.00">/LispDevice.h</text>
</a>
</g>
</g>
<!-- Node8&#45;&gt;Node9 -->
<g id="edge11_Node000008_Node000009" class="edge">
<title>Node8&#45;&gt;Node9</title>
<g id="a_edge11_Node000008_Node000009"><a xlink:title=" ">
<path fill="none" stroke="#63b8ff" d="M88.36,-145.39C94.79,-136.3 101.78,-126.41 107.67,-118.07"/>
<polygon fill="#63b8ff" stroke="#63b8ff" points="85.34,-143.61 82.43,-153.79 91.05,-147.65 85.34,-143.61"/>
</a>
</g>
</g>
<!-- Node9&#45;&gt;Node4 -->
<g id="edge12_Node000009_Node000004" class="edge">
<title>Node9&#45;&gt;Node4</title>
<g id="a_edge12_Node000009_Node000004"><a xlink:title=" ">
<path fill="none" stroke="#63b8ff" d="M169.6,-72.45C189.89,-62.3 213.21,-50.64 232.42,-41.04"/>
<polygon fill="#63b8ff" stroke="#63b8ff" points="167.9,-69.39 160.52,-76.99 171.03,-75.65 167.9,-69.39"/>
</a>
</g>
</g>
<!-- Node10&#45;&gt;Node4 -->
<g id="edge14_Node000010_Node000004" class="edge">
<title>Node10&#45;&gt;Node4</title>
<g id="a_edge14_Node000010_Node000004"><a xlink:title=" ">
<path fill="none" stroke="#63b8ff" d="M580.61,-76.65C494.12,-58.62 404.55,-43.12 343.7,-33.07"/>
<polygon fill="#63b8ff" stroke="#63b8ff" points="580.08,-80.12 590.59,-78.75 581.52,-73.27 580.08,-80.12"/>
</a>
</g>
</g>
<!-- Node11 -->
<g id="Node000011" class="node">
<title>Node11</title>
<g id="a_Node000011"><a xlink:href="_m_q_t_t_device_8cpp.html" target="_top" xlink:title=" ">
<polygon fill="white" stroke="#666666" points="750,-41 575,-41 575,0 750,0 750,-41"/>
<text text-anchor="start" x="583" y="-29" font-family="Helvetica,sans-Serif" font-size="10.00">/home/runner/work/uniot</text>
<text text-anchor="start" x="583" y="-18" font-family="Helvetica,sans-Serif" font-size="10.00">&#45;core/uniot&#45;core/lib/Core</text>
<text text-anchor="middle" x="662.5" y="-7" font-family="Helvetica,sans-Serif" font-size="10.00">/MQTTWrapper/MQTTDevice.cpp</text>
</a>
</g>
</g>
<!-- Node10&#45;&gt;Node11 -->
<g id="edge15_Node000010_Node000011" class="edge">
<title>Node10&#45;&gt;Node11</title>
<g id="a_edge15_Node000010_Node000011"><a xlink:title=" ">
<path fill="none" stroke="#63b8ff" d="M662.5,-66.69C662.5,-58.08 662.5,-48.9 662.5,-41.07"/>
<polygon fill="#63b8ff" stroke="#63b8ff" points="659,-66.79 662.5,-76.79 666,-66.79 659,-66.79"/>
</a>
</g>
</g>
<!-- Node12&#45;&gt;Node7 -->
<g id="edge18_Node000012_Node000007" class="edge">
<title>Node12&#45;&gt;Node7</title>
<g id="a_edge18_Node000012_Node000007"><a xlink:title=" ">
<path fill="none" stroke="#63b8ff" d="M531.1,-145.95C523.57,-136.7 515.34,-126.58 508.42,-118.07"/>
<polygon fill="#63b8ff" stroke="#63b8ff" points="528.45,-148.25 537.47,-153.79 533.88,-143.83 528.45,-148.25"/>
</a>
</g>
</g>
<!-- Node12&#45;&gt;Node10 -->
<g id="edge17_Node000012_Node000010" class="edge">
<title>Node12&#45;&gt;Node10</title>
<g id="a_edge17_Node000012_Node000010"><a xlink:title=" ">
<path fill="none" stroke="#63b8ff" d="M590.43,-148.09C604.63,-138.32 620.61,-127.32 633.91,-118.17"/>
<polygon fill="#63b8ff" stroke="#63b8ff" points="588.11,-145.44 581.85,-153.99 592.08,-151.21 588.11,-145.44"/>
</a>
</g>
</g>
<!-- Node14 -->
<g id="Node000014" class="node">
<title>Node14</title>
<g id="a_Node000014"><a xlink:href="_uniot_8cpp.html" target="_top" xlink:title=" ">
<polygon fill="white" stroke="#666666" points="890.5,-118 752.5,-118 752.5,-77 890.5,-77 890.5,-118"/>
<text text-anchor="start" x="760.5" y="-106" font-family="Helvetica,sans-Serif" font-size="10.00">/home/runner/work/uniot</text>
<text text-anchor="start" x="760.5" y="-95" font-family="Helvetica,sans-Serif" font-size="10.00">&#45;core/uniot&#45;core/lib/Uniot</text>
<text text-anchor="middle" x="821.5" y="-84" font-family="Helvetica,sans-Serif" font-size="10.00">/Uniot.cpp</text>
</a>
</g>
</g>
<!-- Node13&#45;&gt;Node14 -->
<g id="edge20_Node000013_Node000014" class="edge">
<title>Node13&#45;&gt;Node14</title>
<g id="a_edge20_Node000013_Node000014"><a xlink:title=" ">
<path fill="none" stroke="#63b8ff" d="M802.47,-144.55C806.13,-135.69 810.07,-126.15 813.41,-118.07"/>
<polygon fill="#63b8ff" stroke="#63b8ff" points="799.23,-143.22 798.64,-153.79 805.7,-145.89 799.23,-143.22"/>
</a>
</g>
</g>
</g>
</svg>
