<?xml version="1.0" encoding="UTF-8" standalone="no"?>
<!DOCTYPE svg PUBLIC "-//W3C//DTD SVG 1.1//EN"
 "http://www.w3.org/Graphics/SVG/1.1/DTD/svg11.dtd">
<!-- Generated by graphviz version 2.43.0 (0)
 -->
<!-- Title: /home/runner/work/uniot&#45;core/uniot&#45;core/lib/Core/Scheduler/ISchedulerConnectionKit.h Pages: 1 -->
<svg width="943pt" height="357pt"
 viewBox="0.00 0.00 943.43 357.00" xmlns="http://www.w3.org/2000/svg" xmlns:xlink="http://www.w3.org/1999/xlink">
<g id="graph0" class="graph" transform="scale(1 1) rotate(0) translate(4 353)">
<title>/home/runner/work/uniot&#45;core/uniot&#45;core/lib/Core/Scheduler/ISchedulerConnectionKit.h</title>
<!-- Node1 -->
<g id="Node000001" class="node">
<title>Node1</title>
<g id="a_Node000001"><a xlink:title=" ">
<polygon fill="#999999" stroke="#666666" points="587.43,-349 388.43,-349 388.43,-308 587.43,-308 587.43,-349"/>
<text text-anchor="start" x="396.43" y="-337" font-family="Helvetica,sans-Serif" font-size="10.00">/home/runner/work/uniot</text>
<text text-anchor="start" x="396.43" y="-326" font-family="Helvetica,sans-Serif" font-size="10.00">&#45;core/uniot&#45;core/lib/Core</text>
<text text-anchor="middle" x="487.93" y="-315" font-family="Helvetica,sans-Serif" font-size="10.00">/Scheduler/ISchedulerConnectionKit.h</text>
</a>
</g>
</g>
<!-- Node2 -->
<g id="Node000002" class="node">
<title>Node2</title>
<g id="a_Node000002"><a xlink:href="_app_kit_8h.html" target="_top" xlink:title=" ">
<polygon fill="white" stroke="#666666" points="322.93,-41 178.93,-41 178.93,0 322.93,0 322.93,-41"/>
<text text-anchor="start" x="186.93" y="-29" font-family="Helvetica,sans-Serif" font-size="10.00">/home/runner/work/uniot</text>
<text text-anchor="start" x="186.93" y="-18" font-family="Helvetica,sans-Serif" font-size="10.00">&#45;core/uniot&#45;core/lib/AppKit</text>
<text text-anchor="middle" x="250.93" y="-7" font-family="Helvetica,sans-Serif" font-size="10.00">/AppKit.h</text>
</a>
</g>
</g>
<!-- Node1&#45;&gt;Node2 -->
<g id="edge1_Node000001_Node000002" class="edge">
<title>Node1&#45;&gt;Node2</title>
<g id="a_edge1_Node000001_Node000002"><a xlink:title=" ">
<path fill="none" stroke="#63b8ff" d="M378.3,-312.28C252.49,-292.31 57.83,-252.87 13.93,-195 -20,-150.29 14.64,-111.49 58.93,-77 93.28,-50.24 140.1,-36.38 178.9,-29.2"/>
<polygon fill="#63b8ff" stroke="#63b8ff" points="377.94,-315.77 388.36,-313.86 379.03,-308.85 377.94,-315.77"/>
</a>
</g>
</g>
<!-- Node3 -->
<g id="Node000003" class="node">
<title>Node3</title>
<g id="a_Node000003"><a xlink:href="_network_controller_8h.html" target="_top" xlink:title=" ">
<polygon fill="white" stroke="#666666" points="758.43,-118 597.43,-118 597.43,-77 758.43,-77 758.43,-118"/>
<text text-anchor="start" x="605.43" y="-106" font-family="Helvetica,sans-Serif" font-size="10.00">/home/runner/work/uniot</text>
<text text-anchor="start" x="605.43" y="-95" font-family="Helvetica,sans-Serif" font-size="10.00">&#45;core/uniot&#45;core/lib/Core</text>
<text text-anchor="middle" x="677.93" y="-84" font-family="Helvetica,sans-Serif" font-size="10.00">/Network/NetworkController.h</text>
</a>
</g>
</g>
<!-- Node1&#45;&gt;Node3 -->
<g id="edge2_Node000001_Node000003" class="edge">
<title>Node1&#45;&gt;Node3</title>
<g id="a_edge2_Node000001_Node000003"><a xlink:title=" ">
<path fill="none" stroke="#63b8ff" d="M597.77,-315.88C674.89,-301.35 772.87,-268.63 822.93,-195 833.17,-179.93 833.25,-169.01 822.93,-154 813.91,-140.9 782.4,-128.08 751.05,-118.07"/>
<polygon fill="#63b8ff" stroke="#63b8ff" points="596.73,-312.51 587.51,-317.73 597.97,-319.4 596.73,-312.51"/>
</a>
</g>
</g>
<!-- Node4 -->
<g id="Node000004" class="node">
<title>Node4</title>
<g id="a_Node000004"><a xlink:href="_task_scheduler_8h.html" target="_top" xlink:title=" ">
<polygon fill="white" stroke="#666666" points="562.43,-272 413.43,-272 413.43,-231 562.43,-231 562.43,-272"/>
<text text-anchor="start" x="421.43" y="-260" font-family="Helvetica,sans-Serif" font-size="10.00">/home/runner/work/uniot</text>
<text text-anchor="start" x="421.43" y="-249" font-family="Helvetica,sans-Serif" font-size="10.00">&#45;core/uniot&#45;core/lib/Core</text>
<text text-anchor="middle" x="487.93" y="-238" font-family="Helvetica,sans-Serif" font-size="10.00">/Scheduler/TaskScheduler.h</text>
</a>
</g>
</g>
<!-- Node1&#45;&gt;Node4 -->
<g id="edge4_Node000001_Node000004" class="edge">
<title>Node1&#45;&gt;Node4</title>
<g id="a_edge4_Node000001_Node000004"><a xlink:title=" ">
<path fill="none" stroke="#63b8ff" d="M487.93,-297.69C487.93,-289.08 487.93,-279.9 487.93,-272.07"/>
<polygon fill="#63b8ff" stroke="#63b8ff" points="484.43,-297.79 487.93,-307.79 491.43,-297.79 484.43,-297.79"/>
</a>
</g>
</g>
<!-- Node3&#45;&gt;Node2 -->
<g id="edge3_Node000003_Node000002" class="edge">
<title>Node3&#45;&gt;Node2</title>
<g id="a_edge3_Node000003_Node000002"><a xlink:title=" ">
<path fill="none" stroke="#63b8ff" d="M587.02,-76.87C489.95,-58.55 389.19,-42.46 323.1,-32.31"/>
<polygon fill="#63b8ff" stroke="#63b8ff" points="586.53,-80.34 597.01,-78.77 587.84,-73.46 586.53,-80.34"/>
</a>
</g>
</g>
<!-- Node5 -->
<g id="Node000005" class="node">
<title>Node5</title>
<g id="a_Node000005"><a xlink:href="_top_device_8h.html" target="_top" xlink:title=" ">
<polygon fill="white" stroke="#666666" points="322.93,-195 178.93,-195 178.93,-154 322.93,-154 322.93,-195"/>
<text text-anchor="start" x="186.93" y="-183" font-family="Helvetica,sans-Serif" font-size="10.00">/home/runner/work/uniot</text>
<text text-anchor="start" x="186.93" y="-172" font-family="Helvetica,sans-Serif" font-size="10.00">&#45;core/uniot&#45;core/lib/AppKit</text>
<text text-anchor="middle" x="250.93" y="-161" font-family="Helvetica,sans-Serif" font-size="10.00">/TopDevice.h</text>
</a>
</g>
</g>
<!-- Node4&#45;&gt;Node5 -->
<g id="edge5_Node000004_Node000005" class="edge">
<title>Node4&#45;&gt;Node5</title>
<g id="a_edge5_Node000004_Node000005"><a xlink:title=" ">
<path fill="none" stroke="#63b8ff" d="M416.65,-227.94C383.53,-217.46 344.53,-205.12 312.68,-195.04"/>
<polygon fill="#63b8ff" stroke="#63b8ff" points="415.69,-231.31 426.28,-230.99 417.8,-224.64 415.69,-231.31"/>
</a>
</g>
</g>
<!-- Node6 -->
<g id="Node000006" class="node">
<title>Node6</title>
<g id="a_Node000006"><a xlink:href="_button_8h.html" target="_top" xlink:title=" ">
<polygon fill="white" stroke="#666666" points="634.43,-195 497.43,-195 497.43,-154 634.43,-154 634.43,-195"/>
<text text-anchor="start" x="505.43" y="-183" font-family="Helvetica,sans-Serif" font-size="10.00">/home/runner/work/uniot</text>
<text text-anchor="start" x="505.43" y="-172" font-family="Helvetica,sans-Serif" font-size="10.00">&#45;core/uniot&#45;core/lib/Core</text>
<text text-anchor="middle" x="565.93" y="-161" font-family="Helvetica,sans-Serif" font-size="10.00">/Hardware/Button.h</text>
</a>
</g>
</g>
<!-- Node4&#45;&gt;Node6 -->
<g id="edge7_Node000004_Node000006" class="edge">
<title>Node4&#45;&gt;Node6</title>
<g id="a_edge7_Node000004_Node000006"><a xlink:title=" ">
<path fill="none" stroke="#63b8ff" d="M515.7,-223.79C525.55,-214.32 536.45,-203.84 545.57,-195.07"/>
<polygon fill="#63b8ff" stroke="#63b8ff" points="513.2,-221.34 508.42,-230.79 518.05,-226.39 513.2,-221.34"/>
</a>
</g>
</g>
<!-- Node8 -->
<g id="Node000008" class="node">
<title>Node8</title>
<g id="a_Node000008"><a xlink:href="un_lisp_8h.html" target="_top" xlink:title=" ">
<polygon fill="white" stroke="#666666" points="160.43,-195 23.43,-195 23.43,-154 160.43,-154 160.43,-195"/>
<text text-anchor="start" x="31.43" y="-183" font-family="Helvetica,sans-Serif" font-size="10.00">/home/runner/work/uniot</text>
<text text-anchor="start" x="31.43" y="-172" font-family="Helvetica,sans-Serif" font-size="10.00">&#45;core/uniot&#45;core/lib/Core</text>
<text text-anchor="middle" x="91.93" y="-161" font-family="Helvetica,sans-Serif" font-size="10.00">/LispWrapper/unLisp.h</text>
</a>
</g>
</g>
<!-- Node4&#45;&gt;Node8 -->
<g id="edge11_Node000004_Node000008" class="edge">
<title>Node4&#45;&gt;Node8</title>
<g id="a_edge11_Node000004_Node000008"><a xlink:title=" ">
<path fill="none" stroke="#63b8ff" d="M403.34,-237.44C339.08,-227.11 248.64,-211.68 169.93,-195 166.92,-194.36 163.86,-193.69 160.77,-193"/>
<polygon fill="#63b8ff" stroke="#63b8ff" points="402.99,-240.93 413.42,-239.06 404.1,-234.02 402.99,-240.93"/>
</a>
</g>
</g>
<!-- Node10 -->
<g id="Node000010" class="node">
<title>Node10</title>
<g id="a_Node000010"><a xlink:href="_m_q_t_t_kit_8h.html" target="_top" xlink:title=" ">
<polygon fill="white" stroke="#666666" points="919.43,-118 776.43,-118 776.43,-77 919.43,-77 919.43,-118"/>
<text text-anchor="start" x="784.43" y="-106" font-family="Helvetica,sans-Serif" font-size="10.00">/home/runner/work/uniot</text>
<text text-anchor="start" x="784.43" y="-95" font-family="Helvetica,sans-Serif" font-size="10.00">&#45;core/uniot&#45;core/lib/Core</text>
<text text-anchor="middle" x="847.93" y="-84" font-family="Helvetica,sans-Serif" font-size="10.00">/MQTTWrapper/MQTTKit.h</text>
</a>
</g>
</g>
<!-- Node4&#45;&gt;Node10 -->
<g id="edge15_Node000004_Node000010" class="edge">
<title>Node4&#45;&gt;Node10</title>
<g id="a_edge15_Node000004_Node000010"><a xlink:title=" ">
<path fill="none" stroke="#63b8ff" d="M572.79,-246.79C659.79,-241.23 787.25,-227.62 822.93,-195 844.25,-175.5 848.39,-140.37 848.7,-118.31"/>
<polygon fill="#63b8ff" stroke="#63b8ff" points="572.42,-243.3 562.66,-247.41 572.85,-250.29 572.42,-243.3"/>
</a>
</g>
</g>
<!-- Node12 -->
<g id="Node000012" class="node">
<title>Node12</title>
<g id="a_Node000012"><a xlink:href="_network_scheduler_8h.html" target="_top" xlink:title=" ">
<polygon fill="white" stroke="#666666" points="813.43,-195 652.43,-195 652.43,-154 813.43,-154 813.43,-195"/>
<text text-anchor="start" x="660.43" y="-183" font-family="Helvetica,sans-Serif" font-size="10.00">/home/runner/work/uniot</text>
<text text-anchor="start" x="660.43" y="-172" font-family="Helvetica,sans-Serif" font-size="10.00">&#45;core/uniot&#45;core/lib/Core</text>
<text text-anchor="middle" x="732.93" y="-161" font-family="Helvetica,sans-Serif" font-size="10.00">/Network/NetworkScheduler.h</text>
</a>
</g>
</g>
<!-- Node4&#45;&gt;Node12 -->
<g id="edge18_Node000004_Node000012" class="edge">
<title>Node4&#45;&gt;Node12</title>
<g id="a_edge18_Node000004_Node000012"><a xlink:title=" ">
<path fill="none" stroke="#63b8ff" d="M561.61,-227.94C595.84,-217.46 636.17,-205.12 669.09,-195.04"/>
<polygon fill="#63b8ff" stroke="#63b8ff" points="560.19,-224.72 551.66,-230.99 562.24,-231.41 560.19,-224.72"/>
</a>
</g>
</g>
<!-- Node13 -->
<g id="Node000013" class="node">
<title>Node13</title>
<g id="a_Node000013"><a xlink:href="_uniot_8h.html" target="_top" xlink:title=" ">
<polygon fill="white" stroke="#666666" points="478.93,-195 340.93,-195 340.93,-154 478.93,-154 478.93,-195"/>
<text text-anchor="start" x="348.93" y="-183" font-family="Helvetica,sans-Serif" font-size="10.00">/home/runner/work/uniot</text>
<text text-anchor="start" x="348.93" y="-172" font-family="Helvetica,sans-Serif" font-size="10.00">&#45;core/uniot&#45;core/lib/Uniot</text>
<text text-anchor="middle" x="409.93" y="-161" font-family="Helvetica,sans-Serif" font-size="10.00">/Uniot.h</text>
</a>
</g>
</g>
<!-- Node4&#45;&gt;Node13 -->
<g id="edge21_Node000004_Node000013" class="edge">
<title>Node4&#45;&gt;Node13</title>
<g id="a_edge21_Node000004_Node000013"><a xlink:title=" ">
<path fill="none" stroke="#63b8ff" d="M460.15,-223.79C450.3,-214.32 439.4,-203.84 430.28,-195.07"/>
<polygon fill="#63b8ff" stroke="#63b8ff" points="457.8,-226.39 467.43,-230.79 462.65,-221.34 457.8,-226.39"/>
</a>
</g>
</g>
<!-- Node5&#45;&gt;Node2 -->
<g id="edge6_Node000005_Node000002" class="edge">
<title>Node5&#45;&gt;Node2</title>
<g id="a_edge6_Node000005_Node000002"><a xlink:title=" ">
<path fill="none" stroke="#63b8ff" d="M250.93,-143.58C250.93,-113.36 250.93,-67.53 250.93,-41.47"/>
<polygon fill="#63b8ff" stroke="#63b8ff" points="247.43,-143.94 250.93,-153.94 254.43,-143.94 247.43,-143.94"/>
</a>
</g>
</g>
<!-- Node6&#45;&gt;Node3 -->
<g id="edge10_Node000006_Node000003" class="edge">
<title>Node6&#45;&gt;Node3</title>
<g id="a_edge10_Node000006_Node000003"><a xlink:title=" ">
<path fill="none" stroke="#63b8ff" d="M603.45,-148.37C618.15,-138.53 634.75,-127.41 648.55,-118.17"/>
<polygon fill="#63b8ff" stroke="#63b8ff" points="601.42,-145.52 595.06,-153.99 605.32,-151.33 601.42,-145.52"/>
</a>
</g>
</g>
<!-- Node7 -->
<g id="Node000007" class="node">
<title>Node7</title>
<g id="a_Node000007"><a xlink:href="_lisp_primitives_8h.html" target="_top" xlink:title=" ">
<polygon fill="white" stroke="#666666" points="578.93,-118 434.93,-118 434.93,-77 578.93,-77 578.93,-118"/>
<text text-anchor="start" x="442.93" y="-106" font-family="Helvetica,sans-Serif" font-size="10.00">/home/runner/work/uniot</text>
<text text-anchor="start" x="442.93" y="-95" font-family="Helvetica,sans-Serif" font-size="10.00">&#45;core/uniot&#45;core/lib/AppKit</text>
<text text-anchor="middle" x="506.93" y="-84" font-family="Helvetica,sans-Serif" font-size="10.00">/LispPrimitives.h</text>
</a>
</g>
</g>
<!-- Node6&#45;&gt;Node7 -->
<g id="edge8_Node000006_Node000007" class="edge">
<title>Node6&#45;&gt;Node7</title>
<g id="a_edge8_Node000006_Node000007"><a xlink:title=" ">
<path fill="none" stroke="#63b8ff" d="M544.03,-145.67C536.82,-136.5 528.95,-126.5 522.32,-118.07"/>
<polygon fill="#63b8ff" stroke="#63b8ff" points="541.49,-148.1 550.42,-153.79 546.99,-143.77 541.49,-148.1"/>
</a>
</g>
</g>
<!-- Node7&#45;&gt;Node2 -->
<g id="edge9_Node000007_Node000002" class="edge">
<title>Node7&#45;&gt;Node2</title>
<g id="a_edge9_Node000007_Node000002"><a xlink:title=" ">
<path fill="none" stroke="#63b8ff" d="M430.4,-74.08C394.52,-63.57 352.18,-51.16 317.63,-41.04"/>
<polygon fill="#63b8ff" stroke="#63b8ff" points="429.75,-77.54 440.33,-76.99 431.72,-70.82 429.75,-77.54"/>
</a>
</g>
</g>
<!-- Node8&#45;&gt;Node2 -->
<g id="edge12_Node000008_Node000002" class="edge">
<title>Node8&#45;&gt;Node2</title>
<g id="a_edge12_Node000008_Node000002"><a xlink:title=" ">
<path fill="none" stroke="#63b8ff" d="M74.14,-144.9C63.8,-124.25 55.4,-96.65 69.93,-77 94.84,-43.3 139.83,-29.4 178.73,-23.94"/>
<polygon fill="#63b8ff" stroke="#63b8ff" points="71.13,-146.7 78.95,-153.85 77.3,-143.38 71.13,-146.7"/>
</a>
</g>
</g>
<!-- Node9 -->
<g id="Node000009" class="node">
<title>Node9</title>
<g id="a_Node000009"><a xlink:href="_lisp_device_8h.html" target="_top" xlink:title=" ">
<polygon fill="white" stroke="#666666" points="222.93,-118 78.93,-118 78.93,-77 222.93,-77 222.93,-118"/>
<text text-anchor="start" x="86.93" y="-106" font-family="Helvetica,sans-Serif" font-size="10.00">/home/runner/work/uniot</text>
<text text-anchor="start" x="86.93" y="-95" font-family="Helvetica,sans-Serif" font-size="10.00">&#45;core/uniot&#45;core/lib/AppKit</text>
<text text-anchor="middle" x="150.93" y="-84" font-family="Helvetica,sans-Serif" font-size="10.00">/LispDevice.h</text>
</a>
</g>
</g>
<!-- Node8&#45;&gt;Node9 -->
<g id="edge13_Node000008_Node000009" class="edge">
<title>Node8&#45;&gt;Node9</title>
<g id="a_edge13_Node000008_Node000009"><a xlink:title=" ">
<path fill="none" stroke="#63b8ff" d="M113.82,-145.67C121.03,-136.5 128.9,-126.5 135.53,-118.07"/>
<polygon fill="#63b8ff" stroke="#63b8ff" points="110.86,-143.77 107.43,-153.79 116.36,-148.1 110.86,-143.77"/>
</a>
</g>
</g>
<!-- Node9&#45;&gt;Node2 -->
<g id="edge14_Node000009_Node000002" class="edge">
<title>Node9&#45;&gt;Node2</title>
<g id="a_edge14_Node000009_Node000002"><a xlink:title=" ">
<path fill="none" stroke="#63b8ff" d="M185.17,-70.82C198.11,-61.11 212.61,-50.24 224.7,-41.17"/>
<polygon fill="#63b8ff" stroke="#63b8ff" points="182.84,-68.19 176.94,-76.99 187.04,-73.79 182.84,-68.19"/>
</a>
</g>
</g>
<!-- Node10&#45;&gt;Node2 -->
<g id="edge16_Node000010_Node000002" class="edge">
<title>Node10&#45;&gt;Node2</title>
<g id="a_edge16_Node000010_Node000002"><a xlink:title=" ">
<path fill="none" stroke="#63b8ff" d="M765.85,-76.74C602.9,-48.84 421.58,-33.34 323.27,-26.24"/>
<polygon fill="#63b8ff" stroke="#63b8ff" points="765.61,-80.25 776.06,-78.51 766.81,-73.35 765.61,-80.25"/>
</a>
</g>
</g>
<!-- Node11 -->
<g id="Node000011" class="node">
<title>Node11</title>
<g id="a_Node000011"><a xlink:href="_m_q_t_t_device_8cpp.html" target="_top" xlink:title=" ">
<polygon fill="white" stroke="#666666" points="935.43,-41 760.43,-41 760.43,0 935.43,0 935.43,-41"/>
<text text-anchor="start" x="768.43" y="-29" font-family="Helvetica,sans-Serif" font-size="10.00">/home/runner/work/uniot</text>
<text text-anchor="start" x="768.43" y="-18" font-family="Helvetica,sans-Serif" font-size="10.00">&#45;core/uniot&#45;core/lib/Core</text>
<text text-anchor="middle" x="847.93" y="-7" font-family="Helvetica,sans-Serif" font-size="10.00">/MQTTWrapper/MQTTDevice.cpp</text>
</a>
</g>
</g>
<!-- Node10&#45;&gt;Node11 -->
<g id="edge17_Node000010_Node000011" class="edge">
<title>Node10&#45;&gt;Node11</title>
<g id="a_edge17_Node000010_Node000011"><a xlink:title=" ">
<path fill="none" stroke="#63b8ff" d="M847.93,-66.69C847.93,-58.08 847.93,-48.9 847.93,-41.07"/>
<polygon fill="#63b8ff" stroke="#63b8ff" points="844.43,-66.79 847.93,-76.79 851.43,-66.79 844.43,-66.79"/>
</a>
</g>
</g>
<!-- Node12&#45;&gt;Node3 -->
<g id="edge20_Node000012_Node000003" class="edge">
<title>Node12&#45;&gt;Node3</title>
<g id="a_edge20_Node000012_Node000003"><a xlink:title=" ">
<path fill="none" stroke="#63b8ff" d="M712.52,-145.67C705.79,-136.5 698.46,-126.5 692.28,-118.07"/>
<polygon fill="#63b8ff" stroke="#63b8ff" points="709.74,-147.8 718.47,-153.79 715.38,-143.66 709.74,-147.8"/>
</a>
</g>
</g>
<!-- Node12&#45;&gt;Node10 -->
<g id="edge19_Node000012_Node000010" class="edge">
<title>Node12&#45;&gt;Node10</title>
<g id="a_edge19_Node000012_Node000010"><a xlink:title=" ">
<path fill="none" stroke="#63b8ff" d="M771.46,-148.37C786.55,-138.53 803.6,-127.41 817.76,-118.17"/>
<polygon fill="#63b8ff" stroke="#63b8ff" points="769.3,-145.6 762.84,-153.99 773.13,-151.46 769.3,-145.6"/>
</a>
</g>
</g>
<!-- Node14 -->
<g id="Node000014" class="node">
<title>Node14</title>
<g id="a_Node000014"><a xlink:href="_uniot_8cpp.html" target="_top" xlink:title=" ">
<polygon fill="white" stroke="#666666" points="416.93,-118 278.93,-118 278.93,-77 416.93,-77 416.93,-118"/>
<text text-anchor="start" x="286.93" y="-106" font-family="Helvetica,sans-Serif" font-size="10.00">/home/runner/work/uniot</text>
<text text-anchor="start" x="286.93" y="-95" font-family="Helvetica,sans-Serif" font-size="10.00">&#45;core/uniot&#45;core/lib/Uniot</text>
<text text-anchor="middle" x="347.93" y="-84" font-family="Helvetica,sans-Serif" font-size="10.00">/Uniot.cpp</text>
</a>
</g>
</g>
<!-- Node13&#45;&gt;Node14 -->
<g id="edge22_Node000013_Node000014" class="edge">
<title>Node13&#45;&gt;Node14</title>
<g id="a_edge22_Node000013_Node000014"><a xlink:title=" ">
<path fill="none" stroke="#63b8ff" d="M387.15,-145.95C379.51,-136.7 371.14,-126.58 364.11,-118.07"/>
<polygon fill="#63b8ff" stroke="#63b8ff" points="384.57,-148.32 393.64,-153.79 389.96,-143.86 384.57,-148.32"/>
</a>
</g>
</g>
</g>
</svg>
