<?xml version="1.0" encoding="UTF-8" standalone="no"?>
<!DOCTYPE svg PUBLIC "-//W3C//DTD SVG 1.1//EN"
 "http://www.w3.org/Graphics/SVG/1.1/DTD/svg11.dtd">
<!-- Generated by graphviz version 2.43.0 (0)
 -->
<!-- Title: /home/runner/work/uniot&#45;core/uniot&#45;core/lib/Core/Utils/TypeId.h Pages: 1 -->
<svg width="1392pt" height="665pt"
 viewBox="0.00 0.00 1391.50 665.00" xmlns="http://www.w3.org/2000/svg" xmlns:xlink="http://www.w3.org/1999/xlink">
<g id="graph0" class="graph" transform="scale(1 1) rotate(0) translate(4 661)">
<title>/home/runner/work/uniot&#45;core/uniot&#45;core/lib/Core/Utils/TypeId.h</title>
<!-- Node1 -->
<g id="Node000001" class="node">
<title>Node1</title>
<g id="a_Node000001"><a xlink:title=" ">
<polygon fill="#999999" stroke="#666666" points="712,-657 575,-657 575,-616 712,-616 712,-657"/>
<text text-anchor="start" x="583" y="-645" font-family="Helvetica,sans-Serif" font-size="10.00">/home/runner/work/uniot</text>
<text text-anchor="start" x="583" y="-634" font-family="Helvetica,sans-Serif" font-size="10.00">&#45;core/uniot&#45;core/lib/Core</text>
<text text-anchor="middle" x="643.5" y="-623" font-family="Helvetica,sans-Serif" font-size="10.00">/Utils/TypeId.h</text>
</a>
</g>
</g>
<!-- Node2 -->
<g id="Node000002" class="node">
<title>Node2</title>
<g id="a_Node000002"><a xlink:href="_event_entity_8h.html" target="_top" xlink:title=" ">
<polygon fill="white" stroke="#666666" points="363,-426 226,-426 226,-385 363,-385 363,-426"/>
<text text-anchor="start" x="234" y="-414" font-family="Helvetica,sans-Serif" font-size="10.00">/home/runner/work/uniot</text>
<text text-anchor="start" x="234" y="-403" font-family="Helvetica,sans-Serif" font-size="10.00">&#45;core/uniot&#45;core/lib/Core</text>
<text text-anchor="middle" x="294.5" y="-392" font-family="Helvetica,sans-Serif" font-size="10.00">/EventBus/EventEntity.h</text>
</a>
</g>
</g>
<!-- Node1&#45;&gt;Node2 -->
<g id="edge1_Node000001_Node000002" class="edge">
<title>Node1&#45;&gt;Node2</title>
<g id="a_edge1_Node000001_Node000002"><a xlink:title=" ">
<path fill="none" stroke="#63b8ff" d="M605.2,-610.37C535.24,-564.46 388.12,-467.93 324.68,-426.3"/>
<polygon fill="#63b8ff" stroke="#63b8ff" points="603.46,-613.42 613.74,-615.98 607.3,-607.56 603.46,-613.42"/>
</a>
</g>
</g>
<!-- Node22 -->
<g id="Node000022" class="node">
<title>Node22</title>
<g id="a_Node000022"><a xlink:href="_object_register_record_8h.html" target="_top" xlink:title=" ">
<polygon fill="white" stroke="#666666" points="1062.5,-580 884.5,-580 884.5,-539 1062.5,-539 1062.5,-580"/>
<text text-anchor="start" x="892.5" y="-568" font-family="Helvetica,sans-Serif" font-size="10.00">/home/runner/work/uniot</text>
<text text-anchor="start" x="892.5" y="-557" font-family="Helvetica,sans-Serif" font-size="10.00">&#45;core/uniot&#45;core/lib/Core</text>
<text text-anchor="middle" x="973.5" y="-546" font-family="Helvetica,sans-Serif" font-size="10.00">/Register/ObjectRegisterRecord.h</text>
</a>
</g>
</g>
<!-- Node1&#45;&gt;Node22 -->
<g id="edge34_Node000001_Node000022" class="edge">
<title>Node1&#45;&gt;Node22</title>
<g id="a_edge34_Node000001_Node000022"><a xlink:title=" ">
<path fill="none" stroke="#63b8ff" d="M722.03,-617.65C771.84,-606.33 836.29,-591.68 887.47,-580.05"/>
<polygon fill="#63b8ff" stroke="#63b8ff" points="721.25,-614.24 712.28,-619.87 722.8,-621.07 721.25,-614.24"/>
</a>
</g>
</g>
<!-- Node3 -->
<g id="Node000003" class="node">
<title>Node3</title>
<g id="a_Node000003"><a xlink:href="_event_bus_8cpp.html" target="_top" xlink:title=" ">
<polygon fill="white" stroke="#666666" points="240,-195 103,-195 103,-154 240,-154 240,-195"/>
<text text-anchor="start" x="111" y="-183" font-family="Helvetica,sans-Serif" font-size="10.00">/home/runner/work/uniot</text>
<text text-anchor="start" x="111" y="-172" font-family="Helvetica,sans-Serif" font-size="10.00">&#45;core/uniot&#45;core/lib/Core</text>
<text text-anchor="middle" x="171.5" y="-161" font-family="Helvetica,sans-Serif" font-size="10.00">/EventBus/EventBus.cpp</text>
</a>
</g>
</g>
<!-- Node2&#45;&gt;Node3 -->
<g id="edge2_Node000002_Node000003" class="edge">
<title>Node2&#45;&gt;Node3</title>
<g id="a_edge2_Node000002_Node000003"><a xlink:title=" ">
<path fill="none" stroke="#63b8ff" d="M267.83,-377.5C244.46,-352.29 211.35,-312.56 192.5,-272 180.86,-246.97 175.56,-215.25 173.22,-195.16"/>
<polygon fill="#63b8ff" stroke="#63b8ff" points="265.34,-379.96 274.74,-384.84 270.44,-375.16 265.34,-379.96"/>
</a>
</g>
</g>
<!-- Node4 -->
<g id="Node000004" class="node">
<title>Node4</title>
<g id="a_Node000004"><a xlink:href="_event_emitter_8h.html" target="_top" xlink:title=" ">
<polygon fill="white" stroke="#666666" points="435.5,-349 295.5,-349 295.5,-308 435.5,-308 435.5,-349"/>
<text text-anchor="start" x="303.5" y="-337" font-family="Helvetica,sans-Serif" font-size="10.00">/home/runner/work/uniot</text>
<text text-anchor="start" x="303.5" y="-326" font-family="Helvetica,sans-Serif" font-size="10.00">&#45;core/uniot&#45;core/lib/Core</text>
<text text-anchor="middle" x="365.5" y="-315" font-family="Helvetica,sans-Serif" font-size="10.00">/EventBus/EventEmitter.h</text>
</a>
</g>
</g>
<!-- Node2&#45;&gt;Node4 -->
<g id="edge3_Node000002_Node000004" class="edge">
<title>Node2&#45;&gt;Node4</title>
<g id="a_edge3_Node000002_Node000004"><a xlink:title=" ">
<path fill="none" stroke="#63b8ff" d="M320.05,-377.51C328.95,-368.11 338.75,-357.76 346.97,-349.07"/>
<polygon fill="#63b8ff" stroke="#63b8ff" points="317.49,-375.13 313.15,-384.79 322.57,-379.94 317.49,-375.13"/>
</a>
</g>
</g>
<!-- Node21 -->
<g id="Node000021" class="node">
<title>Node21</title>
<g id="a_Node000021"><a xlink:href="_event_entity_8cpp.html" target="_top" xlink:title=" ">
<polygon fill="white" stroke="#666666" points="143,-349 0,-349 0,-308 143,-308 143,-349"/>
<text text-anchor="start" x="8" y="-337" font-family="Helvetica,sans-Serif" font-size="10.00">/home/runner/work/uniot</text>
<text text-anchor="start" x="8" y="-326" font-family="Helvetica,sans-Serif" font-size="10.00">&#45;core/uniot&#45;core/lib/Core</text>
<text text-anchor="middle" x="71.5" y="-315" font-family="Helvetica,sans-Serif" font-size="10.00">/EventBus/EventEntity.cpp</text>
</a>
</g>
</g>
<!-- Node2&#45;&gt;Node21 -->
<g id="edge33_Node000002_Node000021" class="edge">
<title>Node2&#45;&gt;Node21</title>
<g id="a_edge33_Node000002_Node000021"><a xlink:title=" ">
<path fill="none" stroke="#63b8ff" d="M226.63,-381.67C195.64,-371.25 159.31,-359.03 129.61,-349.04"/>
<polygon fill="#63b8ff" stroke="#63b8ff" points="225.9,-385.12 236.49,-384.99 228.13,-378.49 225.9,-385.12"/>
</a>
</g>
</g>
<!-- Node4&#45;&gt;Node3 -->
<g id="edge15_Node000004_Node000003" class="edge">
<title>Node4&#45;&gt;Node3</title>
<g id="a_edge15_Node000004_Node000003"><a xlink:title=" ">
<path fill="none" stroke="#63b8ff" d="M285.93,-305.36C265.7,-297.15 245.03,-286.24 228.5,-272 204.03,-250.92 187.33,-216.6 178.61,-195.08"/>
<polygon fill="#63b8ff" stroke="#63b8ff" points="284.9,-308.71 295.49,-309.06 287.42,-302.19 284.9,-308.71"/>
</a>
</g>
</g>
<!-- Node5 -->
<g id="Node000005" class="node">
<title>Node5</title>
<g id="a_Node000005"><a xlink:href="_date_8h.html" target="_top" xlink:title=" ">
<polygon fill="white" stroke="#666666" points="472,-195 335,-195 335,-154 472,-154 472,-195"/>
<text text-anchor="start" x="343" y="-183" font-family="Helvetica,sans-Serif" font-size="10.00">/home/runner/work/uniot</text>
<text text-anchor="start" x="343" y="-172" font-family="Helvetica,sans-Serif" font-size="10.00">&#45;core/uniot&#45;core/lib/Core</text>
<text text-anchor="middle" x="403.5" y="-161" font-family="Helvetica,sans-Serif" font-size="10.00">/Date/Date.h</text>
</a>
</g>
</g>
<!-- Node4&#45;&gt;Node5 -->
<g id="edge4_Node000004_Node000005" class="edge">
<title>Node4&#45;&gt;Node5</title>
<g id="a_edge4_Node000004_Node000005"><a xlink:title=" ">
<path fill="none" stroke="#63b8ff" d="M385.89,-299.19C390.91,-290.82 395.66,-281.38 398.5,-272 406.28,-246.31 406.29,-215.04 405.2,-195.2"/>
<polygon fill="#63b8ff" stroke="#63b8ff" points="382.83,-297.48 380.41,-307.8 388.74,-301.24 382.83,-297.48"/>
</a>
</g>
</g>
<!-- Node13 -->
<g id="Node000013" class="node">
<title>Node13</title>
<g id="a_Node000013"><a xlink:href="_event_emitter_8cpp.html" target="_top" xlink:title=" ">
<polygon fill="white" stroke="#666666" points="389.5,-272 237.5,-272 237.5,-231 389.5,-231 389.5,-272"/>
<text text-anchor="start" x="245.5" y="-260" font-family="Helvetica,sans-Serif" font-size="10.00">/home/runner/work/uniot</text>
<text text-anchor="start" x="245.5" y="-249" font-family="Helvetica,sans-Serif" font-size="10.00">&#45;core/uniot&#45;core/lib/Core</text>
<text text-anchor="middle" x="313.5" y="-238" font-family="Helvetica,sans-Serif" font-size="10.00">/EventBus/EventEmitter.cpp</text>
</a>
</g>
</g>
<!-- Node4&#45;&gt;Node13 -->
<g id="edge16_Node000004_Node000013" class="edge">
<title>Node4&#45;&gt;Node13</title>
<g id="a_edge16_Node000004_Node000013"><a xlink:title=" ">
<path fill="none" stroke="#63b8ff" d="M346.01,-299.39C339.7,-290.3 332.85,-280.41 327.07,-272.07"/>
<polygon fill="#63b8ff" stroke="#63b8ff" points="343.26,-301.57 351.84,-307.79 349.02,-297.58 343.26,-301.57"/>
</a>
</g>
</g>
<!-- Node14 -->
<g id="Node000014" class="node">
<title>Node14</title>
<g id="a_Node000014"><a xlink:href="_event_listener_8h.html" target="_top" xlink:title=" ">
<polygon fill="white" stroke="#666666" points="589,-272 446,-272 446,-231 589,-231 589,-272"/>
<text text-anchor="start" x="454" y="-260" font-family="Helvetica,sans-Serif" font-size="10.00">/home/runner/work/uniot</text>
<text text-anchor="start" x="454" y="-249" font-family="Helvetica,sans-Serif" font-size="10.00">&#45;core/uniot&#45;core/lib/Core</text>
<text text-anchor="middle" x="517.5" y="-238" font-family="Helvetica,sans-Serif" font-size="10.00">/EventBus/EventListener.h</text>
</a>
</g>
</g>
<!-- Node4&#45;&gt;Node14 -->
<g id="edge17_Node000004_Node000014" class="edge">
<title>Node4&#45;&gt;Node14</title>
<g id="a_edge17_Node000004_Node000014"><a xlink:title=" ">
<path fill="none" stroke="#63b8ff" d="M414.24,-303.45C434.81,-293.3 458.43,-281.64 477.89,-272.04"/>
<polygon fill="#63b8ff" stroke="#63b8ff" points="412.46,-300.43 405.04,-307.99 415.56,-306.7 412.46,-300.43"/>
</a>
</g>
</g>
<!-- Node20 -->
<g id="Node000020" class="node">
<title>Node20</title>
<g id="a_Node000020"><a xlink:href="_network_scheduler_8h.html" target="_top" xlink:title=" ">
<polygon fill="white" stroke="#666666" points="768,-272 607,-272 607,-231 768,-231 768,-272"/>
<text text-anchor="start" x="615" y="-260" font-family="Helvetica,sans-Serif" font-size="10.00">/home/runner/work/uniot</text>
<text text-anchor="start" x="615" y="-249" font-family="Helvetica,sans-Serif" font-size="10.00">&#45;core/uniot&#45;core/lib/Core</text>
<text text-anchor="middle" x="687.5" y="-238" font-family="Helvetica,sans-Serif" font-size="10.00">/Network/NetworkScheduler.h</text>
</a>
</g>
</g>
<!-- Node4&#45;&gt;Node20 -->
<g id="edge30_Node000004_Node000020" class="edge">
<title>Node4&#45;&gt;Node20</title>
<g id="a_edge30_Node000004_Node000020"><a xlink:title=" ">
<path fill="none" stroke="#63b8ff" d="M445.73,-308.81C494.9,-297.36 557.64,-282.75 606.89,-271.28"/>
<polygon fill="#63b8ff" stroke="#63b8ff" points="444.71,-305.46 435.77,-311.13 446.3,-312.27 444.71,-305.46"/>
</a>
</g>
</g>
<!-- Node6 -->
<g id="Node000006" class="node">
<title>Node6</title>
<g id="a_Node000006"><a xlink:href="_app_kit_8h.html" target="_top" xlink:title=" ">
<polygon fill="white" stroke="#666666" points="829.5,-41 685.5,-41 685.5,0 829.5,0 829.5,-41"/>
<text text-anchor="start" x="693.5" y="-29" font-family="Helvetica,sans-Serif" font-size="10.00">/home/runner/work/uniot</text>
<text text-anchor="start" x="693.5" y="-18" font-family="Helvetica,sans-Serif" font-size="10.00">&#45;core/uniot&#45;core/lib/AppKit</text>
<text text-anchor="middle" x="757.5" y="-7" font-family="Helvetica,sans-Serif" font-size="10.00">/AppKit.h</text>
</a>
</g>
</g>
<!-- Node5&#45;&gt;Node6 -->
<g id="edge5_Node000005_Node000006" class="edge">
<title>Node5&#45;&gt;Node6</title>
<g id="a_edge5_Node000005_Node000006"><a xlink:title=" ">
<path fill="none" stroke="#63b8ff" d="M414.29,-144.53C424.02,-122.51 440.51,-93.31 464.5,-77 499.71,-53.06 610.65,-36.97 685.46,-28.53"/>
<polygon fill="#63b8ff" stroke="#63b8ff" points="411.05,-143.19 410.41,-153.77 417.51,-145.9 411.05,-143.19"/>
</a>
</g>
</g>
<!-- Node7 -->
<g id="Node000007" class="node">
<title>Node7</title>
<g id="a_Node000007"><a xlink:href="_lisp_device_8h.html" target="_top" xlink:title=" ">
<polygon fill="white" stroke="#666666" points="779.5,-118 635.5,-118 635.5,-77 779.5,-77 779.5,-118"/>
<text text-anchor="start" x="643.5" y="-106" font-family="Helvetica,sans-Serif" font-size="10.00">/home/runner/work/uniot</text>
<text text-anchor="start" x="643.5" y="-95" font-family="Helvetica,sans-Serif" font-size="10.00">&#45;core/uniot&#45;core/lib/AppKit</text>
<text text-anchor="middle" x="707.5" y="-84" font-family="Helvetica,sans-Serif" font-size="10.00">/LispDevice.h</text>
</a>
</g>
</g>
<!-- Node5&#45;&gt;Node7 -->
<g id="edge6_Node000005_Node000007" class="edge">
<title>Node5&#45;&gt;Node7</title>
<g id="a_edge6_Node000005_Node000007"><a xlink:title=" ">
<path fill="none" stroke="#63b8ff" d="M482.01,-154.13C529.38,-142.44 589.28,-127.67 635.44,-116.28"/>
<polygon fill="#63b8ff" stroke="#63b8ff" points="480.97,-150.78 472.1,-156.58 482.65,-157.58 480.97,-150.78"/>
</a>
</g>
</g>
<!-- Node8 -->
<g id="Node000008" class="node">
<title>Node8</title>
<g id="a_Node000008"><a xlink:href="_top_device_8h.html" target="_top" xlink:title=" ">
<polygon fill="white" stroke="#666666" points="617.5,-118 473.5,-118 473.5,-77 617.5,-77 617.5,-118"/>
<text text-anchor="start" x="481.5" y="-106" font-family="Helvetica,sans-Serif" font-size="10.00">/home/runner/work/uniot</text>
<text text-anchor="start" x="481.5" y="-95" font-family="Helvetica,sans-Serif" font-size="10.00">&#45;core/uniot&#45;core/lib/AppKit</text>
<text text-anchor="middle" x="545.5" y="-84" font-family="Helvetica,sans-Serif" font-size="10.00">/TopDevice.h</text>
</a>
</g>
</g>
<!-- Node5&#45;&gt;Node8 -->
<g id="edge8_Node000005_Node000008" class="edge">
<title>Node5&#45;&gt;Node8</title>
<g id="a_edge8_Node000005_Node000008"><a xlink:title=" ">
<path fill="none" stroke="#63b8ff" d="M449.52,-149.19C468.53,-139.15 490.27,-127.67 508.25,-118.17"/>
<polygon fill="#63b8ff" stroke="#63b8ff" points="447.65,-146.23 440.44,-153.99 450.92,-152.41 447.65,-146.23"/>
</a>
</g>
</g>
<!-- Node9 -->
<g id="Node000009" class="node">
<title>Node9</title>
<g id="a_Node000009"><a xlink:href="_m_q_t_t_kit_8h.html" target="_top" xlink:title=" ">
<polygon fill="white" stroke="#666666" points="261,-118 118,-118 118,-77 261,-77 261,-118"/>
<text text-anchor="start" x="126" y="-106" font-family="Helvetica,sans-Serif" font-size="10.00">/home/runner/work/uniot</text>
<text text-anchor="start" x="126" y="-95" font-family="Helvetica,sans-Serif" font-size="10.00">&#45;core/uniot&#45;core/lib/Core</text>
<text text-anchor="middle" x="189.5" y="-84" font-family="Helvetica,sans-Serif" font-size="10.00">/MQTTWrapper/MQTTKit.h</text>
</a>
</g>
</g>
<!-- Node5&#45;&gt;Node9 -->
<g id="edge10_Node000005_Node000009" class="edge">
<title>Node5&#45;&gt;Node9</title>
<g id="a_edge10_Node000005_Node000009"><a xlink:title=" ">
<path fill="none" stroke="#63b8ff" d="M338.37,-150.67C308.63,-140.25 273.77,-128.03 245.26,-118.04"/>
<polygon fill="#63b8ff" stroke="#63b8ff" points="337.24,-153.99 347.83,-153.99 339.55,-147.38 337.24,-153.99"/>
</a>
</g>
</g>
<!-- Node11 -->
<g id="Node000011" class="node">
<title>Node11</title>
<g id="a_Node000011"><a xlink:href="_uniot_8h.html" target="_top" xlink:title=" ">
<polygon fill="white" stroke="#666666" points="417.5,-118 279.5,-118 279.5,-77 417.5,-77 417.5,-118"/>
<text text-anchor="start" x="287.5" y="-106" font-family="Helvetica,sans-Serif" font-size="10.00">/home/runner/work/uniot</text>
<text text-anchor="start" x="287.5" y="-95" font-family="Helvetica,sans-Serif" font-size="10.00">&#45;core/uniot&#45;core/lib/Uniot</text>
<text text-anchor="middle" x="348.5" y="-84" font-family="Helvetica,sans-Serif" font-size="10.00">/Uniot.h</text>
</a>
</g>
</g>
<!-- Node5&#45;&gt;Node11 -->
<g id="edge13_Node000005_Node000011" class="edge">
<title>Node5&#45;&gt;Node11</title>
<g id="a_edge13_Node000005_Node000011"><a xlink:title=" ">
<path fill="none" stroke="#63b8ff" d="M383.09,-145.67C376.37,-136.5 369.03,-126.5 362.85,-118.07"/>
<polygon fill="#63b8ff" stroke="#63b8ff" points="380.31,-147.8 389.05,-153.79 385.96,-143.66 380.31,-147.8"/>
</a>
</g>
</g>
<!-- Node7&#45;&gt;Node6 -->
<g id="edge7_Node000007_Node000006" class="edge">
<title>Node7&#45;&gt;Node6</title>
<g id="a_edge7_Node000007_Node000006"><a xlink:title=" ">
<path fill="none" stroke="#63b8ff" d="M726.24,-68.39C732.3,-59.3 738.89,-49.41 744.45,-41.07"/>
<polygon fill="#63b8ff" stroke="#63b8ff" points="723.27,-66.53 720.64,-76.79 729.1,-70.42 723.27,-66.53"/>
</a>
</g>
</g>
<!-- Node8&#45;&gt;Node6 -->
<g id="edge9_Node000008_Node000006" class="edge">
<title>Node8&#45;&gt;Node6</title>
<g id="a_edge9_Node000008_Node000006"><a xlink:title=" ">
<path fill="none" stroke="#63b8ff" d="M610.4,-73.54C639.78,-63.15 674.14,-50.99 702.26,-41.04"/>
<polygon fill="#63b8ff" stroke="#63b8ff" points="608.91,-70.36 600.65,-76.99 611.24,-76.95 608.91,-70.36"/>
</a>
</g>
</g>
<!-- Node9&#45;&gt;Node6 -->
<g id="edge11_Node000009_Node000006" class="edge">
<title>Node9&#45;&gt;Node6</title>
<g id="a_edge11_Node000009_Node000006"><a xlink:title=" ">
<path fill="none" stroke="#63b8ff" d="M271.43,-76.95C424.13,-50.47 591.93,-34.6 685.31,-26.94"/>
<polygon fill="#63b8ff" stroke="#63b8ff" points="270.64,-73.53 261.39,-78.71 271.85,-80.43 270.64,-73.53"/>
</a>
</g>
</g>
<!-- Node10 -->
<g id="Node000010" class="node">
<title>Node10</title>
<g id="a_Node000010"><a xlink:href="_m_q_t_t_device_8cpp.html" target="_top" xlink:title=" ">
<polygon fill="white" stroke="#666666" points="269,-41 94,-41 94,0 269,0 269,-41"/>
<text text-anchor="start" x="102" y="-29" font-family="Helvetica,sans-Serif" font-size="10.00">/home/runner/work/uniot</text>
<text text-anchor="start" x="102" y="-18" font-family="Helvetica,sans-Serif" font-size="10.00">&#45;core/uniot&#45;core/lib/Core</text>
<text text-anchor="middle" x="181.5" y="-7" font-family="Helvetica,sans-Serif" font-size="10.00">/MQTTWrapper/MQTTDevice.cpp</text>
</a>
</g>
</g>
<!-- Node9&#45;&gt;Node10 -->
<g id="edge12_Node000009_Node000010" class="edge">
<title>Node9&#45;&gt;Node10</title>
<g id="a_edge12_Node000009_Node000010"><a xlink:title=" ">
<path fill="none" stroke="#63b8ff" d="M186.32,-66.69C185.4,-58.08 184.42,-48.9 183.59,-41.07"/>
<polygon fill="#63b8ff" stroke="#63b8ff" points="182.86,-67.22 187.4,-76.79 189.82,-66.48 182.86,-67.22"/>
</a>
</g>
</g>
<!-- Node12 -->
<g id="Node000012" class="node">
<title>Node12</title>
<g id="a_Node000012"><a xlink:href="_uniot_8cpp.html" target="_top" xlink:title=" ">
<polygon fill="white" stroke="#666666" points="425.5,-41 287.5,-41 287.5,0 425.5,0 425.5,-41"/>
<text text-anchor="start" x="295.5" y="-29" font-family="Helvetica,sans-Serif" font-size="10.00">/home/runner/work/uniot</text>
<text text-anchor="start" x="295.5" y="-18" font-family="Helvetica,sans-Serif" font-size="10.00">&#45;core/uniot&#45;core/lib/Uniot</text>
<text text-anchor="middle" x="356.5" y="-7" font-family="Helvetica,sans-Serif" font-size="10.00">/Uniot.cpp</text>
</a>
</g>
</g>
<!-- Node11&#45;&gt;Node12 -->
<g id="edge14_Node000011_Node000012" class="edge">
<title>Node11&#45;&gt;Node12</title>
<g id="a_edge14_Node000011_Node000012"><a xlink:title=" ">
<path fill="none" stroke="#63b8ff" d="M351.68,-66.69C352.6,-58.08 353.58,-48.9 354.41,-41.07"/>
<polygon fill="#63b8ff" stroke="#63b8ff" points="348.18,-66.48 350.6,-76.79 355.14,-67.22 348.18,-66.48"/>
</a>
</g>
</g>
<!-- Node14&#45;&gt;Node3 -->
<g id="edge22_Node000014_Node000003" class="edge">
<title>Node14&#45;&gt;Node3</title>
<g id="a_edge22_Node000014_Node000003"><a xlink:title=" ">
<path fill="none" stroke="#63b8ff" d="M436.13,-233.83C384.11,-223.05 315.26,-208.55 254.5,-195 249.88,-193.97 245.11,-192.89 240.31,-191.79"/>
<polygon fill="#63b8ff" stroke="#63b8ff" points="435.46,-237.26 445.97,-235.86 436.88,-230.41 435.46,-237.26"/>
</a>
</g>
</g>
<!-- Node14&#45;&gt;Node7 -->
<g id="edge18_Node000014_Node000007" class="edge">
<title>Node14&#45;&gt;Node7</title>
<g id="a_edge18_Node000014_Node000007"><a xlink:title=" ">
<path fill="none" stroke="#63b8ff" d="M509.68,-221.01C506.01,-200.2 505.14,-172.8 519.5,-154 523.27,-149.06 583.89,-131.71 635.29,-117.7"/>
<polygon fill="#63b8ff" stroke="#63b8ff" points="506.27,-221.83 511.72,-230.92 513.13,-220.42 506.27,-221.83"/>
</a>
</g>
</g>
<!-- Node14&#45;&gt;Node9 -->
<g id="edge27_Node000014_Node000009" class="edge">
<title>Node14&#45;&gt;Node9</title>
<g id="a_edge27_Node000014_Node000009"><a xlink:title=" ">
<path fill="none" stroke="#63b8ff" d="M436.06,-234.93C382.25,-223.78 317.26,-208.44 292.5,-195 291.89,-194.67 240.65,-146.57 210.68,-118.41"/>
<polygon fill="#63b8ff" stroke="#63b8ff" points="435.46,-238.38 445.96,-236.96 436.87,-231.52 435.46,-238.38"/>
</a>
</g>
</g>
<!-- Node15 -->
<g id="Node000015" class="node">
<title>Node15</title>
<g id="a_Node000015"><a xlink:href="_callback_event_listener_8h.html" target="_top" xlink:title=" ">
<polygon fill="white" stroke="#666666" points="887,-195 702,-195 702,-154 887,-154 887,-195"/>
<text text-anchor="start" x="710" y="-183" font-family="Helvetica,sans-Serif" font-size="10.00">/home/runner/work/uniot</text>
<text text-anchor="start" x="710" y="-172" font-family="Helvetica,sans-Serif" font-size="10.00">&#45;core/uniot&#45;core/lib/Core</text>
<text text-anchor="middle" x="794.5" y="-161" font-family="Helvetica,sans-Serif" font-size="10.00">/EventBus/CallbackEventListener.h</text>
</a>
</g>
</g>
<!-- Node14&#45;&gt;Node15 -->
<g id="edge19_Node000014_Node000015" class="edge">
<title>Node14&#45;&gt;Node15</title>
<g id="a_edge19_Node000014_Node000015"><a xlink:title=" ">
<path fill="none" stroke="#63b8ff" d="M598.95,-228.45C637.99,-217.88 684.36,-205.32 722.14,-195.09"/>
<polygon fill="#63b8ff" stroke="#63b8ff" points="597.93,-225.1 589.19,-231.09 599.76,-231.85 597.93,-225.1"/>
</a>
</g>
</g>
<!-- Node17 -->
<g id="Node000017" class="node">
<title>Node17</title>
<g id="a_Node000017"><a xlink:href="_event_listener_8cpp.html" target="_top" xlink:title=" ">
<polygon fill="white" stroke="#666666" points="684,-195 529,-195 529,-154 684,-154 684,-195"/>
<text text-anchor="start" x="537" y="-183" font-family="Helvetica,sans-Serif" font-size="10.00">/home/runner/work/uniot</text>
<text text-anchor="start" x="537" y="-172" font-family="Helvetica,sans-Serif" font-size="10.00">&#45;core/uniot&#45;core/lib/Core</text>
<text text-anchor="middle" x="606.5" y="-161" font-family="Helvetica,sans-Serif" font-size="10.00">/EventBus/EventListener.cpp</text>
</a>
</g>
</g>
<!-- Node14&#45;&gt;Node17 -->
<g id="edge23_Node000014_Node000017" class="edge">
<title>Node14&#45;&gt;Node17</title>
<g id="a_edge23_Node000014_Node000017"><a xlink:title=" ">
<path fill="none" stroke="#63b8ff" d="M548.53,-224.35C559.95,-214.73 572.66,-204.01 583.27,-195.07"/>
<polygon fill="#63b8ff" stroke="#63b8ff" points="546.28,-221.67 540.88,-230.79 550.79,-227.03 546.28,-221.67"/>
</a>
</g>
</g>
<!-- Node18 -->
<g id="Node000018" class="node">
<title>Node18</title>
<g id="a_Node000018"><a xlink:href="un_lisp_8h.html" target="_top" xlink:title=" ">
<polygon fill="white" stroke="#666666" points="1042,-195 905,-195 905,-154 1042,-154 1042,-195"/>
<text text-anchor="start" x="913" y="-183" font-family="Helvetica,sans-Serif" font-size="10.00">/home/runner/work/uniot</text>
<text text-anchor="start" x="913" y="-172" font-family="Helvetica,sans-Serif" font-size="10.00">&#45;core/uniot&#45;core/lib/Core</text>
<text text-anchor="middle" x="973.5" y="-161" font-family="Helvetica,sans-Serif" font-size="10.00">/LispWrapper/unLisp.h</text>
</a>
</g>
</g>
<!-- Node14&#45;&gt;Node18 -->
<g id="edge24_Node000014_Node000018" class="edge">
<title>Node14&#45;&gt;Node18</title>
<g id="a_edge24_Node000014_Node000018"><a xlink:title=" ">
<path fill="none" stroke="#63b8ff" d="M599.5,-230.94C731.59,-207.92 768.55,-218.83 896.5,-195 899.21,-194.5 901.97,-193.95 904.75,-193.37"/>
<polygon fill="#63b8ff" stroke="#63b8ff" points="598.63,-227.54 589.4,-232.73 599.86,-234.43 598.63,-227.54"/>
</a>
</g>
</g>
<!-- Node19 -->
<g id="Node000019" class="node">
<title>Node19</title>
<g id="a_Node000019"><a xlink:href="_network_controller_8h.html" target="_top" xlink:title=" ">
<polygon fill="white" stroke="#666666" points="1221,-195 1060,-195 1060,-154 1221,-154 1221,-195"/>
<text text-anchor="start" x="1068" y="-183" font-family="Helvetica,sans-Serif" font-size="10.00">/home/runner/work/uniot</text>
<text text-anchor="start" x="1068" y="-172" font-family="Helvetica,sans-Serif" font-size="10.00">&#45;core/uniot&#45;core/lib/Core</text>
<text text-anchor="middle" x="1140.5" y="-161" font-family="Helvetica,sans-Serif" font-size="10.00">/Network/NetworkController.h</text>
</a>
</g>
</g>
<!-- Node14&#45;&gt;Node19 -->
<g id="edge28_Node000014_Node000019" class="edge">
<title>Node14&#45;&gt;Node19</title>
<g id="a_edge28_Node000014_Node000019"><a xlink:title=" ">
<path fill="none" stroke="#63b8ff" d="M599.33,-231.01C799.73,-200.07 854.94,-224.2 1051.5,-195 1054.16,-194.6 1056.86,-194.18 1059.58,-193.72"/>
<polygon fill="#63b8ff" stroke="#63b8ff" points="598.71,-227.57 589.37,-232.58 599.79,-234.48 598.71,-227.57"/>
</a>
</g>
</g>
<!-- Node15&#45;&gt;Node6 -->
<g id="edge20_Node000015_Node000006" class="edge">
<title>Node15&#45;&gt;Node6</title>
<g id="a_edge20_Node000015_Node000006"><a xlink:title=" ">
<path fill="none" stroke="#63b8ff" d="M796.03,-143.78C796.21,-124.39 794.89,-98.74 788.5,-77 784.77,-64.29 777.72,-51.3 771.29,-41.09"/>
<polygon fill="#63b8ff" stroke="#63b8ff" points="792.53,-143.76 795.8,-153.84 799.52,-143.92 792.53,-143.76"/>
</a>
</g>
</g>
<!-- Node16 -->
<g id="Node000016" class="node">
<title>Node16</title>
<g id="a_Node000016"><a xlink:href="_callback_event_listener_8cpp.html" target="_top" xlink:title=" ">
<polygon fill="white" stroke="#666666" points="1033,-118 836,-118 836,-77 1033,-77 1033,-118"/>
<text text-anchor="start" x="844" y="-106" font-family="Helvetica,sans-Serif" font-size="10.00">/home/runner/work/uniot</text>
<text text-anchor="start" x="844" y="-95" font-family="Helvetica,sans-Serif" font-size="10.00">&#45;core/uniot&#45;core/lib/Core</text>
<text text-anchor="middle" x="934.5" y="-84" font-family="Helvetica,sans-Serif" font-size="10.00">/EventBus/CallbackEventListener.cpp</text>
</a>
</g>
</g>
<!-- Node15&#45;&gt;Node16 -->
<g id="edge21_Node000015_Node000016" class="edge">
<title>Node15&#45;&gt;Node16</title>
<g id="a_edge21_Node000015_Node000016"><a xlink:title=" ">
<path fill="none" stroke="#63b8ff" d="M839.87,-149.19C858.61,-139.15 880.05,-127.67 897.78,-118.17"/>
<polygon fill="#63b8ff" stroke="#63b8ff" points="838.08,-146.18 830.92,-153.99 841.39,-152.35 838.08,-146.18"/>
</a>
</g>
</g>
<!-- Node18&#45;&gt;Node6 -->
<g id="edge25_Node000018_Node000006" class="edge">
<title>Node18&#45;&gt;Node6</title>
<g id="a_edge25_Node000018_Node000006"><a xlink:title=" ">
<path fill="none" stroke="#63b8ff" d="M1017.66,-147.67C1027.65,-139.54 1036.95,-129.6 1042.5,-118 1050.37,-101.57 1054.09,-91.06 1042.5,-77 1016.01,-44.86 904.97,-31.09 829.57,-25.36"/>
<polygon fill="#63b8ff" stroke="#63b8ff" points="1015.42,-144.98 1009.56,-153.8 1019.64,-150.56 1015.42,-144.98"/>
</a>
</g>
</g>
<!-- Node18&#45;&gt;Node7 -->
<g id="edge26_Node000018_Node000007" class="edge">
<title>Node18&#45;&gt;Node7</title>
<g id="a_edge26_Node000018_Node000007"><a xlink:title=" ">
<path fill="none" stroke="#63b8ff" d="M895.11,-151.4C857.56,-140.81 812.97,-128.24 776.69,-118.01"/>
<polygon fill="#63b8ff" stroke="#63b8ff" points="894.42,-154.84 905,-154.19 896.32,-148.1 894.42,-154.84"/>
</a>
</g>
</g>
<!-- Node19&#45;&gt;Node6 -->
<g id="edge29_Node000019_Node000006" class="edge">
<title>Node19&#45;&gt;Node6</title>
<g id="a_edge29_Node000019_Node000006"><a xlink:title=" ">
<path fill="none" stroke="#63b8ff" d="M1124.25,-145.01C1110.07,-122.86 1087.41,-93.25 1059.5,-77 1021.38,-54.81 906.33,-38.11 829.75,-29.08"/>
<polygon fill="#63b8ff" stroke="#63b8ff" points="1121.39,-147.02 1129.62,-153.68 1127.34,-143.34 1121.39,-147.02"/>
</a>
</g>
</g>
<!-- Node20&#45;&gt;Node9 -->
<g id="edge31_Node000020_Node000009" class="edge">
<title>Node20&#45;&gt;Node9</title>
<g id="a_edge31_Node000020_Node000009"><a xlink:title=" ">
<path fill="none" stroke="#63b8ff" d="M596.55,-230.8C475.64,-211.92 432.04,-248.37 325.5,-195 302.74,-183.6 305.6,-169.63 285.5,-154 268.02,-140.41 246.88,-127.83 228.88,-118.09"/>
<polygon fill="#63b8ff" stroke="#63b8ff" points="596.11,-234.28 606.55,-232.46 597.26,-227.37 596.11,-234.28"/>
</a>
</g>
</g>
<!-- Node20&#45;&gt;Node19 -->
<g id="edge32_Node000020_Node000019" class="edge">
<title>Node20&#45;&gt;Node19</title>
<g id="a_edge32_Node000020_Node000019"><a xlink:title=" ">
<path fill="none" stroke="#63b8ff" d="M778.54,-238.28C852.34,-227.97 958.91,-212.18 1051.5,-195 1054.14,-194.51 1056.83,-194 1059.54,-193.47"/>
<polygon fill="#63b8ff" stroke="#63b8ff" points="777.77,-234.85 768.35,-239.69 778.74,-241.78 777.77,-234.85"/>
</a>
</g>
</g>
<!-- Node23 -->
<g id="Node000023" class="node">
<title>Node23</title>
<g id="a_Node000023"><a xlink:href="_button_8h.html" target="_top" xlink:title=" ">
<polygon fill="white" stroke="#666666" points="1220,-272 1083,-272 1083,-231 1220,-231 1220,-272"/>
<text text-anchor="start" x="1091" y="-260" font-family="Helvetica,sans-Serif" font-size="10.00">/home/runner/work/uniot</text>
<text text-anchor="start" x="1091" y="-249" font-family="Helvetica,sans-Serif" font-size="10.00">&#45;core/uniot&#45;core/lib/Core</text>
<text text-anchor="middle" x="1151.5" y="-238" font-family="Helvetica,sans-Serif" font-size="10.00">/Hardware/Button.h</text>
</a>
</g>
</g>
<!-- Node22&#45;&gt;Node23 -->
<g id="edge35_Node000022_Node000023" class="edge">
<title>Node22&#45;&gt;Node23</title>
<g id="a_edge35_Node000022_Node000023"><a xlink:title=" ">
<path fill="none" stroke="#63b8ff" d="M1020.44,-533.29C1032.78,-524.94 1045.21,-514.73 1054.5,-503 1112.69,-429.51 1139.3,-317 1148.05,-272.04"/>
<polygon fill="#63b8ff" stroke="#63b8ff" points="1018.45,-530.4 1011.95,-538.77 1022.25,-536.28 1018.45,-530.4"/>
</a>
</g>
</g>
<!-- Node25 -->
<g id="Node000025" class="node">
<title>Node25</title>
<g id="a_Node000025"><a xlink:href="_object_register_8h.html" target="_top" xlink:title=" ">
<polygon fill="white" stroke="#666666" points="1045,-503 902,-503 902,-462 1045,-462 1045,-503"/>
<text text-anchor="start" x="910" y="-491" font-family="Helvetica,sans-Serif" font-size="10.00">/home/runner/work/uniot</text>
<text text-anchor="start" x="910" y="-480" font-family="Helvetica,sans-Serif" font-size="10.00">&#45;core/uniot&#45;core/lib/Core</text>
<text text-anchor="middle" x="973.5" y="-469" font-family="Helvetica,sans-Serif" font-size="10.00">/Register/ObjectRegister.h</text>
</a>
</g>
</g>
<!-- Node22&#45;&gt;Node25 -->
<g id="edge39_Node000022_Node000025" class="edge">
<title>Node22&#45;&gt;Node25</title>
<g id="a_edge39_Node000022_Node000025"><a xlink:title=" ">
<path fill="none" stroke="#63b8ff" d="M973.5,-528.69C973.5,-520.08 973.5,-510.9 973.5,-503.07"/>
<polygon fill="#63b8ff" stroke="#63b8ff" points="970,-528.79 973.5,-538.79 977,-528.79 970,-528.79"/>
</a>
</g>
</g>
<!-- Node23&#45;&gt;Node19 -->
<g id="edge38_Node000023_Node000019" class="edge">
<title>Node23&#45;&gt;Node19</title>
<g id="a_edge38_Node000023_Node000019"><a xlink:title=" ">
<path fill="none" stroke="#63b8ff" d="M1147.13,-220.69C1145.86,-212.08 1144.52,-202.9 1143.37,-195.07"/>
<polygon fill="#63b8ff" stroke="#63b8ff" points="1143.7,-221.41 1148.61,-230.79 1150.62,-220.39 1143.7,-221.41"/>
</a>
</g>
</g>
<!-- Node24 -->
<g id="Node000024" class="node">
<title>Node24</title>
<g id="a_Node000024"><a xlink:href="_lisp_primitives_8h.html" target="_top" xlink:title=" ">
<polygon fill="white" stroke="#666666" points="1383.5,-195 1239.5,-195 1239.5,-154 1383.5,-154 1383.5,-195"/>
<text text-anchor="start" x="1247.5" y="-183" font-family="Helvetica,sans-Serif" font-size="10.00">/home/runner/work/uniot</text>
<text text-anchor="start" x="1247.5" y="-172" font-family="Helvetica,sans-Serif" font-size="10.00">&#45;core/uniot&#45;core/lib/AppKit</text>
<text text-anchor="middle" x="1311.5" y="-161" font-family="Helvetica,sans-Serif" font-size="10.00">/LispPrimitives.h</text>
</a>
</g>
</g>
<!-- Node23&#45;&gt;Node24 -->
<g id="edge36_Node000023_Node000024" class="edge">
<title>Node23&#45;&gt;Node24</title>
<g id="a_edge36_Node000023_Node000024"><a xlink:title=" ">
<path fill="none" stroke="#63b8ff" d="M1202.23,-226.72C1224,-216.51 1249.14,-204.73 1269.81,-195.04"/>
<polygon fill="#63b8ff" stroke="#63b8ff" points="1200.69,-223.58 1193.12,-230.99 1203.66,-229.92 1200.69,-223.58"/>
</a>
</g>
</g>
<!-- Node24&#45;&gt;Node6 -->
<g id="edge37_Node000024_Node000006" class="edge">
<title>Node24&#45;&gt;Node6</title>
<g id="a_edge37_Node000024_Node000006"><a xlink:title=" ">
<path fill="none" stroke="#63b8ff" d="M1266.51,-149.28C1223.7,-127.24 1156.89,-95.42 1095.5,-77 1005.93,-50.13 898.87,-35.33 829.6,-27.91"/>
<polygon fill="#63b8ff" stroke="#63b8ff" points="1265.04,-152.46 1275.53,-153.96 1268.27,-146.25 1265.04,-152.46"/>
</a>
</g>
</g>
<!-- Node26 -->
<g id="Node000026" class="node">
<title>Node26</title>
<g id="a_Node000026"><a xlink:href="_register_manager_8h.html" target="_top" xlink:title=" ">
<polygon fill="white" stroke="#666666" points="1051,-426 896,-426 896,-385 1051,-385 1051,-426"/>
<text text-anchor="start" x="904" y="-414" font-family="Helvetica,sans-Serif" font-size="10.00">/home/runner/work/uniot</text>
<text text-anchor="start" x="904" y="-403" font-family="Helvetica,sans-Serif" font-size="10.00">&#45;core/uniot&#45;core/lib/Core</text>
<text text-anchor="middle" x="973.5" y="-392" font-family="Helvetica,sans-Serif" font-size="10.00">/Register/RegisterManager.h</text>
</a>
</g>
</g>
<!-- Node25&#45;&gt;Node26 -->
<g id="edge40_Node000025_Node000026" class="edge">
<title>Node25&#45;&gt;Node26</title>
<g id="a_edge40_Node000025_Node000026"><a xlink:title=" ">
<path fill="none" stroke="#63b8ff" d="M973.5,-451.69C973.5,-443.08 973.5,-433.9 973.5,-426.07"/>
<polygon fill="#63b8ff" stroke="#63b8ff" points="970,-451.79 973.5,-461.79 977,-451.79 970,-451.79"/>
</a>
</g>
</g>
<!-- Node27 -->
<g id="Node000027" class="node">
<title>Node27</title>
<g id="a_Node000027"><a xlink:href="_register_manager_proxy_8h.html" target="_top" xlink:title=" ">
<polygon fill="white" stroke="#666666" points="1064.5,-349 882.5,-349 882.5,-308 1064.5,-308 1064.5,-349"/>
<text text-anchor="start" x="890.5" y="-337" font-family="Helvetica,sans-Serif" font-size="10.00">/home/runner/work/uniot</text>
<text text-anchor="start" x="890.5" y="-326" font-family="Helvetica,sans-Serif" font-size="10.00">&#45;core/uniot&#45;core/lib/Core</text>
<text text-anchor="middle" x="973.5" y="-315" font-family="Helvetica,sans-Serif" font-size="10.00">/Register/RegisterManagerProxy.h</text>
</a>
</g>
</g>
<!-- Node26&#45;&gt;Node27 -->
<g id="edge41_Node000026_Node000027" class="edge">
<title>Node26&#45;&gt;Node27</title>
<g id="a_edge41_Node000026_Node000027"><a xlink:title=" ">
<path fill="none" stroke="#63b8ff" d="M973.5,-374.69C973.5,-366.08 973.5,-356.9 973.5,-349.07"/>
<polygon fill="#63b8ff" stroke="#63b8ff" points="970,-374.79 973.5,-384.79 977,-374.79 970,-374.79"/>
</a>
</g>
</g>
<!-- Node28 -->
<g id="Node000028" class="node">
<title>Node28</title>
<g id="a_Node000028"><a xlink:href="_primitive_expeditor_8h.html" target="_top" xlink:title=" ">
<polygon fill="white" stroke="#666666" points="1064.5,-272 882.5,-272 882.5,-231 1064.5,-231 1064.5,-272"/>
<text text-anchor="start" x="890.5" y="-260" font-family="Helvetica,sans-Serif" font-size="10.00">/home/runner/work/uniot</text>
<text text-anchor="start" x="890.5" y="-249" font-family="Helvetica,sans-Serif" font-size="10.00">&#45;core/uniot&#45;core/lib/Core</text>
<text text-anchor="middle" x="973.5" y="-238" font-family="Helvetica,sans-Serif" font-size="10.00">/LispWrapper/PrimitiveExpeditor.h</text>
</a>
</g>
</g>
<!-- Node27&#45;&gt;Node28 -->
<g id="edge42_Node000027_Node000028" class="edge">
<title>Node27&#45;&gt;Node28</title>
<g id="a_edge42_Node000027_Node000028"><a xlink:title=" ">
<path fill="none" stroke="#63b8ff" d="M973.5,-297.69C973.5,-289.08 973.5,-279.9 973.5,-272.07"/>
<polygon fill="#63b8ff" stroke="#63b8ff" points="970,-297.79 973.5,-307.79 977,-297.79 970,-297.79"/>
</a>
</g>
</g>
<!-- Node28&#45;&gt;Node18 -->
<g id="edge44_Node000028_Node000018" class="edge">
<title>Node28&#45;&gt;Node18</title>
<g id="a_edge44_Node000028_Node000018"><a xlink:title=" ">
<path fill="none" stroke="#63b8ff" d="M973.5,-220.69C973.5,-212.08 973.5,-202.9 973.5,-195.07"/>
<polygon fill="#63b8ff" stroke="#63b8ff" points="970,-220.79 973.5,-230.79 977,-220.79 970,-220.79"/>
</a>
</g>
</g>
<!-- Node28&#45;&gt;Node24 -->
<g id="edge43_Node000028_Node000024" class="edge">
<title>Node28&#45;&gt;Node24</title>
<g id="a_edge43_Node000028_Node000024"><a xlink:title=" ">
<path fill="none" stroke="#63b8ff" d="M1074.57,-229.25C1121.97,-219.14 1179.19,-206.71 1230.5,-195 1233.32,-194.36 1236.19,-193.69 1239.1,-193.02"/>
<polygon fill="#63b8ff" stroke="#63b8ff" points="1073.66,-225.86 1064.6,-231.37 1075.11,-232.71 1073.66,-225.86"/>
</a>
</g>
</g>
</g>
</svg>
