<?xml version="1.0" encoding="UTF-8" standalone="no"?>
<!DOCTYPE svg PUBLIC "-//W3C//DTD SVG 1.1//EN"
 "http://www.w3.org/Graphics/SVG/1.1/DTD/svg11.dtd">
<!-- Generated by graphviz version 2.43.0 (0)
 -->
<!-- Title: uniot::IExecutor Pages: 1 -->
<svg width="280pt" height="150pt"
 viewBox="0.00 0.00 280.00 149.50" xmlns="http://www.w3.org/2000/svg" xmlns:xlink="http://www.w3.org/1999/xlink">
<g id="graph0" class="graph" transform="scale(1 1) rotate(0) translate(4 145.5)">
<title>uniot::IExecutor</title>
<!-- Node1 -->
<g id="Node000001" class="node">
<title>Node1</title>
<g id="a_Node000001"><a xlink:title="Interface for executing tasks in the scheduler system.">
<polygon fill="#999999" stroke="#666666" points="92,-85.5 0,-85.5 0,-66.5 92,-66.5 92,-85.5"/>
<text text-anchor="middle" x="46" y="-73.5" font-family="Helvetica,sans-Serif" font-size="10.00">uniot::IExecutor</text>
</a>
</g>
</g>
<!-- Node2 -->
<g id="Node000002" class="node">
<title>Node2</title>
<g id="a_Node000002"><a xlink:href="classuniot_1_1_button.html" target="_top" xlink:title=" ">
<polygon fill="white" stroke="#666666" points="240,-141.5 160,-141.5 160,-122.5 240,-122.5 240,-141.5"/>
<text text-anchor="middle" x="200" y="-129.5" font-family="Helvetica,sans-Serif" font-size="10.00">uniot::Button</text>
</a>
</g>
</g>
<!-- Node1&#45;&gt;Node2 -->
<g id="edge1_Node000001_Node000002" class="edge">
<title>Node1&#45;&gt;Node2</title>
<g id="a_edge1_Node000001_Node000002"><a xlink:title=" ">
<path fill="none" stroke="#63b8ff" d="M73.93,-90.22C89.44,-98 109.47,-107.37 128,-114 138.18,-117.64 149.42,-120.85 159.91,-123.51"/>
<polygon fill="#63b8ff" stroke="#63b8ff" points="75.42,-87.04 64.92,-85.62 72.24,-93.28 75.42,-87.04"/>
</a>
</g>
</g>
<!-- Node3 -->
<g id="Node000003" class="node">
<title>Node3</title>
<g id="a_Node000003"><a xlink:href="classuniot_1_1_config_captive_portal.html" target="_top" xlink:title=" ">
<polygon fill="white" stroke="#666666" points="272,-104.5 128,-104.5 128,-85.5 272,-85.5 272,-104.5"/>
<text text-anchor="middle" x="200" y="-92.5" font-family="Helvetica,sans-Serif" font-size="10.00">uniot::ConfigCaptivePortal</text>
</a>
</g>
</g>
<!-- Node1&#45;&gt;Node3 -->
<g id="edge2_Node000001_Node000003" class="edge">
<title>Node1&#45;&gt;Node3</title>
<g id="a_edge2_Node000001_Node000003"><a xlink:title=" ">
<path fill="none" stroke="#63b8ff" d="M102.15,-82.89C110.48,-83.93 119.17,-85.02 127.78,-86.1"/>
<polygon fill="#63b8ff" stroke="#63b8ff" points="102.55,-79.42 92.19,-81.65 101.68,-86.36 102.55,-79.42"/>
</a>
</g>
</g>
<!-- Node4 -->
<g id="Node000004" class="node">
<title>Node4</title>
<g id="a_Node000004"><a xlink:href="classuniot_1_1_date.html" target="_top" xlink:title=" ">
<polygon fill="white" stroke="#666666" points="235.5,-67.5 164.5,-67.5 164.5,-48.5 235.5,-48.5 235.5,-67.5"/>
<text text-anchor="middle" x="200" y="-55.5" font-family="Helvetica,sans-Serif" font-size="10.00">uniot::Date</text>
</a>
</g>
</g>
<!-- Node1&#45;&gt;Node4 -->
<g id="edge3_Node000001_Node000004" class="edge">
<title>Node1&#45;&gt;Node4</title>
<g id="a_edge3_Node000001_Node000004"><a xlink:title=" ">
<path fill="none" stroke="#63b8ff" d="M102.18,-69.47C122.96,-67.01 145.98,-64.28 164.36,-62.1"/>
<polygon fill="#63b8ff" stroke="#63b8ff" points="101.71,-66 92.19,-70.65 102.54,-72.95 101.71,-66"/>
</a>
</g>
</g>
<!-- Node5 -->
<g id="Node000005" class="node">
<title>Node5</title>
<g id="a_Node000005"><a xlink:href="classuniot_1_1_event_bus.html" target="_top" xlink:title=" ">
<polygon fill="white" stroke="#666666" points="267,-30 133,-30 133,0 267,0 267,-30"/>
<text text-anchor="start" x="141" y="-18" font-family="Helvetica,sans-Serif" font-size="10.00">uniot::EventBus&lt; T</text>
<text text-anchor="middle" x="200" y="-7" font-family="Helvetica,sans-Serif" font-size="10.00">_topic, T_msg, T_data &gt;</text>
</a>
</g>
</g>
<!-- Node1&#45;&gt;Node5 -->
<g id="edge4_Node000001_Node000005" class="edge">
<title>Node1&#45;&gt;Node5</title>
<g id="a_edge4_Node000001_Node000005"><a xlink:title=" ">
<path fill="none" stroke="#63b8ff" d="M76.85,-62.05C92.04,-55.13 110.87,-46.81 128,-40 136.5,-36.62 145.66,-33.22 154.48,-30.06"/>
<polygon fill="#63b8ff" stroke="#63b8ff" points="75.08,-59.01 67.45,-66.37 78,-65.38 75.08,-59.01"/>
</a>
</g>
</g>
</g>
</svg>
