<?xml version="1.0" encoding="UTF-8" standalone="no"?>
<!DOCTYPE svg PUBLIC "-//W3C//DTD SVG 1.1//EN"
 "http://www.w3.org/Graphics/SVG/1.1/DTD/svg11.dtd">
<!-- Generated by graphviz version 2.43.0 (0)
 -->
<!-- Title: uniot::EventListener&lt; T_topic, T_msg, T_data &gt; Pages: 1 -->
<svg width="781pt" height="242pt"
 viewBox="0.00 0.00 781.00 242.00" xmlns="http://www.w3.org/2000/svg" xmlns:xlink="http://www.w3.org/1999/xlink">
<g id="graph0" class="graph" transform="scale(1 1) rotate(0) translate(4 238)">
<title>uniot::EventListener&lt; T_topic, T_msg, T_data &gt;</title>
<!-- Node1 -->
<g id="Node000001" class="node">
<title>Node1</title>
<g id="a_Node000001"><a xlink:title=" ">
<polygon fill="#999999" stroke="#666666" points="581,-126 429,-126 429,-96 581,-96 581,-126"/>
<text text-anchor="start" x="437" y="-114" font-family="Helvetica,sans-Serif" font-size="10.00">uniot::EventListener</text>
<text text-anchor="middle" x="505" y="-103" font-family="Helvetica,sans-Serif" font-size="10.00">&lt; T_topic, T_msg, T_data &gt;</text>
</a>
</g>
</g>
<!-- Node5 -->
<g id="Node000005" class="node">
<title>Node5</title>
<g id="a_Node000005"><a xlink:href="classuniot_1_1_callback_event_listener.html" target="_top" xlink:title=" ">
<polygon fill="white" stroke="#666666" points="773,-234 617,-234 617,-204 773,-204 773,-234"/>
<text text-anchor="start" x="625" y="-222" font-family="Helvetica,sans-Serif" font-size="10.00">uniot::CallbackEventListener</text>
<text text-anchor="middle" x="695" y="-211" font-family="Helvetica,sans-Serif" font-size="10.00">&lt; T_topic, T_msg, T_data &gt;</text>
</a>
</g>
</g>
<!-- Node1&#45;&gt;Node5 -->
<g id="edge4_Node000001_Node000005" class="edge">
<title>Node1&#45;&gt;Node5</title>
<g id="a_edge4_Node000001_Node000005"><a xlink:title=" ">
<path fill="none" stroke="#63b8ff" d="M529.68,-132.82C551.1,-151.56 584.22,-178.14 617,-195 623.48,-198.33 630.5,-201.3 637.58,-203.91"/>
<polygon fill="#63b8ff" stroke="#63b8ff" points="531.87,-130.08 522.07,-126.06 527.22,-135.31 531.87,-130.08"/>
</a>
</g>
</g>
<!-- Node6 -->
<g id="Node000006" class="node">
<title>Node6</title>
<g id="a_Node000006"><a xlink:href="classuniot_1_1_lisp_device.html" target="_top" xlink:title=" ">
<polygon fill="white" stroke="#666666" points="749.5,-185.5 640.5,-185.5 640.5,-144.5 749.5,-144.5 749.5,-185.5"/>
<text text-anchor="start" x="648.5" y="-173.5" font-family="Helvetica,sans-Serif" font-size="10.00">uniot::LispDevice&lt;</text>
<text text-anchor="start" x="648.5" y="-162.5" font-family="Helvetica,sans-Serif" font-size="10.00"> unsigned int, int,</text>
<text text-anchor="middle" x="695" y="-151.5" font-family="Helvetica,sans-Serif" font-size="10.00"> Bytes &gt;</text>
</a>
</g>
</g>
<!-- Node1&#45;&gt;Node6 -->
<g id="edge5_Node000001_Node000006" class="edge">
<title>Node1&#45;&gt;Node6</title>
<g id="a_edge5_Node000001_Node000006"><a xlink:title=" ">
<path fill="none" stroke="#63b8ff" d="M568.16,-128.86C591.49,-135.56 617.78,-143.11 640.28,-149.57"/>
<polygon fill="#63b8ff" stroke="#63b8ff" points="568.95,-125.44 558.37,-126.04 567.01,-132.17 568.95,-125.44"/>
</a>
</g>
</g>
<!-- Node7 -->
<g id="Node000007" class="node">
<title>Node7</title>
<g id="a_Node000007"><a xlink:href="classuniot_1_1_m_q_t_t_kit.html" target="_top" xlink:title=" ">
<polygon fill="white" stroke="#666666" points="767.5,-126 622.5,-126 622.5,-96 767.5,-96 767.5,-126"/>
<text text-anchor="start" x="630.5" y="-114" font-family="Helvetica,sans-Serif" font-size="10.00">uniot::MQTTKit&lt; unsigned</text>
<text text-anchor="middle" x="695" y="-103" font-family="Helvetica,sans-Serif" font-size="10.00"> int, int, Bytes &gt;</text>
</a>
</g>
</g>
<!-- Node1&#45;&gt;Node7 -->
<g id="edge6_Node000001_Node000007" class="edge">
<title>Node1&#45;&gt;Node7</title>
<g id="a_edge6_Node000001_Node000007"><a xlink:title=" ">
<path fill="none" stroke="#63b8ff" d="M591.4,-111C601.75,-111 612.24,-111 622.37,-111"/>
<polygon fill="#63b8ff" stroke="#63b8ff" points="591.11,-107.5 581.11,-111 591.11,-114.5 591.11,-107.5"/>
</a>
</g>
</g>
<!-- Node8 -->
<g id="Node000008" class="node">
<title>Node8</title>
<g id="a_Node000008"><a xlink:href="classuniot_1_1_network_controller.html" target="_top" xlink:title=" ">
<polygon fill="white" stroke="#666666" points="771,-78 619,-78 619,-48 771,-48 771,-78"/>
<text text-anchor="start" x="627" y="-66" font-family="Helvetica,sans-Serif" font-size="10.00">uniot::NetworkController</text>
<text text-anchor="middle" x="695" y="-55" font-family="Helvetica,sans-Serif" font-size="10.00">&lt; unsigned int, int, Bytes &gt;</text>
</a>
</g>
</g>
<!-- Node1&#45;&gt;Node8 -->
<g id="edge7_Node000001_Node000008" class="edge">
<title>Node1&#45;&gt;Node8</title>
<g id="a_edge7_Node000001_Node000008"><a xlink:title=" ">
<path fill="none" stroke="#63b8ff" d="M574.86,-93.42C594.67,-88.36 616.1,-82.89 635.24,-78"/>
<polygon fill="#63b8ff" stroke="#63b8ff" points="573.79,-90.08 564.97,-95.94 575.52,-96.86 573.79,-90.08"/>
</a>
</g>
</g>
<!-- Node9 -->
<g id="Node000009" class="node">
<title>Node9</title>
<g id="a_Node000009"><a xlink:href="classuniot_1_1un_lisp.html" target="_top" xlink:title=" ">
<polygon fill="white" stroke="#666666" points="762,-30 628,-30 628,0 762,0 762,-30"/>
<text text-anchor="start" x="636" y="-18" font-family="Helvetica,sans-Serif" font-size="10.00">uniot::unLisp&lt; unsigned</text>
<text text-anchor="middle" x="695" y="-7" font-family="Helvetica,sans-Serif" font-size="10.00"> int, int, Bytes &gt;</text>
</a>
</g>
</g>
<!-- Node1&#45;&gt;Node9 -->
<g id="edge8_Node000001_Node000009" class="edge">
<title>Node1&#45;&gt;Node9</title>
<g id="a_edge8_Node000001_Node000009"><a xlink:title=" ">
<path fill="none" stroke="#63b8ff" d="M533.6,-90.04C555.34,-74.31 586.89,-53.13 617,-39 623.97,-35.73 631.5,-32.75 639.03,-30.1"/>
<polygon fill="#63b8ff" stroke="#63b8ff" points="531.48,-87.25 525.49,-95.99 535.62,-92.9 531.48,-87.25"/>
</a>
</g>
</g>
<!-- Node2 -->
<g id="Node000002" class="node">
<title>Node2</title>
<g id="a_Node000002"><a xlink:href="classuniot_1_1_event_emitter.html" target="_top" xlink:title=" ">
<polygon fill="white" stroke="#666666" points="393,-131.5 280,-131.5 280,-90.5 393,-90.5 393,-131.5"/>
<text text-anchor="start" x="288" y="-119.5" font-family="Helvetica,sans-Serif" font-size="10.00">uniot::EventEmitter</text>
<text text-anchor="start" x="288" y="-108.5" font-family="Helvetica,sans-Serif" font-size="10.00">&lt; T_topic, T_msg, T</text>
<text text-anchor="middle" x="336.5" y="-97.5" font-family="Helvetica,sans-Serif" font-size="10.00">_data &gt;</text>
</a>
</g>
</g>
<!-- Node2&#45;&gt;Node1 -->
<g id="edge1_Node000001_Node000002" class="edge">
<title>Node2&#45;&gt;Node1</title>
<g id="a_edge1_Node000001_Node000002"><a xlink:title=" ">
<path fill="none" stroke="#63b8ff" d="M403.68,-111C411.91,-111 420.37,-111 428.72,-111"/>
<polygon fill="#63b8ff" stroke="#63b8ff" points="403.41,-107.5 393.41,-111 403.41,-114.5 403.41,-107.5"/>
</a>
</g>
</g>
<!-- Node3 -->
<g id="Node000003" class="node">
<title>Node3</title>
<g id="a_Node000003"><a xlink:href="classuniot_1_1_event_entity.html" target="_top" xlink:title="Entity that can connect to and interact with EventBus instances.">
<polygon fill="white" stroke="#666666" points="244,-131.5 131,-131.5 131,-90.5 244,-90.5 244,-131.5"/>
<text text-anchor="start" x="139" y="-119.5" font-family="Helvetica,sans-Serif" font-size="10.00">uniot::EventEntity</text>
<text text-anchor="start" x="139" y="-108.5" font-family="Helvetica,sans-Serif" font-size="10.00">&lt; T_topic, T_msg, T</text>
<text text-anchor="middle" x="187.5" y="-97.5" font-family="Helvetica,sans-Serif" font-size="10.00">_data &gt;</text>
</a>
</g>
</g>
<!-- Node3&#45;&gt;Node2 -->
<g id="edge2_Node000002_Node000003" class="edge">
<title>Node3&#45;&gt;Node2</title>
<g id="a_edge2_Node000002_Node000003"><a xlink:title=" ">
<path fill="none" stroke="#63b8ff" d="M254.08,-111C262.68,-111 271.43,-111 279.85,-111"/>
<polygon fill="#63b8ff" stroke="#63b8ff" points="254.07,-107.5 244.07,-111 254.07,-114.5 254.07,-107.5"/>
</a>
</g>
</g>
<!-- Node4 -->
<g id="Node000004" class="node">
<title>Node4</title>
<g id="a_Node000004"><a xlink:href="classuniot_1_1_i_with_type.html" target="_top" xlink:title="Interface for objects that expose their runtime type information.">
<polygon fill="white" stroke="#666666" points="95,-120.5 0,-120.5 0,-101.5 95,-101.5 95,-120.5"/>
<text text-anchor="middle" x="47.5" y="-108.5" font-family="Helvetica,sans-Serif" font-size="10.00">uniot::IWithType</text>
</a>
</g>
</g>
<!-- Node4&#45;&gt;Node3 -->
<g id="edge3_Node000003_Node000004" class="edge">
<title>Node4&#45;&gt;Node3</title>
<g id="a_edge3_Node000003_Node000004"><a xlink:title=" ">
<path fill="none" stroke="#63b8ff" d="M105.31,-111C113.72,-111 122.37,-111 130.76,-111"/>
<polygon fill="#63b8ff" stroke="#63b8ff" points="105.22,-107.5 95.22,-111 105.22,-114.5 105.22,-107.5"/>
</a>
</g>
</g>
</g>
</svg>
