<?xml version="1.0" encoding="UTF-8" standalone="no"?>
<!DOCTYPE svg PUBLIC "-//W3C//DTD SVG 1.1//EN"
 "http://www.w3.org/Graphics/SVG/1.1/DTD/svg11.dtd">
<!-- Generated by graphviz version 2.43.0 (0)
 -->
<!-- Title: IterableQueue&lt; T &gt; Pages: 1 -->
<svg width="463pt" height="356pt"
 viewBox="0.00 0.00 463.00 356.00" xmlns="http://www.w3.org/2000/svg" xmlns:xlink="http://www.w3.org/1999/xlink">
<g id="graph0" class="graph" transform="scale(1 1) rotate(0) translate(4 352)">
<title>IterableQueue&lt; T &gt;</title>
<!-- Node1 -->
<g id="Node000001" class="node">
<title>Node1</title>
<g id="a_Node000001"><a xlink:title=" ">
<polygon fill="#999999" stroke="#666666" points="252,-177 138,-177 138,-158 252,-158 252,-177"/>
<text text-anchor="middle" x="195" y="-165" font-family="Helvetica,sans-Serif" font-size="10.00">IterableQueue&lt; T &gt;</text>
</a>
</g>
</g>
<!-- Node3 -->
<g id="Node000003" class="node">
<title>Node3</title>
<g id="a_Node000003"><a xlink:href="classuniot_1_1_map.html" target="_top" xlink:title=" ">
<polygon fill="white" stroke="#666666" points="435.5,-348 307.5,-348 307.5,-307 435.5,-307 435.5,-348"/>
<text text-anchor="start" x="315.5" y="-336" font-family="Helvetica,sans-Serif" font-size="10.00">uniot::Map&lt; String,</text>
<text text-anchor="start" x="315.5" y="-325" font-family="Helvetica,sans-Serif" font-size="10.00"> SharedPointer&lt; uniot</text>
<text text-anchor="middle" x="371.5" y="-314" font-family="Helvetica,sans-Serif" font-size="10.00">::Array&lt; uint8_t &gt; &gt; &gt;</text>
</a>
</g>
</g>
<!-- Node1&#45;&gt;Node3 -->
<g id="edge2_Node000001_Node000003" class="edge">
<title>Node1&#45;&gt;Node3</title>
<g id="a_edge2_Node000001_Node000003"><a xlink:title=" ">
<path fill="none" stroke="#63b8ff" d="M204.66,-186.3C218.47,-214.33 248.06,-267.02 288,-297.5 293.82,-301.94 300.35,-305.77 307.13,-309.06"/>
<polygon fill="#63b8ff" stroke="#63b8ff" points="207.77,-184.69 200.3,-177.18 201.45,-187.71 207.77,-184.69"/>
</a>
</g>
</g>
<!-- Node4 -->
<g id="Node000004" class="node">
<title>Node4</title>
<g id="a_Node000004"><a xlink:href="classuniot_1_1_map.html" target="_top" xlink:title=" ">
<polygon fill="white" stroke="#666666" points="433.5,-288.5 309.5,-288.5 309.5,-236.5 433.5,-236.5 433.5,-288.5"/>
<text text-anchor="start" x="317.5" y="-276.5" font-family="Helvetica,sans-Serif" font-size="10.00">uniot::Map&lt; String,</text>
<text text-anchor="start" x="317.5" y="-265.5" font-family="Helvetica,sans-Serif" font-size="10.00"> SharedPointer&lt; uniot</text>
<text text-anchor="start" x="317.5" y="-254.5" font-family="Helvetica,sans-Serif" font-size="10.00">::Array&lt; Pair&lt; uint32</text>
<text text-anchor="middle" x="371.5" y="-243.5" font-family="Helvetica,sans-Serif" font-size="10.00">_t, RecordPtr &gt; &gt; &gt; &gt;</text>
</a>
</g>
</g>
<!-- Node1&#45;&gt;Node4 -->
<g id="edge3_Node000001_Node000004" class="edge">
<title>Node1&#45;&gt;Node4</title>
<g id="a_edge3_Node000001_Node000004"><a xlink:title=" ">
<path fill="none" stroke="#63b8ff" d="M217.13,-182.82C235.37,-195.67 262.69,-214.01 288,-227.5 294.73,-231.08 301.9,-234.58 309.11,-237.89"/>
<polygon fill="#63b8ff" stroke="#63b8ff" points="219.13,-179.95 208.96,-177.01 215.08,-185.66 219.13,-179.95"/>
</a>
</g>
</g>
<!-- Node5 -->
<g id="Node000005" class="node">
<title>Node5</title>
<g id="a_Node000005"><a xlink:href="classuniot_1_1_map.html" target="_top" xlink:title=" ">
<polygon fill="white" stroke="#666666" points="455,-218 288,-218 288,-177 455,-177 455,-218"/>
<text text-anchor="start" x="296" y="-206" font-family="Helvetica,sans-Serif" font-size="10.00">uniot::Map&lt; T_channel,</text>
<text text-anchor="start" x="296" y="-195" font-family="Helvetica,sans-Serif" font-size="10.00"> SharedPointer&lt; LimitedQueue</text>
<text text-anchor="middle" x="371.5" y="-184" font-family="Helvetica,sans-Serif" font-size="10.00">&lt; T_data &gt; &gt; &gt;</text>
</a>
</g>
</g>
<!-- Node1&#45;&gt;Node5 -->
<g id="edge4_Node000001_Node000005" class="edge">
<title>Node1&#45;&gt;Node5</title>
<g id="a_edge4_Node000001_Node000005"><a xlink:title=" ">
<path fill="none" stroke="#63b8ff" d="M261.64,-178.78C270.24,-180.26 279.15,-181.79 287.99,-183.31"/>
<polygon fill="#63b8ff" stroke="#63b8ff" points="262.14,-175.32 251.69,-177.07 260.96,-182.22 262.14,-175.32"/>
</a>
</g>
</g>
<!-- Node6 -->
<g id="Node000006" class="node">
<title>Node6</title>
<g id="a_Node000006"><a xlink:href="classuniot_1_1_map.html" target="_top" xlink:title=" ">
<polygon fill="white" stroke="#666666" points="455,-159 288,-159 288,-118 455,-118 455,-159"/>
<text text-anchor="start" x="296" y="-147" font-family="Helvetica,sans-Serif" font-size="10.00">uniot::Map&lt; T_topic,</text>
<text text-anchor="start" x="296" y="-136" font-family="Helvetica,sans-Serif" font-size="10.00"> SharedPointer&lt; LimitedQueue</text>
<text text-anchor="middle" x="371.5" y="-125" font-family="Helvetica,sans-Serif" font-size="10.00">&lt; T_data &gt; &gt; &gt;</text>
</a>
</g>
</g>
<!-- Node1&#45;&gt;Node6 -->
<g id="edge5_Node000001_Node000006" class="edge">
<title>Node1&#45;&gt;Node6</title>
<g id="a_edge5_Node000001_Node000006"><a xlink:title=" ">
<path fill="none" stroke="#63b8ff" d="M262.2,-156.5C270.56,-155.11 279.18,-153.68 287.75,-152.25"/>
<polygon fill="#63b8ff" stroke="#63b8ff" points="261.46,-153.07 252.17,-158.16 262.61,-159.98 261.46,-153.07"/>
</a>
</g>
</g>
<!-- Node7 -->
<g id="Node000007" class="node">
<title>Node7</title>
<g id="a_Node000007"><a xlink:href="classuniot_1_1_map.html" target="_top" xlink:title=" ">
<polygon fill="white" stroke="#666666" points="433.5,-100 309.5,-100 309.5,-59 433.5,-59 433.5,-100"/>
<text text-anchor="start" x="317.5" y="-88" font-family="Helvetica,sans-Serif" font-size="10.00">uniot::Map&lt; String,</text>
<text text-anchor="start" x="317.5" y="-77" font-family="Helvetica,sans-Serif" font-size="10.00"> SharedPointer&lt; uniot</text>
<text text-anchor="middle" x="371.5" y="-66" font-family="Helvetica,sans-Serif" font-size="10.00">::Array&lt; T &gt; &gt; &gt;</text>
</a>
</g>
</g>
<!-- Node1&#45;&gt;Node7 -->
<g id="edge6_Node000001_Node000007" class="edge">
<title>Node1&#45;&gt;Node7</title>
<g id="a_edge6_Node000001_Node000007"><a xlink:title=" ">
<path fill="none" stroke="#63b8ff" d="M216.96,-152.05C235.09,-139.19 262.36,-121.02 288,-108.5 294.82,-105.17 302.13,-102.03 309.46,-99.14"/>
<polygon fill="#63b8ff" stroke="#63b8ff" points="214.92,-149.21 208.84,-157.89 219,-154.9 214.92,-149.21"/>
</a>
</g>
</g>
<!-- Node8 -->
<g id="Node000008" class="node">
<title>Node8</title>
<g id="a_Node000008"><a xlink:href="classuniot_1_1_map.html" target="_top" xlink:title=" ">
<polygon fill="white" stroke="#666666" points="455,-41 288,-41 288,0 455,0 455,-41"/>
<text text-anchor="start" x="296" y="-29" font-family="Helvetica,sans-Serif" font-size="10.00">uniot::Map&lt; String,</text>
<text text-anchor="start" x="296" y="-18" font-family="Helvetica,sans-Serif" font-size="10.00"> SharedPointer&lt; LimitedQueue</text>
<text text-anchor="middle" x="371.5" y="-7" font-family="Helvetica,sans-Serif" font-size="10.00">&lt; Bytes &gt; &gt; &gt;</text>
</a>
</g>
</g>
<!-- Node1&#45;&gt;Node8 -->
<g id="edge7_Node000001_Node000008" class="edge">
<title>Node1&#45;&gt;Node8</title>
<g id="a_edge7_Node000001_Node000008"><a xlink:title=" ">
<path fill="none" stroke="#63b8ff" d="M205.9,-148.93C220.57,-123.12 250.41,-76.53 288,-49.5 292.31,-46.4 296.99,-43.6 301.85,-41.09"/>
<polygon fill="#63b8ff" stroke="#63b8ff" points="202.82,-147.28 201.04,-157.72 208.95,-150.66 202.82,-147.28"/>
</a>
</g>
</g>
<!-- Node2 -->
<g id="Node000002" class="node">
<title>Node2</title>
<g id="a_Node000002"><a xlink:href="class_clear_queue.html" target="_top" xlink:title=" ">
<polygon fill="white" stroke="#666666" points="102,-177 0,-177 0,-158 102,-158 102,-177"/>
<text text-anchor="middle" x="51" y="-165" font-family="Helvetica,sans-Serif" font-size="10.00">ClearQueue&lt; T &gt;</text>
</a>
</g>
</g>
<!-- Node2&#45;&gt;Node1 -->
<g id="edge1_Node000001_Node000002" class="edge">
<title>Node2&#45;&gt;Node1</title>
<g id="a_edge1_Node000001_Node000002"><a xlink:title=" ">
<path fill="none" stroke="#63b8ff" d="M112.2,-167.5C120.63,-167.5 129.26,-167.5 137.61,-167.5"/>
<polygon fill="#63b8ff" stroke="#63b8ff" points="112.06,-164 102.06,-167.5 112.06,-171 112.06,-164"/>
</a>
</g>
</g>
</g>
</svg>
