<?xml version="1.0" encoding="UTF-8" standalone="no"?>
<!DOCTYPE svg PUBLIC "-//W3C//DTD SVG 1.1//EN"
 "http://www.w3.org/Graphics/SVG/1.1/DTD/svg11.dtd">
<!-- Generated by graphviz version 2.43.0 (0)
 -->
<!-- Title: Graphical Class Hierarchy Pages: 1 -->
<svg width="867pt" height="519pt"
 viewBox="0.00 0.00 867.00 519.00" xmlns="http://www.w3.org/2000/svg" xmlns:xlink="http://www.w3.org/1999/xlink">
<g id="graph0" class="graph" transform="scale(1 1) rotate(0) translate(4 515)">
<title>Graphical Class Hierarchy</title>
<!-- Node0 -->
<g id="Node000000" class="node">
<title>Node0</title>
<g id="a_Node000000"><a xlink:href="d7/d7c/classuniot_1_1_i_c_o_s_e_signer.html" target="_top" xlink:title="Interface for CBOR Object Signing and Encryption (COSE) signing operations.">
<polygon fill="white" stroke="#666666" points="445.5,-511 338.5,-511 338.5,-492 445.5,-492 445.5,-511"/>
<text text-anchor="middle" x="392" y="-499" font-family="Helvetica,sans-Serif" font-size="10.00">uniot::ICOSESigner</text>
</a>
</g>
</g>
<!-- Node1 -->
<g id="Node000001" class="node">
<title>Node1</title>
<g id="a_Node000001"><a xlink:href="d7/d53/classuniot_1_1_credentials.html" target="_top" xlink:title="Manages device identity and cryptographic credentials for Uniot devices.">
<polygon fill="white" stroke="#666666" points="635,-511 532,-511 532,-492 635,-492 635,-511"/>
<text text-anchor="middle" x="583.5" y="-499" font-family="Helvetica,sans-Serif" font-size="10.00">uniot::Credentials</text>
</a>
</g>
</g>
<!-- Node0&#45;&gt;Node1 -->
<g id="edge20_Node000000_Node000001" class="edge">
<title>Node0&#45;&gt;Node1</title>
<g id="a_edge20_Node000000_Node000001"><a xlink:title=" ">
<path fill="none" stroke="#63b8ff" d="M455.55,-501.5C480.3,-501.5 508.38,-501.5 531.83,-501.5"/>
<polygon fill="#63b8ff" stroke="#63b8ff" points="455.53,-498 445.53,-501.5 455.53,-505 455.53,-498"/>
</a>
</g>
</g>
<!-- Node19 -->
<g id="Node000019" class="node">
<title>Node19</title>
<g id="a_Node000019"><a xlink:href="da/def/classuniot_1_1_i_event_bus_connection_kit.html" target="_top" xlink:title=" ">
<polygon fill="white" stroke="#666666" points="666,-473.5 501,-473.5 501,-443.5 666,-443.5 666,-473.5"/>
<text text-anchor="start" x="509" y="-461.5" font-family="Helvetica,sans-Serif" font-size="10.00">uniot::IEventBusConnection</text>
<text text-anchor="middle" x="583.5" y="-450.5" font-family="Helvetica,sans-Serif" font-size="10.00">Kit&lt; T_topic, T_msg, T_data &gt;</text>
</a>
</g>
</g>
<!-- Node18 -->
<g id="Node000018" class="node">
<title>Node18</title>
<g id="a_Node000018"><a xlink:href="d8/d96/classuniot_1_1_app_kit.html" target="_top" xlink:title=" ">
<polygon fill="white" stroke="#666666" points="821,-425 741,-425 741,-406 821,-406 821,-425"/>
<text text-anchor="middle" x="781" y="-413" font-family="Helvetica,sans-Serif" font-size="10.00">uniot::AppKit</text>
</a>
</g>
</g>
<!-- Node19&#45;&gt;Node18 -->
<g id="edge21_Node000019_Node000018" class="edge">
<title>Node19&#45;&gt;Node18</title>
<g id="a_edge21_Node000019_Node000018"><a xlink:title=" ">
<path fill="none" stroke="#63b8ff" d="M662.65,-441.31C689.46,-435.41 718.33,-429.06 740.73,-424.14"/>
<polygon fill="#63b8ff" stroke="#63b8ff" points="661.89,-437.89 652.88,-443.46 663.39,-444.73 661.89,-437.89"/>
</a>
</g>
</g>
<!-- Node4 -->
<g id="Node000004" class="node">
<title>Node4</title>
<g id="a_Node000004"><a xlink:href="df/de7/classuniot_1_1_i_executor.html" target="_top" xlink:title="Interface for executing tasks in the scheduler system.">
<polygon fill="white" stroke="#666666" points="253.5,-124 161.5,-124 161.5,-105 253.5,-105 253.5,-124"/>
<text text-anchor="middle" x="207.5" y="-112" font-family="Helvetica,sans-Serif" font-size="10.00">uniot::IExecutor</text>
</a>
</g>
</g>
<!-- Node5 -->
<g id="Node000005" class="node">
<title>Node5</title>
<g id="a_Node000005"><a xlink:href="de/d83/classuniot_1_1_button.html" target="_top" xlink:title=" ">
<polygon fill="white" stroke="#666666" points="432,-181 352,-181 352,-162 432,-162 432,-181"/>
<text text-anchor="middle" x="392" y="-169" font-family="Helvetica,sans-Serif" font-size="10.00">uniot::Button</text>
</a>
</g>
</g>
<!-- Node4&#45;&gt;Node5 -->
<g id="edge22_Node000004_Node000005" class="edge">
<title>Node4&#45;&gt;Node5</title>
<g id="a_edge22_Node000004_Node000005"><a xlink:title=" ">
<path fill="none" stroke="#63b8ff" d="M249.02,-127.16C282.66,-137.66 329.79,-152.38 360.35,-161.93"/>
<polygon fill="#63b8ff" stroke="#63b8ff" points="249.64,-123.68 239.05,-124.04 247.55,-130.36 249.64,-123.68"/>
</a>
</g>
</g>
<!-- Node25 -->
<g id="Node000025" class="node">
<title>Node25</title>
<g id="a_Node000025"><a xlink:href="d2/dc9/classuniot_1_1_config_captive_portal.html" target="_top" xlink:title=" ">
<polygon fill="white" stroke="#666666" points="464,-105 320,-105 320,-86 464,-86 464,-105"/>
<text text-anchor="middle" x="392" y="-93" font-family="Helvetica,sans-Serif" font-size="10.00">uniot::ConfigCaptivePortal</text>
</a>
</g>
</g>
<!-- Node4&#45;&gt;Node25 -->
<g id="edge23_Node000004_Node000025" class="edge">
<title>Node4&#45;&gt;Node25</title>
<g id="a_edge23_Node000004_Node000025"><a xlink:title=" ">
<path fill="none" stroke="#63b8ff" d="M263.73,-108.75C281.37,-106.91 301.16,-104.85 319.77,-102.92"/>
<polygon fill="#63b8ff" stroke="#63b8ff" points="263.2,-105.29 253.61,-109.8 263.92,-112.25 263.2,-105.29"/>
</a>
</g>
</g>
<!-- Node3 -->
<g id="Node000003" class="node">
<title>Node3</title>
<g id="a_Node000003"><a xlink:href="d9/d78/classuniot_1_1_date.html" target="_top" xlink:title=" ">
<polygon fill="white" stroke="#666666" points="619,-112 548,-112 548,-93 619,-93 619,-112"/>
<text text-anchor="middle" x="583.5" y="-100" font-family="Helvetica,sans-Serif" font-size="10.00">uniot::Date</text>
</a>
</g>
</g>
<!-- Node4&#45;&gt;Node3 -->
<g id="edge24_Node000004_Node000003" class="edge">
<title>Node4&#45;&gt;Node3</title>
<g id="a_edge24_Node000004_Node000003"><a xlink:title=" ">
<path fill="none" stroke="#63b8ff" d="M264.06,-115.7C315.84,-116.48 395.19,-116.82 464,-113.5 492.27,-112.14 524.22,-109.08 547.82,-106.54"/>
<polygon fill="#63b8ff" stroke="#63b8ff" points="263.82,-112.2 253.76,-115.53 263.7,-119.19 263.82,-112.2"/>
</a>
</g>
</g>
<!-- Node26 -->
<g id="Node000026" class="node">
<title>Node26</title>
<g id="a_Node000026"><a xlink:href="d4/d9a/classuniot_1_1_event_bus.html" target="_top" xlink:title=" ">
<polygon fill="white" stroke="#666666" points="459,-67.5 325,-67.5 325,-37.5 459,-37.5 459,-67.5"/>
<text text-anchor="start" x="333" y="-55.5" font-family="Helvetica,sans-Serif" font-size="10.00">uniot::EventBus&lt; T</text>
<text text-anchor="middle" x="392" y="-44.5" font-family="Helvetica,sans-Serif" font-size="10.00">_topic, T_msg, T_data &gt;</text>
</a>
</g>
</g>
<!-- Node4&#45;&gt;Node26 -->
<g id="edge25_Node000004_Node000026" class="edge">
<title>Node4&#45;&gt;Node26</title>
<g id="a_edge25_Node000004_Node000026"><a xlink:title=" ">
<path fill="none" stroke="#63b8ff" d="M245.93,-101.72C267.56,-94.34 295.31,-84.88 320,-76.5 328.5,-73.61 337.58,-70.54 346.3,-67.59"/>
<polygon fill="#63b8ff" stroke="#63b8ff" points="244.78,-98.41 236.45,-104.95 247.04,-105.04 244.78,-98.41"/>
</a>
</g>
</g>
<!-- Node17 -->
<g id="Node000017" class="node">
<title>Node17</title>
<g id="a_Node000017"><a xlink:href="d1/d38/classuniot_1_1_i_scheduler_connection_kit.html" target="_top" xlink:title="Interface for connecting components to the TaskScheduler.">
<polygon fill="white" stroke="#666666" points="667,-349 500,-349 500,-330 667,-330 667,-349"/>
<text text-anchor="middle" x="583.5" y="-337" font-family="Helvetica,sans-Serif" font-size="10.00">uniot::ISchedulerConnectionKit</text>
</a>
</g>
</g>
<!-- Node17&#45;&gt;Node18 -->
<g id="edge26_Node000017_Node000018" class="edge">
<title>Node17&#45;&gt;Node18</title>
<g id="a_edge26_Node000017_Node000018"><a xlink:title=" ">
<path fill="none" stroke="#63b8ff" d="M618.66,-352.78C657.77,-367.98 720.88,-392.52 755.44,-405.95"/>
<polygon fill="#63b8ff" stroke="#63b8ff" points="619.85,-349.49 609.26,-349.13 617.31,-356.01 619.85,-349.49"/>
</a>
</g>
</g>
<!-- Node16 -->
<g id="Node000016" class="node">
<title>Node16</title>
<g id="a_Node000016"><a xlink:href="de/dc8/classuniot_1_1_m_q_t_t_kit.html" target="_top" xlink:title=" ">
<polygon fill="white" stroke="#666666" points="825.5,-275 736.5,-275 736.5,-256 825.5,-256 825.5,-275"/>
<text text-anchor="middle" x="781" y="-263" font-family="Helvetica,sans-Serif" font-size="10.00">uniot::MQTTKit</text>
</a>
</g>
</g>
<!-- Node17&#45;&gt;Node16 -->
<g id="edge27_Node000017_Node000016" class="edge">
<title>Node17&#45;&gt;Node16</title>
<g id="a_edge27_Node000017_Node000016"><a xlink:title=" ">
<path fill="none" stroke="#63b8ff" d="M656.76,-326.41C660.3,-324.95 663.73,-323.31 667,-321.5 687.06,-310.36 683.09,-295.91 703,-284.5 713.15,-278.68 725.05,-274.63 736.42,-271.82"/>
<polygon fill="#63b8ff" stroke="#63b8ff" points="655.38,-323.19 647.2,-329.93 657.8,-329.76 655.38,-323.19"/>
</a>
</g>
</g>
<!-- Node21 -->
<g id="Node000021" class="node">
<title>Node21</title>
<g id="a_Node000021"><a xlink:href="d4/db4/classuniot_1_1_network_controller.html" target="_top" xlink:title=" ">
<polygon fill="white" stroke="#666666" points="849.5,-349 712.5,-349 712.5,-330 849.5,-330 849.5,-349"/>
<text text-anchor="middle" x="781" y="-337" font-family="Helvetica,sans-Serif" font-size="10.00">uniot::NetworkController</text>
</a>
</g>
</g>
<!-- Node17&#45;&gt;Node21 -->
<g id="edge28_Node000017_Node000021" class="edge">
<title>Node17&#45;&gt;Node21</title>
<g id="a_edge28_Node000017_Node000021"><a xlink:title=" ">
<path fill="none" stroke="#63b8ff" d="M677.46,-339.5C689.26,-339.5 701.15,-339.5 712.45,-339.5"/>
<polygon fill="#63b8ff" stroke="#63b8ff" points="677.13,-336 667.13,-339.5 677.13,-343 677.13,-336"/>
</a>
</g>
</g>
<!-- Node22 -->
<g id="Node000022" class="node">
<title>Node22</title>
<g id="a_Node000022"><a xlink:href="dc/d30/classuniot_1_1_network_scheduler.html" target="_top" xlink:title=" ">
<polygon fill="white" stroke="#666666" points="849.5,-312 712.5,-312 712.5,-293 849.5,-293 849.5,-312"/>
<text text-anchor="middle" x="781" y="-300" font-family="Helvetica,sans-Serif" font-size="10.00">uniot::NetworkScheduler</text>
</a>
</g>
</g>
<!-- Node17&#45;&gt;Node22 -->
<g id="edge29_Node000017_Node000022" class="edge">
<title>Node17&#45;&gt;Node22</title>
<g id="a_edge29_Node000017_Node000022"><a xlink:title=" ">
<path fill="none" stroke="#63b8ff" d="M644.99,-328.05C672.09,-322.92 703.68,-316.94 729.49,-312.06"/>
<polygon fill="#63b8ff" stroke="#63b8ff" points="644.02,-324.67 634.85,-329.97 645.32,-331.55 644.02,-324.67"/>
</a>
</g>
</g>
<!-- Node7 -->
<g id="Node000007" class="node">
<title>Node7</title>
<g id="a_Node000007"><a xlink:href="dd/dbd/classuniot_1_1_i_with_type.html" target="_top" xlink:title="Interface for objects that expose their runtime type information.">
<polygon fill="white" stroke="#666666" points="95,-205 0,-205 0,-186 95,-186 95,-205"/>
<text text-anchor="middle" x="47.5" y="-193" font-family="Helvetica,sans-Serif" font-size="10.00">uniot::IWithType</text>
</a>
</g>
</g>
<!-- Node8 -->
<g id="Node000008" class="node">
<title>Node8</title>
<g id="a_Node000008"><a xlink:href="d5/d5e/classuniot_1_1_event_entity.html" target="_top" xlink:title="Entity that can connect to and interact with EventBus instances.">
<polygon fill="white" stroke="#666666" points="264,-240 151,-240 151,-199 264,-199 264,-240"/>
<text text-anchor="start" x="159" y="-228" font-family="Helvetica,sans-Serif" font-size="10.00">uniot::EventEntity</text>
<text text-anchor="start" x="159" y="-217" font-family="Helvetica,sans-Serif" font-size="10.00">&lt; T_topic, T_msg, T</text>
<text text-anchor="middle" x="207.5" y="-206" font-family="Helvetica,sans-Serif" font-size="10.00">_data &gt;</text>
</a>
</g>
</g>
<!-- Node7&#45;&gt;Node8 -->
<g id="edge30_Node000007_Node000008" class="edge">
<title>Node7&#45;&gt;Node8</title>
<g id="a_edge30_Node000007_Node000008"><a xlink:title=" ">
<path fill="none" stroke="#63b8ff" d="M105.12,-204.1C119.98,-206.36 135.99,-208.79 150.8,-211.04"/>
<polygon fill="#63b8ff" stroke="#63b8ff" points="105.46,-200.61 95.05,-202.57 104.41,-207.53 105.46,-200.61"/>
</a>
</g>
</g>
<!-- Node6 -->
<g id="Node000006" class="node">
<title>Node6</title>
<g id="a_Node000006"><a xlink:href="dc/dc9/classuniot_1_1_object_register_record.html" target="_top" xlink:title=" ">
<polygon fill="white" stroke="#666666" points="284,-181 131,-181 131,-162 284,-162 284,-181"/>
<text text-anchor="middle" x="207.5" y="-169" font-family="Helvetica,sans-Serif" font-size="10.00">uniot::ObjectRegisterRecord</text>
</a>
</g>
</g>
<!-- Node7&#45;&gt;Node6 -->
<g id="edge40_Node000007_Node000006" class="edge">
<title>Node7&#45;&gt;Node6</title>
<g id="a_edge40_Node000007_Node000006"><a xlink:title=" ">
<path fill="none" stroke="#63b8ff" d="M104.96,-186.92C117.58,-185.01 131.03,-182.96 143.88,-181.01"/>
<polygon fill="#63b8ff" stroke="#63b8ff" points="104.41,-183.47 95.05,-188.43 105.46,-190.39 104.41,-183.47"/>
</a>
</g>
</g>
<!-- Node9 -->
<g id="Node000009" class="node">
<title>Node9</title>
<g id="a_Node000009"><a xlink:href="d0/d4c/classuniot_1_1_event_emitter.html" target="_top" xlink:title=" ">
<polygon fill="white" stroke="#666666" points="448.5,-240 335.5,-240 335.5,-199 448.5,-199 448.5,-240"/>
<text text-anchor="start" x="343.5" y="-228" font-family="Helvetica,sans-Serif" font-size="10.00">uniot::EventEmitter</text>
<text text-anchor="start" x="343.5" y="-217" font-family="Helvetica,sans-Serif" font-size="10.00">&lt; T_topic, T_msg, T</text>
<text text-anchor="middle" x="392" y="-206" font-family="Helvetica,sans-Serif" font-size="10.00">_data &gt;</text>
</a>
</g>
</g>
<!-- Node8&#45;&gt;Node9 -->
<g id="edge31_Node000008_Node000009" class="edge">
<title>Node8&#45;&gt;Node9</title>
<g id="a_edge31_Node000008_Node000009"><a xlink:title=" ">
<path fill="none" stroke="#63b8ff" d="M274.49,-219.5C294.42,-219.5 316.09,-219.5 335.28,-219.5"/>
<polygon fill="#63b8ff" stroke="#63b8ff" points="274.25,-216 264.25,-219.5 274.25,-223 274.25,-216"/>
</a>
</g>
</g>
<!-- Node9&#45;&gt;Node3 -->
<g id="edge32_Node000009_Node000003" class="edge">
<title>Node9&#45;&gt;Node3</title>
<g id="a_edge32_Node000009_Node000003"><a xlink:title=" ">
<path fill="none" stroke="#63b8ff" d="M457.14,-194.92C459.54,-193.22 461.84,-191.41 464,-189.5 488.12,-168.1 474.67,-146.46 500,-126.5 513.59,-115.79 531.8,-109.86 547.66,-106.57"/>
<polygon fill="#63b8ff" stroke="#63b8ff" points="455.22,-191.99 448.65,-200.3 458.97,-197.91 455.22,-191.99"/>
</a>
</g>
</g>
<!-- Node9&#45;&gt;Node22 -->
<g id="edge39_Node000009_Node000022" class="edge">
<title>Node9&#45;&gt;Node22</title>
<g id="a_edge39_Node000009_Node000022"><a xlink:title=" ">
<path fill="none" stroke="#63b8ff" d="M458.54,-235.84C472.22,-239.13 486.56,-242.5 500,-245.5 580.37,-263.44 674.24,-282.08 730.31,-292.97"/>
<polygon fill="#63b8ff" stroke="#63b8ff" points="459.26,-232.41 448.72,-233.46 457.61,-239.21 459.26,-232.41"/>
</a>
</g>
</g>
<!-- Node10 -->
<g id="Node000010" class="node">
<title>Node10</title>
<g id="a_Node000010"><a xlink:href="d4/d8a/classuniot_1_1_event_listener.html" target="_top" xlink:title=" ">
<polygon fill="white" stroke="#666666" points="659.5,-236.5 507.5,-236.5 507.5,-206.5 659.5,-206.5 659.5,-236.5"/>
<text text-anchor="start" x="515.5" y="-224.5" font-family="Helvetica,sans-Serif" font-size="10.00">uniot::EventListener</text>
<text text-anchor="middle" x="583.5" y="-213.5" font-family="Helvetica,sans-Serif" font-size="10.00">&lt; T_topic, T_msg, T_data &gt;</text>
</a>
</g>
</g>
<!-- Node9&#45;&gt;Node10 -->
<g id="edge33_Node000009_Node000010" class="edge">
<title>Node9&#45;&gt;Node10</title>
<g id="a_edge33_Node000009_Node000010"><a xlink:title=" ">
<path fill="none" stroke="#63b8ff" d="M458.68,-220.19C474.33,-220.36 491.17,-220.54 507.22,-220.71"/>
<polygon fill="#63b8ff" stroke="#63b8ff" points="458.61,-216.69 448.58,-220.09 458.54,-223.69 458.61,-216.69"/>
</a>
</g>
</g>
<!-- Node10&#45;&gt;Node16 -->
<g id="edge36_Node000010_Node000016" class="edge">
<title>Node10&#45;&gt;Node16</title>
<g id="a_edge36_Node000010_Node000016"><a xlink:title=" ">
<path fill="none" stroke="#63b8ff" d="M661.11,-238.74C687.18,-244.61 715.36,-250.95 737.73,-255.99"/>
<polygon fill="#63b8ff" stroke="#63b8ff" points="661.76,-235.3 651.23,-236.52 660.22,-242.13 661.76,-235.3"/>
</a>
</g>
</g>
<!-- Node10&#45;&gt;Node21 -->
<g id="edge37_Node000010_Node000021" class="edge">
<title>Node10&#45;&gt;Node21</title>
<g id="a_edge37_Node000010_Node000021"><a xlink:title=" ">
<path fill="none" stroke="#63b8ff" d="M614.67,-242.88C630.66,-254.63 650.39,-269.77 667,-284.5 684.16,-299.73 683.03,-310.21 703,-321.5 709.1,-324.94 715.82,-327.73 722.68,-329.99"/>
<polygon fill="#63b8ff" stroke="#63b8ff" points="616.35,-239.78 606.2,-236.73 612.23,-245.44 616.35,-239.78"/>
</a>
</g>
</g>
<!-- Node11 -->
<g id="Node000011" class="node">
<title>Node11</title>
<g id="a_Node000011"><a xlink:href="d7/d78/classuniot_1_1_callback_event_listener.html" target="_top" xlink:title=" ">
<polygon fill="white" stroke="#666666" points="859,-236.5 703,-236.5 703,-206.5 859,-206.5 859,-236.5"/>
<text text-anchor="start" x="711" y="-224.5" font-family="Helvetica,sans-Serif" font-size="10.00">uniot::CallbackEventListener</text>
<text text-anchor="middle" x="781" y="-213.5" font-family="Helvetica,sans-Serif" font-size="10.00">&lt; T_topic, T_msg, T_data &gt;</text>
</a>
</g>
</g>
<!-- Node10&#45;&gt;Node11 -->
<g id="edge34_Node000010_Node000011" class="edge">
<title>Node10&#45;&gt;Node11</title>
<g id="a_edge34_Node000010_Node000011"><a xlink:title=" ">
<path fill="none" stroke="#63b8ff" d="M669.62,-221.5C680.69,-221.5 691.98,-221.5 702.91,-221.5"/>
<polygon fill="#63b8ff" stroke="#63b8ff" points="669.53,-218 659.53,-221.5 669.53,-225 669.53,-218"/>
</a>
</g>
</g>
<!-- Node12 -->
<g id="Node000012" class="node">
<title>Node12</title>
<g id="a_Node000012"><a xlink:href="d1/de4/classuniot_1_1_lisp_device.html" target="_top" xlink:title=" ">
<polygon fill="white" stroke="#666666" points="831.5,-150 730.5,-150 730.5,-131 831.5,-131 831.5,-150"/>
<text text-anchor="middle" x="781" y="-138" font-family="Helvetica,sans-Serif" font-size="10.00">uniot::LispDevice</text>
</a>
</g>
</g>
<!-- Node10&#45;&gt;Node12 -->
<g id="edge35_Node000010_Node000012" class="edge">
<title>Node10&#45;&gt;Node12</title>
<g id="a_edge35_Node000010_Node000012"><a xlink:title=" ">
<path fill="none" stroke="#63b8ff" d="M656.24,-202.28C659.96,-200.51 663.57,-198.58 667,-196.5 686.6,-184.57 683.09,-170.91 703,-159.5 711.36,-154.71 720.91,-151.11 730.37,-148.42"/>
<polygon fill="#63b8ff" stroke="#63b8ff" points="654.58,-199.18 646.8,-206.37 657.37,-205.6 654.58,-199.18"/>
</a>
</g>
</g>
<!-- Node23 -->
<g id="Node000023" class="node">
<title>Node23</title>
<g id="a_Node000023"><a xlink:href="d4/d01/classuniot_1_1un_lisp.html" target="_top" xlink:title=" ">
<polygon fill="white" stroke="#666666" points="820.5,-188 741.5,-188 741.5,-169 820.5,-169 820.5,-188"/>
<text text-anchor="middle" x="781" y="-176" font-family="Helvetica,sans-Serif" font-size="10.00">uniot::unLisp</text>
</a>
</g>
</g>
<!-- Node10&#45;&gt;Node23 -->
<g id="edge38_Node000010_Node000023" class="edge">
<title>Node10&#45;&gt;Node23</title>
<g id="a_edge38_Node000010_Node000023"><a xlink:title=" ">
<path fill="none" stroke="#63b8ff" d="M662.72,-204.3C689.74,-198.35 718.84,-191.95 741.29,-187.01"/>
<polygon fill="#63b8ff" stroke="#63b8ff" points="661.89,-200.89 652.88,-206.46 663.39,-207.73 661.89,-200.89"/>
</a>
</g>
</g>
<!-- Node6&#45;&gt;Node5 -->
<g id="edge41_Node000006_Node000005" class="edge">
<title>Node6&#45;&gt;Node5</title>
<g id="a_edge41_Node000006_Node000005"><a xlink:title=" ">
<path fill="none" stroke="#63b8ff" d="M294.24,-171.5C314.44,-171.5 335,-171.5 351.94,-171.5"/>
<polygon fill="#63b8ff" stroke="#63b8ff" points="294.05,-168 284.05,-171.5 294.05,-175 294.05,-168"/>
</a>
</g>
</g>
<!-- Node13 -->
<g id="Node000013" class="node">
<title>Node13</title>
<g id="a_Node000013"><a xlink:href="d1/df4/classuniot_1_1_m_q_t_t_device.html" target="_top" xlink:title=" ">
<polygon fill="white" stroke="#666666" points="638.5,-75 528.5,-75 528.5,-56 638.5,-56 638.5,-75"/>
<text text-anchor="middle" x="583.5" y="-63" font-family="Helvetica,sans-Serif" font-size="10.00">uniot::MQTTDevice</text>
</a>
</g>
</g>
<!-- Node13&#45;&gt;Node12 -->
<g id="edge43_Node000013_Node000012" class="edge">
<title>Node13&#45;&gt;Node12</title>
<g id="a_edge43_Node000013_Node000012"><a xlink:title=" ">
<path fill="none" stroke="#63b8ff" d="M648.36,-77.62C654.73,-79.36 661.04,-81.32 667,-83.5 683.99,-89.71 686.89,-94.27 703,-102.5 722.38,-112.4 744.7,-123.36 760.3,-130.96"/>
<polygon fill="#63b8ff" stroke="#63b8ff" points="648.92,-74.15 638.36,-75.04 647.17,-80.92 648.92,-74.15"/>
</a>
</g>
</g>
<!-- Node14 -->
<g id="Node000014" class="node">
<title>Node14</title>
<g id="a_Node000014"><a xlink:href="dd/d9d/classuniot_1_1_callback_m_q_t_t_device.html" target="_top" xlink:title=" ">
<polygon fill="white" stroke="#666666" points="857,-57 705,-57 705,-38 857,-38 857,-57"/>
<text text-anchor="middle" x="781" y="-45" font-family="Helvetica,sans-Serif" font-size="10.00">uniot::CallbackMQTTDevice</text>
</a>
</g>
</g>
<!-- Node13&#45;&gt;Node14 -->
<g id="edge42_Node000013_Node000014" class="edge">
<title>Node13&#45;&gt;Node14</title>
<g id="a_edge42_Node000013_Node000014"><a xlink:title=" ">
<path fill="none" stroke="#63b8ff" d="M648.75,-59.58C666.69,-57.93 686.33,-56.12 704.83,-54.42"/>
<polygon fill="#63b8ff" stroke="#63b8ff" points="648.33,-56.11 638.7,-60.51 648.98,-63.08 648.33,-56.11"/>
</a>
</g>
</g>
<!-- Node15 -->
<g id="Node000015" class="node">
<title>Node15</title>
<g id="a_Node000015"><a xlink:href="db/d1e/classuniot_1_1_top_device.html" target="_top" xlink:title=" ">
<polygon fill="white" stroke="#666666" points="830,-94 732,-94 732,-75 830,-75 830,-94"/>
<text text-anchor="middle" x="781" y="-82" font-family="Helvetica,sans-Serif" font-size="10.00">uniot::TopDevice</text>
</a>
</g>
</g>
<!-- Node13&#45;&gt;Node15 -->
<g id="edge44_Node000013_Node000015" class="edge">
<title>Node13&#45;&gt;Node15</title>
<g id="a_edge44_Node000013_Node000015"><a xlink:title=" ">
<path fill="none" stroke="#63b8ff" d="M648.84,-71.75C675.83,-74.38 706.7,-77.38 731.7,-79.81"/>
<polygon fill="#63b8ff" stroke="#63b8ff" points="648.99,-68.25 638.7,-70.77 648.31,-75.22 648.99,-68.25"/>
</a>
</g>
</g>
<!-- Node20 -->
<g id="Node000020" class="node">
<title>Node20</title>
<g id="a_Node000020"><a xlink:href="df/d25/classuniot_1_1_singleton.html" target="_top" xlink:title=" ">
<polygon fill="white" stroke="#666666" points="657.5,-425 509.5,-425 509.5,-406 657.5,-406 657.5,-425"/>
<text text-anchor="middle" x="583.5" y="-413" font-family="Helvetica,sans-Serif" font-size="10.00">uniot::Singleton&lt; AppKit &gt;</text>
</a>
</g>
</g>
<!-- Node20&#45;&gt;Node18 -->
<g id="edge45_Node000020_Node000018" class="edge">
<title>Node20&#45;&gt;Node18</title>
<g id="a_edge45_Node000020_Node000018"><a xlink:title=" ">
<path fill="none" stroke="#63b8ff" d="M667.63,-415.5C693.11,-415.5 719.94,-415.5 740.99,-415.5"/>
<polygon fill="#63b8ff" stroke="#63b8ff" points="667.58,-412 657.57,-415.5 667.57,-419 667.58,-412"/>
</a>
</g>
</g>
<!-- Node27 -->
<g id="Node000027" class="node">
<title>Node27</title>
<g id="a_Node000027"><a xlink:href="df/d25/classuniot_1_1_singleton.html" target="_top" xlink:title=" ">
<polygon fill="white" stroke="#666666" points="461.5,-19 322.5,-19 322.5,0 461.5,0 461.5,-19"/>
<text text-anchor="middle" x="392" y="-7" font-family="Helvetica,sans-Serif" font-size="10.00">uniot::Singleton&lt; Date &gt;</text>
</a>
</g>
</g>
<!-- Node27&#45;&gt;Node3 -->
<g id="edge46_Node000027_Node000003" class="edge">
<title>Node27&#45;&gt;Node3</title>
<g id="a_edge46_Node000027_Node000003"><a xlink:title=" ">
<path fill="none" stroke="#63b8ff" d="M455.44,-23.24C458.44,-24.81 461.31,-26.56 464,-28.5 487.67,-45.63 476.03,-66.79 500,-83.5 513.87,-93.17 531.92,-97.98 547.61,-100.35"/>
<polygon fill="#63b8ff" stroke="#63b8ff" points="456.72,-19.98 446.16,-19.06 453.84,-26.36 456.72,-19.98"/>
</a>
</g>
</g>
<!-- Node24 -->
<g id="Node000024" class="node">
<title>Node24</title>
<g id="a_Node000024"><a xlink:href="df/d25/classuniot_1_1_singleton.html" target="_top" xlink:title=" ">
<polygon fill="white" stroke="#666666" points="657,-188 510,-188 510,-169 657,-169 657,-188"/>
<text text-anchor="middle" x="583.5" y="-176" font-family="Helvetica,sans-Serif" font-size="10.00">uniot::Singleton&lt; unLisp &gt;</text>
</a>
</g>
</g>
<!-- Node24&#45;&gt;Node23 -->
<g id="edge47_Node000024_Node000023" class="edge">
<title>Node24&#45;&gt;Node23</title>
<g id="a_edge47_Node000024_Node000023"><a xlink:title=" ">
<path fill="none" stroke="#63b8ff" d="M667.18,-178.5C692.92,-178.5 720.08,-178.5 741.31,-178.5"/>
<polygon fill="#63b8ff" stroke="#63b8ff" points="667.02,-175 657.02,-178.5 667.02,-182 667.02,-175"/>
</a>
</g>
</g>
<!-- Node29 -->
<g id="Node000029" class="node">
<title>Node29</title>
<g id="a_Node000029"><a xlink:href="da/d69/classuniot_1_1_storage.html" target="_top" xlink:title=" ">
<polygon fill="white" stroke="#666666" points="250,-295 165,-295 165,-276 250,-276 250,-295"/>
<text text-anchor="middle" x="207.5" y="-283" font-family="Helvetica,sans-Serif" font-size="10.00">uniot::Storage</text>
</a>
</g>
</g>
<!-- Node2 -->
<g id="Node000002" class="node">
<title>Node2</title>
<g id="a_Node000002"><a xlink:href="dc/d66/classuniot_1_1_c_b_o_r_storage.html" target="_top" xlink:title=" ">
<polygon fill="white" stroke="#666666" points="448.5,-314 335.5,-314 335.5,-295 448.5,-295 448.5,-314"/>
<text text-anchor="middle" x="392" y="-302" font-family="Helvetica,sans-Serif" font-size="10.00">uniot::CBORStorage</text>
</a>
</g>
</g>
<!-- Node29&#45;&gt;Node2 -->
<g id="edge48_Node000029_Node000002" class="edge">
<title>Node29&#45;&gt;Node2</title>
<g id="a_edge48_Node000029_Node000002"><a xlink:title=" ">
<path fill="none" stroke="#63b8ff" d="M260.47,-290.91C283.91,-293.35 311.63,-296.24 335.49,-298.72"/>
<polygon fill="#63b8ff" stroke="#63b8ff" points="260.68,-287.41 250.37,-289.86 259.95,-294.38 260.68,-287.41"/>
</a>
</g>
</g>
<!-- Node30 -->
<g id="Node000030" class="node">
<title>Node30</title>
<g id="a_Node000030"><a xlink:href="df/de6/classuniot_1_1_crash_storage.html" target="_top" xlink:title="Handles crash data storage and retrieval for ESP8266.">
<polygon fill="white" stroke="#666666" points="448.5,-277 335.5,-277 335.5,-258 448.5,-258 448.5,-277"/>
<text text-anchor="middle" x="392" y="-265" font-family="Helvetica,sans-Serif" font-size="10.00">uniot::CrashStorage</text>
</a>
</g>
</g>
<!-- Node29&#45;&gt;Node30 -->
<g id="edge54_Node000029_Node000030" class="edge">
<title>Node29&#45;&gt;Node30</title>
<g id="a_edge54_Node000029_Node000030"><a xlink:title=" ">
<path fill="none" stroke="#63b8ff" d="M260.47,-280.37C283.91,-278.06 311.63,-275.33 335.49,-272.98"/>
<polygon fill="#63b8ff" stroke="#63b8ff" points="259.98,-276.91 250.37,-281.37 260.66,-283.87 259.98,-276.91"/>
</a>
</g>
</g>
<!-- Node2&#45;&gt;Node1 -->
<g id="edge49_Node000002_Node000001" class="edge">
<title>Node2&#45;&gt;Node1</title>
<g id="a_edge49_Node000002_Node000001"><a xlink:title=" ">
<path fill="none" stroke="#63b8ff" d="M398.85,-323.61C411.18,-360.49 443.43,-441.43 500,-482.5 509.28,-489.24 520.56,-493.63 531.77,-496.49"/>
<polygon fill="#63b8ff" stroke="#63b8ff" points="402.18,-322.51 395.78,-314.06 395.51,-324.65 402.18,-322.51"/>
</a>
</g>
</g>
<!-- Node2&#45;&gt;Node3 -->
<g id="edge50_Node000002_Node000003" class="edge">
<title>Node2&#45;&gt;Node3</title>
<g id="a_edge50_Node000002_Node000003"><a xlink:title=" ">
<path fill="none" stroke="#63b8ff" d="M457.8,-291.78C460.02,-290.21 462.1,-288.45 464,-286.5 514.84,-234.27 450.08,-179.61 500,-126.5 512.26,-113.46 531.15,-107.37 547.77,-104.58"/>
<polygon fill="#63b8ff" stroke="#63b8ff" points="455.62,-288.99 448.67,-296.98 459.09,-295.07 455.62,-288.99"/>
</a>
</g>
</g>
<!-- Node2&#45;&gt;Node21 -->
<g id="edge52_Node000002_Node000021" class="edge">
<title>Node2&#45;&gt;Node21</title>
<g id="a_edge52_Node000002_Node000021"><a xlink:title=" ">
<path fill="none" stroke="#63b8ff" d="M415.15,-319.58C435.99,-332.8 468.61,-351.03 500,-358.5 585.08,-378.75 688.51,-361.26 742.73,-349"/>
<polygon fill="#63b8ff" stroke="#63b8ff" points="417,-316.61 406.71,-314.1 413.19,-322.48 417,-316.61"/>
</a>
</g>
</g>
<!-- Node2&#45;&gt;Node12 -->
<g id="edge51_Node000002_Node000012" class="edge">
<title>Node2&#45;&gt;Node12</title>
<g id="a_edge51_Node000002_Node000012"><a xlink:title=" ">
<path fill="none" stroke="#63b8ff" d="M457.81,-291.55C460.01,-290.04 462.09,-288.36 464,-286.5 506.06,-245.6 454.42,-196.44 500,-159.5 534.16,-131.81 659.35,-133.72 730.22,-137.26"/>
<polygon fill="#63b8ff" stroke="#63b8ff" points="455.81,-288.66 448.78,-296.59 459.22,-294.77 455.81,-288.66"/>
</a>
</g>
</g>
<!-- Node28 -->
<g id="Node000028" class="node">
<title>Node28</title>
<g id="a_Node000028"><a xlink:href="d8/daf/classuniot_1_1_wifi_storage.html" target="_top" xlink:title=" ">
<polygon fill="white" stroke="#666666" points="635.5,-312 531.5,-312 531.5,-293 635.5,-293 635.5,-312"/>
<text text-anchor="middle" x="583.5" y="-300" font-family="Helvetica,sans-Serif" font-size="10.00">uniot::WifiStorage</text>
</a>
</g>
</g>
<!-- Node2&#45;&gt;Node28 -->
<g id="edge53_Node000002_Node000028" class="edge">
<title>Node2&#45;&gt;Node28</title>
<g id="a_edge53_Node000002_Node000028"><a xlink:title=" ">
<path fill="none" stroke="#63b8ff" d="M458.61,-303.81C482.47,-303.56 509.05,-303.28 531.46,-303.04"/>
<polygon fill="#63b8ff" stroke="#63b8ff" points="458.54,-300.31 448.58,-303.91 458.61,-307.31 458.54,-300.31"/>
</a>
</g>
</g>
</g>
</svg>
