<?xml version="1.0" encoding="UTF-8" standalone="no"?>
<!DOCTYPE svg PUBLIC "-//W3C//DTD SVG 1.1//EN"
 "http://www.w3.org/Graphics/SVG/1.1/DTD/svg11.dtd">
<!-- Generated by graphviz version 2.43.0 (0)
 -->
<!-- Title: /home/runner/work/uniot&#45;core/uniot&#45;core/lib/Core/Register/ObjectRegister.h Pages: 1 -->
<svg width="640pt" height="324pt"
 viewBox="0.00 0.00 640.36 324.00" xmlns="http://www.w3.org/2000/svg" xmlns:xlink="http://www.w3.org/1999/xlink">
<g id="graph0" class="graph" transform="scale(1 1) rotate(0) translate(4 320)">
<title>/home/runner/work/uniot&#45;core/uniot&#45;core/lib/Core/Register/ObjectRegister.h</title>
<!-- Node1 -->
<g id="Node000001" class="node">
<title>Node1</title>
<g id="a_Node000001"><a xlink:title=" ">
<polygon fill="#999999" stroke="#666666" points="389,-316 246,-316 246,-275 389,-275 389,-316"/>
<text text-anchor="start" x="254" y="-304" font-family="Helvetica,sans-Serif" font-size="10.00">/home/runner/work/uniot</text>
<text text-anchor="start" x="254" y="-293" font-family="Helvetica,sans-Serif" font-size="10.00">&#45;core/uniot&#45;core/lib/Core</text>
<text text-anchor="middle" x="317.5" y="-282" font-family="Helvetica,sans-Serif" font-size="10.00">/Register/ObjectRegister.h</text>
</a>
</g>
</g>
<!-- Node2 -->
<g id="Node000002" class="node">
<title>Node2</title>
<g id="a_Node000002"><a xlink:title=" ">
<polygon fill="#e0e0e0" stroke="#999999" points="307,-19 244,-19 244,0 307,0 307,-19"/>
<text text-anchor="middle" x="275.5" y="-7" font-family="Helvetica,sans-Serif" font-size="10.00">Arduino.h</text>
</a>
</g>
</g>
<!-- Node1&#45;&gt;Node2 -->
<g id="edge1_Node000001_Node000002" class="edge">
<title>Node1&#45;&gt;Node2</title>
<g id="a_edge1_Node000001_Node000002"><a xlink:title=" ">
<path fill="none" stroke="#63b8ff" d="M389.14,-282.16C481.82,-264.12 631.5,-227.02 631.5,-175.5 631.5,-175.5 631.5,-175.5 631.5,-118.5 631.5,-89.04 634.92,-74.11 612.5,-55 568.92,-17.87 397.79,-11.46 317.51,-10.53"/>
<polygon fill="#63b8ff" stroke="#63b8ff" points="317.3,-7.03 307.27,-10.44 317.23,-14.03 317.3,-7.03"/>
</a>
</g>
</g>
<!-- Node3 -->
<g id="Node000003" class="node">
<title>Node3</title>
<g id="a_Node000003"><a xlink:href="../../db/d1f/_common_8h.html" target="_top" xlink:title=" ">
<polygon fill="white" stroke="#666666" points="377.5,-129 307.5,-129 307.5,-110 377.5,-110 377.5,-129"/>
<text text-anchor="middle" x="342.5" y="-117" font-family="Helvetica,sans-Serif" font-size="10.00">Common.h</text>
</a>
</g>
</g>
<!-- Node1&#45;&gt;Node3 -->
<g id="edge2_Node000001_Node000003" class="edge">
<title>Node1&#45;&gt;Node3</title>
<g id="a_edge2_Node000001_Node000003"><a xlink:title=" ">
<path fill="none" stroke="#63b8ff" d="M320.32,-274.88C325.16,-241.17 335,-172.69 339.78,-139.45"/>
<polygon fill="#63b8ff" stroke="#63b8ff" points="343.28,-139.67 341.24,-129.27 336.35,-138.67 343.28,-139.67"/>
</a>
</g>
</g>
<!-- Node6 -->
<g id="Node000006" class="node">
<title>Node6</title>
<g id="a_Node000006"><a xlink:href="../../d1/dab/_object_register_record_8h.html" target="_top" xlink:title=" ">
<polygon fill="white" stroke="#666666" points="131,-129 0,-129 0,-110 131,-110 131,-129"/>
<text text-anchor="middle" x="65.5" y="-117" font-family="Helvetica,sans-Serif" font-size="10.00">ObjectRegisterRecord.h</text>
</a>
</g>
</g>
<!-- Node1&#45;&gt;Node6 -->
<g id="edge5_Node000001_Node000006" class="edge">
<title>Node1&#45;&gt;Node6</title>
<g id="a_edge5_Node000001_Node000006"><a xlink:title=" ">
<path fill="none" stroke="#63b8ff" d="M289.08,-274.88C237.9,-239.54 131.38,-165.99 86.33,-134.88"/>
<polygon fill="#63b8ff" stroke="#63b8ff" points="88.15,-131.89 77.93,-129.09 84.17,-137.65 88.15,-131.89"/>
</a>
</g>
</g>
<!-- Node11 -->
<g id="Node000011" class="node">
<title>Node11</title>
<g id="a_Node000011"><a xlink:href="../../d9/d77/_register_8h.html" target="_top" xlink:title=" ">
<polygon fill="white" stroke="#666666" points="312,-239 247,-239 247,-220 312,-220 312,-239"/>
<text text-anchor="middle" x="279.5" y="-227" font-family="Helvetica,sans-Serif" font-size="10.00">Register.h</text>
</a>
</g>
</g>
<!-- Node1&#45;&gt;Node11 -->
<g id="edge12_Node000001_Node000011" class="edge">
<title>Node1&#45;&gt;Node11</title>
<g id="a_edge12_Node000001_Node000011"><a xlink:title=" ">
<path fill="none" stroke="#63b8ff" d="M305.89,-274.95C300.81,-266.39 294.89,-256.42 289.95,-248.1"/>
<polygon fill="#63b8ff" stroke="#63b8ff" points="292.82,-246.07 284.7,-239.26 286.8,-249.65 292.82,-246.07"/>
</a>
</g>
</g>
<!-- Node4 -->
<g id="Node000004" class="node">
<title>Node4</title>
<g id="a_Node000004"><a xlink:title=" ">
<polygon fill="#e0e0e0" stroke="#999999" points="358.5,-74 300.5,-74 300.5,-55 358.5,-55 358.5,-74"/>
<text text-anchor="middle" x="329.5" y="-62" font-family="Helvetica,sans-Serif" font-size="10.00">memory</text>
</a>
</g>
</g>
<!-- Node3&#45;&gt;Node4 -->
<g id="edge3_Node000003_Node000004" class="edge">
<title>Node3&#45;&gt;Node4</title>
<g id="a_edge3_Node000003_Node000004"><a xlink:title=" ">
<path fill="none" stroke="#63b8ff" d="M340.35,-109.75C338.63,-102.72 336.15,-92.62 334,-83.84"/>
<polygon fill="#63b8ff" stroke="#63b8ff" points="337.39,-82.97 331.61,-74.09 330.59,-84.63 337.39,-82.97"/>
</a>
</g>
</g>
<!-- Node5 -->
<g id="Node000005" class="node">
<title>Node5</title>
<g id="a_Node000005"><a xlink:title=" ">
<polygon fill="#e0e0e0" stroke="#999999" points="422,-74 377,-74 377,-55 422,-55 422,-74"/>
<text text-anchor="middle" x="399.5" y="-62" font-family="Helvetica,sans-Serif" font-size="10.00">utility</text>
</a>
</g>
</g>
<!-- Node3&#45;&gt;Node5 -->
<g id="edge4_Node000003_Node000005" class="edge">
<title>Node3&#45;&gt;Node5</title>
<g id="a_edge4_Node000003_Node000005"><a xlink:title=" ">
<path fill="none" stroke="#63b8ff" d="M351.66,-109.98C360,-102.23 372.53,-90.58 382.68,-81.14"/>
<polygon fill="#63b8ff" stroke="#63b8ff" points="385.24,-83.54 390.18,-74.17 380.47,-78.42 385.24,-83.54"/>
</a>
</g>
</g>
<!-- Node7 -->
<g id="Node000007" class="node">
<title>Node7</title>
<g id="a_Node000007"><a xlink:href="../../de/d7a/_clear_queue_8h.html" target="_top" xlink:title=" ">
<polygon fill="white" stroke="#666666" points="238,-74 155,-74 155,-55 238,-55 238,-74"/>
<text text-anchor="middle" x="196.5" y="-62" font-family="Helvetica,sans-Serif" font-size="10.00">ClearQueue.h</text>
</a>
</g>
</g>
<!-- Node6&#45;&gt;Node7 -->
<g id="edge6_Node000006_Node000007" class="edge">
<title>Node6&#45;&gt;Node7</title>
<g id="a_edge6_Node000006_Node000007"><a xlink:title=" ">
<path fill="none" stroke="#63b8ff" d="M86.55,-109.98C107.91,-101.34 141.2,-87.87 165.56,-78.02"/>
<polygon fill="#63b8ff" stroke="#63b8ff" points="167.11,-81.17 175.07,-74.17 164.49,-74.68 167.11,-81.17"/>
</a>
</g>
</g>
<!-- Node9 -->
<g id="Node000009" class="node">
<title>Node9</title>
<g id="a_Node000009"><a xlink:href="../../d6/dec/_logger_8h.html" target="_top" xlink:title=" ">
<polygon fill="white" stroke="#666666" points="136.5,-74 78.5,-74 78.5,-55 136.5,-55 136.5,-74"/>
<text text-anchor="middle" x="107.5" y="-62" font-family="Helvetica,sans-Serif" font-size="10.00">Logger.h</text>
</a>
</g>
</g>
<!-- Node6&#45;&gt;Node9 -->
<g id="edge9_Node000006_Node000009" class="edge">
<title>Node6&#45;&gt;Node9</title>
<g id="a_edge9_Node000006_Node000009"><a xlink:title=" ">
<path fill="none" stroke="#63b8ff" d="M72.44,-109.75C78.37,-102.26 87.07,-91.28 94.32,-82.13"/>
<polygon fill="#63b8ff" stroke="#63b8ff" points="97.23,-84.1 100.69,-74.09 91.74,-79.75 97.23,-84.1"/>
</a>
</g>
</g>
<!-- Node10 -->
<g id="Node000010" class="node">
<title>Node10</title>
<g id="a_Node000010"><a xlink:href="../../d8/d63/_type_id_8h.html" target="_top" xlink:title=" ">
<polygon fill="white" stroke="#666666" points="60,-74 3,-74 3,-55 60,-55 60,-74"/>
<text text-anchor="middle" x="31.5" y="-62" font-family="Helvetica,sans-Serif" font-size="10.00">TypeId.h</text>
</a>
</g>
</g>
<!-- Node6&#45;&gt;Node10 -->
<g id="edge11_Node000006_Node000010" class="edge">
<title>Node6&#45;&gt;Node10</title>
<g id="a_edge11_Node000006_Node000010"><a xlink:title=" ">
<path fill="none" stroke="#63b8ff" d="M59.89,-109.75C55.18,-102.42 48.33,-91.73 42.53,-82.7"/>
<polygon fill="#63b8ff" stroke="#63b8ff" points="45.36,-80.62 37.01,-74.09 39.46,-84.4 45.36,-80.62"/>
</a>
</g>
</g>
<!-- Node7&#45;&gt;Node2 -->
<g id="edge7_Node000007_Node000002" class="edge">
<title>Node7&#45;&gt;Node2</title>
<g id="a_edge7_Node000007_Node000002"><a xlink:title=" ">
<path fill="none" stroke="#63b8ff" d="M209.19,-54.98C221.33,-46.84 239.86,-34.41 254.25,-24.76"/>
<polygon fill="#63b8ff" stroke="#63b8ff" points="256.22,-27.65 262.58,-19.17 252.32,-21.84 256.22,-27.65"/>
</a>
</g>
</g>
<!-- Node8 -->
<g id="Node000008" class="node">
<title>Node8</title>
<g id="a_Node000008"><a xlink:title=" ">
<polygon fill="#e0e0e0" stroke="#999999" points="226,-19 161,-19 161,0 226,0 226,-19"/>
<text text-anchor="middle" x="193.5" y="-7" font-family="Helvetica,sans-Serif" font-size="10.00">functional</text>
</a>
</g>
</g>
<!-- Node7&#45;&gt;Node8 -->
<g id="edge8_Node000007_Node000008" class="edge">
<title>Node7&#45;&gt;Node8</title>
<g id="a_edge8_Node000007_Node000008"><a xlink:title=" ">
<path fill="none" stroke="#63b8ff" d="M196,-54.75C195.61,-47.8 195.05,-37.85 194.55,-29.13"/>
<polygon fill="#63b8ff" stroke="#63b8ff" points="198.05,-28.88 193.99,-19.09 191.06,-29.27 198.05,-28.88"/>
</a>
</g>
</g>
<!-- Node9&#45;&gt;Node2 -->
<g id="edge10_Node000009_Node000002" class="edge">
<title>Node9&#45;&gt;Node2</title>
<g id="a_edge10_Node000009_Node000002"><a xlink:title=" ">
<path fill="none" stroke="#63b8ff" d="M134.49,-54.98C162.7,-46.09 207.14,-32.07 238.58,-22.15"/>
<polygon fill="#63b8ff" stroke="#63b8ff" points="239.81,-25.43 248.3,-19.08 237.71,-18.75 239.81,-25.43"/>
</a>
</g>
</g>
<!-- Node11&#45;&gt;Node2 -->
<g id="edge13_Node000011_Node000002" class="edge">
<title>Node11&#45;&gt;Node2</title>
<g id="a_edge13_Node000011_Node000002"><a xlink:title=" ">
<path fill="none" stroke="#63b8ff" d="M279.34,-219.95C278.76,-187.95 276.68,-74.68 275.85,-29.4"/>
<polygon fill="#63b8ff" stroke="#63b8ff" points="279.34,-29.16 275.66,-19.22 272.34,-29.29 279.34,-29.16"/>
</a>
</g>
</g>
<!-- Node12 -->
<g id="Node000012" class="node">
<title>Node12</title>
<g id="a_Node000012"><a xlink:href="../../d3/dc5/_array_8h.html" target="_top" xlink:title=" ">
<polygon fill="white" stroke="#666666" points="475.5,-129 425.5,-129 425.5,-110 475.5,-110 475.5,-129"/>
<text text-anchor="middle" x="450.5" y="-117" font-family="Helvetica,sans-Serif" font-size="10.00">Array.h</text>
</a>
</g>
</g>
<!-- Node11&#45;&gt;Node12 -->
<g id="edge14_Node000011_Node000012" class="edge">
<title>Node11&#45;&gt;Node12</title>
<g id="a_edge14_Node000011_Node000012"><a xlink:title=" ">
<path fill="none" stroke="#63b8ff" d="M293.2,-219.84C322.6,-201.28 391.94,-157.49 427.93,-134.75"/>
<polygon fill="#63b8ff" stroke="#63b8ff" points="430.14,-137.5 436.73,-129.2 426.41,-131.58 430.14,-137.5"/>
</a>
</g>
</g>
<!-- Node15 -->
<g id="Node000015" class="node">
<title>Node15</title>
<g id="a_Node000015"><a xlink:href="../../d3/d63/_map_8h.html" target="_top" xlink:title=" ">
<polygon fill="white" stroke="#666666" points="244,-184 197,-184 197,-165 244,-165 244,-184"/>
<text text-anchor="middle" x="220.5" y="-172" font-family="Helvetica,sans-Serif" font-size="10.00">Map.h</text>
</a>
</g>
</g>
<!-- Node11&#45;&gt;Node15 -->
<g id="edge19_Node000011_Node000015" class="edge">
<title>Node11&#45;&gt;Node15</title>
<g id="a_edge19_Node000011_Node000015"><a xlink:title=" ">
<path fill="none" stroke="#63b8ff" d="M270.02,-219.98C261.3,-212.15 248.16,-200.34 237.6,-190.86"/>
<polygon fill="#63b8ff" stroke="#63b8ff" points="239.93,-188.25 230.15,-184.17 235.25,-193.46 239.93,-188.25"/>
</a>
</g>
</g>
<!-- Node12&#45;&gt;Node2 -->
<g id="edge15_Node000012_Node000002" class="edge">
<title>Node12&#45;&gt;Node2</title>
<g id="a_edge15_Node000012_Node000002"><a xlink:title=" ">
<path fill="none" stroke="#63b8ff" d="M450.41,-109.79C449.79,-96.17 446.57,-69.88 431.5,-55 401.26,-25.14 352.47,-15.02 317.51,-11.75"/>
<polygon fill="#63b8ff" stroke="#63b8ff" points="317.38,-8.23 307.13,-10.93 316.83,-15.2 317.38,-8.23"/>
</a>
</g>
</g>
<!-- Node12&#45;&gt;Node5 -->
<g id="edge18_Node000012_Node000005" class="edge">
<title>Node12&#45;&gt;Node5</title>
<g id="a_edge18_Node000012_Node000005"><a xlink:title=" ">
<path fill="none" stroke="#63b8ff" d="M442.08,-109.75C434.73,-102.11 423.87,-90.82 414.96,-81.56"/>
<polygon fill="#63b8ff" stroke="#63b8ff" points="417.22,-78.87 407.76,-74.09 412.18,-83.72 417.22,-78.87"/>
</a>
</g>
</g>
<!-- Node13 -->
<g id="Node000013" class="node">
<title>Node13</title>
<g id="a_Node000013"><a xlink:title=" ">
<polygon fill="#e0e0e0" stroke="#999999" points="516,-74 479,-74 479,-55 516,-55 516,-74"/>
<text text-anchor="middle" x="497.5" y="-62" font-family="Helvetica,sans-Serif" font-size="10.00">new</text>
</a>
</g>
</g>
<!-- Node12&#45;&gt;Node13 -->
<g id="edge16_Node000012_Node000013" class="edge">
<title>Node12&#45;&gt;Node13</title>
<g id="a_edge16_Node000012_Node000013"><a xlink:title=" ">
<path fill="none" stroke="#63b8ff" d="M458.26,-109.75C464.97,-102.18 474.84,-91.05 483.01,-81.84"/>
<polygon fill="#63b8ff" stroke="#63b8ff" points="485.87,-83.89 489.88,-74.09 480.63,-79.25 485.87,-83.89"/>
</a>
</g>
</g>
<!-- Node14 -->
<g id="Node000014" class="node">
<title>Node14</title>
<g id="a_Node000014"><a xlink:title=" ">
<polygon fill="#e0e0e0" stroke="#999999" points="603,-74 534,-74 534,-55 603,-55 603,-74"/>
<text text-anchor="middle" x="568.5" y="-62" font-family="Helvetica,sans-Serif" font-size="10.00">type_traits</text>
</a>
</g>
</g>
<!-- Node12&#45;&gt;Node14 -->
<g id="edge17_Node000012_Node000014" class="edge">
<title>Node12&#45;&gt;Node14</title>
<g id="a_edge17_Node000012_Node000014"><a xlink:title=" ">
<path fill="none" stroke="#63b8ff" d="M469.46,-109.98C488.53,-101.42 518.16,-88.11 540.05,-78.28"/>
<polygon fill="#63b8ff" stroke="#63b8ff" points="541.51,-81.46 549.2,-74.17 538.64,-75.07 541.51,-81.46"/>
</a>
</g>
</g>
<!-- Node15&#45;&gt;Node3 -->
<g id="edge20_Node000015_Node000003" class="edge">
<title>Node15&#45;&gt;Node3</title>
<g id="a_edge20_Node000015_Node000003"><a xlink:title=" ">
<path fill="none" stroke="#63b8ff" d="M240.1,-164.98C259.82,-156.42 290.45,-143.11 313.08,-133.28"/>
<polygon fill="#63b8ff" stroke="#63b8ff" points="314.76,-136.37 322.54,-129.17 311.98,-129.94 314.76,-136.37"/>
</a>
</g>
</g>
<!-- Node16 -->
<g id="Node000016" class="node">
<title>Node16</title>
<g id="a_Node000016"><a xlink:href="../../d0/d90/_iterable_queue_8h.html" target="_top" xlink:title=" ">
<polygon fill="white" stroke="#666666" points="244,-129 149,-129 149,-110 244,-110 244,-129"/>
<text text-anchor="middle" x="196.5" y="-117" font-family="Helvetica,sans-Serif" font-size="10.00">IterableQueue.h</text>
</a>
</g>
</g>
<!-- Node15&#45;&gt;Node16 -->
<g id="edge21_Node000015_Node000016" class="edge">
<title>Node15&#45;&gt;Node16</title>
<g id="a_edge21_Node000015_Node000016"><a xlink:title=" ">
<path fill="none" stroke="#63b8ff" d="M216.54,-164.75C213.29,-157.57 208.58,-147.18 204.55,-138.27"/>
<polygon fill="#63b8ff" stroke="#63b8ff" points="207.7,-136.75 200.39,-129.09 201.33,-139.64 207.7,-136.75"/>
</a>
</g>
</g>
<!-- Node16&#45;&gt;Node7 -->
<g id="edge22_Node000016_Node000007" class="edge">
<title>Node16&#45;&gt;Node7</title>
<g id="a_edge22_Node000016_Node000007"><a xlink:title=" ">
<path fill="none" stroke="#63b8ff" d="M196.5,-109.75C196.5,-102.8 196.5,-92.85 196.5,-84.13"/>
<polygon fill="#63b8ff" stroke="#63b8ff" points="200,-84.09 196.5,-74.09 193,-84.09 200,-84.09"/>
</a>
</g>
</g>
</g>
</svg>
