<?xml version="1.0" encoding="UTF-8" standalone="no"?>
<!DOCTYPE svg PUBLIC "-//W3C//DTD SVG 1.1//EN"
 "http://www.w3.org/Graphics/SVG/1.1/DTD/svg11.dtd">
<!-- Generated by graphviz version 2.43.0 (0)
 -->
<!-- Title: /home/runner/work/uniot&#45;core/uniot&#45;core/lib/Core/EventBus/EventBus.h Pages: 1 -->
<svg width="1217pt" height="280pt"
 viewBox="0.00 0.00 1217.01 280.00" xmlns="http://www.w3.org/2000/svg" xmlns:xlink="http://www.w3.org/1999/xlink">
<g id="graph0" class="graph" transform="scale(1 1) rotate(0) translate(4 276)">
<title>/home/runner/work/uniot&#45;core/uniot&#45;core/lib/Core/EventBus/EventBus.h</title>
<!-- Node1 -->
<g id="Node000001" class="node">
<title>Node1</title>
<g id="a_Node000001"><a xlink:title=" ">
<polygon fill="#999999" stroke="#666666" points="651.51,-272 514.51,-272 514.51,-231 651.51,-231 651.51,-272"/>
<text text-anchor="start" x="522.51" y="-260" font-family="Helvetica,sans-Serif" font-size="10.00">/home/runner/work/uniot</text>
<text text-anchor="start" x="522.51" y="-249" font-family="Helvetica,sans-Serif" font-size="10.00">&#45;core/uniot&#45;core/lib/Core</text>
<text text-anchor="middle" x="583.01" y="-238" font-family="Helvetica,sans-Serif" font-size="10.00">/EventBus/EventBus.h</text>
</a>
</g>
</g>
<!-- Node2 -->
<g id="Node000002" class="node">
<title>Node2</title>
<g id="a_Node000002"><a xlink:href="../../dc/d7b/_app_kit_8h.html" target="_top" xlink:title=" ">
<polygon fill="white" stroke="#666666" points="820.01,-41 676.01,-41 676.01,0 820.01,0 820.01,-41"/>
<text text-anchor="start" x="684.01" y="-29" font-family="Helvetica,sans-Serif" font-size="10.00">/home/runner/work/uniot</text>
<text text-anchor="start" x="684.01" y="-18" font-family="Helvetica,sans-Serif" font-size="10.00">&#45;core/uniot&#45;core/lib/AppKit</text>
<text text-anchor="middle" x="748.01" y="-7" font-family="Helvetica,sans-Serif" font-size="10.00">/AppKit.h</text>
</a>
</g>
</g>
<!-- Node1&#45;&gt;Node2 -->
<g id="edge1_Node000001_Node000002" class="edge">
<title>Node1&#45;&gt;Node2</title>
<g id="a_edge1_Node000001_Node000002"><a xlink:title=" ">
<path fill="none" stroke="#63b8ff" d="M504.44,-248.65C354.99,-244.31 41.68,-230.98 9.01,-195 -3.24,-181.51 -2.68,-167.98 9.01,-154 93.7,-52.78 506.81,-28.79 675.77,-23.18"/>
<polygon fill="#63b8ff" stroke="#63b8ff" points="504.38,-252.15 514.48,-248.93 504.58,-245.15 504.38,-252.15"/>
</a>
</g>
</g>
<!-- Node3 -->
<g id="Node000003" class="node">
<title>Node3</title>
<g id="a_Node000003"><a xlink:href="../../de/d06/_event_bus_8cpp.html" target="_top" xlink:title=" ">
<polygon fill="white" stroke="#666666" points="155.51,-195 18.51,-195 18.51,-154 155.51,-154 155.51,-195"/>
<text text-anchor="start" x="26.51" y="-183" font-family="Helvetica,sans-Serif" font-size="10.00">/home/runner/work/uniot</text>
<text text-anchor="start" x="26.51" y="-172" font-family="Helvetica,sans-Serif" font-size="10.00">&#45;core/uniot&#45;core/lib/Core</text>
<text text-anchor="middle" x="87.01" y="-161" font-family="Helvetica,sans-Serif" font-size="10.00">/EventBus/EventBus.cpp</text>
</a>
</g>
</g>
<!-- Node1&#45;&gt;Node3 -->
<g id="edge2_Node000001_Node000003" class="edge">
<title>Node1&#45;&gt;Node3</title>
<g id="a_edge2_Node000001_Node000003"><a xlink:title=" ">
<path fill="none" stroke="#63b8ff" d="M504.19,-242.72C419.84,-233.77 282.31,-217.38 165.01,-195 162,-194.42 158.92,-193.8 155.82,-193.15"/>
<polygon fill="#63b8ff" stroke="#63b8ff" points="503.9,-246.21 514.21,-243.77 504.63,-239.25 503.9,-246.21"/>
</a>
</g>
</g>
<!-- Node4 -->
<g id="Node000004" class="node">
<title>Node4</title>
<g id="a_Node000004"><a xlink:href="../../d5/dfe/_event_emitter_8cpp.html" target="_top" xlink:title=" ">
<polygon fill="white" stroke="#666666" points="326.01,-195 174.01,-195 174.01,-154 326.01,-154 326.01,-195"/>
<text text-anchor="start" x="182.01" y="-183" font-family="Helvetica,sans-Serif" font-size="10.00">/home/runner/work/uniot</text>
<text text-anchor="start" x="182.01" y="-172" font-family="Helvetica,sans-Serif" font-size="10.00">&#45;core/uniot&#45;core/lib/Core</text>
<text text-anchor="middle" x="250.01" y="-161" font-family="Helvetica,sans-Serif" font-size="10.00">/EventBus/EventEmitter.cpp</text>
</a>
</g>
</g>
<!-- Node1&#45;&gt;Node4 -->
<g id="edge3_Node000001_Node000004" class="edge">
<title>Node1&#45;&gt;Node4</title>
<g id="a_edge3_Node000001_Node000004"><a xlink:title=" ">
<path fill="none" stroke="#63b8ff" d="M504.44,-233.03C455.66,-222.15 391.67,-207.84 335.01,-195 332.21,-194.36 329.35,-193.72 326.46,-193.06"/>
<polygon fill="#63b8ff" stroke="#63b8ff" points="503.78,-236.47 514.3,-235.23 505.3,-229.64 503.78,-236.47"/>
</a>
</g>
</g>
<!-- Node5 -->
<g id="Node000005" class="node">
<title>Node5</title>
<g id="a_Node000005"><a xlink:href="../../dc/d2d/_event_entity_8cpp.html" target="_top" xlink:title=" ">
<polygon fill="white" stroke="#666666" points="487.51,-195 344.51,-195 344.51,-154 487.51,-154 487.51,-195"/>
<text text-anchor="start" x="352.51" y="-183" font-family="Helvetica,sans-Serif" font-size="10.00">/home/runner/work/uniot</text>
<text text-anchor="start" x="352.51" y="-172" font-family="Helvetica,sans-Serif" font-size="10.00">&#45;core/uniot&#45;core/lib/Core</text>
<text text-anchor="middle" x="416.01" y="-161" font-family="Helvetica,sans-Serif" font-size="10.00">/EventBus/EventEntity.cpp</text>
</a>
</g>
</g>
<!-- Node1&#45;&gt;Node5 -->
<g id="edge4_Node000001_Node000005" class="edge">
<title>Node1&#45;&gt;Node5</title>
<g id="a_edge4_Node000001_Node000005"><a xlink:title=" ">
<path fill="none" stroke="#63b8ff" d="M530.37,-226.86C507.57,-216.62 481.2,-204.77 459.53,-195.04"/>
<polygon fill="#63b8ff" stroke="#63b8ff" points="529.02,-230.09 539.57,-230.99 531.88,-223.7 529.02,-230.09"/>
</a>
</g>
</g>
<!-- Node6 -->
<g id="Node000006" class="node">
<title>Node6</title>
<g id="a_Node000006"><a xlink:href="../../d0/def/_event_listener_8cpp.html" target="_top" xlink:title=" ">
<polygon fill="white" stroke="#666666" points="660.51,-195 505.51,-195 505.51,-154 660.51,-154 660.51,-195"/>
<text text-anchor="start" x="513.51" y="-183" font-family="Helvetica,sans-Serif" font-size="10.00">/home/runner/work/uniot</text>
<text text-anchor="start" x="513.51" y="-172" font-family="Helvetica,sans-Serif" font-size="10.00">&#45;core/uniot&#45;core/lib/Core</text>
<text text-anchor="middle" x="583.01" y="-161" font-family="Helvetica,sans-Serif" font-size="10.00">/EventBus/EventListener.cpp</text>
</a>
</g>
</g>
<!-- Node1&#45;&gt;Node6 -->
<g id="edge5_Node000001_Node000006" class="edge">
<title>Node1&#45;&gt;Node6</title>
<g id="a_edge5_Node000001_Node000006"><a xlink:title=" ">
<path fill="none" stroke="#63b8ff" d="M583.01,-220.69C583.01,-212.08 583.01,-202.9 583.01,-195.07"/>
<polygon fill="#63b8ff" stroke="#63b8ff" points="579.51,-220.79 583.01,-230.79 586.51,-220.79 579.51,-220.79"/>
</a>
</g>
</g>
<!-- Node7 -->
<g id="Node000007" class="node">
<title>Node7</title>
<g id="a_Node000007"><a xlink:href="../../d3/d99/_i_event_bus_connection_kit_8h.html" target="_top" xlink:title="Defines the interface for components that can connect to an EventBus.">
<polygon fill="white" stroke="#666666" points="873.01,-195 679.01,-195 679.01,-154 873.01,-154 873.01,-195"/>
<text text-anchor="start" x="687.01" y="-183" font-family="Helvetica,sans-Serif" font-size="10.00">/home/runner/work/uniot</text>
<text text-anchor="start" x="687.01" y="-172" font-family="Helvetica,sans-Serif" font-size="10.00">&#45;core/uniot&#45;core/lib/Core</text>
<text text-anchor="middle" x="776.01" y="-161" font-family="Helvetica,sans-Serif" font-size="10.00">/EventBus/IEventBusConnectionKit.h</text>
</a>
</g>
</g>
<!-- Node1&#45;&gt;Node7 -->
<g id="edge6_Node000001_Node000007" class="edge">
<title>Node1&#45;&gt;Node7</title>
<g id="a_edge6_Node000001_Node000007"><a xlink:title=" ">
<path fill="none" stroke="#63b8ff" d="M636.5,-227.27C662.4,-216.94 693.46,-204.9 719.72,-195.04"/>
<polygon fill="#63b8ff" stroke="#63b8ff" points="635.19,-224.02 627.21,-230.99 637.8,-230.52 635.19,-224.02"/>
</a>
</g>
</g>
<!-- Node8 -->
<g id="Node000008" class="node">
<title>Node8</title>
<g id="a_Node000008"><a xlink:href="../../da/dc0/_network_scheduler_8h.html" target="_top" xlink:title=" ">
<polygon fill="white" stroke="#666666" points="1052.51,-195 891.51,-195 891.51,-154 1052.51,-154 1052.51,-195"/>
<text text-anchor="start" x="899.51" y="-183" font-family="Helvetica,sans-Serif" font-size="10.00">/home/runner/work/uniot</text>
<text text-anchor="start" x="899.51" y="-172" font-family="Helvetica,sans-Serif" font-size="10.00">&#45;core/uniot&#45;core/lib/Core</text>
<text text-anchor="middle" x="972.01" y="-161" font-family="Helvetica,sans-Serif" font-size="10.00">/Network/NetworkScheduler.h</text>
</a>
</g>
</g>
<!-- Node1&#45;&gt;Node8 -->
<g id="edge9_Node000001_Node000008" class="edge">
<title>Node1&#45;&gt;Node8</title>
<g id="a_edge9_Node000001_Node000008"><a xlink:title=" ">
<path fill="none" stroke="#63b8ff" d="M661.55,-236.58C721.93,-225.72 807.36,-210.01 882.01,-195 884.99,-194.4 888.02,-193.78 891.08,-193.15"/>
<polygon fill="#63b8ff" stroke="#63b8ff" points="660.93,-233.14 651.71,-238.35 662.17,-240.03 660.93,-233.14"/>
</a>
</g>
</g>
<!-- Node12 -->
<g id="Node000012" class="node">
<title>Node12</title>
<g id="a_Node000012"><a xlink:href="../../d4/d2b/_uniot_8h.html" target="_top" xlink:title=" ">
<polygon fill="white" stroke="#666666" points="1209.01,-195 1071.01,-195 1071.01,-154 1209.01,-154 1209.01,-195"/>
<text text-anchor="start" x="1079.01" y="-183" font-family="Helvetica,sans-Serif" font-size="10.00">/home/runner/work/uniot</text>
<text text-anchor="start" x="1079.01" y="-172" font-family="Helvetica,sans-Serif" font-size="10.00">&#45;core/uniot&#45;core/lib/Uniot</text>
<text text-anchor="middle" x="1140.01" y="-161" font-family="Helvetica,sans-Serif" font-size="10.00">/Uniot.h</text>
</a>
</g>
</g>
<!-- Node1&#45;&gt;Node12 -->
<g id="edge15_Node000001_Node000012" class="edge">
<title>Node1&#45;&gt;Node12</title>
<g id="a_edge15_Node000001_Node000012"><a xlink:title=" ">
<path fill="none" stroke="#63b8ff" d="M661.78,-244.53C757.08,-236.57 922.15,-220.47 1062.01,-195 1064.9,-194.47 1067.83,-193.9 1070.79,-193.3"/>
<polygon fill="#63b8ff" stroke="#63b8ff" points="661.32,-241.05 651.64,-245.36 661.9,-248.03 661.32,-241.05"/>
</a>
</g>
</g>
<!-- Node7&#45;&gt;Node1 -->
<g id="edge8_Node000007_Node000001" class="edge">
<title>Node7&#45;&gt;Node1</title>
<g id="a_edge8_Node000007_Node000001"><a xlink:title=" ">
<path fill="none" stroke="#63b8ff" d="M722.44,-198.77C696.53,-209.1 665.47,-221.13 639.22,-230.99"/>
<polygon fill="#63b8ff" stroke="#63b8ff" points="723.75,-202.01 731.73,-195.04 721.15,-195.51 723.75,-202.01"/>
</a>
</g>
</g>
<!-- Node7&#45;&gt;Node2 -->
<g id="edge7_Node000007_Node000002" class="edge">
<title>Node7&#45;&gt;Node2</title>
<g id="a_edge7_Node000007_Node000002"><a xlink:title=" ">
<path fill="none" stroke="#63b8ff" d="M738.58,-147C729.87,-138.79 721.76,-128.98 717.01,-118 705.84,-92.16 720.74,-60.92 733.49,-41.13"/>
<polygon fill="#63b8ff" stroke="#63b8ff" points="736.49,-149.83 746.32,-153.79 741.11,-144.57 736.49,-149.83"/>
</a>
</g>
</g>
<!-- Node9 -->
<g id="Node000009" class="node">
<title>Node9</title>
<g id="a_Node000009"><a xlink:href="../../dc/d26/_m_q_t_t_kit_8h.html" target="_top" xlink:title=" ">
<polygon fill="white" stroke="#666666" points="1047.51,-118 904.51,-118 904.51,-77 1047.51,-77 1047.51,-118"/>
<text text-anchor="start" x="912.51" y="-106" font-family="Helvetica,sans-Serif" font-size="10.00">/home/runner/work/uniot</text>
<text text-anchor="start" x="912.51" y="-95" font-family="Helvetica,sans-Serif" font-size="10.00">&#45;core/uniot&#45;core/lib/Core</text>
<text text-anchor="middle" x="976.01" y="-84" font-family="Helvetica,sans-Serif" font-size="10.00">/MQTTWrapper/MQTTKit.h</text>
</a>
</g>
</g>
<!-- Node8&#45;&gt;Node9 -->
<g id="edge10_Node000008_Node000009" class="edge">
<title>Node8&#45;&gt;Node9</title>
<g id="a_edge10_Node000008_Node000009"><a xlink:title=" ">
<path fill="none" stroke="#63b8ff" d="M973.6,-143.69C974.06,-135.08 974.55,-125.9 974.97,-118.07"/>
<polygon fill="#63b8ff" stroke="#63b8ff" points="970.1,-143.62 973.06,-153.79 977.09,-144 970.1,-143.62"/>
</a>
</g>
</g>
<!-- Node11 -->
<g id="Node000011" class="node">
<title>Node11</title>
<g id="a_Node000011"><a xlink:href="../../d9/d89/_network_controller_8h.html" target="_top" xlink:title=" ">
<polygon fill="white" stroke="#666666" points="886.51,-118 725.51,-118 725.51,-77 886.51,-77 886.51,-118"/>
<text text-anchor="start" x="733.51" y="-106" font-family="Helvetica,sans-Serif" font-size="10.00">/home/runner/work/uniot</text>
<text text-anchor="start" x="733.51" y="-95" font-family="Helvetica,sans-Serif" font-size="10.00">&#45;core/uniot&#45;core/lib/Core</text>
<text text-anchor="middle" x="806.01" y="-84" font-family="Helvetica,sans-Serif" font-size="10.00">/Network/NetworkController.h</text>
</a>
</g>
</g>
<!-- Node8&#45;&gt;Node11 -->
<g id="edge13_Node000008_Node000011" class="edge">
<title>Node8&#45;&gt;Node11</title>
<g id="a_edge13_Node000008_Node000011"><a xlink:title=" ">
<path fill="none" stroke="#63b8ff" d="M919.69,-149.86C897.02,-139.62 870.81,-127.77 849.27,-118.04"/>
<polygon fill="#63b8ff" stroke="#63b8ff" points="918.28,-153.06 928.83,-153.99 921.16,-146.68 918.28,-153.06"/>
</a>
</g>
</g>
<!-- Node9&#45;&gt;Node2 -->
<g id="edge11_Node000009_Node000002" class="edge">
<title>Node9&#45;&gt;Node2</title>
<g id="a_edge11_Node000009_Node000002"><a xlink:title=" ">
<path fill="none" stroke="#63b8ff" d="M907.04,-73.81C875.26,-63.36 837.93,-51.08 807.42,-41.04"/>
<polygon fill="#63b8ff" stroke="#63b8ff" points="906.11,-77.19 916.7,-76.99 908.3,-70.54 906.11,-77.19"/>
</a>
</g>
</g>
<!-- Node10 -->
<g id="Node000010" class="node">
<title>Node10</title>
<g id="a_Node000010"><a xlink:href="../../da/d02/_m_q_t_t_device_8cpp.html" target="_top" xlink:title=" ">
<polygon fill="white" stroke="#666666" points="1063.51,-41 888.51,-41 888.51,0 1063.51,0 1063.51,-41"/>
<text text-anchor="start" x="896.51" y="-29" font-family="Helvetica,sans-Serif" font-size="10.00">/home/runner/work/uniot</text>
<text text-anchor="start" x="896.51" y="-18" font-family="Helvetica,sans-Serif" font-size="10.00">&#45;core/uniot&#45;core/lib/Core</text>
<text text-anchor="middle" x="976.01" y="-7" font-family="Helvetica,sans-Serif" font-size="10.00">/MQTTWrapper/MQTTDevice.cpp</text>
</a>
</g>
</g>
<!-- Node9&#45;&gt;Node10 -->
<g id="edge12_Node000009_Node000010" class="edge">
<title>Node9&#45;&gt;Node10</title>
<g id="a_edge12_Node000009_Node000010"><a xlink:title=" ">
<path fill="none" stroke="#63b8ff" d="M976.01,-66.69C976.01,-58.08 976.01,-48.9 976.01,-41.07"/>
<polygon fill="#63b8ff" stroke="#63b8ff" points="972.51,-66.79 976.01,-76.79 979.51,-66.79 972.51,-66.79"/>
</a>
</g>
</g>
<!-- Node11&#45;&gt;Node2 -->
<g id="edge14_Node000011_Node000002" class="edge">
<title>Node11&#45;&gt;Node2</title>
<g id="a_edge14_Node000011_Node000002"><a xlink:title=" ">
<path fill="none" stroke="#63b8ff" d="M784.49,-68.67C777.4,-59.5 769.66,-49.5 763.15,-41.07"/>
<polygon fill="#63b8ff" stroke="#63b8ff" points="781.89,-71.03 790.77,-76.79 787.43,-66.74 781.89,-71.03"/>
</a>
</g>
</g>
<!-- Node13 -->
<g id="Node000013" class="node">
<title>Node13</title>
<g id="a_Node000013"><a xlink:href="../../d9/d1c/_uniot_8cpp.html" target="_top" xlink:title=" ">
<polygon fill="white" stroke="#666666" points="1209.01,-118 1071.01,-118 1071.01,-77 1209.01,-77 1209.01,-118"/>
<text text-anchor="start" x="1079.01" y="-106" font-family="Helvetica,sans-Serif" font-size="10.00">/home/runner/work/uniot</text>
<text text-anchor="start" x="1079.01" y="-95" font-family="Helvetica,sans-Serif" font-size="10.00">&#45;core/uniot&#45;core/lib/Uniot</text>
<text text-anchor="middle" x="1140.01" y="-84" font-family="Helvetica,sans-Serif" font-size="10.00">/Uniot.cpp</text>
</a>
</g>
</g>
<!-- Node12&#45;&gt;Node13 -->
<g id="edge16_Node000012_Node000013" class="edge">
<title>Node12&#45;&gt;Node13</title>
<g id="a_edge16_Node000012_Node000013"><a xlink:title=" ">
<path fill="none" stroke="#63b8ff" d="M1140.01,-143.69C1140.01,-135.08 1140.01,-125.9 1140.01,-118.07"/>
<polygon fill="#63b8ff" stroke="#63b8ff" points="1136.51,-143.79 1140.01,-153.79 1143.51,-143.79 1136.51,-143.79"/>
</a>
</g>
</g>
</g>
</svg>
