<?xml version="1.0" encoding="UTF-8" standalone="no"?>
<!DOCTYPE svg PUBLIC "-//W3C//DTD SVG 1.1//EN"
 "http://www.w3.org/Graphics/SVG/1.1/DTD/svg11.dtd">
<!-- Generated by graphviz version 2.43.0 (0)
 -->
<!-- Title: /home/runner/work/uniot&#45;core/uniot&#45;core/lib/Core/LispWrapper/DefaultPrimitives.h Pages: 1 -->
<svg width="311pt" height="588pt"
 viewBox="0.00 0.00 311.00 588.00" xmlns="http://www.w3.org/2000/svg" xmlns:xlink="http://www.w3.org/1999/xlink">
<g id="graph0" class="graph" transform="scale(1 1) rotate(0) translate(4 584)">
<title>/home/runner/work/uniot&#45;core/uniot&#45;core/lib/Core/LispWrapper/DefaultPrimitives.h</title>
<!-- Node1 -->
<g id="Node000001" class="node">
<title>Node1</title>
<g id="a_Node000001"><a xlink:title="Defines string constants for Lisp primitive function names.">
<polygon fill="#999999" stroke="#666666" points="209,-580 31,-580 31,-539 209,-539 209,-580"/>
<text text-anchor="start" x="39" y="-568" font-family="Helvetica,sans-Serif" font-size="10.00">/home/runner/work/uniot</text>
<text text-anchor="start" x="39" y="-557" font-family="Helvetica,sans-Serif" font-size="10.00">&#45;core/uniot&#45;core/lib/Core</text>
<text text-anchor="middle" x="120" y="-546" font-family="Helvetica,sans-Serif" font-size="10.00">/LispWrapper/DefaultPrimitives.h</text>
</a>
</g>
</g>
<!-- Node2 -->
<g id="Node000002" class="node">
<title>Node2</title>
<g id="a_Node000002"><a xlink:href="../../d1/d24/_lisp_primitives_8h.html" target="_top" xlink:title=" ">
<polygon fill="white" stroke="#666666" points="144,-195 0,-195 0,-154 144,-154 144,-195"/>
<text text-anchor="start" x="8" y="-183" font-family="Helvetica,sans-Serif" font-size="10.00">/home/runner/work/uniot</text>
<text text-anchor="start" x="8" y="-172" font-family="Helvetica,sans-Serif" font-size="10.00">&#45;core/uniot&#45;core/lib/AppKit</text>
<text text-anchor="middle" x="72" y="-161" font-family="Helvetica,sans-Serif" font-size="10.00">/LispPrimitives.h</text>
</a>
</g>
</g>
<!-- Node1&#45;&gt;Node2 -->
<g id="edge1_Node000001_Node000002" class="edge">
<title>Node1&#45;&gt;Node2</title>
<g id="a_edge1_Node000001_Node000002"><a xlink:title=" ">
<path fill="none" stroke="#63b8ff" d="M105.21,-529.94C91.11,-500 72,-451.2 72,-406.5 72,-406.5 72,-406.5 72,-327.5 72,-280 72,-224.15 72,-195.18"/>
<polygon fill="#63b8ff" stroke="#63b8ff" points="102.08,-531.49 109.58,-538.96 108.37,-528.44 102.08,-531.49"/>
</a>
</g>
</g>
<!-- Node4 -->
<g id="Node000004" class="node">
<title>Node4</title>
<g id="a_Node000004"><a xlink:href="../../df/d6e/_gpio_register_8h.html" target="_top" xlink:title=" ">
<polygon fill="white" stroke="#666666" points="241.5,-503 104.5,-503 104.5,-462 241.5,-462 241.5,-503"/>
<text text-anchor="start" x="112.5" y="-491" font-family="Helvetica,sans-Serif" font-size="10.00">/home/runner/work/uniot</text>
<text text-anchor="start" x="112.5" y="-480" font-family="Helvetica,sans-Serif" font-size="10.00">&#45;core/uniot&#45;core/lib/Core</text>
<text text-anchor="middle" x="173" y="-469" font-family="Helvetica,sans-Serif" font-size="10.00">/Register/GpioRegister.h</text>
</a>
</g>
</g>
<!-- Node1&#45;&gt;Node4 -->
<g id="edge3_Node000001_Node000004" class="edge">
<title>Node1&#45;&gt;Node4</title>
<g id="a_edge3_Node000001_Node000004"><a xlink:title=" ">
<path fill="none" stroke="#63b8ff" d="M139.86,-530.39C146.29,-521.3 153.28,-511.41 159.17,-503.07"/>
<polygon fill="#63b8ff" stroke="#63b8ff" points="136.84,-528.61 133.93,-538.79 142.55,-532.65 136.84,-528.61"/>
</a>
</g>
</g>
<!-- Node3 -->
<g id="Node000003" class="node">
<title>Node3</title>
<g id="a_Node000003"><a xlink:href="../../dc/d7b/_app_kit_8h.html" target="_top" xlink:title=" ">
<polygon fill="white" stroke="#666666" points="203,-41 59,-41 59,0 203,0 203,-41"/>
<text text-anchor="start" x="67" y="-29" font-family="Helvetica,sans-Serif" font-size="10.00">/home/runner/work/uniot</text>
<text text-anchor="start" x="67" y="-18" font-family="Helvetica,sans-Serif" font-size="10.00">&#45;core/uniot&#45;core/lib/AppKit</text>
<text text-anchor="middle" x="131" y="-7" font-family="Helvetica,sans-Serif" font-size="10.00">/AppKit.h</text>
</a>
</g>
</g>
<!-- Node2&#45;&gt;Node3 -->
<g id="edge2_Node000002_Node000003" class="edge">
<title>Node2&#45;&gt;Node3</title>
<g id="a_edge2_Node000002_Node000003"><a xlink:title=" ">
<path fill="none" stroke="#63b8ff" d="M83.31,-144.37C95.03,-114.16 113.05,-67.76 123.25,-41.47"/>
<polygon fill="#63b8ff" stroke="#63b8ff" points="79.95,-143.35 79.59,-153.94 86.47,-145.88 79.95,-143.35"/>
</a>
</g>
</g>
<!-- Node5 -->
<g id="Node000005" class="node">
<title>Node5</title>
<g id="a_Node000005"><a xlink:href="../../dd/d11/_register_manager_8h.html" target="_top" xlink:title=" ">
<polygon fill="white" stroke="#666666" points="261.5,-426 106.5,-426 106.5,-385 261.5,-385 261.5,-426"/>
<text text-anchor="start" x="114.5" y="-414" font-family="Helvetica,sans-Serif" font-size="10.00">/home/runner/work/uniot</text>
<text text-anchor="start" x="114.5" y="-403" font-family="Helvetica,sans-Serif" font-size="10.00">&#45;core/uniot&#45;core/lib/Core</text>
<text text-anchor="middle" x="184" y="-392" font-family="Helvetica,sans-Serif" font-size="10.00">/Register/RegisterManager.h</text>
</a>
</g>
</g>
<!-- Node4&#45;&gt;Node5 -->
<g id="edge4_Node000004_Node000005" class="edge">
<title>Node4&#45;&gt;Node5</title>
<g id="a_edge4_Node000004_Node000005"><a xlink:title=" ">
<path fill="none" stroke="#63b8ff" d="M177.37,-451.69C178.64,-443.08 179.98,-433.9 181.13,-426.07"/>
<polygon fill="#63b8ff" stroke="#63b8ff" points="173.88,-451.39 175.89,-461.79 180.8,-452.41 173.88,-451.39"/>
</a>
</g>
</g>
<!-- Node6 -->
<g id="Node000006" class="node">
<title>Node6</title>
<g id="a_Node000006"><a xlink:href="../../d8/dc9/_register_manager_proxy_8h.html" target="_top" xlink:title=" ">
<polygon fill="white" stroke="#666666" points="282,-349 100,-349 100,-308 282,-308 282,-349"/>
<text text-anchor="start" x="108" y="-337" font-family="Helvetica,sans-Serif" font-size="10.00">/home/runner/work/uniot</text>
<text text-anchor="start" x="108" y="-326" font-family="Helvetica,sans-Serif" font-size="10.00">&#45;core/uniot&#45;core/lib/Core</text>
<text text-anchor="middle" x="191" y="-315" font-family="Helvetica,sans-Serif" font-size="10.00">/Register/RegisterManagerProxy.h</text>
</a>
</g>
</g>
<!-- Node5&#45;&gt;Node6 -->
<g id="edge5_Node000005_Node000006" class="edge">
<title>Node5&#45;&gt;Node6</title>
<g id="a_edge5_Node000005_Node000006"><a xlink:title=" ">
<path fill="none" stroke="#63b8ff" d="M186.78,-374.69C187.59,-366.08 188.44,-356.9 189.17,-349.07"/>
<polygon fill="#63b8ff" stroke="#63b8ff" points="183.28,-374.51 185.84,-384.79 190.25,-375.16 183.28,-374.51"/>
</a>
</g>
</g>
<!-- Node7 -->
<g id="Node000007" class="node">
<title>Node7</title>
<g id="a_Node000007"><a xlink:href="../../dd/dcc/_primitive_expeditor_8h.html" target="_top" xlink:title=" ">
<polygon fill="white" stroke="#666666" points="282,-272 100,-272 100,-231 282,-231 282,-272"/>
<text text-anchor="start" x="108" y="-260" font-family="Helvetica,sans-Serif" font-size="10.00">/home/runner/work/uniot</text>
<text text-anchor="start" x="108" y="-249" font-family="Helvetica,sans-Serif" font-size="10.00">&#45;core/uniot&#45;core/lib/Core</text>
<text text-anchor="middle" x="191" y="-238" font-family="Helvetica,sans-Serif" font-size="10.00">/LispWrapper/PrimitiveExpeditor.h</text>
</a>
</g>
</g>
<!-- Node6&#45;&gt;Node7 -->
<g id="edge6_Node000006_Node000007" class="edge">
<title>Node6&#45;&gt;Node7</title>
<g id="a_edge6_Node000006_Node000007"><a xlink:title=" ">
<path fill="none" stroke="#63b8ff" d="M191,-297.69C191,-289.08 191,-279.9 191,-272.07"/>
<polygon fill="#63b8ff" stroke="#63b8ff" points="187.5,-297.79 191,-307.79 194.5,-297.79 187.5,-297.79"/>
</a>
</g>
</g>
<!-- Node7&#45;&gt;Node2 -->
<g id="edge7_Node000007_Node000002" class="edge">
<title>Node7&#45;&gt;Node2</title>
<g id="a_edge7_Node000007_Node000002"><a xlink:title=" ">
<path fill="none" stroke="#63b8ff" d="M151.56,-225.64C135.84,-215.74 118.01,-204.5 103.21,-195.17"/>
<polygon fill="#63b8ff" stroke="#63b8ff" points="149.72,-228.62 160.04,-230.99 153.45,-222.7 149.72,-228.62"/>
</a>
</g>
</g>
<!-- Node8 -->
<g id="Node000008" class="node">
<title>Node8</title>
<g id="a_Node000008"><a xlink:href="../../dc/d47/un_lisp_8h.html" target="_top" xlink:title=" ">
<polygon fill="white" stroke="#666666" points="299.5,-195 162.5,-195 162.5,-154 299.5,-154 299.5,-195"/>
<text text-anchor="start" x="170.5" y="-183" font-family="Helvetica,sans-Serif" font-size="10.00">/home/runner/work/uniot</text>
<text text-anchor="start" x="170.5" y="-172" font-family="Helvetica,sans-Serif" font-size="10.00">&#45;core/uniot&#45;core/lib/Core</text>
<text text-anchor="middle" x="231" y="-161" font-family="Helvetica,sans-Serif" font-size="10.00">/LispWrapper/unLisp.h</text>
</a>
</g>
</g>
<!-- Node7&#45;&gt;Node8 -->
<g id="edge8_Node000007_Node000008" class="edge">
<title>Node7&#45;&gt;Node8</title>
<g id="a_edge8_Node000007_Node000008"><a xlink:title=" ">
<path fill="none" stroke="#63b8ff" d="M206.29,-221.83C211.06,-212.89 216.21,-203.24 220.56,-195.07"/>
<polygon fill="#63b8ff" stroke="#63b8ff" points="203.13,-220.32 201.51,-230.79 209.3,-223.62 203.13,-220.32"/>
</a>
</g>
</g>
<!-- Node8&#45;&gt;Node3 -->
<g id="edge9_Node000008_Node000003" class="edge">
<title>Node8&#45;&gt;Node3</title>
<g id="a_edge9_Node000008_Node000003"><a xlink:title=" ">
<path fill="none" stroke="#63b8ff" d="M181.31,-148.34C169.44,-140.16 157.92,-130.03 150,-118 134.69,-94.75 131.18,-61.99 130.64,-41.25"/>
<polygon fill="#63b8ff" stroke="#63b8ff" points="179.68,-151.46 189.97,-153.95 183.48,-145.58 179.68,-151.46"/>
</a>
</g>
</g>
<!-- Node9 -->
<g id="Node000009" class="node">
<title>Node9</title>
<g id="a_Node000009"><a xlink:href="../../d8/de7/_lisp_device_8h.html" target="_top" xlink:title=" ">
<polygon fill="white" stroke="#666666" points="303,-118 159,-118 159,-77 303,-77 303,-118"/>
<text text-anchor="start" x="167" y="-106" font-family="Helvetica,sans-Serif" font-size="10.00">/home/runner/work/uniot</text>
<text text-anchor="start" x="167" y="-95" font-family="Helvetica,sans-Serif" font-size="10.00">&#45;core/uniot&#45;core/lib/AppKit</text>
<text text-anchor="middle" x="231" y="-84" font-family="Helvetica,sans-Serif" font-size="10.00">/LispDevice.h</text>
</a>
</g>
</g>
<!-- Node8&#45;&gt;Node9 -->
<g id="edge10_Node000008_Node000009" class="edge">
<title>Node8&#45;&gt;Node9</title>
<g id="a_edge10_Node000008_Node000009"><a xlink:title=" ">
<path fill="none" stroke="#63b8ff" d="M231,-143.69C231,-135.08 231,-125.9 231,-118.07"/>
<polygon fill="#63b8ff" stroke="#63b8ff" points="227.5,-143.79 231,-153.79 234.5,-143.79 227.5,-143.79"/>
</a>
</g>
</g>
<!-- Node9&#45;&gt;Node3 -->
<g id="edge11_Node000009_Node000003" class="edge">
<title>Node9&#45;&gt;Node3</title>
<g id="a_edge11_Node000009_Node000003"><a xlink:title=" ">
<path fill="none" stroke="#63b8ff" d="M196.75,-70.82C183.82,-61.11 169.32,-50.24 157.23,-41.17"/>
<polygon fill="#63b8ff" stroke="#63b8ff" points="194.89,-73.79 204.99,-76.99 199.09,-68.19 194.89,-73.79"/>
</a>
</g>
</g>
</g>
</svg>
