<?xml version="1.0" encoding="UTF-8" standalone="no"?>
<!DOCTYPE svg PUBLIC "-//W3C//DTD SVG 1.1//EN"
 "http://www.w3.org/Graphics/SVG/1.1/DTD/svg11.dtd">
<!-- Generated by graphviz version 2.43.0 (0)
 -->
<!-- Title: /home/runner/work/uniot&#45;core/uniot&#45;core/lib/Core/CBORWrapper/CBORObject.h Pages: 1 -->
<svg width="1185pt" height="511pt"
 viewBox="0.00 0.00 1184.53 511.00" xmlns="http://www.w3.org/2000/svg" xmlns:xlink="http://www.w3.org/1999/xlink">
<g id="graph0" class="graph" transform="scale(1 1) rotate(0) translate(4 507)">
<title>/home/runner/work/uniot&#45;core/uniot&#45;core/lib/Core/CBORWrapper/CBORObject.h</title>
<!-- Node1 -->
<g id="Node000001" class="node">
<title>Node1</title>
<g id="a_Node000001"><a xlink:title=" ">
<polygon fill="#999999" stroke="#666666" points="907,-503 747,-503 747,-462 907,-462 907,-503"/>
<text text-anchor="start" x="755" y="-491" font-family="Helvetica,sans-Serif" font-size="10.00">/home/runner/work/uniot</text>
<text text-anchor="start" x="755" y="-480" font-family="Helvetica,sans-Serif" font-size="10.00">&#45;core/uniot&#45;core/lib/Core</text>
<text text-anchor="middle" x="827" y="-469" font-family="Helvetica,sans-Serif" font-size="10.00">/CBORWrapper/CBORObject.h</text>
</a>
</g>
</g>
<!-- Node2 -->
<g id="Node000002" class="node">
<title>Node2</title>
<g id="a_Node000002"><a xlink:href="../../db/dfc/_top_device_8h.html" target="_top" xlink:title=" ">
<polygon fill="white" stroke="#666666" points="1052,-118 908,-118 908,-77 1052,-77 1052,-118"/>
<text text-anchor="start" x="916" y="-106" font-family="Helvetica,sans-Serif" font-size="10.00">/home/runner/work/uniot</text>
<text text-anchor="start" x="916" y="-95" font-family="Helvetica,sans-Serif" font-size="10.00">&#45;core/uniot&#45;core/lib/AppKit</text>
<text text-anchor="middle" x="980" y="-84" font-family="Helvetica,sans-Serif" font-size="10.00">/TopDevice.h</text>
</a>
</g>
</g>
<!-- Node1&#45;&gt;Node2 -->
<g id="edge1_Node000001_Node000002" class="edge">
<title>Node1&#45;&gt;Node2</title>
<g id="a_edge1_Node000001_Node000002"><a xlink:title=" ">
<path fill="none" stroke="#63b8ff" d="M917.14,-479.5C1019.95,-471.85 1174,-441.68 1174,-329.5 1174,-329.5 1174,-329.5 1174,-250.5 1174,-206.79 1184.12,-186.6 1155,-154 1129.1,-125 1088.14,-111.03 1052.36,-104.36"/>
<polygon fill="#63b8ff" stroke="#63b8ff" points="916.78,-476.01 907.04,-480.19 917.26,-482.99 916.78,-476.01"/>
</a>
</g>
</g>
<!-- Node4 -->
<g id="Node000004" class="node">
<title>Node4</title>
<g id="a_Node000004"><a xlink:href="../../dd/ded/_c_o_s_e_message_8h.html" target="_top" xlink:title=" ">
<polygon fill="white" stroke="#666666" points="170,-426 0,-426 0,-385 170,-385 170,-426"/>
<text text-anchor="start" x="8" y="-414" font-family="Helvetica,sans-Serif" font-size="10.00">/home/runner/work/uniot</text>
<text text-anchor="start" x="8" y="-403" font-family="Helvetica,sans-Serif" font-size="10.00">&#45;core/uniot&#45;core/lib/Core</text>
<text text-anchor="middle" x="85" y="-392" font-family="Helvetica,sans-Serif" font-size="10.00">/CBORWrapper/COSEMessage.h</text>
</a>
</g>
</g>
<!-- Node1&#45;&gt;Node4 -->
<g id="edge3_Node000001_Node000004" class="edge">
<title>Node1&#45;&gt;Node4</title>
<g id="a_edge3_Node000001_Node000004"><a xlink:title=" ">
<path fill="none" stroke="#63b8ff" d="M736.73,-476.8C612,-469.61 380.13,-453.7 184,-426 179.49,-425.36 174.88,-424.65 170.22,-423.9"/>
<polygon fill="#63b8ff" stroke="#63b8ff" points="736.81,-480.31 746.99,-477.39 737.21,-473.32 736.81,-480.31"/>
</a>
</g>
</g>
<!-- Node5 -->
<g id="Node000005" class="node">
<title>Node5</title>
<g id="a_Node000005"><a xlink:href="../../dc/d26/_m_q_t_t_kit_8h.html" target="_top" xlink:title=" ">
<polygon fill="white" stroke="#666666" points="353.5,-118 210.5,-118 210.5,-77 353.5,-77 353.5,-118"/>
<text text-anchor="start" x="218.5" y="-106" font-family="Helvetica,sans-Serif" font-size="10.00">/home/runner/work/uniot</text>
<text text-anchor="start" x="218.5" y="-95" font-family="Helvetica,sans-Serif" font-size="10.00">&#45;core/uniot&#45;core/lib/Core</text>
<text text-anchor="middle" x="282" y="-84" font-family="Helvetica,sans-Serif" font-size="10.00">/MQTTWrapper/MQTTKit.h</text>
</a>
</g>
</g>
<!-- Node1&#45;&gt;Node5 -->
<g id="edge11_Node000001_Node000005" class="edge">
<title>Node1&#45;&gt;Node5</title>
<g id="a_edge11_Node000001_Node000005"><a xlink:title=" ">
<path fill="none" stroke="#63b8ff" d="M736.53,-478.36C562.46,-469.85 198,-438.96 198,-329.5 198,-329.5 198,-329.5 198,-250.5 198,-206.79 194.93,-191.73 217,-154 225.32,-139.78 238.64,-127.46 251.07,-118.06"/>
<polygon fill="#63b8ff" stroke="#63b8ff" points="736.54,-481.87 746.7,-478.84 736.87,-474.88 736.54,-481.87"/>
</a>
</g>
</g>
<!-- Node7 -->
<g id="Node000007" class="node">
<title>Node7</title>
<g id="a_Node000007"><a xlink:href="../../dc/d47/un_lisp_8h.html" target="_top" xlink:title=" ">
<polygon fill="white" stroke="#666666" points="983.5,-195 846.5,-195 846.5,-154 983.5,-154 983.5,-195"/>
<text text-anchor="start" x="854.5" y="-183" font-family="Helvetica,sans-Serif" font-size="10.00">/home/runner/work/uniot</text>
<text text-anchor="start" x="854.5" y="-172" font-family="Helvetica,sans-Serif" font-size="10.00">&#45;core/uniot&#45;core/lib/Core</text>
<text text-anchor="middle" x="915" y="-161" font-family="Helvetica,sans-Serif" font-size="10.00">/LispWrapper/unLisp.h</text>
</a>
</g>
</g>
<!-- Node1&#45;&gt;Node7 -->
<g id="edge7_Node000001_Node000007" class="edge">
<title>Node1&#45;&gt;Node7</title>
<g id="a_edge7_Node000001_Node000007"><a xlink:title=" ">
<path fill="none" stroke="#63b8ff" d="M828.55,-451.75C831.95,-403.56 842.58,-306.23 875,-231 880.59,-218.02 889.63,-205.12 897.7,-195.02"/>
<polygon fill="#63b8ff" stroke="#63b8ff" points="825.05,-451.6 827.89,-461.81 832.03,-452.06 825.05,-451.6"/>
</a>
</g>
</g>
<!-- Node9 -->
<g id="Node000009" class="node">
<title>Node9</title>
<g id="a_Node000009"><a xlink:href="../../dd/d11/_register_manager_8h.html" target="_top" xlink:title=" ">
<polygon fill="white" stroke="#666666" points="1046.5,-426 891.5,-426 891.5,-385 1046.5,-385 1046.5,-426"/>
<text text-anchor="start" x="899.5" y="-414" font-family="Helvetica,sans-Serif" font-size="10.00">/home/runner/work/uniot</text>
<text text-anchor="start" x="899.5" y="-403" font-family="Helvetica,sans-Serif" font-size="10.00">&#45;core/uniot&#45;core/lib/Core</text>
<text text-anchor="middle" x="969" y="-392" font-family="Helvetica,sans-Serif" font-size="10.00">/Register/RegisterManager.h</text>
</a>
</g>
</g>
<!-- Node1&#45;&gt;Node9 -->
<g id="edge12_Node000001_Node000009" class="edge">
<title>Node1&#45;&gt;Node9</title>
<g id="a_edge12_Node000001_Node000009"><a xlink:title=" ">
<path fill="none" stroke="#63b8ff" d="M873.02,-457.19C892.03,-447.15 913.77,-435.67 931.75,-426.17"/>
<polygon fill="#63b8ff" stroke="#63b8ff" points="871.15,-454.23 863.94,-461.99 874.42,-460.41 871.15,-454.23"/>
</a>
</g>
</g>
<!-- Node13 -->
<g id="Node000013" class="node">
<title>Node13</title>
<g id="a_Node000013"><a xlink:href="../../db/d93/_c_b_o_r_storage_8h.html" target="_top" xlink:title=" ">
<polygon fill="white" stroke="#666666" points="721.5,-349 584.5,-349 584.5,-308 721.5,-308 721.5,-349"/>
<text text-anchor="start" x="592.5" y="-337" font-family="Helvetica,sans-Serif" font-size="10.00">/home/runner/work/uniot</text>
<text text-anchor="start" x="592.5" y="-326" font-family="Helvetica,sans-Serif" font-size="10.00">&#45;core/uniot&#45;core/lib/Core</text>
<text text-anchor="middle" x="653" y="-315" font-family="Helvetica,sans-Serif" font-size="10.00">/Storage/CBORStorage.h</text>
</a>
</g>
</g>
<!-- Node1&#45;&gt;Node13 -->
<g id="edge18_Node000001_Node000013" class="edge">
<title>Node1&#45;&gt;Node13</title>
<g id="a_edge18_Node000001_Node000013"><a xlink:title=" ">
<path fill="none" stroke="#63b8ff" d="M796.74,-455.06C762.2,-424.9 706.53,-376.26 675.58,-349.23"/>
<polygon fill="#63b8ff" stroke="#63b8ff" points="794.77,-458 804.61,-461.94 799.38,-452.72 794.77,-458"/>
</a>
</g>
</g>
<!-- Node3 -->
<g id="Node000003" class="node">
<title>Node3</title>
<g id="a_Node000003"><a xlink:href="../../dc/d7b/_app_kit_8h.html" target="_top" xlink:title=" ">
<polygon fill="white" stroke="#666666" points="890,-41 746,-41 746,0 890,0 890,-41"/>
<text text-anchor="start" x="754" y="-29" font-family="Helvetica,sans-Serif" font-size="10.00">/home/runner/work/uniot</text>
<text text-anchor="start" x="754" y="-18" font-family="Helvetica,sans-Serif" font-size="10.00">&#45;core/uniot&#45;core/lib/AppKit</text>
<text text-anchor="middle" x="818" y="-7" font-family="Helvetica,sans-Serif" font-size="10.00">/AppKit.h</text>
</a>
</g>
</g>
<!-- Node2&#45;&gt;Node3 -->
<g id="edge2_Node000002_Node000003" class="edge">
<title>Node2&#45;&gt;Node3</title>
<g id="a_edge2_Node000002_Node000003"><a xlink:title=" ">
<path fill="none" stroke="#63b8ff" d="M928.64,-72.72C906.59,-62.51 881.14,-50.73 860.21,-41.04"/>
<polygon fill="#63b8ff" stroke="#63b8ff" points="927.31,-75.97 937.86,-76.99 930.26,-69.61 927.31,-75.97"/>
</a>
</g>
</g>
<!-- Node4&#45;&gt;Node5 -->
<g id="edge4_Node000004_Node000005" class="edge">
<title>Node4&#45;&gt;Node5</title>
<g id="a_edge4_Node000004_Node000005"><a xlink:title=" ">
<path fill="none" stroke="#63b8ff" d="M90.01,-375C99.92,-324.47 126.26,-220.37 184,-154 197.15,-138.88 215.48,-126.97 232.74,-118.12"/>
<polygon fill="#63b8ff" stroke="#63b8ff" points="86.55,-374.47 88.14,-384.94 93.43,-375.76 86.55,-374.47"/>
</a>
</g>
</g>
<!-- Node5&#45;&gt;Node3 -->
<g id="edge5_Node000005_Node000003" class="edge">
<title>Node5&#45;&gt;Node3</title>
<g id="a_edge5_Node000005_Node000003"><a xlink:title=" ">
<path fill="none" stroke="#63b8ff" d="M364,-76.92C504.7,-51.95 657.97,-35.87 745.9,-27.71"/>
<polygon fill="#63b8ff" stroke="#63b8ff" points="363.12,-73.53 353.9,-78.74 364.36,-80.42 363.12,-73.53"/>
</a>
</g>
</g>
<!-- Node6 -->
<g id="Node000006" class="node">
<title>Node6</title>
<g id="a_Node000006"><a xlink:href="../../da/d02/_m_q_t_t_device_8cpp.html" target="_top" xlink:title=" ">
<polygon fill="white" stroke="#666666" points="361.5,-41 186.5,-41 186.5,0 361.5,0 361.5,-41"/>
<text text-anchor="start" x="194.5" y="-29" font-family="Helvetica,sans-Serif" font-size="10.00">/home/runner/work/uniot</text>
<text text-anchor="start" x="194.5" y="-18" font-family="Helvetica,sans-Serif" font-size="10.00">&#45;core/uniot&#45;core/lib/Core</text>
<text text-anchor="middle" x="274" y="-7" font-family="Helvetica,sans-Serif" font-size="10.00">/MQTTWrapper/MQTTDevice.cpp</text>
</a>
</g>
</g>
<!-- Node5&#45;&gt;Node6 -->
<g id="edge6_Node000005_Node000006" class="edge">
<title>Node5&#45;&gt;Node6</title>
<g id="a_edge6_Node000005_Node000006"><a xlink:title=" ">
<path fill="none" stroke="#63b8ff" d="M278.82,-66.69C277.9,-58.08 276.92,-48.9 276.09,-41.07"/>
<polygon fill="#63b8ff" stroke="#63b8ff" points="275.36,-67.22 279.9,-76.79 282.32,-66.48 275.36,-67.22"/>
</a>
</g>
</g>
<!-- Node7&#45;&gt;Node3 -->
<g id="edge8_Node000007_Node000003" class="edge">
<title>Node7&#45;&gt;Node3</title>
<g id="a_edge8_Node000007_Node000003"><a xlink:title=" ">
<path fill="none" stroke="#63b8ff" d="M993.52,-152.41C1023.41,-142.66 1052.39,-130.49 1061,-118 1071.35,-103 1072.36,-91.25 1061,-77 1039.89,-50.52 953.78,-35.68 890.02,-28.14"/>
<polygon fill="#63b8ff" stroke="#63b8ff" points="992.28,-149.13 983.81,-155.49 994.4,-155.8 992.28,-149.13"/>
</a>
</g>
</g>
<!-- Node8 -->
<g id="Node000008" class="node">
<title>Node8</title>
<g id="a_Node000008"><a xlink:href="../../d8/de7/_lisp_device_8h.html" target="_top" xlink:title=" ">
<polygon fill="white" stroke="#666666" points="890,-118 746,-118 746,-77 890,-77 890,-118"/>
<text text-anchor="start" x="754" y="-106" font-family="Helvetica,sans-Serif" font-size="10.00">/home/runner/work/uniot</text>
<text text-anchor="start" x="754" y="-95" font-family="Helvetica,sans-Serif" font-size="10.00">&#45;core/uniot&#45;core/lib/AppKit</text>
<text text-anchor="middle" x="818" y="-84" font-family="Helvetica,sans-Serif" font-size="10.00">/LispDevice.h</text>
</a>
</g>
</g>
<!-- Node7&#45;&gt;Node8 -->
<g id="edge9_Node000007_Node000008" class="edge">
<title>Node7&#45;&gt;Node8</title>
<g id="a_edge9_Node000007_Node000008"><a xlink:title=" ">
<path fill="none" stroke="#63b8ff" d="M881.78,-147.82C869.23,-138.11 855.17,-127.24 843.44,-118.17"/>
<polygon fill="#63b8ff" stroke="#63b8ff" points="879.72,-150.64 889.77,-153.99 884,-145.1 879.72,-150.64"/>
</a>
</g>
</g>
<!-- Node8&#45;&gt;Node3 -->
<g id="edge10_Node000008_Node000003" class="edge">
<title>Node8&#45;&gt;Node3</title>
<g id="a_edge10_Node000008_Node000003"><a xlink:title=" ">
<path fill="none" stroke="#63b8ff" d="M818,-66.69C818,-58.08 818,-48.9 818,-41.07"/>
<polygon fill="#63b8ff" stroke="#63b8ff" points="814.5,-66.79 818,-76.79 821.5,-66.79 814.5,-66.79"/>
</a>
</g>
</g>
<!-- Node10 -->
<g id="Node000010" class="node">
<title>Node10</title>
<g id="a_Node000010"><a xlink:href="../../d8/dc9/_register_manager_proxy_8h.html" target="_top" xlink:title=" ">
<polygon fill="white" stroke="#666666" points="1066,-349 884,-349 884,-308 1066,-308 1066,-349"/>
<text text-anchor="start" x="892" y="-337" font-family="Helvetica,sans-Serif" font-size="10.00">/home/runner/work/uniot</text>
<text text-anchor="start" x="892" y="-326" font-family="Helvetica,sans-Serif" font-size="10.00">&#45;core/uniot&#45;core/lib/Core</text>
<text text-anchor="middle" x="975" y="-315" font-family="Helvetica,sans-Serif" font-size="10.00">/Register/RegisterManagerProxy.h</text>
</a>
</g>
</g>
<!-- Node9&#45;&gt;Node10 -->
<g id="edge13_Node000009_Node000010" class="edge">
<title>Node9&#45;&gt;Node10</title>
<g id="a_edge13_Node000009_Node000010"><a xlink:title=" ">
<path fill="none" stroke="#63b8ff" d="M971.38,-374.69C972.07,-366.08 972.81,-356.9 973.43,-349.07"/>
<polygon fill="#63b8ff" stroke="#63b8ff" points="967.89,-374.55 970.58,-384.79 974.86,-375.11 967.89,-374.55"/>
</a>
</g>
</g>
<!-- Node11 -->
<g id="Node000011" class="node">
<title>Node11</title>
<g id="a_Node000011"><a xlink:href="../../dd/dcc/_primitive_expeditor_8h.html" target="_top" xlink:title=" ">
<polygon fill="white" stroke="#666666" points="1066,-272 884,-272 884,-231 1066,-231 1066,-272"/>
<text text-anchor="start" x="892" y="-260" font-family="Helvetica,sans-Serif" font-size="10.00">/home/runner/work/uniot</text>
<text text-anchor="start" x="892" y="-249" font-family="Helvetica,sans-Serif" font-size="10.00">&#45;core/uniot&#45;core/lib/Core</text>
<text text-anchor="middle" x="975" y="-238" font-family="Helvetica,sans-Serif" font-size="10.00">/LispWrapper/PrimitiveExpeditor.h</text>
</a>
</g>
</g>
<!-- Node10&#45;&gt;Node11 -->
<g id="edge14_Node000010_Node000011" class="edge">
<title>Node10&#45;&gt;Node11</title>
<g id="a_edge14_Node000010_Node000011"><a xlink:title=" ">
<path fill="none" stroke="#63b8ff" d="M975,-297.69C975,-289.08 975,-279.9 975,-272.07"/>
<polygon fill="#63b8ff" stroke="#63b8ff" points="971.5,-297.79 975,-307.79 978.5,-297.79 971.5,-297.79"/>
</a>
</g>
</g>
<!-- Node11&#45;&gt;Node7 -->
<g id="edge17_Node000011_Node000007" class="edge">
<title>Node11&#45;&gt;Node7</title>
<g id="a_edge17_Node000011_Node000007"><a xlink:title=" ">
<path fill="none" stroke="#63b8ff" d="M952.96,-222.95C945.56,-213.7 937.47,-203.58 930.66,-195.07"/>
<polygon fill="#63b8ff" stroke="#63b8ff" points="950.26,-225.17 959.24,-230.79 955.72,-220.8 950.26,-225.17"/>
</a>
</g>
</g>
<!-- Node12 -->
<g id="Node000012" class="node">
<title>Node12</title>
<g id="a_Node000012"><a xlink:href="../../d1/d24/_lisp_primitives_8h.html" target="_top" xlink:title=" ">
<polygon fill="white" stroke="#666666" points="1146,-195 1002,-195 1002,-154 1146,-154 1146,-195"/>
<text text-anchor="start" x="1010" y="-183" font-family="Helvetica,sans-Serif" font-size="10.00">/home/runner/work/uniot</text>
<text text-anchor="start" x="1010" y="-172" font-family="Helvetica,sans-Serif" font-size="10.00">&#45;core/uniot&#45;core/lib/AppKit</text>
<text text-anchor="middle" x="1074" y="-161" font-family="Helvetica,sans-Serif" font-size="10.00">/LispPrimitives.h</text>
</a>
</g>
</g>
<!-- Node11&#45;&gt;Node12 -->
<g id="edge15_Node000011_Node000012" class="edge">
<title>Node11&#45;&gt;Node12</title>
<g id="a_edge15_Node000011_Node000012"><a xlink:title=" ">
<path fill="none" stroke="#63b8ff" d="M1008.9,-224.82C1021.71,-215.11 1036.07,-204.24 1048.03,-195.17"/>
<polygon fill="#63b8ff" stroke="#63b8ff" points="1006.61,-222.16 1000.75,-230.99 1010.84,-227.74 1006.61,-222.16"/>
</a>
</g>
</g>
<!-- Node12&#45;&gt;Node3 -->
<g id="edge16_Node000012_Node000003" class="edge">
<title>Node12&#45;&gt;Node3</title>
<g id="a_edge16_Node000012_Node000003"><a xlink:title=" ">
<path fill="none" stroke="#63b8ff" d="M1085.03,-144.06C1090.82,-123.1 1093.97,-95.49 1079,-77 1055.61,-48.11 958.95,-33.63 890.1,-26.85"/>
<polygon fill="#63b8ff" stroke="#63b8ff" points="1081.65,-143.16 1082.05,-153.74 1088.34,-145.22 1081.65,-143.16"/>
</a>
</g>
</g>
<!-- Node13&#45;&gt;Node8 -->
<g id="edge19_Node000013_Node000008" class="edge">
<title>Node13&#45;&gt;Node8</title>
<g id="a_edge19_Node000013_Node000008"><a xlink:title=" ">
<path fill="none" stroke="#63b8ff" d="M692.71,-301.93C726.1,-278.28 772.38,-240.03 798,-195 811.71,-170.91 816.08,-138.67 817.44,-118.23"/>
<polygon fill="#63b8ff" stroke="#63b8ff" points="690.3,-299.34 684.09,-307.92 694.3,-305.09 690.3,-299.34"/>
</a>
</g>
</g>
<!-- Node14 -->
<g id="Node000014" class="node">
<title>Node14</title>
<g id="a_Node000014"><a xlink:href="../../df/d86/_credentials_8h.html" target="_top" xlink:title=" ">
<polygon fill="white" stroke="#666666" points="440.5,-272 303.5,-272 303.5,-231 440.5,-231 440.5,-272"/>
<text text-anchor="start" x="311.5" y="-260" font-family="Helvetica,sans-Serif" font-size="10.00">/home/runner/work/uniot</text>
<text text-anchor="start" x="311.5" y="-249" font-family="Helvetica,sans-Serif" font-size="10.00">&#45;core/uniot&#45;core/lib/Core</text>
<text text-anchor="middle" x="372" y="-238" font-family="Helvetica,sans-Serif" font-size="10.00">/Credentials.h</text>
</a>
</g>
</g>
<!-- Node13&#45;&gt;Node14 -->
<g id="edge20_Node000013_Node000014" class="edge">
<title>Node13&#45;&gt;Node14</title>
<g id="a_edge20_Node000013_Node000014"><a xlink:title=" ">
<path fill="none" stroke="#63b8ff" d="M574.6,-306.57C532.47,-295.33 481.03,-281.6 440.52,-270.79"/>
<polygon fill="#63b8ff" stroke="#63b8ff" points="573.7,-309.96 584.26,-309.15 575.5,-303.19 573.7,-309.96"/>
</a>
</g>
</g>
<!-- Node17 -->
<g id="Node000017" class="node">
<title>Node17</title>
<g id="a_Node000017"><a xlink:href="../../d9/d89/_network_controller_8h.html" target="_top" xlink:title=" ">
<polygon fill="white" stroke="#666666" points="689.5,-118 528.5,-118 528.5,-77 689.5,-77 689.5,-118"/>
<text text-anchor="start" x="536.5" y="-106" font-family="Helvetica,sans-Serif" font-size="10.00">/home/runner/work/uniot</text>
<text text-anchor="start" x="536.5" y="-95" font-family="Helvetica,sans-Serif" font-size="10.00">&#45;core/uniot&#45;core/lib/Core</text>
<text text-anchor="middle" x="609" y="-84" font-family="Helvetica,sans-Serif" font-size="10.00">/Network/NetworkController.h</text>
</a>
</g>
</g>
<!-- Node13&#45;&gt;Node17 -->
<g id="edge35_Node000013_Node000017" class="edge">
<title>Node13&#45;&gt;Node17</title>
<g id="a_edge35_Node000013_Node000017"><a xlink:title=" ">
<path fill="none" stroke="#63b8ff" d="M647.34,-298.02C638.23,-250.61 620.56,-158.66 612.8,-118.3"/>
<polygon fill="#63b8ff" stroke="#63b8ff" points="643.92,-298.82 649.25,-307.98 650.8,-297.49 643.92,-298.82"/>
</a>
</g>
</g>
<!-- Node20 -->
<g id="Node000020" class="node">
<title>Node20</title>
<g id="a_Node000020"><a xlink:href="../../d5/de5/_date_8h.html" target="_top" xlink:title=" ">
<polygon fill="white" stroke="#666666" points="789.5,-195 652.5,-195 652.5,-154 789.5,-154 789.5,-195"/>
<text text-anchor="start" x="660.5" y="-183" font-family="Helvetica,sans-Serif" font-size="10.00">/home/runner/work/uniot</text>
<text text-anchor="start" x="660.5" y="-172" font-family="Helvetica,sans-Serif" font-size="10.00">&#45;core/uniot&#45;core/lib/Core</text>
<text text-anchor="middle" x="721" y="-161" font-family="Helvetica,sans-Serif" font-size="10.00">/Date/Date.h</text>
</a>
</g>
</g>
<!-- Node13&#45;&gt;Node20 -->
<g id="edge29_Node000013_Node000020" class="edge">
<title>Node13&#45;&gt;Node20</title>
<g id="a_edge29_Node000013_Node000020"><a xlink:title=" ">
<path fill="none" stroke="#63b8ff" d="M665.86,-298.76C679.36,-268.57 700.26,-221.87 712.07,-195.47"/>
<polygon fill="#63b8ff" stroke="#63b8ff" points="662.64,-297.38 661.75,-307.94 669.03,-300.24 662.64,-297.38"/>
</a>
</g>
</g>
<!-- Node21 -->
<g id="Node000021" class="node">
<title>Node21</title>
<g id="a_Node000021"><a xlink:href="../../d1/d04/_wifi_storage_8h.html" target="_top" xlink:title=" ">
<polygon fill="white" stroke="#666666" points="595.5,-272 458.5,-272 458.5,-231 595.5,-231 595.5,-272"/>
<text text-anchor="start" x="466.5" y="-260" font-family="Helvetica,sans-Serif" font-size="10.00">/home/runner/work/uniot</text>
<text text-anchor="start" x="466.5" y="-249" font-family="Helvetica,sans-Serif" font-size="10.00">&#45;core/uniot&#45;core/lib/Core</text>
<text text-anchor="middle" x="527" y="-238" font-family="Helvetica,sans-Serif" font-size="10.00">/Storage/WifiStorage.h</text>
</a>
</g>
</g>
<!-- Node13&#45;&gt;Node21 -->
<g id="edge36_Node000013_Node000021" class="edge">
<title>Node13&#45;&gt;Node21</title>
<g id="a_edge36_Node000013_Node000021"><a xlink:title=" ">
<path fill="none" stroke="#63b8ff" d="M611.24,-302.64C594.6,-292.74 575.71,-281.5 560.05,-272.17"/>
<polygon fill="#63b8ff" stroke="#63b8ff" points="609.84,-305.88 620.22,-307.99 613.42,-299.87 609.84,-305.88"/>
</a>
</g>
</g>
<!-- Node15 -->
<g id="Node000015" class="node">
<title>Node15</title>
<g id="a_Node000015"><a xlink:href="../../d3/dd0/_m_q_t_t_path_8h.html" target="_top" xlink:title=" ">
<polygon fill="white" stroke="#666666" points="377.5,-195 226.5,-195 226.5,-154 377.5,-154 377.5,-195"/>
<text text-anchor="start" x="234.5" y="-183" font-family="Helvetica,sans-Serif" font-size="10.00">/home/runner/work/uniot</text>
<text text-anchor="start" x="234.5" y="-172" font-family="Helvetica,sans-Serif" font-size="10.00">&#45;core/uniot&#45;core/lib/Core</text>
<text text-anchor="middle" x="302" y="-161" font-family="Helvetica,sans-Serif" font-size="10.00">/MQTTWrapper/MQTTPath.h</text>
</a>
</g>
</g>
<!-- Node14&#45;&gt;Node15 -->
<g id="edge21_Node000014_Node000015" class="edge">
<title>Node14&#45;&gt;Node15</title>
<g id="a_edge21_Node000014_Node000015"><a xlink:title=" ">
<path fill="none" stroke="#63b8ff" d="M346.55,-223.23C337.85,-213.91 328.29,-203.67 320.27,-195.07"/>
<polygon fill="#63b8ff" stroke="#63b8ff" points="344.23,-225.87 353.61,-230.79 349.34,-221.1 344.23,-225.87"/>
</a>
</g>
</g>
<!-- Node16 -->
<g id="Node000016" class="node">
<title>Node16</title>
<g id="a_Node000016"><a xlink:href="../../da/dc0/_network_scheduler_8h.html" target="_top" xlink:title=" ">
<polygon fill="white" stroke="#666666" points="595.5,-195 434.5,-195 434.5,-154 595.5,-154 595.5,-195"/>
<text text-anchor="start" x="442.5" y="-183" font-family="Helvetica,sans-Serif" font-size="10.00">/home/runner/work/uniot</text>
<text text-anchor="start" x="442.5" y="-172" font-family="Helvetica,sans-Serif" font-size="10.00">&#45;core/uniot&#45;core/lib/Core</text>
<text text-anchor="middle" x="515" y="-161" font-family="Helvetica,sans-Serif" font-size="10.00">/Network/NetworkScheduler.h</text>
</a>
</g>
</g>
<!-- Node14&#45;&gt;Node16 -->
<g id="edge23_Node000014_Node000016" class="edge">
<title>Node14&#45;&gt;Node16</title>
<g id="a_edge23_Node000014_Node000016"><a xlink:title=" ">
<path fill="none" stroke="#63b8ff" d="M418.08,-226.33C437.29,-216.26 459.3,-204.71 477.49,-195.17"/>
<polygon fill="#63b8ff" stroke="#63b8ff" points="416.43,-223.25 409.2,-230.99 419.68,-229.45 416.43,-223.25"/>
</a>
</g>
</g>
<!-- Node18 -->
<g id="Node000018" class="node">
<title>Node18</title>
<g id="a_Node000018"><a xlink:href="../../d4/d2b/_uniot_8h.html" target="_top" xlink:title=" ">
<polygon fill="white" stroke="#666666" points="510,-118 372,-118 372,-77 510,-77 510,-118"/>
<text text-anchor="start" x="380" y="-106" font-family="Helvetica,sans-Serif" font-size="10.00">/home/runner/work/uniot</text>
<text text-anchor="start" x="380" y="-95" font-family="Helvetica,sans-Serif" font-size="10.00">&#45;core/uniot&#45;core/lib/Uniot</text>
<text text-anchor="middle" x="441" y="-84" font-family="Helvetica,sans-Serif" font-size="10.00">/Uniot.h</text>
</a>
</g>
</g>
<!-- Node14&#45;&gt;Node18 -->
<g id="edge27_Node000014_Node000018" class="edge">
<title>Node14&#45;&gt;Node18</title>
<g id="a_edge27_Node000014_Node000018"><a xlink:title=" ">
<path fill="none" stroke="#63b8ff" d="M385.05,-221.76C398.75,-191.57 419.95,-144.87 431.94,-118.47"/>
<polygon fill="#63b8ff" stroke="#63b8ff" points="381.83,-220.39 380.88,-230.94 388.2,-223.28 381.83,-220.39"/>
</a>
</g>
</g>
<!-- Node15&#45;&gt;Node5 -->
<g id="edge22_Node000015_Node000005" class="edge">
<title>Node15&#45;&gt;Node5</title>
<g id="a_edge22_Node000015_Node000005"><a xlink:title=" ">
<path fill="none" stroke="#63b8ff" d="M294.13,-143.98C291.81,-135.28 289.33,-125.98 287.22,-118.07"/>
<polygon fill="#63b8ff" stroke="#63b8ff" points="290.79,-145.03 296.75,-153.79 297.55,-143.23 290.79,-145.03"/>
</a>
</g>
</g>
<!-- Node16&#45;&gt;Node5 -->
<g id="edge24_Node000016_Node000005" class="edge">
<title>Node16&#45;&gt;Node5</title>
<g id="a_edge24_Node000016_Node000005"><a xlink:title=" ">
<path fill="none" stroke="#63b8ff" d="M444.51,-150.81C412.04,-140.36 373.89,-128.08 342.71,-118.04"/>
<polygon fill="#63b8ff" stroke="#63b8ff" points="443.8,-154.26 454.39,-153.99 445.94,-147.59 443.8,-154.26"/>
</a>
</g>
</g>
<!-- Node16&#45;&gt;Node17 -->
<g id="edge25_Node000016_Node000017" class="edge">
<title>Node16&#45;&gt;Node17</title>
<g id="a_edge25_Node000016_Node000017"><a xlink:title=" ">
<path fill="none" stroke="#63b8ff" d="M547.78,-147.35C559.83,-137.73 573.26,-127.01 584.47,-118.07"/>
<polygon fill="#63b8ff" stroke="#63b8ff" points="545.33,-144.82 539.7,-153.79 549.7,-150.29 545.33,-144.82"/>
</a>
</g>
</g>
<!-- Node17&#45;&gt;Node3 -->
<g id="edge26_Node000017_Node000003" class="edge">
<title>Node17&#45;&gt;Node3</title>
<g id="a_edge26_Node000017_Node000003"><a xlink:title=" ">
<path fill="none" stroke="#63b8ff" d="M672.98,-73.54C701.95,-63.15 735.82,-50.99 763.54,-41.04"/>
<polygon fill="#63b8ff" stroke="#63b8ff" points="671.6,-70.32 663.37,-76.99 673.96,-76.91 671.6,-70.32"/>
</a>
</g>
</g>
<!-- Node19 -->
<g id="Node000019" class="node">
<title>Node19</title>
<g id="a_Node000019"><a xlink:href="../../d9/d1c/_uniot_8cpp.html" target="_top" xlink:title=" ">
<polygon fill="white" stroke="#666666" points="518,-41 380,-41 380,0 518,0 518,-41"/>
<text text-anchor="start" x="388" y="-29" font-family="Helvetica,sans-Serif" font-size="10.00">/home/runner/work/uniot</text>
<text text-anchor="start" x="388" y="-18" font-family="Helvetica,sans-Serif" font-size="10.00">&#45;core/uniot&#45;core/lib/Uniot</text>
<text text-anchor="middle" x="449" y="-7" font-family="Helvetica,sans-Serif" font-size="10.00">/Uniot.cpp</text>
</a>
</g>
</g>
<!-- Node18&#45;&gt;Node19 -->
<g id="edge28_Node000018_Node000019" class="edge">
<title>Node18&#45;&gt;Node19</title>
<g id="a_edge28_Node000018_Node000019"><a xlink:title=" ">
<path fill="none" stroke="#63b8ff" d="M444.18,-66.69C445.1,-58.08 446.08,-48.9 446.91,-41.07"/>
<polygon fill="#63b8ff" stroke="#63b8ff" points="440.68,-66.48 443.1,-76.79 447.64,-67.22 440.68,-66.48"/>
</a>
</g>
</g>
<!-- Node20&#45;&gt;Node2 -->
<g id="edge32_Node000020_Node000002" class="edge">
<title>Node20&#45;&gt;Node2</title>
<g id="a_edge32_Node000020_Node000002"><a xlink:title=" ">
<path fill="none" stroke="#63b8ff" d="M798.42,-151.08C834.72,-140.57 877.56,-128.16 912.51,-118.04"/>
<polygon fill="#63b8ff" stroke="#63b8ff" points="797,-147.85 788.37,-153.99 798.95,-154.57 797,-147.85"/>
</a>
</g>
</g>
<!-- Node20&#45;&gt;Node3 -->
<g id="edge30_Node000020_Node000003" class="edge">
<title>Node20&#45;&gt;Node3</title>
<g id="a_edge30_Node000020_Node000003"><a xlink:title=" ">
<path fill="none" stroke="#63b8ff" d="M720.04,-143.57C720.73,-123.33 724.39,-96.79 737,-77 746.53,-62.05 761.68,-50.08 776.32,-41.15"/>
<polygon fill="#63b8ff" stroke="#63b8ff" points="716.53,-143.75 719.91,-153.79 723.53,-143.83 716.53,-143.75"/>
</a>
</g>
</g>
<!-- Node20&#45;&gt;Node5 -->
<g id="edge33_Node000020_Node000005" class="edge">
<title>Node20&#45;&gt;Node5</title>
<g id="a_edge33_Node000020_Node000005"><a xlink:title=" ">
<path fill="none" stroke="#63b8ff" d="M642.21,-160.18C629.44,-158.08 616.36,-155.95 604,-154 497.03,-137.1 469.3,-138.69 363,-118 360.02,-117.42 356.98,-116.8 353.92,-116.16"/>
<polygon fill="#63b8ff" stroke="#63b8ff" points="641.92,-163.68 652.36,-161.86 643.06,-156.78 641.92,-163.68"/>
</a>
</g>
</g>
<!-- Node20&#45;&gt;Node8 -->
<g id="edge31_Node000020_Node000008" class="edge">
<title>Node20&#45;&gt;Node8</title>
<g id="a_edge31_Node000020_Node000008"><a xlink:title=" ">
<path fill="none" stroke="#63b8ff" d="M754.22,-147.82C766.77,-138.11 780.83,-127.24 792.56,-118.17"/>
<polygon fill="#63b8ff" stroke="#63b8ff" points="752,-145.1 746.23,-153.99 756.28,-150.64 752,-145.1"/>
</a>
</g>
</g>
<!-- Node20&#45;&gt;Node18 -->
<g id="edge34_Node000020_Node000018" class="edge">
<title>Node20&#45;&gt;Node18</title>
<g id="a_edge34_Node000020_Node000018"><a xlink:title=" ">
<path fill="none" stroke="#63b8ff" d="M642.33,-152.43C600.73,-141.29 550.14,-127.73 510.07,-117"/>
<polygon fill="#63b8ff" stroke="#63b8ff" points="641.58,-155.85 652.15,-155.06 643.39,-149.09 641.58,-155.85"/>
</a>
</g>
</g>
<!-- Node21&#45;&gt;Node16 -->
<g id="edge37_Node000021_Node000016" class="edge">
<title>Node21&#45;&gt;Node16</title>
<g id="a_edge37_Node000021_Node000016"><a xlink:title=" ">
<path fill="none" stroke="#63b8ff" d="M522.23,-220.69C520.85,-212.08 519.38,-202.9 518.13,-195.07"/>
<polygon fill="#63b8ff" stroke="#63b8ff" points="518.81,-221.47 523.85,-230.79 525.72,-220.37 518.81,-221.47"/>
</a>
</g>
</g>
</g>
</svg>
