<?xml version="1.0" encoding="UTF-8" standalone="no"?>
<!DOCTYPE svg PUBLIC "-//W3C//DTD SVG 1.1//EN"
 "http://www.w3.org/Graphics/SVG/1.1/DTD/svg11.dtd">
<!-- Generated by graphviz version 2.43.0 (0)
 -->
<!-- Title: uniot::EventEntity&lt; T_topic, T_msg, T_data &gt; Pages: 1 -->
<svg width="781pt" height="242pt"
 viewBox="0.00 0.00 781.00 242.00" xmlns="http://www.w3.org/2000/svg" xmlns:xlink="http://www.w3.org/1999/xlink">
<g id="graph0" class="graph" transform="scale(1 1) rotate(0) translate(4 238)">
<title>uniot::EventEntity&lt; T_topic, T_msg, T_data &gt;</title>
<!-- Node1 -->
<g id="Node000001" class="node">
<title>Node1</title>
<g id="a_Node000001"><a xlink:title="Entity that can connect to and interact with EventBus instances.">
<polygon fill="#999999" stroke="#666666" points="244,-131.5 131,-131.5 131,-90.5 244,-90.5 244,-131.5"/>
<text text-anchor="start" x="139" y="-119.5" font-family="Helvetica,sans-Serif" font-size="10.00">uniot::EventEntity</text>
<text text-anchor="start" x="139" y="-108.5" font-family="Helvetica,sans-Serif" font-size="10.00">&lt; T_topic, T_msg, T</text>
<text text-anchor="middle" x="187.5" y="-97.5" font-family="Helvetica,sans-Serif" font-size="10.00">_data &gt;</text>
</a>
</g>
</g>
<!-- Node3 -->
<g id="Node000003" class="node">
<title>Node3</title>
<g id="a_Node000003"><a xlink:href="../../d0/d4c/classuniot_1_1_event_emitter.html" target="_top" xlink:title=" ">
<polygon fill="white" stroke="#666666" points="393,-131.5 280,-131.5 280,-90.5 393,-90.5 393,-131.5"/>
<text text-anchor="start" x="288" y="-119.5" font-family="Helvetica,sans-Serif" font-size="10.00">uniot::EventEmitter</text>
<text text-anchor="start" x="288" y="-108.5" font-family="Helvetica,sans-Serif" font-size="10.00">&lt; T_topic, T_msg, T</text>
<text text-anchor="middle" x="336.5" y="-97.5" font-family="Helvetica,sans-Serif" font-size="10.00">_data &gt;</text>
</a>
</g>
</g>
<!-- Node1&#45;&gt;Node3 -->
<g id="edge2_Node000001_Node000003" class="edge">
<title>Node1&#45;&gt;Node3</title>
<g id="a_edge2_Node000001_Node000003"><a xlink:title=" ">
<path fill="none" stroke="#63b8ff" d="M254.08,-111C262.68,-111 271.43,-111 279.85,-111"/>
<polygon fill="#63b8ff" stroke="#63b8ff" points="254.07,-107.5 244.07,-111 254.07,-114.5 254.07,-107.5"/>
</a>
</g>
</g>
<!-- Node2 -->
<g id="Node000002" class="node">
<title>Node2</title>
<g id="a_Node000002"><a xlink:href="../../dd/dbd/classuniot_1_1_i_with_type.html" target="_top" xlink:title="Interface for objects that expose their runtime type information.">
<polygon fill="white" stroke="#666666" points="95,-120.5 0,-120.5 0,-101.5 95,-101.5 95,-120.5"/>
<text text-anchor="middle" x="47.5" y="-108.5" font-family="Helvetica,sans-Serif" font-size="10.00">uniot::IWithType</text>
</a>
</g>
</g>
<!-- Node2&#45;&gt;Node1 -->
<g id="edge1_Node000001_Node000002" class="edge">
<title>Node2&#45;&gt;Node1</title>
<g id="a_edge1_Node000001_Node000002"><a xlink:title=" ">
<path fill="none" stroke="#63b8ff" d="M105.31,-111C113.72,-111 122.37,-111 130.76,-111"/>
<polygon fill="#63b8ff" stroke="#63b8ff" points="105.22,-107.5 95.22,-111 105.22,-114.5 105.22,-107.5"/>
</a>
</g>
</g>
<!-- Node4 -->
<g id="Node000004" class="node">
<title>Node4</title>
<g id="a_Node000004"><a xlink:href="../../d9/d78/classuniot_1_1_date.html" target="_top" xlink:title=" ">
<polygon fill="white" stroke="#666666" points="568,-174 442,-174 442,-144 568,-144 568,-174"/>
<text text-anchor="start" x="450" y="-162" font-family="Helvetica,sans-Serif" font-size="10.00">uniot::Date&lt; unsigned</text>
<text text-anchor="middle" x="505" y="-151" font-family="Helvetica,sans-Serif" font-size="10.00"> int, int, Bytes &gt;</text>
</a>
</g>
</g>
<!-- Node3&#45;&gt;Node4 -->
<g id="edge3_Node000003_Node000004" class="edge">
<title>Node3&#45;&gt;Node4</title>
<g id="a_edge3_Node000003_Node000004"><a xlink:title=" ">
<path fill="none" stroke="#63b8ff" d="M403.31,-129.97C419.45,-134.63 436.5,-139.54 451.9,-143.98"/>
<polygon fill="#63b8ff" stroke="#63b8ff" points="403.98,-126.52 393.41,-127.12 402.04,-133.25 403.98,-126.52"/>
</a>
</g>
</g>
<!-- Node5 -->
<g id="Node000005" class="node">
<title>Node5</title>
<g id="a_Node000005"><a xlink:href="../../d4/d8a/classuniot_1_1_event_listener.html" target="_top" xlink:title=" ">
<polygon fill="white" stroke="#666666" points="581,-126 429,-126 429,-96 581,-96 581,-126"/>
<text text-anchor="start" x="437" y="-114" font-family="Helvetica,sans-Serif" font-size="10.00">uniot::EventListener</text>
<text text-anchor="middle" x="505" y="-103" font-family="Helvetica,sans-Serif" font-size="10.00">&lt; T_topic, T_msg, T_data &gt;</text>
</a>
</g>
</g>
<!-- Node3&#45;&gt;Node5 -->
<g id="edge4_Node000003_Node000005" class="edge">
<title>Node3&#45;&gt;Node5</title>
<g id="a_edge4_Node000003_Node000005"><a xlink:title=" ">
<path fill="none" stroke="#63b8ff" d="M403.68,-111C411.91,-111 420.37,-111 428.72,-111"/>
<polygon fill="#63b8ff" stroke="#63b8ff" points="403.41,-107.5 393.41,-111 403.41,-114.5 403.41,-107.5"/>
</a>
</g>
</g>
<!-- Node11 -->
<g id="Node000011" class="node">
<title>Node11</title>
<g id="a_Node000011"><a xlink:href="../../dc/d30/classuniot_1_1_network_scheduler.html" target="_top" xlink:title=" ">
<polygon fill="white" stroke="#666666" points="581,-78 429,-78 429,-48 581,-48 581,-78"/>
<text text-anchor="start" x="437" y="-66" font-family="Helvetica,sans-Serif" font-size="10.00">uniot::NetworkScheduler</text>
<text text-anchor="middle" x="505" y="-55" font-family="Helvetica,sans-Serif" font-size="10.00">&lt; unsigned int, int, Bytes &gt;</text>
</a>
</g>
</g>
<!-- Node3&#45;&gt;Node11 -->
<g id="edge10_Node000003_Node000011" class="edge">
<title>Node3&#45;&gt;Node11</title>
<g id="a_edge10_Node000003_Node000011"><a xlink:title=" ">
<path fill="none" stroke="#63b8ff" d="M403.31,-92.03C419.45,-87.37 436.5,-82.46 451.9,-78.02"/>
<polygon fill="#63b8ff" stroke="#63b8ff" points="402.04,-88.75 393.41,-94.88 403.98,-95.48 402.04,-88.75"/>
</a>
</g>
</g>
<!-- Node6 -->
<g id="Node000006" class="node">
<title>Node6</title>
<g id="a_Node000006"><a xlink:href="../../d7/d78/classuniot_1_1_callback_event_listener.html" target="_top" xlink:title=" ">
<polygon fill="white" stroke="#666666" points="773,-234 617,-234 617,-204 773,-204 773,-234"/>
<text text-anchor="start" x="625" y="-222" font-family="Helvetica,sans-Serif" font-size="10.00">uniot::CallbackEventListener</text>
<text text-anchor="middle" x="695" y="-211" font-family="Helvetica,sans-Serif" font-size="10.00">&lt; T_topic, T_msg, T_data &gt;</text>
</a>
</g>
</g>
<!-- Node5&#45;&gt;Node6 -->
<g id="edge5_Node000005_Node000006" class="edge">
<title>Node5&#45;&gt;Node6</title>
<g id="a_edge5_Node000005_Node000006"><a xlink:title=" ">
<path fill="none" stroke="#63b8ff" d="M575.98,-131.38C577.72,-132.52 579.39,-133.73 581,-135 605.37,-154.31 592.55,-175.78 617,-195 621.4,-198.46 626.31,-201.43 631.46,-203.97"/>
<polygon fill="#63b8ff" stroke="#63b8ff" points="577.34,-128.12 566.92,-126.17 573.85,-134.19 577.34,-128.12"/>
</a>
</g>
</g>
<!-- Node7 -->
<g id="Node000007" class="node">
<title>Node7</title>
<g id="a_Node000007"><a xlink:href="../../d1/de4/classuniot_1_1_lisp_device.html" target="_top" xlink:title=" ">
<polygon fill="white" stroke="#666666" points="749.5,-185.5 640.5,-185.5 640.5,-144.5 749.5,-144.5 749.5,-185.5"/>
<text text-anchor="start" x="648.5" y="-173.5" font-family="Helvetica,sans-Serif" font-size="10.00">uniot::LispDevice&lt;</text>
<text text-anchor="start" x="648.5" y="-162.5" font-family="Helvetica,sans-Serif" font-size="10.00"> unsigned int, int,</text>
<text text-anchor="middle" x="695" y="-151.5" font-family="Helvetica,sans-Serif" font-size="10.00"> Bytes &gt;</text>
</a>
</g>
</g>
<!-- Node5&#45;&gt;Node7 -->
<g id="edge6_Node000005_Node000007" class="edge">
<title>Node5&#45;&gt;Node7</title>
<g id="a_edge6_Node000005_Node000007"><a xlink:title=" ">
<path fill="none" stroke="#63b8ff" d="M568.16,-128.86C591.49,-135.56 617.78,-143.11 640.28,-149.57"/>
<polygon fill="#63b8ff" stroke="#63b8ff" points="568.95,-125.44 558.37,-126.04 567.01,-132.17 568.95,-125.44"/>
</a>
</g>
</g>
<!-- Node8 -->
<g id="Node000008" class="node">
<title>Node8</title>
<g id="a_Node000008"><a xlink:href="../../de/dc8/classuniot_1_1_m_q_t_t_kit.html" target="_top" xlink:title=" ">
<polygon fill="white" stroke="#666666" points="767.5,-126 622.5,-126 622.5,-96 767.5,-96 767.5,-126"/>
<text text-anchor="start" x="630.5" y="-114" font-family="Helvetica,sans-Serif" font-size="10.00">uniot::MQTTKit&lt; unsigned</text>
<text text-anchor="middle" x="695" y="-103" font-family="Helvetica,sans-Serif" font-size="10.00"> int, int, Bytes &gt;</text>
</a>
</g>
</g>
<!-- Node5&#45;&gt;Node8 -->
<g id="edge7_Node000005_Node000008" class="edge">
<title>Node5&#45;&gt;Node8</title>
<g id="a_edge7_Node000005_Node000008"><a xlink:title=" ">
<path fill="none" stroke="#63b8ff" d="M591.4,-111C601.75,-111 612.24,-111 622.37,-111"/>
<polygon fill="#63b8ff" stroke="#63b8ff" points="591.11,-107.5 581.11,-111 591.11,-114.5 591.11,-107.5"/>
</a>
</g>
</g>
<!-- Node9 -->
<g id="Node000009" class="node">
<title>Node9</title>
<g id="a_Node000009"><a xlink:href="../../d4/db4/classuniot_1_1_network_controller.html" target="_top" xlink:title=" ">
<polygon fill="white" stroke="#666666" points="771,-78 619,-78 619,-48 771,-48 771,-78"/>
<text text-anchor="start" x="627" y="-66" font-family="Helvetica,sans-Serif" font-size="10.00">uniot::NetworkController</text>
<text text-anchor="middle" x="695" y="-55" font-family="Helvetica,sans-Serif" font-size="10.00">&lt; unsigned int, int, Bytes &gt;</text>
</a>
</g>
</g>
<!-- Node5&#45;&gt;Node9 -->
<g id="edge8_Node000005_Node000009" class="edge">
<title>Node5&#45;&gt;Node9</title>
<g id="a_edge8_Node000005_Node000009"><a xlink:title=" ">
<path fill="none" stroke="#63b8ff" d="M574.86,-93.42C594.67,-88.36 616.1,-82.89 635.24,-78"/>
<polygon fill="#63b8ff" stroke="#63b8ff" points="573.79,-90.08 564.97,-95.94 575.52,-96.86 573.79,-90.08"/>
</a>
</g>
</g>
<!-- Node10 -->
<g id="Node000010" class="node">
<title>Node10</title>
<g id="a_Node000010"><a xlink:href="../../d4/d01/classuniot_1_1un_lisp.html" target="_top" xlink:title=" ">
<polygon fill="white" stroke="#666666" points="762,-30 628,-30 628,0 762,0 762,-30"/>
<text text-anchor="start" x="636" y="-18" font-family="Helvetica,sans-Serif" font-size="10.00">uniot::unLisp&lt; unsigned</text>
<text text-anchor="middle" x="695" y="-7" font-family="Helvetica,sans-Serif" font-size="10.00"> int, int, Bytes &gt;</text>
</a>
</g>
</g>
<!-- Node5&#45;&gt;Node10 -->
<g id="edge9_Node000005_Node000010" class="edge">
<title>Node5&#45;&gt;Node10</title>
<g id="a_edge9_Node000005_Node000010"><a xlink:title=" ">
<path fill="none" stroke="#63b8ff" d="M574.45,-91.21C576.71,-89.89 578.9,-88.49 581,-87 602.73,-71.54 595.22,-54.38 617,-39 621.8,-35.61 627.1,-32.68 632.61,-30.16"/>
<polygon fill="#63b8ff" stroke="#63b8ff" points="572.69,-88.18 565.42,-95.88 575.91,-94.4 572.69,-88.18"/>
</a>
</g>
</g>
</g>
</svg>
