<?xml version="1.0" encoding="UTF-8" standalone="no"?>
<!DOCTYPE svg PUBLIC "-//W3C//DTD SVG 1.1//EN"
 "http://www.w3.org/Graphics/SVG/1.1/DTD/svg11.dtd">
<!-- Generated by graphviz version 2.43.0 (0)
 -->
<!-- Title: /home/runner/work/uniot&#45;core/uniot&#45;core/lib/Core/EventBus/IEventBusConnectionKit.h Pages: 1 -->
<svg width="1016pt" height="357pt"
 viewBox="0.00 0.00 1016.30 357.00" xmlns="http://www.w3.org/2000/svg" xmlns:xlink="http://www.w3.org/1999/xlink">
<g id="graph0" class="graph" transform="scale(1 1) rotate(0) translate(4 353)">
<title>/home/runner/work/uniot&#45;core/uniot&#45;core/lib/Core/EventBus/IEventBusConnectionKit.h</title>
<!-- Node1 -->
<g id="Node000001" class="node">
<title>Node1</title>
<g id="a_Node000001"><a xlink:title="Defines the interface for components that can connect to an EventBus.">
<polygon fill="#999999" stroke="#666666" points="442.3,-349 248.3,-349 248.3,-308 442.3,-308 442.3,-349"/>
<text text-anchor="start" x="256.3" y="-337" font-family="Helvetica,sans-Serif" font-size="10.00">/home/runner/work/uniot</text>
<text text-anchor="start" x="256.3" y="-326" font-family="Helvetica,sans-Serif" font-size="10.00">&#45;core/uniot&#45;core/lib/Core</text>
<text text-anchor="middle" x="345.3" y="-315" font-family="Helvetica,sans-Serif" font-size="10.00">/EventBus/IEventBusConnectionKit.h</text>
</a>
</g>
</g>
<!-- Node2 -->
<g id="Node000002" class="node">
<title>Node2</title>
<g id="a_Node000002"><a xlink:href="../../dc/d7b/_app_kit_8h.html" target="_top" xlink:title=" ">
<polygon fill="white" stroke="#666666" points="249.3,-41 105.3,-41 105.3,0 249.3,0 249.3,-41"/>
<text text-anchor="start" x="113.3" y="-29" font-family="Helvetica,sans-Serif" font-size="10.00">/home/runner/work/uniot</text>
<text text-anchor="start" x="113.3" y="-18" font-family="Helvetica,sans-Serif" font-size="10.00">&#45;core/uniot&#45;core/lib/AppKit</text>
<text text-anchor="middle" x="177.3" y="-7" font-family="Helvetica,sans-Serif" font-size="10.00">/AppKit.h</text>
</a>
</g>
</g>
<!-- Node1&#45;&gt;Node2 -->
<g id="edge1_Node000001_Node000002" class="edge">
<title>Node1&#45;&gt;Node2</title>
<g id="a_edge1_Node000001_Node000002"><a xlink:title=" ">
<path fill="none" stroke="#63b8ff" d="M238.28,-317.16C159.4,-303.29 57.16,-270.86 5.3,-195 -13.46,-167.55 25,-79.49 27.3,-77 47.59,-55.11 77.29,-41.81 104.92,-33.76"/>
<polygon fill="#63b8ff" stroke="#63b8ff" points="237.83,-320.63 248.27,-318.84 238.99,-313.73 237.83,-320.63"/>
</a>
</g>
</g>
<!-- Node3 -->
<g id="Node000003" class="node">
<title>Node3</title>
<g id="a_Node000003"><a xlink:href="../../de/d03/_event_bus_8h.html" target="_top" xlink:title=" ">
<polygon fill="white" stroke="#666666" points="413.8,-272 276.8,-272 276.8,-231 413.8,-231 413.8,-272"/>
<text text-anchor="start" x="284.8" y="-260" font-family="Helvetica,sans-Serif" font-size="10.00">/home/runner/work/uniot</text>
<text text-anchor="start" x="284.8" y="-249" font-family="Helvetica,sans-Serif" font-size="10.00">&#45;core/uniot&#45;core/lib/Core</text>
<text text-anchor="middle" x="345.3" y="-238" font-family="Helvetica,sans-Serif" font-size="10.00">/EventBus/EventBus.h</text>
</a>
</g>
</g>
<!-- Node1&#45;&gt;Node3 -->
<g id="edge2_Node000001_Node000003" class="edge">
<title>Node1&#45;&gt;Node3</title>
<g id="a_edge2_Node000001_Node000003"><a xlink:title=" ">
<path fill="none" stroke="#63b8ff" d="M338.68,-297.69C338.39,-289.08 338.6,-279.9 339.29,-272.07"/>
<polygon fill="#63b8ff" stroke="#63b8ff" points="335.19,-298.02 339.28,-307.79 342.18,-297.6 335.19,-298.02"/>
</a>
</g>
</g>
<!-- Node3&#45;&gt;Node1 -->
<g id="edge8_Node000003_Node000001" class="edge">
<title>Node3&#45;&gt;Node1</title>
<g id="a_edge8_Node000003_Node000001"><a xlink:title=" ">
<path fill="none" stroke="#63b8ff" d="M351.92,-282.16C352.22,-290.77 352.02,-299.96 351.33,-307.79"/>
<polygon fill="#63b8ff" stroke="#63b8ff" points="355.41,-281.85 351.32,-272.07 348.42,-282.27 355.41,-281.85"/>
</a>
</g>
</g>
<!-- Node3&#45;&gt;Node2 -->
<g id="edge3_Node000003_Node000002" class="edge">
<title>Node3&#45;&gt;Node2</title>
<g id="a_edge3_Node000003_Node000002"><a xlink:title=" ">
<path fill="none" stroke="#63b8ff" d="M266.5,-248.26C180.86,-243.98 52.06,-231.47 21.3,-195 -26.87,-137.87 75.42,-72.97 136.32,-41.17"/>
<polygon fill="#63b8ff" stroke="#63b8ff" points="266.57,-251.77 276.72,-248.75 266.9,-244.78 266.57,-251.77"/>
</a>
</g>
</g>
<!-- Node4 -->
<g id="Node000004" class="node">
<title>Node4</title>
<g id="a_Node000004"><a xlink:href="../../de/d06/_event_bus_8cpp.html" target="_top" xlink:title=" ">
<polygon fill="white" stroke="#666666" points="167.8,-195 30.8,-195 30.8,-154 167.8,-154 167.8,-195"/>
<text text-anchor="start" x="38.8" y="-183" font-family="Helvetica,sans-Serif" font-size="10.00">/home/runner/work/uniot</text>
<text text-anchor="start" x="38.8" y="-172" font-family="Helvetica,sans-Serif" font-size="10.00">&#45;core/uniot&#45;core/lib/Core</text>
<text text-anchor="middle" x="99.3" y="-161" font-family="Helvetica,sans-Serif" font-size="10.00">/EventBus/EventBus.cpp</text>
</a>
</g>
</g>
<!-- Node3&#45;&gt;Node4 -->
<g id="edge4_Node000003_Node000004" class="edge">
<title>Node3&#45;&gt;Node4</title>
<g id="a_edge4_Node000003_Node000004"><a xlink:title=" ">
<path fill="none" stroke="#63b8ff" d="M271.32,-227.94C236.95,-217.46 196.46,-205.12 163.4,-195.04"/>
<polygon fill="#63b8ff" stroke="#63b8ff" points="270.73,-231.42 281.31,-230.99 272.77,-224.73 270.73,-231.42"/>
</a>
</g>
</g>
<!-- Node5 -->
<g id="Node000005" class="node">
<title>Node5</title>
<g id="a_Node000005"><a xlink:href="../../d5/dfe/_event_emitter_8cpp.html" target="_top" xlink:title=" ">
<polygon fill="white" stroke="#666666" points="338.3,-195 186.3,-195 186.3,-154 338.3,-154 338.3,-195"/>
<text text-anchor="start" x="194.3" y="-183" font-family="Helvetica,sans-Serif" font-size="10.00">/home/runner/work/uniot</text>
<text text-anchor="start" x="194.3" y="-172" font-family="Helvetica,sans-Serif" font-size="10.00">&#45;core/uniot&#45;core/lib/Core</text>
<text text-anchor="middle" x="262.3" y="-161" font-family="Helvetica,sans-Serif" font-size="10.00">/EventBus/EventEmitter.cpp</text>
</a>
</g>
</g>
<!-- Node3&#45;&gt;Node5 -->
<g id="edge5_Node000003_Node000005" class="edge">
<title>Node3&#45;&gt;Node5</title>
<g id="a_edge5_Node000003_Node000005"><a xlink:title=" ">
<path fill="none" stroke="#63b8ff" d="M316.05,-224.07C305.49,-214.52 293.76,-203.93 283.97,-195.07"/>
<polygon fill="#63b8ff" stroke="#63b8ff" points="313.73,-226.69 323.5,-230.79 318.42,-221.49 313.73,-226.69"/>
</a>
</g>
</g>
<!-- Node6 -->
<g id="Node000006" class="node">
<title>Node6</title>
<g id="a_Node000006"><a xlink:href="../../dc/d2d/_event_entity_8cpp.html" target="_top" xlink:title=" ">
<polygon fill="white" stroke="#666666" points="499.8,-195 356.8,-195 356.8,-154 499.8,-154 499.8,-195"/>
<text text-anchor="start" x="364.8" y="-183" font-family="Helvetica,sans-Serif" font-size="10.00">/home/runner/work/uniot</text>
<text text-anchor="start" x="364.8" y="-172" font-family="Helvetica,sans-Serif" font-size="10.00">&#45;core/uniot&#45;core/lib/Core</text>
<text text-anchor="middle" x="428.3" y="-161" font-family="Helvetica,sans-Serif" font-size="10.00">/EventBus/EventEntity.cpp</text>
</a>
</g>
</g>
<!-- Node3&#45;&gt;Node6 -->
<g id="edge6_Node000003_Node000006" class="edge">
<title>Node3&#45;&gt;Node6</title>
<g id="a_edge6_Node000003_Node000006"><a xlink:title=" ">
<path fill="none" stroke="#63b8ff" d="M374.55,-224.07C385.12,-214.52 396.84,-203.93 406.64,-195.07"/>
<polygon fill="#63b8ff" stroke="#63b8ff" points="372.18,-221.49 367.11,-230.79 376.88,-226.69 372.18,-221.49"/>
</a>
</g>
</g>
<!-- Node7 -->
<g id="Node000007" class="node">
<title>Node7</title>
<g id="a_Node000007"><a xlink:href="../../d0/def/_event_listener_8cpp.html" target="_top" xlink:title=" ">
<polygon fill="white" stroke="#666666" points="672.8,-195 517.8,-195 517.8,-154 672.8,-154 672.8,-195"/>
<text text-anchor="start" x="525.8" y="-183" font-family="Helvetica,sans-Serif" font-size="10.00">/home/runner/work/uniot</text>
<text text-anchor="start" x="525.8" y="-172" font-family="Helvetica,sans-Serif" font-size="10.00">&#45;core/uniot&#45;core/lib/Core</text>
<text text-anchor="middle" x="595.3" y="-161" font-family="Helvetica,sans-Serif" font-size="10.00">/EventBus/EventListener.cpp</text>
</a>
</g>
</g>
<!-- Node3&#45;&gt;Node7 -->
<g id="edge7_Node000003_Node000007" class="edge">
<title>Node3&#45;&gt;Node7</title>
<g id="a_edge7_Node000003_Node000007"><a xlink:title=" ">
<path fill="none" stroke="#63b8ff" d="M420.04,-228.08C455.07,-217.57 496.43,-205.16 530.16,-195.04"/>
<polygon fill="#63b8ff" stroke="#63b8ff" points="418.91,-224.76 410.34,-230.99 420.92,-231.47 418.91,-224.76"/>
</a>
</g>
</g>
<!-- Node8 -->
<g id="Node000008" class="node">
<title>Node8</title>
<g id="a_Node000008"><a xlink:href="../../da/dc0/_network_scheduler_8h.html" target="_top" xlink:title=" ">
<polygon fill="white" stroke="#666666" points="851.8,-195 690.8,-195 690.8,-154 851.8,-154 851.8,-195"/>
<text text-anchor="start" x="698.8" y="-183" font-family="Helvetica,sans-Serif" font-size="10.00">/home/runner/work/uniot</text>
<text text-anchor="start" x="698.8" y="-172" font-family="Helvetica,sans-Serif" font-size="10.00">&#45;core/uniot&#45;core/lib/Core</text>
<text text-anchor="middle" x="771.3" y="-161" font-family="Helvetica,sans-Serif" font-size="10.00">/Network/NetworkScheduler.h</text>
</a>
</g>
</g>
<!-- Node3&#45;&gt;Node8 -->
<g id="edge9_Node000003_Node000008" class="edge">
<title>Node3&#45;&gt;Node8</title>
<g id="a_edge9_Node000003_Node000008"><a xlink:title=" ">
<path fill="none" stroke="#63b8ff" d="M424.18,-238.71C492.61,-228.19 594.23,-211.89 682.3,-195 684.94,-194.49 687.63,-193.97 690.33,-193.43"/>
<polygon fill="#63b8ff" stroke="#63b8ff" points="423.26,-235.31 413.91,-240.28 424.32,-242.23 423.26,-235.31"/>
</a>
</g>
</g>
<!-- Node12 -->
<g id="Node000012" class="node">
<title>Node12</title>
<g id="a_Node000012"><a xlink:href="../../d4/d2b/_uniot_8h.html" target="_top" xlink:title=" ">
<polygon fill="white" stroke="#666666" points="1008.3,-195 870.3,-195 870.3,-154 1008.3,-154 1008.3,-195"/>
<text text-anchor="start" x="878.3" y="-183" font-family="Helvetica,sans-Serif" font-size="10.00">/home/runner/work/uniot</text>
<text text-anchor="start" x="878.3" y="-172" font-family="Helvetica,sans-Serif" font-size="10.00">&#45;core/uniot&#45;core/lib/Uniot</text>
<text text-anchor="middle" x="939.3" y="-161" font-family="Helvetica,sans-Serif" font-size="10.00">/Uniot.h</text>
</a>
</g>
</g>
<!-- Node3&#45;&gt;Node12 -->
<g id="edge15_Node000003_Node000012" class="edge">
<title>Node3&#45;&gt;Node12</title>
<g id="a_edge15_Node000003_Node000012"><a xlink:title=" ">
<path fill="none" stroke="#63b8ff" d="M424.36,-245.4C526.03,-238.06 707.79,-222.31 861.3,-195 864.19,-194.49 867.13,-193.93 870.09,-193.33"/>
<polygon fill="#63b8ff" stroke="#63b8ff" points="423.9,-241.92 414.17,-246.12 424.4,-248.9 423.9,-241.92"/>
</a>
</g>
</g>
<!-- Node9 -->
<g id="Node000009" class="node">
<title>Node9</title>
<g id="a_Node000009"><a xlink:href="../../dc/d26/_m_q_t_t_kit_8h.html" target="_top" xlink:title=" ">
<polygon fill="white" stroke="#666666" points="601.8,-118 458.8,-118 458.8,-77 601.8,-77 601.8,-118"/>
<text text-anchor="start" x="466.8" y="-106" font-family="Helvetica,sans-Serif" font-size="10.00">/home/runner/work/uniot</text>
<text text-anchor="start" x="466.8" y="-95" font-family="Helvetica,sans-Serif" font-size="10.00">&#45;core/uniot&#45;core/lib/Core</text>
<text text-anchor="middle" x="530.3" y="-84" font-family="Helvetica,sans-Serif" font-size="10.00">/MQTTWrapper/MQTTKit.h</text>
</a>
</g>
</g>
<!-- Node8&#45;&gt;Node9 -->
<g id="edge10_Node000008_Node000009" class="edge">
<title>Node8&#45;&gt;Node9</title>
<g id="a_edge10_Node000008_Node000009"><a xlink:title=" ">
<path fill="none" stroke="#63b8ff" d="M698.83,-150.94C665.15,-140.46 625.48,-128.12 593.1,-118.04"/>
<polygon fill="#63b8ff" stroke="#63b8ff" points="698.02,-154.36 708.61,-153.99 700.1,-147.68 698.02,-154.36"/>
</a>
</g>
</g>
<!-- Node11 -->
<g id="Node000011" class="node">
<title>Node11</title>
<g id="a_Node000011"><a xlink:href="../../d9/d89/_network_controller_8h.html" target="_top" xlink:title=" ">
<polygon fill="white" stroke="#666666" points="436.8,-118 275.8,-118 275.8,-77 436.8,-77 436.8,-118"/>
<text text-anchor="start" x="283.8" y="-106" font-family="Helvetica,sans-Serif" font-size="10.00">/home/runner/work/uniot</text>
<text text-anchor="start" x="283.8" y="-95" font-family="Helvetica,sans-Serif" font-size="10.00">&#45;core/uniot&#45;core/lib/Core</text>
<text text-anchor="middle" x="356.3" y="-84" font-family="Helvetica,sans-Serif" font-size="10.00">/Network/NetworkController.h</text>
</a>
</g>
</g>
<!-- Node8&#45;&gt;Node11 -->
<g id="edge13_Node000008_Node000011" class="edge">
<title>Node8&#45;&gt;Node11</title>
<g id="a_edge13_Node000008_Node000011"><a xlink:title=" ">
<path fill="none" stroke="#63b8ff" d="M680.48,-153.71C577.6,-134.88 549.27,-136.19 449.3,-118 445.25,-117.26 441.09,-116.48 436.91,-115.67"/>
<polygon fill="#63b8ff" stroke="#63b8ff" points="679.87,-157.16 690.34,-155.54 681.14,-150.28 679.87,-157.16"/>
</a>
</g>
</g>
<!-- Node9&#45;&gt;Node2 -->
<g id="edge11_Node000009_Node000002" class="edge">
<title>Node9&#45;&gt;Node2</title>
<g id="a_edge11_Node000009_Node000002"><a xlink:title=" ">
<path fill="none" stroke="#63b8ff" d="M448.54,-77.71C447.46,-77.47 446.38,-77.23 445.3,-77 379.04,-62.54 303.34,-46.95 249.34,-35.98"/>
<polygon fill="#63b8ff" stroke="#63b8ff" points="447.93,-81.16 458.45,-79.9 449.44,-74.32 447.93,-81.16"/>
</a>
</g>
</g>
<!-- Node10 -->
<g id="Node000010" class="node">
<title>Node10</title>
<g id="a_Node000010"><a xlink:href="../../da/d02/_m_q_t_t_device_8cpp.html" target="_top" xlink:title=" ">
<polygon fill="white" stroke="#666666" points="617.8,-41 442.8,-41 442.8,0 617.8,0 617.8,-41"/>
<text text-anchor="start" x="450.8" y="-29" font-family="Helvetica,sans-Serif" font-size="10.00">/home/runner/work/uniot</text>
<text text-anchor="start" x="450.8" y="-18" font-family="Helvetica,sans-Serif" font-size="10.00">&#45;core/uniot&#45;core/lib/Core</text>
<text text-anchor="middle" x="530.3" y="-7" font-family="Helvetica,sans-Serif" font-size="10.00">/MQTTWrapper/MQTTDevice.cpp</text>
</a>
</g>
</g>
<!-- Node9&#45;&gt;Node10 -->
<g id="edge12_Node000009_Node000010" class="edge">
<title>Node9&#45;&gt;Node10</title>
<g id="a_edge12_Node000009_Node000010"><a xlink:title=" ">
<path fill="none" stroke="#63b8ff" d="M530.3,-66.69C530.3,-58.08 530.3,-48.9 530.3,-41.07"/>
<polygon fill="#63b8ff" stroke="#63b8ff" points="526.8,-66.79 530.3,-76.79 533.8,-66.79 526.8,-66.79"/>
</a>
</g>
</g>
<!-- Node11&#45;&gt;Node2 -->
<g id="edge14_Node000011_Node000002" class="edge">
<title>Node11&#45;&gt;Node2</title>
<g id="a_edge14_Node000011_Node000002"><a xlink:title=" ">
<path fill="none" stroke="#63b8ff" d="M300.21,-73C275.69,-62.72 247.27,-50.82 223.94,-41.04"/>
<polygon fill="#63b8ff" stroke="#63b8ff" points="299.17,-76.35 309.74,-76.99 301.87,-69.9 299.17,-76.35"/>
</a>
</g>
</g>
<!-- Node13 -->
<g id="Node000013" class="node">
<title>Node13</title>
<g id="a_Node000013"><a xlink:href="../../d9/d1c/_uniot_8cpp.html" target="_top" xlink:title=" ">
<polygon fill="white" stroke="#666666" points="1008.3,-118 870.3,-118 870.3,-77 1008.3,-77 1008.3,-118"/>
<text text-anchor="start" x="878.3" y="-106" font-family="Helvetica,sans-Serif" font-size="10.00">/home/runner/work/uniot</text>
<text text-anchor="start" x="878.3" y="-95" font-family="Helvetica,sans-Serif" font-size="10.00">&#45;core/uniot&#45;core/lib/Uniot</text>
<text text-anchor="middle" x="939.3" y="-84" font-family="Helvetica,sans-Serif" font-size="10.00">/Uniot.cpp</text>
</a>
</g>
</g>
<!-- Node12&#45;&gt;Node13 -->
<g id="edge16_Node000012_Node000013" class="edge">
<title>Node12&#45;&gt;Node13</title>
<g id="a_edge16_Node000012_Node000013"><a xlink:title=" ">
<path fill="none" stroke="#63b8ff" d="M939.3,-143.69C939.3,-135.08 939.3,-125.9 939.3,-118.07"/>
<polygon fill="#63b8ff" stroke="#63b8ff" points="935.8,-143.79 939.3,-153.79 942.8,-143.79 935.8,-143.79"/>
</a>
</g>
</g>
</g>
</svg>
