<?xml version="1.0" encoding="UTF-8" standalone="no"?>
<!DOCTYPE svg PUBLIC "-//W3C//DTD SVG 1.1//EN"
 "http://www.w3.org/Graphics/SVG/1.1/DTD/svg11.dtd">
<!-- Generated by graphviz version 2.43.0 (0)
 -->
<!-- Title: /home/runner/work/uniot&#45;core/uniot&#45;core/lib/Core/EventBus/DataChannels.h Pages: 1 -->
<svg width="1217pt" height="357pt"
 viewBox="0.00 0.00 1217.08 357.00" xmlns="http://www.w3.org/2000/svg" xmlns:xlink="http://www.w3.org/1999/xlink">
<g id="graph0" class="graph" transform="scale(1 1) rotate(0) translate(4 353)">
<title>/home/runner/work/uniot&#45;core/uniot&#45;core/lib/Core/EventBus/DataChannels.h</title>
<!-- Node1 -->
<g id="Node000001" class="node">
<title>Node1</title>
<g id="a_Node000001"><a xlink:title=" ">
<polygon fill="#999999" stroke="#666666" points="573.08,-349 427.08,-349 427.08,-308 573.08,-308 573.08,-349"/>
<text text-anchor="start" x="435.08" y="-337" font-family="Helvetica,sans-Serif" font-size="10.00">/home/runner/work/uniot</text>
<text text-anchor="start" x="435.08" y="-326" font-family="Helvetica,sans-Serif" font-size="10.00">&#45;core/uniot&#45;core/lib/Core</text>
<text text-anchor="middle" x="500.08" y="-315" font-family="Helvetica,sans-Serif" font-size="10.00">/EventBus/DataChannels.h</text>
</a>
</g>
</g>
<!-- Node2 -->
<g id="Node000002" class="node">
<title>Node2</title>
<g id="a_Node000002"><a xlink:href="../../d6/d96/_data_channels_8cpp.html" target="_top" xlink:title=" ">
<polygon fill="white" stroke="#666666" points="496.58,-272 339.58,-272 339.58,-231 496.58,-231 496.58,-272"/>
<text text-anchor="start" x="347.58" y="-260" font-family="Helvetica,sans-Serif" font-size="10.00">/home/runner/work/uniot</text>
<text text-anchor="start" x="347.58" y="-249" font-family="Helvetica,sans-Serif" font-size="10.00">&#45;core/uniot&#45;core/lib/Core</text>
<text text-anchor="middle" x="418.08" y="-238" font-family="Helvetica,sans-Serif" font-size="10.00">/EventBus/DataChannels.cpp</text>
</a>
</g>
</g>
<!-- Node1&#45;&gt;Node2 -->
<g id="edge1_Node000001_Node000002" class="edge">
<title>Node1&#45;&gt;Node2</title>
<g id="a_edge1_Node000001_Node000002"><a xlink:title=" ">
<path fill="none" stroke="#63b8ff" d="M470.88,-300.79C460.52,-291.32 449.07,-280.84 439.48,-272.07"/>
<polygon fill="#63b8ff" stroke="#63b8ff" points="468.8,-303.63 478.54,-307.79 473.52,-298.46 468.8,-303.63"/>
</a>
</g>
</g>
<!-- Node3 -->
<g id="Node000003" class="node">
<title>Node3</title>
<g id="a_Node000003"><a xlink:href="../../de/d03/_event_bus_8h.html" target="_top" xlink:title=" ">
<polygon fill="white" stroke="#666666" points="651.58,-272 514.58,-272 514.58,-231 651.58,-231 651.58,-272"/>
<text text-anchor="start" x="522.58" y="-260" font-family="Helvetica,sans-Serif" font-size="10.00">/home/runner/work/uniot</text>
<text text-anchor="start" x="522.58" y="-249" font-family="Helvetica,sans-Serif" font-size="10.00">&#45;core/uniot&#45;core/lib/Core</text>
<text text-anchor="middle" x="583.08" y="-238" font-family="Helvetica,sans-Serif" font-size="10.00">/EventBus/EventBus.h</text>
</a>
</g>
</g>
<!-- Node1&#45;&gt;Node3 -->
<g id="edge2_Node000001_Node000003" class="edge">
<title>Node1&#45;&gt;Node3</title>
<g id="a_edge2_Node000001_Node000003"><a xlink:title=" ">
<path fill="none" stroke="#63b8ff" d="M529.33,-301.07C539.9,-291.52 551.62,-280.93 561.42,-272.07"/>
<polygon fill="#63b8ff" stroke="#63b8ff" points="526.96,-298.49 521.89,-307.79 531.66,-303.69 526.96,-298.49"/>
</a>
</g>
</g>
<!-- Node4 -->
<g id="Node000004" class="node">
<title>Node4</title>
<g id="a_Node000004"><a xlink:href="../../dc/d7b/_app_kit_8h.html" target="_top" xlink:title=" ">
<polygon fill="white" stroke="#666666" points="820.08,-41 676.08,-41 676.08,0 820.08,0 820.08,-41"/>
<text text-anchor="start" x="684.08" y="-29" font-family="Helvetica,sans-Serif" font-size="10.00">/home/runner/work/uniot</text>
<text text-anchor="start" x="684.08" y="-18" font-family="Helvetica,sans-Serif" font-size="10.00">&#45;core/uniot&#45;core/lib/AppKit</text>
<text text-anchor="middle" x="748.08" y="-7" font-family="Helvetica,sans-Serif" font-size="10.00">/AppKit.h</text>
</a>
</g>
</g>
<!-- Node3&#45;&gt;Node4 -->
<g id="edge3_Node000003_Node000004" class="edge">
<title>Node3&#45;&gt;Node4</title>
<g id="a_edge3_Node000003_Node000004"><a xlink:title=" ">
<path fill="none" stroke="#63b8ff" d="M504.26,-231.41C416.5,-223.3 45.1,-233.72 9.08,-195 -3.33,-181.66 -2.61,-167.98 9.08,-154 93.77,-52.78 506.88,-28.79 675.84,-23.18"/>
<polygon fill="#63b8ff" stroke="#63b8ff" points="503.97,-234.9 514.31,-232.62 504.8,-227.95 503.97,-234.9"/>
</a>
</g>
</g>
<!-- Node5 -->
<g id="Node000005" class="node">
<title>Node5</title>
<g id="a_Node000005"><a xlink:href="../../de/d06/_event_bus_8cpp.html" target="_top" xlink:title=" ">
<polygon fill="white" stroke="#666666" points="155.58,-195 18.58,-195 18.58,-154 155.58,-154 155.58,-195"/>
<text text-anchor="start" x="26.58" y="-183" font-family="Helvetica,sans-Serif" font-size="10.00">/home/runner/work/uniot</text>
<text text-anchor="start" x="26.58" y="-172" font-family="Helvetica,sans-Serif" font-size="10.00">&#45;core/uniot&#45;core/lib/Core</text>
<text text-anchor="middle" x="87.08" y="-161" font-family="Helvetica,sans-Serif" font-size="10.00">/EventBus/EventBus.cpp</text>
</a>
</g>
</g>
<!-- Node3&#45;&gt;Node5 -->
<g id="edge4_Node000003_Node000005" class="edge">
<title>Node3&#45;&gt;Node5</title>
<g id="a_edge4_Node000003_Node000005"><a xlink:title=" ">
<path fill="none" stroke="#63b8ff" d="M504.22,-230.99C353.65,-205.22 311.5,-220.92 165.08,-195 162.06,-194.46 158.98,-193.88 155.87,-193.25"/>
<polygon fill="#63b8ff" stroke="#63b8ff" points="503.84,-234.48 514.29,-232.75 505.04,-227.58 503.84,-234.48"/>
</a>
</g>
</g>
<!-- Node6 -->
<g id="Node000006" class="node">
<title>Node6</title>
<g id="a_Node000006"><a xlink:href="../../d5/dfe/_event_emitter_8cpp.html" target="_top" xlink:title=" ">
<polygon fill="white" stroke="#666666" points="326.08,-195 174.08,-195 174.08,-154 326.08,-154 326.08,-195"/>
<text text-anchor="start" x="182.08" y="-183" font-family="Helvetica,sans-Serif" font-size="10.00">/home/runner/work/uniot</text>
<text text-anchor="start" x="182.08" y="-172" font-family="Helvetica,sans-Serif" font-size="10.00">&#45;core/uniot&#45;core/lib/Core</text>
<text text-anchor="middle" x="250.08" y="-161" font-family="Helvetica,sans-Serif" font-size="10.00">/EventBus/EventEmitter.cpp</text>
</a>
</g>
</g>
<!-- Node3&#45;&gt;Node6 -->
<g id="edge5_Node000003_Node000006" class="edge">
<title>Node3&#45;&gt;Node6</title>
<g id="a_edge5_Node000003_Node000006"><a xlink:title=" ">
<path fill="none" stroke="#63b8ff" d="M504.15,-230.82C428.15,-213.44 407.41,-210.95 335.08,-195 332.27,-194.38 329.41,-193.75 326.53,-193.1"/>
<polygon fill="#63b8ff" stroke="#63b8ff" points="503.68,-234.31 514.21,-233.14 505.25,-227.49 503.68,-234.31"/>
</a>
</g>
</g>
<!-- Node7 -->
<g id="Node000007" class="node">
<title>Node7</title>
<g id="a_Node000007"><a xlink:href="../../dc/d2d/_event_entity_8cpp.html" target="_top" xlink:title=" ">
<polygon fill="white" stroke="#666666" points="487.58,-195 344.58,-195 344.58,-154 487.58,-154 487.58,-195"/>
<text text-anchor="start" x="352.58" y="-183" font-family="Helvetica,sans-Serif" font-size="10.00">/home/runner/work/uniot</text>
<text text-anchor="start" x="352.58" y="-172" font-family="Helvetica,sans-Serif" font-size="10.00">&#45;core/uniot&#45;core/lib/Core</text>
<text text-anchor="middle" x="416.08" y="-161" font-family="Helvetica,sans-Serif" font-size="10.00">/EventBus/EventEntity.cpp</text>
</a>
</g>
</g>
<!-- Node3&#45;&gt;Node7 -->
<g id="edge6_Node000003_Node000007" class="edge">
<title>Node3&#45;&gt;Node7</title>
<g id="a_edge6_Node000003_Node000007"><a xlink:title=" ">
<path fill="none" stroke="#63b8ff" d="M530.44,-226.86C507.64,-216.62 481.27,-204.77 459.6,-195.04"/>
<polygon fill="#63b8ff" stroke="#63b8ff" points="529.09,-230.09 539.64,-230.99 531.95,-223.7 529.09,-230.09"/>
</a>
</g>
</g>
<!-- Node8 -->
<g id="Node000008" class="node">
<title>Node8</title>
<g id="a_Node000008"><a xlink:href="../../d0/def/_event_listener_8cpp.html" target="_top" xlink:title=" ">
<polygon fill="white" stroke="#666666" points="660.58,-195 505.58,-195 505.58,-154 660.58,-154 660.58,-195"/>
<text text-anchor="start" x="513.58" y="-183" font-family="Helvetica,sans-Serif" font-size="10.00">/home/runner/work/uniot</text>
<text text-anchor="start" x="513.58" y="-172" font-family="Helvetica,sans-Serif" font-size="10.00">&#45;core/uniot&#45;core/lib/Core</text>
<text text-anchor="middle" x="583.08" y="-161" font-family="Helvetica,sans-Serif" font-size="10.00">/EventBus/EventListener.cpp</text>
</a>
</g>
</g>
<!-- Node3&#45;&gt;Node8 -->
<g id="edge7_Node000003_Node000008" class="edge">
<title>Node3&#45;&gt;Node8</title>
<g id="a_edge7_Node000003_Node000008"><a xlink:title=" ">
<path fill="none" stroke="#63b8ff" d="M583.08,-220.69C583.08,-212.08 583.08,-202.9 583.08,-195.07"/>
<polygon fill="#63b8ff" stroke="#63b8ff" points="579.58,-220.79 583.08,-230.79 586.58,-220.79 579.58,-220.79"/>
</a>
</g>
</g>
<!-- Node9 -->
<g id="Node000009" class="node">
<title>Node9</title>
<g id="a_Node000009"><a xlink:href="../../d3/d99/_i_event_bus_connection_kit_8h.html" target="_top" xlink:title="Defines the interface for components that can connect to an EventBus.">
<polygon fill="white" stroke="#666666" points="873.08,-195 679.08,-195 679.08,-154 873.08,-154 873.08,-195"/>
<text text-anchor="start" x="687.08" y="-183" font-family="Helvetica,sans-Serif" font-size="10.00">/home/runner/work/uniot</text>
<text text-anchor="start" x="687.08" y="-172" font-family="Helvetica,sans-Serif" font-size="10.00">&#45;core/uniot&#45;core/lib/Core</text>
<text text-anchor="middle" x="776.08" y="-161" font-family="Helvetica,sans-Serif" font-size="10.00">/EventBus/IEventBusConnectionKit.h</text>
</a>
</g>
</g>
<!-- Node3&#45;&gt;Node9 -->
<g id="edge8_Node000003_Node000009" class="edge">
<title>Node3&#45;&gt;Node9</title>
<g id="a_edge8_Node000003_Node000009"><a xlink:title=" ">
<path fill="none" stroke="#63b8ff" d="M636.57,-227.27C662.47,-216.94 693.53,-204.9 719.79,-195.04"/>
<polygon fill="#63b8ff" stroke="#63b8ff" points="635.26,-224.02 627.28,-230.99 637.87,-230.52 635.26,-224.02"/>
</a>
</g>
</g>
<!-- Node10 -->
<g id="Node000010" class="node">
<title>Node10</title>
<g id="a_Node000010"><a xlink:href="../../da/dc0/_network_scheduler_8h.html" target="_top" xlink:title=" ">
<polygon fill="white" stroke="#666666" points="1052.58,-195 891.58,-195 891.58,-154 1052.58,-154 1052.58,-195"/>
<text text-anchor="start" x="899.58" y="-183" font-family="Helvetica,sans-Serif" font-size="10.00">/home/runner/work/uniot</text>
<text text-anchor="start" x="899.58" y="-172" font-family="Helvetica,sans-Serif" font-size="10.00">&#45;core/uniot&#45;core/lib/Core</text>
<text text-anchor="middle" x="972.08" y="-161" font-family="Helvetica,sans-Serif" font-size="10.00">/Network/NetworkScheduler.h</text>
</a>
</g>
</g>
<!-- Node3&#45;&gt;Node10 -->
<g id="edge11_Node000003_Node000010" class="edge">
<title>Node3&#45;&gt;Node10</title>
<g id="a_edge11_Node000003_Node000010"><a xlink:title=" ">
<path fill="none" stroke="#63b8ff" d="M661.62,-236.58C722,-225.72 807.43,-210.01 882.08,-195 885.06,-194.4 888.09,-193.78 891.15,-193.15"/>
<polygon fill="#63b8ff" stroke="#63b8ff" points="661,-233.14 651.78,-238.35 662.24,-240.03 661,-233.14"/>
</a>
</g>
</g>
<!-- Node14 -->
<g id="Node000014" class="node">
<title>Node14</title>
<g id="a_Node000014"><a xlink:href="../../d4/d2b/_uniot_8h.html" target="_top" xlink:title=" ">
<polygon fill="white" stroke="#666666" points="1209.08,-195 1071.08,-195 1071.08,-154 1209.08,-154 1209.08,-195"/>
<text text-anchor="start" x="1079.08" y="-183" font-family="Helvetica,sans-Serif" font-size="10.00">/home/runner/work/uniot</text>
<text text-anchor="start" x="1079.08" y="-172" font-family="Helvetica,sans-Serif" font-size="10.00">&#45;core/uniot&#45;core/lib/Uniot</text>
<text text-anchor="middle" x="1140.08" y="-161" font-family="Helvetica,sans-Serif" font-size="10.00">/Uniot.h</text>
</a>
</g>
</g>
<!-- Node3&#45;&gt;Node14 -->
<g id="edge17_Node000003_Node000014" class="edge">
<title>Node3&#45;&gt;Node14</title>
<g id="a_edge17_Node000003_Node000014"><a xlink:title=" ">
<path fill="none" stroke="#63b8ff" d="M661.85,-244.53C757.15,-236.57 922.22,-220.47 1062.08,-195 1064.97,-194.47 1067.9,-193.9 1070.86,-193.3"/>
<polygon fill="#63b8ff" stroke="#63b8ff" points="661.39,-241.05 651.71,-245.36 661.97,-248.03 661.39,-241.05"/>
</a>
</g>
</g>
<!-- Node9&#45;&gt;Node3 -->
<g id="edge10_Node000009_Node000003" class="edge">
<title>Node9&#45;&gt;Node3</title>
<g id="a_edge10_Node000009_Node000003"><a xlink:title=" ">
<path fill="none" stroke="#63b8ff" d="M722.51,-198.77C696.6,-209.1 665.54,-221.13 639.29,-230.99"/>
<polygon fill="#63b8ff" stroke="#63b8ff" points="723.82,-202.01 731.8,-195.04 721.22,-195.51 723.82,-202.01"/>
</a>
</g>
</g>
<!-- Node9&#45;&gt;Node4 -->
<g id="edge9_Node000009_Node000004" class="edge">
<title>Node9&#45;&gt;Node4</title>
<g id="a_edge9_Node000009_Node000004"><a xlink:title=" ">
<path fill="none" stroke="#63b8ff" d="M738.65,-147C729.94,-138.79 721.83,-128.98 717.08,-118 705.91,-92.16 720.81,-60.92 733.56,-41.13"/>
<polygon fill="#63b8ff" stroke="#63b8ff" points="736.56,-149.83 746.39,-153.79 741.18,-144.57 736.56,-149.83"/>
</a>
</g>
</g>
<!-- Node11 -->
<g id="Node000011" class="node">
<title>Node11</title>
<g id="a_Node000011"><a xlink:href="../../dc/d26/_m_q_t_t_kit_8h.html" target="_top" xlink:title=" ">
<polygon fill="white" stroke="#666666" points="1047.58,-118 904.58,-118 904.58,-77 1047.58,-77 1047.58,-118"/>
<text text-anchor="start" x="912.58" y="-106" font-family="Helvetica,sans-Serif" font-size="10.00">/home/runner/work/uniot</text>
<text text-anchor="start" x="912.58" y="-95" font-family="Helvetica,sans-Serif" font-size="10.00">&#45;core/uniot&#45;core/lib/Core</text>
<text text-anchor="middle" x="976.08" y="-84" font-family="Helvetica,sans-Serif" font-size="10.00">/MQTTWrapper/MQTTKit.h</text>
</a>
</g>
</g>
<!-- Node10&#45;&gt;Node11 -->
<g id="edge12_Node000010_Node000011" class="edge">
<title>Node10&#45;&gt;Node11</title>
<g id="a_edge12_Node000010_Node000011"><a xlink:title=" ">
<path fill="none" stroke="#63b8ff" d="M973.67,-143.69C974.13,-135.08 974.62,-125.9 975.04,-118.07"/>
<polygon fill="#63b8ff" stroke="#63b8ff" points="970.17,-143.62 973.13,-153.79 977.16,-144 970.17,-143.62"/>
</a>
</g>
</g>
<!-- Node13 -->
<g id="Node000013" class="node">
<title>Node13</title>
<g id="a_Node000013"><a xlink:href="../../d9/d89/_network_controller_8h.html" target="_top" xlink:title=" ">
<polygon fill="white" stroke="#666666" points="886.58,-118 725.58,-118 725.58,-77 886.58,-77 886.58,-118"/>
<text text-anchor="start" x="733.58" y="-106" font-family="Helvetica,sans-Serif" font-size="10.00">/home/runner/work/uniot</text>
<text text-anchor="start" x="733.58" y="-95" font-family="Helvetica,sans-Serif" font-size="10.00">&#45;core/uniot&#45;core/lib/Core</text>
<text text-anchor="middle" x="806.08" y="-84" font-family="Helvetica,sans-Serif" font-size="10.00">/Network/NetworkController.h</text>
</a>
</g>
</g>
<!-- Node10&#45;&gt;Node13 -->
<g id="edge15_Node000010_Node000013" class="edge">
<title>Node10&#45;&gt;Node13</title>
<g id="a_edge15_Node000010_Node000013"><a xlink:title=" ">
<path fill="none" stroke="#63b8ff" d="M919.76,-149.86C897.09,-139.62 870.88,-127.77 849.34,-118.04"/>
<polygon fill="#63b8ff" stroke="#63b8ff" points="918.35,-153.06 928.9,-153.99 921.23,-146.68 918.35,-153.06"/>
</a>
</g>
</g>
<!-- Node11&#45;&gt;Node4 -->
<g id="edge13_Node000011_Node000004" class="edge">
<title>Node11&#45;&gt;Node4</title>
<g id="a_edge13_Node000011_Node000004"><a xlink:title=" ">
<path fill="none" stroke="#63b8ff" d="M907.11,-73.81C875.33,-63.36 838,-51.08 807.49,-41.04"/>
<polygon fill="#63b8ff" stroke="#63b8ff" points="906.18,-77.19 916.77,-76.99 908.37,-70.54 906.18,-77.19"/>
</a>
</g>
</g>
<!-- Node12 -->
<g id="Node000012" class="node">
<title>Node12</title>
<g id="a_Node000012"><a xlink:href="../../da/d02/_m_q_t_t_device_8cpp.html" target="_top" xlink:title=" ">
<polygon fill="white" stroke="#666666" points="1063.58,-41 888.58,-41 888.58,0 1063.58,0 1063.58,-41"/>
<text text-anchor="start" x="896.58" y="-29" font-family="Helvetica,sans-Serif" font-size="10.00">/home/runner/work/uniot</text>
<text text-anchor="start" x="896.58" y="-18" font-family="Helvetica,sans-Serif" font-size="10.00">&#45;core/uniot&#45;core/lib/Core</text>
<text text-anchor="middle" x="976.08" y="-7" font-family="Helvetica,sans-Serif" font-size="10.00">/MQTTWrapper/MQTTDevice.cpp</text>
</a>
</g>
</g>
<!-- Node11&#45;&gt;Node12 -->
<g id="edge14_Node000011_Node000012" class="edge">
<title>Node11&#45;&gt;Node12</title>
<g id="a_edge14_Node000011_Node000012"><a xlink:title=" ">
<path fill="none" stroke="#63b8ff" d="M976.08,-66.69C976.08,-58.08 976.08,-48.9 976.08,-41.07"/>
<polygon fill="#63b8ff" stroke="#63b8ff" points="972.58,-66.79 976.08,-76.79 979.58,-66.79 972.58,-66.79"/>
</a>
</g>
</g>
<!-- Node13&#45;&gt;Node4 -->
<g id="edge16_Node000013_Node000004" class="edge">
<title>Node13&#45;&gt;Node4</title>
<g id="a_edge16_Node000013_Node000004"><a xlink:title=" ">
<path fill="none" stroke="#63b8ff" d="M784.56,-68.67C777.47,-59.5 769.73,-49.5 763.22,-41.07"/>
<polygon fill="#63b8ff" stroke="#63b8ff" points="781.96,-71.03 790.84,-76.79 787.5,-66.74 781.96,-71.03"/>
</a>
</g>
</g>
<!-- Node15 -->
<g id="Node000015" class="node">
<title>Node15</title>
<g id="a_Node000015"><a xlink:href="../../d9/d1c/_uniot_8cpp.html" target="_top" xlink:title=" ">
<polygon fill="white" stroke="#666666" points="1209.08,-118 1071.08,-118 1071.08,-77 1209.08,-77 1209.08,-118"/>
<text text-anchor="start" x="1079.08" y="-106" font-family="Helvetica,sans-Serif" font-size="10.00">/home/runner/work/uniot</text>
<text text-anchor="start" x="1079.08" y="-95" font-family="Helvetica,sans-Serif" font-size="10.00">&#45;core/uniot&#45;core/lib/Uniot</text>
<text text-anchor="middle" x="1140.08" y="-84" font-family="Helvetica,sans-Serif" font-size="10.00">/Uniot.cpp</text>
</a>
</g>
</g>
<!-- Node14&#45;&gt;Node15 -->
<g id="edge18_Node000014_Node000015" class="edge">
<title>Node14&#45;&gt;Node15</title>
<g id="a_edge18_Node000014_Node000015"><a xlink:title=" ">
<path fill="none" stroke="#63b8ff" d="M1140.08,-143.69C1140.08,-135.08 1140.08,-125.9 1140.08,-118.07"/>
<polygon fill="#63b8ff" stroke="#63b8ff" points="1136.58,-143.79 1140.08,-153.79 1143.58,-143.79 1136.58,-143.79"/>
</a>
</g>
</g>
</g>
</svg>
