<?xml version="1.0" encoding="UTF-8" standalone="no"?>
<!DOCTYPE svg PUBLIC "-//W3C//DTD SVG 1.1//EN"
 "http://www.w3.org/Graphics/SVG/1.1/DTD/svg11.dtd">
<!-- Generated by graphviz version 2.43.0 (0)
 -->
<!-- Title: /home/runner/work/uniot&#45;core/uniot&#45;core/lib/Core/MQTTWrapper/MQTTDevice.h Pages: 1 -->
<svg width="562pt" height="280pt"
 viewBox="0.00 0.00 561.50 280.00" xmlns="http://www.w3.org/2000/svg" xmlns:xlink="http://www.w3.org/1999/xlink">
<g id="graph0" class="graph" transform="scale(1 1) rotate(0) translate(4 276)">
<title>/home/runner/work/uniot&#45;core/uniot&#45;core/lib/Core/MQTTWrapper/MQTTDevice.h</title>
<!-- Node1 -->
<g id="Node000001" class="node">
<title>Node1</title>
<g id="a_Node000001"><a xlink:title=" ">
<polygon fill="#999999" stroke="#666666" points="447,-272 283,-272 283,-231 447,-231 447,-272"/>
<text text-anchor="start" x="291" y="-260" font-family="Helvetica,sans-Serif" font-size="10.00">/home/runner/work/uniot</text>
<text text-anchor="start" x="291" y="-249" font-family="Helvetica,sans-Serif" font-size="10.00">&#45;core/uniot&#45;core/lib/Core</text>
<text text-anchor="middle" x="365" y="-238" font-family="Helvetica,sans-Serif" font-size="10.00">/MQTTWrapper/MQTTDevice.h</text>
</a>
</g>
</g>
<!-- Node2 -->
<g id="Node000002" class="node">
<title>Node2</title>
<g id="a_Node000002"><a xlink:href="../../d8/de7/_lisp_device_8h.html" target="_top" xlink:title=" ">
<polygon fill="white" stroke="#666666" points="144,-118 0,-118 0,-77 144,-77 144,-118"/>
<text text-anchor="start" x="8" y="-106" font-family="Helvetica,sans-Serif" font-size="10.00">/home/runner/work/uniot</text>
<text text-anchor="start" x="8" y="-95" font-family="Helvetica,sans-Serif" font-size="10.00">&#45;core/uniot&#45;core/lib/AppKit</text>
<text text-anchor="middle" x="72" y="-84" font-family="Helvetica,sans-Serif" font-size="10.00">/LispDevice.h</text>
</a>
</g>
</g>
<!-- Node1&#45;&gt;Node2 -->
<g id="edge1_Node000001_Node000002" class="edge">
<title>Node1&#45;&gt;Node2</title>
<g id="a_edge1_Node000001_Node000002"><a xlink:title=" ">
<path fill="none" stroke="#63b8ff" d="M272.66,-242.72C203.35,-234.94 116.24,-220.38 91,-195 70.89,-174.78 68.93,-139.88 70,-118.05"/>
<polygon fill="#63b8ff" stroke="#63b8ff" points="272.43,-246.21 282.75,-243.82 273.19,-239.25 272.43,-246.21"/>
</a>
</g>
</g>
<!-- Node4 -->
<g id="Node000004" class="node">
<title>Node4</title>
<g id="a_Node000004"><a xlink:href="../../db/dfc/_top_device_8h.html" target="_top" xlink:title=" ">
<polygon fill="white" stroke="#666666" points="244,-195 100,-195 100,-154 244,-154 244,-195"/>
<text text-anchor="start" x="108" y="-183" font-family="Helvetica,sans-Serif" font-size="10.00">/home/runner/work/uniot</text>
<text text-anchor="start" x="108" y="-172" font-family="Helvetica,sans-Serif" font-size="10.00">&#45;core/uniot&#45;core/lib/AppKit</text>
<text text-anchor="middle" x="172" y="-161" font-family="Helvetica,sans-Serif" font-size="10.00">/TopDevice.h</text>
</a>
</g>
</g>
<!-- Node1&#45;&gt;Node4 -->
<g id="edge3_Node000001_Node000004" class="edge">
<title>Node1&#45;&gt;Node4</title>
<g id="a_edge3_Node000001_Node000004"><a xlink:title=" ">
<path fill="none" stroke="#63b8ff" d="M305.22,-227.27C278.63,-216.94 247.67,-204.9 222.29,-195.04"/>
<polygon fill="#63b8ff" stroke="#63b8ff" points="304.21,-230.63 314.8,-230.99 306.74,-224.11 304.21,-230.63"/>
</a>
</g>
</g>
<!-- Node5 -->
<g id="Node000005" class="node">
<title>Node5</title>
<g id="a_Node000005"><a xlink:href="../../de/d39/_callback_m_q_t_t_device_8h.html" target="_top" xlink:title=" ">
<polygon fill="white" stroke="#666666" points="468,-195 262,-195 262,-154 468,-154 468,-195"/>
<text text-anchor="start" x="270" y="-183" font-family="Helvetica,sans-Serif" font-size="10.00">/home/runner/work/uniot</text>
<text text-anchor="start" x="270" y="-172" font-family="Helvetica,sans-Serif" font-size="10.00">&#45;core/uniot&#45;core/lib/Core</text>
<text text-anchor="middle" x="365" y="-161" font-family="Helvetica,sans-Serif" font-size="10.00">/MQTTWrapper/CallbackMQTTDevice.h</text>
</a>
</g>
</g>
<!-- Node1&#45;&gt;Node5 -->
<g id="edge5_Node000001_Node000005" class="edge">
<title>Node1&#45;&gt;Node5</title>
<g id="a_edge5_Node000001_Node000005"><a xlink:title=" ">
<path fill="none" stroke="#63b8ff" d="M365,-220.69C365,-212.08 365,-202.9 365,-195.07"/>
<polygon fill="#63b8ff" stroke="#63b8ff" points="361.5,-220.79 365,-230.79 368.5,-220.79 361.5,-220.79"/>
</a>
</g>
</g>
<!-- Node6 -->
<g id="Node000006" class="node">
<title>Node6</title>
<g id="a_Node000006"><a xlink:href="../../dc/d26/_m_q_t_t_kit_8h.html" target="_top" xlink:title=" ">
<polygon fill="white" stroke="#666666" points="470.5,-118 327.5,-118 327.5,-77 470.5,-77 470.5,-118"/>
<text text-anchor="start" x="335.5" y="-106" font-family="Helvetica,sans-Serif" font-size="10.00">/home/runner/work/uniot</text>
<text text-anchor="start" x="335.5" y="-95" font-family="Helvetica,sans-Serif" font-size="10.00">&#45;core/uniot&#45;core/lib/Core</text>
<text text-anchor="middle" x="399" y="-84" font-family="Helvetica,sans-Serif" font-size="10.00">/MQTTWrapper/MQTTKit.h</text>
</a>
</g>
</g>
<!-- Node1&#45;&gt;Node6 -->
<g id="edge10_Node000001_Node000006" class="edge">
<title>Node1&#45;&gt;Node6</title>
<g id="a_edge10_Node000001_Node000006"><a xlink:title=" ">
<path fill="none" stroke="#63b8ff" d="M442.76,-226.2C456.38,-218.41 468.79,-208.24 477,-195 486.61,-179.52 485.35,-170.2 477,-154 469.23,-138.93 455.27,-127.06 441.28,-118.23"/>
<polygon fill="#63b8ff" stroke="#63b8ff" points="440.9,-223.23 433.68,-230.99 444.16,-229.43 440.9,-223.23"/>
</a>
</g>
</g>
<!-- Node7 -->
<g id="Node000007" class="node">
<title>Node7</title>
<g id="a_Node000007"><a xlink:href="../../da/d02/_m_q_t_t_device_8cpp.html" target="_top" xlink:title=" ">
<polygon fill="white" stroke="#666666" points="553.5,-41 378.5,-41 378.5,0 553.5,0 553.5,-41"/>
<text text-anchor="start" x="386.5" y="-29" font-family="Helvetica,sans-Serif" font-size="10.00">/home/runner/work/uniot</text>
<text text-anchor="start" x="386.5" y="-18" font-family="Helvetica,sans-Serif" font-size="10.00">&#45;core/uniot&#45;core/lib/Core</text>
<text text-anchor="middle" x="466" y="-7" font-family="Helvetica,sans-Serif" font-size="10.00">/MQTTWrapper/MQTTDevice.cpp</text>
</a>
</g>
</g>
<!-- Node1&#45;&gt;Node7 -->
<g id="edge9_Node000001_Node000007" class="edge">
<title>Node1&#45;&gt;Node7</title>
<g id="a_edge9_Node000001_Node000007"><a xlink:title=" ">
<path fill="none" stroke="#63b8ff" d="M456.57,-227.18C471.38,-219.35 484.84,-208.91 494,-195 525.71,-146.84 495.34,-75.22 477.27,-41.03"/>
<polygon fill="#63b8ff" stroke="#63b8ff" points="454.67,-224.21 447.2,-231.73 457.73,-230.51 454.67,-224.21"/>
</a>
</g>
</g>
<!-- Node3 -->
<g id="Node000003" class="node">
<title>Node3</title>
<g id="a_Node000003"><a xlink:href="../../dc/d7b/_app_kit_8h.html" target="_top" xlink:title=" ">
<polygon fill="white" stroke="#666666" points="244,-41 100,-41 100,0 244,0 244,-41"/>
<text text-anchor="start" x="108" y="-29" font-family="Helvetica,sans-Serif" font-size="10.00">/home/runner/work/uniot</text>
<text text-anchor="start" x="108" y="-18" font-family="Helvetica,sans-Serif" font-size="10.00">&#45;core/uniot&#45;core/lib/AppKit</text>
<text text-anchor="middle" x="172" y="-7" font-family="Helvetica,sans-Serif" font-size="10.00">/AppKit.h</text>
</a>
</g>
</g>
<!-- Node2&#45;&gt;Node3 -->
<g id="edge2_Node000002_Node000003" class="edge">
<title>Node2&#45;&gt;Node3</title>
<g id="a_edge2_Node000002_Node000003"><a xlink:title=" ">
<path fill="none" stroke="#63b8ff" d="M106.25,-70.82C119.18,-61.11 133.68,-50.24 145.77,-41.17"/>
<polygon fill="#63b8ff" stroke="#63b8ff" points="103.91,-68.19 98.01,-76.99 108.11,-73.79 103.91,-68.19"/>
</a>
</g>
</g>
<!-- Node4&#45;&gt;Node3 -->
<g id="edge4_Node000004_Node000003" class="edge">
<title>Node4&#45;&gt;Node3</title>
<g id="a_edge4_Node000004_Node000003"><a xlink:title=" ">
<path fill="none" stroke="#63b8ff" d="M172,-143.58C172,-113.36 172,-67.53 172,-41.47"/>
<polygon fill="#63b8ff" stroke="#63b8ff" points="168.5,-143.94 172,-153.94 175.5,-143.94 168.5,-143.94"/>
</a>
</g>
</g>
<!-- Node5&#45;&gt;Node6 -->
<g id="edge6_Node000005_Node000006" class="edge">
<title>Node5&#45;&gt;Node6</title>
<g id="a_edge6_Node000005_Node000006"><a xlink:title=" ">
<path fill="none" stroke="#63b8ff" d="M378.13,-144.55C382.14,-135.69 386.46,-126.15 390.13,-118.07"/>
<polygon fill="#63b8ff" stroke="#63b8ff" points="374.87,-143.24 373.93,-153.79 381.25,-146.13 374.87,-143.24"/>
</a>
</g>
</g>
<!-- Node6&#45;&gt;Node3 -->
<g id="edge7_Node000006_Node000003" class="edge">
<title>Node6&#45;&gt;Node3</title>
<g id="a_edge7_Node000006_Node000003"><a xlink:title=" ">
<path fill="none" stroke="#63b8ff" d="M330.32,-73.81C298.69,-63.36 261.52,-51.08 231.15,-41.04"/>
<polygon fill="#63b8ff" stroke="#63b8ff" points="329.36,-77.18 339.95,-76.99 331.55,-70.53 329.36,-77.18"/>
</a>
</g>
</g>
<!-- Node6&#45;&gt;Node7 -->
<g id="edge8_Node000006_Node000007" class="edge">
<title>Node6&#45;&gt;Node7</title>
<g id="a_edge8_Node000006_Node000007"><a xlink:title=" ">
<path fill="none" stroke="#63b8ff" d="M423.36,-69.23C431.69,-59.91 440.84,-49.67 448.51,-41.07"/>
<polygon fill="#63b8ff" stroke="#63b8ff" points="420.66,-67.01 416.6,-76.79 425.88,-71.67 420.66,-67.01"/>
</a>
</g>
</g>
</g>
</svg>
