<?xml version="1.0" encoding="UTF-8" standalone="no"?>
<!DOCTYPE svg PUBLIC "-//W3C//DTD SVG 1.1//EN"
 "http://www.w3.org/Graphics/SVG/1.1/DTD/svg11.dtd">
<!-- Generated by graphviz version 2.43.0 (0)
 -->
<!-- Title: /home/runner/work/uniot&#45;core/uniot&#45;core/lib/Core/Utils/Array.h Pages: 1 -->
<svg width="378pt" height="665pt"
 viewBox="0.00 0.00 377.50 665.00" xmlns="http://www.w3.org/2000/svg" xmlns:xlink="http://www.w3.org/1999/xlink">
<g id="graph0" class="graph" transform="scale(1 1) rotate(0) translate(4 661)">
<title>/home/runner/work/uniot&#45;core/uniot&#45;core/lib/Core/Utils/Array.h</title>
<!-- Node1 -->
<g id="Node000001" class="node">
<title>Node1</title>
<g id="a_Node000001"><a xlink:title=" ">
<polygon fill="#999999" stroke="#666666" points="216,-657 79,-657 79,-616 216,-616 216,-657"/>
<text text-anchor="start" x="87" y="-645" font-family="Helvetica,sans-Serif" font-size="10.00">/home/runner/work/uniot</text>
<text text-anchor="start" x="87" y="-634" font-family="Helvetica,sans-Serif" font-size="10.00">&#45;core/uniot&#45;core/lib/Core</text>
<text text-anchor="middle" x="147.5" y="-623" font-family="Helvetica,sans-Serif" font-size="10.00">/Utils/Array.h</text>
</a>
</g>
</g>
<!-- Node2 -->
<g id="Node000002" class="node">
<title>Node2</title>
<g id="a_Node000002"><a xlink:href="../../d9/d77/_register_8h.html" target="_top" xlink:title=" ">
<polygon fill="white" stroke="#666666" points="216,-580 79,-580 79,-539 216,-539 216,-580"/>
<text text-anchor="start" x="87" y="-568" font-family="Helvetica,sans-Serif" font-size="10.00">/home/runner/work/uniot</text>
<text text-anchor="start" x="87" y="-557" font-family="Helvetica,sans-Serif" font-size="10.00">&#45;core/uniot&#45;core/lib/Core</text>
<text text-anchor="middle" x="147.5" y="-546" font-family="Helvetica,sans-Serif" font-size="10.00">/Register/Register.h</text>
</a>
</g>
</g>
<!-- Node1&#45;&gt;Node2 -->
<g id="edge1_Node000001_Node000002" class="edge">
<title>Node1&#45;&gt;Node2</title>
<g id="a_edge1_Node000001_Node000002"><a xlink:title=" ">
<path fill="none" stroke="#63b8ff" d="M147.5,-605.69C147.5,-597.08 147.5,-587.9 147.5,-580.07"/>
<polygon fill="#63b8ff" stroke="#63b8ff" points="144,-605.79 147.5,-615.79 151,-605.79 144,-605.79"/>
</a>
</g>
</g>
<!-- Node3 -->
<g id="Node000003" class="node">
<title>Node3</title>
<g id="a_Node000003"><a xlink:href="../../df/d6e/_gpio_register_8h.html" target="_top" xlink:title=" ">
<polygon fill="white" stroke="#666666" points="137,-503 0,-503 0,-462 137,-462 137,-503"/>
<text text-anchor="start" x="8" y="-491" font-family="Helvetica,sans-Serif" font-size="10.00">/home/runner/work/uniot</text>
<text text-anchor="start" x="8" y="-480" font-family="Helvetica,sans-Serif" font-size="10.00">&#45;core/uniot&#45;core/lib/Core</text>
<text text-anchor="middle" x="68.5" y="-469" font-family="Helvetica,sans-Serif" font-size="10.00">/Register/GpioRegister.h</text>
</a>
</g>
</g>
<!-- Node2&#45;&gt;Node3 -->
<g id="edge2_Node000002_Node000003" class="edge">
<title>Node2&#45;&gt;Node3</title>
<g id="a_edge2_Node000002_Node000003"><a xlink:title=" ">
<path fill="none" stroke="#63b8ff" d="M119.37,-531.79C109.39,-522.32 98.35,-511.84 89.12,-503.07"/>
<polygon fill="#63b8ff" stroke="#63b8ff" points="117.08,-534.45 126.74,-538.79 121.9,-529.37 117.08,-534.45"/>
</a>
</g>
</g>
<!-- Node11 -->
<g id="Node000011" class="node">
<title>Node11</title>
<g id="a_Node000011"><a xlink:href="../../da/d7e/_object_register_8h.html" target="_top" xlink:title=" ">
<polygon fill="white" stroke="#666666" points="298,-503 155,-503 155,-462 298,-462 298,-503"/>
<text text-anchor="start" x="163" y="-491" font-family="Helvetica,sans-Serif" font-size="10.00">/home/runner/work/uniot</text>
<text text-anchor="start" x="163" y="-480" font-family="Helvetica,sans-Serif" font-size="10.00">&#45;core/uniot&#45;core/lib/Core</text>
<text text-anchor="middle" x="226.5" y="-469" font-family="Helvetica,sans-Serif" font-size="10.00">/Register/ObjectRegister.h</text>
</a>
</g>
</g>
<!-- Node2&#45;&gt;Node11 -->
<g id="edge12_Node000002_Node000011" class="edge">
<title>Node2&#45;&gt;Node11</title>
<g id="a_edge12_Node000002_Node000011"><a xlink:title=" ">
<path fill="none" stroke="#63b8ff" d="M175.63,-531.79C185.61,-522.32 196.65,-511.84 205.88,-503.07"/>
<polygon fill="#63b8ff" stroke="#63b8ff" points="173.1,-529.37 168.26,-538.79 177.92,-534.45 173.1,-529.37"/>
</a>
</g>
</g>
<!-- Node4 -->
<g id="Node000004" class="node">
<title>Node4</title>
<g id="a_Node000004"><a xlink:href="../../dd/d11/_register_manager_8h.html" target="_top" xlink:title=" ">
<polygon fill="white" stroke="#666666" points="225,-426 70,-426 70,-385 225,-385 225,-426"/>
<text text-anchor="start" x="78" y="-414" font-family="Helvetica,sans-Serif" font-size="10.00">/home/runner/work/uniot</text>
<text text-anchor="start" x="78" y="-403" font-family="Helvetica,sans-Serif" font-size="10.00">&#45;core/uniot&#45;core/lib/Core</text>
<text text-anchor="middle" x="147.5" y="-392" font-family="Helvetica,sans-Serif" font-size="10.00">/Register/RegisterManager.h</text>
</a>
</g>
</g>
<!-- Node3&#45;&gt;Node4 -->
<g id="edge3_Node000003_Node000004" class="edge">
<title>Node3&#45;&gt;Node4</title>
<g id="a_edge3_Node000003_Node000004"><a xlink:title=" ">
<path fill="none" stroke="#63b8ff" d="M96.63,-454.79C106.61,-445.32 117.65,-434.84 126.88,-426.07"/>
<polygon fill="#63b8ff" stroke="#63b8ff" points="94.1,-452.37 89.26,-461.79 98.92,-457.45 94.1,-452.37"/>
</a>
</g>
</g>
<!-- Node5 -->
<g id="Node000005" class="node">
<title>Node5</title>
<g id="a_Node000005"><a xlink:href="../../d8/dc9/_register_manager_proxy_8h.html" target="_top" xlink:title=" ">
<polygon fill="white" stroke="#666666" points="238.5,-349 56.5,-349 56.5,-308 238.5,-308 238.5,-349"/>
<text text-anchor="start" x="64.5" y="-337" font-family="Helvetica,sans-Serif" font-size="10.00">/home/runner/work/uniot</text>
<text text-anchor="start" x="64.5" y="-326" font-family="Helvetica,sans-Serif" font-size="10.00">&#45;core/uniot&#45;core/lib/Core</text>
<text text-anchor="middle" x="147.5" y="-315" font-family="Helvetica,sans-Serif" font-size="10.00">/Register/RegisterManagerProxy.h</text>
</a>
</g>
</g>
<!-- Node4&#45;&gt;Node5 -->
<g id="edge4_Node000004_Node000005" class="edge">
<title>Node4&#45;&gt;Node5</title>
<g id="a_edge4_Node000004_Node000005"><a xlink:title=" ">
<path fill="none" stroke="#63b8ff" d="M147.5,-374.69C147.5,-366.08 147.5,-356.9 147.5,-349.07"/>
<polygon fill="#63b8ff" stroke="#63b8ff" points="144,-374.79 147.5,-384.79 151,-374.79 144,-374.79"/>
</a>
</g>
</g>
<!-- Node6 -->
<g id="Node000006" class="node">
<title>Node6</title>
<g id="a_Node000006"><a xlink:href="../../dd/dcc/_primitive_expeditor_8h.html" target="_top" xlink:title=" ">
<polygon fill="white" stroke="#666666" points="238.5,-272 56.5,-272 56.5,-231 238.5,-231 238.5,-272"/>
<text text-anchor="start" x="64.5" y="-260" font-family="Helvetica,sans-Serif" font-size="10.00">/home/runner/work/uniot</text>
<text text-anchor="start" x="64.5" y="-249" font-family="Helvetica,sans-Serif" font-size="10.00">&#45;core/uniot&#45;core/lib/Core</text>
<text text-anchor="middle" x="147.5" y="-238" font-family="Helvetica,sans-Serif" font-size="10.00">/LispWrapper/PrimitiveExpeditor.h</text>
</a>
</g>
</g>
<!-- Node5&#45;&gt;Node6 -->
<g id="edge5_Node000005_Node000006" class="edge">
<title>Node5&#45;&gt;Node6</title>
<g id="a_edge5_Node000005_Node000006"><a xlink:title=" ">
<path fill="none" stroke="#63b8ff" d="M147.5,-297.69C147.5,-289.08 147.5,-279.9 147.5,-272.07"/>
<polygon fill="#63b8ff" stroke="#63b8ff" points="144,-297.79 147.5,-307.79 151,-297.79 144,-297.79"/>
</a>
</g>
</g>
<!-- Node7 -->
<g id="Node000007" class="node">
<title>Node7</title>
<g id="a_Node000007"><a xlink:href="../../d1/d24/_lisp_primitives_8h.html" target="_top" xlink:title=" ">
<polygon fill="white" stroke="#666666" points="169.5,-118 25.5,-118 25.5,-77 169.5,-77 169.5,-118"/>
<text text-anchor="start" x="33.5" y="-106" font-family="Helvetica,sans-Serif" font-size="10.00">/home/runner/work/uniot</text>
<text text-anchor="start" x="33.5" y="-95" font-family="Helvetica,sans-Serif" font-size="10.00">&#45;core/uniot&#45;core/lib/AppKit</text>
<text text-anchor="middle" x="97.5" y="-84" font-family="Helvetica,sans-Serif" font-size="10.00">/LispPrimitives.h</text>
</a>
</g>
</g>
<!-- Node6&#45;&gt;Node7 -->
<g id="edge6_Node000006_Node000007" class="edge">
<title>Node6&#45;&gt;Node7</title>
<g id="a_edge6_Node000006_Node000007"><a xlink:title=" ">
<path fill="none" stroke="#63b8ff" d="M131.4,-221.89C127.1,-213.42 122.74,-204 119.5,-195 110.18,-169.13 103.92,-137.9 100.53,-118.12"/>
<polygon fill="#63b8ff" stroke="#63b8ff" points="128.43,-223.76 136.18,-230.98 134.63,-220.5 128.43,-223.76"/>
</a>
</g>
</g>
<!-- Node9 -->
<g id="Node000009" class="node">
<title>Node9</title>
<g id="a_Node000009"><a xlink:href="../../dc/d47/un_lisp_8h.html" target="_top" xlink:title=" ">
<polygon fill="white" stroke="#666666" points="266,-195 129,-195 129,-154 266,-154 266,-195"/>
<text text-anchor="start" x="137" y="-183" font-family="Helvetica,sans-Serif" font-size="10.00">/home/runner/work/uniot</text>
<text text-anchor="start" x="137" y="-172" font-family="Helvetica,sans-Serif" font-size="10.00">&#45;core/uniot&#45;core/lib/Core</text>
<text text-anchor="middle" x="197.5" y="-161" font-family="Helvetica,sans-Serif" font-size="10.00">/LispWrapper/unLisp.h</text>
</a>
</g>
</g>
<!-- Node6&#45;&gt;Node9 -->
<g id="edge8_Node000006_Node000009" class="edge">
<title>Node6&#45;&gt;Node9</title>
<g id="a_edge8_Node000006_Node000009"><a xlink:title=" ">
<path fill="none" stroke="#63b8ff" d="M166.24,-222.39C172.3,-213.3 178.89,-203.41 184.45,-195.07"/>
<polygon fill="#63b8ff" stroke="#63b8ff" points="163.27,-220.53 160.64,-230.79 169.1,-224.42 163.27,-220.53"/>
</a>
</g>
</g>
<!-- Node8 -->
<g id="Node000008" class="node">
<title>Node8</title>
<g id="a_Node000008"><a xlink:href="../../dc/d7b/_app_kit_8h.html" target="_top" xlink:title=" ">
<polygon fill="white" stroke="#666666" points="269.5,-41 125.5,-41 125.5,0 269.5,0 269.5,-41"/>
<text text-anchor="start" x="133.5" y="-29" font-family="Helvetica,sans-Serif" font-size="10.00">/home/runner/work/uniot</text>
<text text-anchor="start" x="133.5" y="-18" font-family="Helvetica,sans-Serif" font-size="10.00">&#45;core/uniot&#45;core/lib/AppKit</text>
<text text-anchor="middle" x="197.5" y="-7" font-family="Helvetica,sans-Serif" font-size="10.00">/AppKit.h</text>
</a>
</g>
</g>
<!-- Node7&#45;&gt;Node8 -->
<g id="edge7_Node000007_Node000008" class="edge">
<title>Node7&#45;&gt;Node8</title>
<g id="a_edge7_Node000007_Node000008"><a xlink:title=" ">
<path fill="none" stroke="#63b8ff" d="M131.75,-70.82C144.68,-61.11 159.18,-50.24 171.27,-41.17"/>
<polygon fill="#63b8ff" stroke="#63b8ff" points="129.41,-68.19 123.51,-76.99 133.61,-73.79 129.41,-68.19"/>
</a>
</g>
</g>
<!-- Node9&#45;&gt;Node8 -->
<g id="edge9_Node000009_Node000008" class="edge">
<title>Node9&#45;&gt;Node8</title>
<g id="a_edge9_Node000009_Node000008"><a xlink:title=" ">
<path fill="none" stroke="#63b8ff" d="M197.5,-143.58C197.5,-113.36 197.5,-67.53 197.5,-41.47"/>
<polygon fill="#63b8ff" stroke="#63b8ff" points="194,-143.94 197.5,-153.94 201,-143.94 194,-143.94"/>
</a>
</g>
</g>
<!-- Node10 -->
<g id="Node000010" class="node">
<title>Node10</title>
<g id="a_Node000010"><a xlink:href="../../d8/de7/_lisp_device_8h.html" target="_top" xlink:title=" ">
<polygon fill="white" stroke="#666666" points="369.5,-118 225.5,-118 225.5,-77 369.5,-77 369.5,-118"/>
<text text-anchor="start" x="233.5" y="-106" font-family="Helvetica,sans-Serif" font-size="10.00">/home/runner/work/uniot</text>
<text text-anchor="start" x="233.5" y="-95" font-family="Helvetica,sans-Serif" font-size="10.00">&#45;core/uniot&#45;core/lib/AppKit</text>
<text text-anchor="middle" x="297.5" y="-84" font-family="Helvetica,sans-Serif" font-size="10.00">/LispDevice.h</text>
</a>
</g>
</g>
<!-- Node9&#45;&gt;Node10 -->
<g id="edge10_Node000009_Node000010" class="edge">
<title>Node9&#45;&gt;Node10</title>
<g id="a_edge10_Node000009_Node000010"><a xlink:title=" ">
<path fill="none" stroke="#63b8ff" d="M231.75,-147.82C244.68,-138.11 259.18,-127.24 271.27,-118.17"/>
<polygon fill="#63b8ff" stroke="#63b8ff" points="229.41,-145.19 223.51,-153.99 233.61,-150.79 229.41,-145.19"/>
</a>
</g>
</g>
<!-- Node10&#45;&gt;Node8 -->
<g id="edge11_Node000010_Node000008" class="edge">
<title>Node10&#45;&gt;Node8</title>
<g id="a_edge11_Node000010_Node000008"><a xlink:title=" ">
<path fill="none" stroke="#63b8ff" d="M263.25,-70.82C250.32,-61.11 235.82,-50.24 223.73,-41.17"/>
<polygon fill="#63b8ff" stroke="#63b8ff" points="261.39,-73.79 271.49,-76.99 265.59,-68.19 261.39,-73.79"/>
</a>
</g>
</g>
<!-- Node11&#45;&gt;Node4 -->
<g id="edge13_Node000011_Node000004" class="edge">
<title>Node11&#45;&gt;Node4</title>
<g id="a_edge13_Node000011_Node000004"><a xlink:title=" ">
<path fill="none" stroke="#63b8ff" d="M198.37,-454.79C188.39,-445.32 177.35,-434.84 168.12,-426.07"/>
<polygon fill="#63b8ff" stroke="#63b8ff" points="196.08,-457.45 205.74,-461.79 200.9,-452.37 196.08,-457.45"/>
</a>
</g>
</g>
</g>
</svg>
