<?xml version="1.0" encoding="UTF-8" standalone="no"?>
<!DOCTYPE svg PUBLIC "-//W3C//DTD SVG 1.1//EN"
 "http://www.w3.org/Graphics/SVG/1.1/DTD/svg11.dtd">
<!-- Generated by graphviz version 2.43.0 (0)
 -->
<!-- Title: Utilities Pages: 1 -->
<svg width="255pt" height="458pt"
 viewBox="0.00 0.00 255.00 458.00" xmlns="http://www.w3.org/2000/svg" xmlns:xlink="http://www.w3.org/1999/xlink">
<g id="graph0" class="graph" transform="scale(1 1) rotate(0) translate(4 454)">
<title>Utilities</title>
<!-- Node4 -->
<g id="Node000004" class="node">
<title>Node4</title>
<g id="a_Node000004"><a xlink:href="../../db/d78/group__common.html" target="_top" xlink:title="Common utilities and macros for the Uniot Core.">
<polygon fill="white" stroke="#666666" points="199.5,-450 138.5,-450 138.5,-431 199.5,-431 199.5,-450"/>
<text text-anchor="middle" x="169" y="-438" font-family="Helvetica,sans-Serif" font-size="10.00">Common</text>
</a>
</g>
</g>
<!-- Node5 -->
<g id="Node000005" class="node">
<title>Node5</title>
<g id="a_Node000005"><a xlink:href="../../d4/d32/group__date-time.html" target="_top" xlink:title="A class for managing date and time in Uniot devices.">
<polygon fill="white" stroke="#666666" points="247,-413 91,-413 91,-394 247,-394 247,-413"/>
<text text-anchor="middle" x="169" y="-401" font-family="Helvetica,sans-Serif" font-size="10.00">Date and Time Management</text>
</a>
</g>
</g>
<!-- Node1 -->
<g id="Node000001" class="node">
<title>Node1</title>
<g id="a_Node000001"><a xlink:title="Common utility components and functions for the Uniot Core.">
<polygon fill="#999999" stroke="#666666" points="55,-231 0,-231 0,-212 55,-212 55,-231"/>
<text text-anchor="middle" x="27.5" y="-219" font-family="Helvetica,sans-Serif" font-size="10.00">Utilities</text>
</a>
</g>
</g>
<!-- Node1&#45;&gt;Node4 -->
<g id="edge3" class="edge">
<title>Node1&#45;&gt;Node4</title>
<path fill="none" stroke="black" d="M28.55,-241.34C29.78,-281.71 38.54,-373.68 91,-422.5 103.66,-434.28 122.51,-438.83 138.39,-440.41"/>
<polygon fill="black" stroke="black" points="32.04,-241.13 28.37,-231.2 25.05,-241.26 32.04,-241.13"/>
</g>
<!-- Node1&#45;&gt;Node5 -->
<g id="edge4" class="edge">
<title>Node1&#45;&gt;Node5</title>
<path fill="none" stroke="black" d="M30.21,-241.71C34.28,-276.52 47.71,-347.67 91,-385.5 94.82,-388.84 99.15,-391.59 103.76,-393.86"/>
<polygon fill="black" stroke="black" points="33.66,-241 29.16,-231.4 26.69,-241.71 33.66,-241"/>
</g>
<!-- Node6 -->
<g id="Node000006" class="node">
<title>Node6</title>
<g id="a_Node000006"><a xlink:href="../../d7/d19/group__utils__array.html" target="_top" xlink:title="A simple Array class that manages a dynamically allocated array and its size.">
<polygon fill="white" stroke="#666666" points="190.5,-376 147.5,-376 147.5,-357 190.5,-357 190.5,-376"/>
<text text-anchor="middle" x="169" y="-364" font-family="Helvetica,sans-Serif" font-size="10.00">Array</text>
</a>
</g>
</g>
<!-- Node1&#45;&gt;Node6 -->
<g id="edge5" class="edge">
<title>Node1&#45;&gt;Node6</title>
<path fill="none" stroke="black" d="M32.59,-241.11C39.52,-269.32 56.35,-320.96 91,-348.5 107.01,-361.23 130.47,-365.24 147.28,-366.37"/>
<polygon fill="black" stroke="black" points="35.97,-240.2 30.33,-231.23 29.15,-241.76 35.97,-240.2"/>
</g>
<!-- Node7 -->
<g id="Node000007" class="node">
<title>Node7</title>
<g id="a_Node000007"><a xlink:href="../../d9/d24/group__utils__bytes.html" target="_top" xlink:title="A class for managing and manipulating byte arrays.">
<polygon fill="white" stroke="#666666" points="191,-339 147,-339 147,-320 191,-320 191,-339"/>
<text text-anchor="middle" x="169" y="-327" font-family="Helvetica,sans-Serif" font-size="10.00">Bytes</text>
</a>
</g>
</g>
<!-- Node1&#45;&gt;Node7 -->
<g id="edge6" class="edge">
<title>Node1&#45;&gt;Node7</title>
<path fill="none" stroke="black" d="M36.81,-240.53C46.74,-260.98 65.28,-292.89 91,-310.5 107.59,-321.85 130.3,-326.44 146.76,-328.28"/>
<polygon fill="black" stroke="black" points="39.91,-238.88 32.53,-231.28 33.55,-241.82 39.91,-238.88"/>
</g>
<!-- Node2 -->
<g id="Node000002" class="node">
<title>Node2</title>
<g id="a_Node000002"><a xlink:href="../../d9/db1/group__utils__cbor__wrapper.html" target="_top" xlink:title="A wrapper class for CBOR (Concise Binary Object Representation) data manipulation.">
<polygon fill="white" stroke="#666666" points="235,-301.5 103,-301.5 103,-271.5 235,-271.5 235,-301.5"/>
<text text-anchor="start" x="111" y="-289.5" font-family="Helvetica,sans-Serif" font-size="10.00">CBOR (Concise Binary</text>
<text text-anchor="middle" x="169" y="-278.5" font-family="Helvetica,sans-Serif" font-size="10.00"> Object Representation)</text>
</a>
</g>
</g>
<!-- Node1&#45;&gt;Node2 -->
<g id="edge1" class="edge">
<title>Node1&#45;&gt;Node2</title>
<path fill="none" stroke="black" d="M49.07,-237.1C60.87,-245.49 76.23,-255.52 91,-262.5 97.96,-265.79 105.49,-268.77 113.01,-271.43"/>
<polygon fill="black" stroke="black" points="50.96,-234.14 40.81,-231.07 46.83,-239.79 50.96,-234.14"/>
</g>
<!-- Node8 -->
<g id="Node000008" class="node">
<title>Node8</title>
<g id="a_Node000008"><a xlink:href="../../d2/d1f/group__utils__clearqueue.html" target="_top" xlink:title="A lightweight queue implementation optimized for resource&#45;constrained environments.">
<polygon fill="white" stroke="#666666" points="206,-253 132,-253 132,-234 206,-234 206,-253"/>
<text text-anchor="middle" x="169" y="-241" font-family="Helvetica,sans-Serif" font-size="10.00">ClearQueue</text>
</a>
</g>
</g>
<!-- Node1&#45;&gt;Node8 -->
<g id="edge7" class="edge">
<title>Node1&#45;&gt;Node8</title>
<path fill="none" stroke="black" d="M65.02,-227.26C85.61,-230.51 111.24,-234.55 131.78,-237.79"/>
<polygon fill="black" stroke="black" points="65.49,-223.79 55.07,-225.69 64.4,-230.7 65.49,-223.79"/>
</g>
<!-- Node3 -->
<g id="Node000003" class="node">
<title>Node3</title>
<g id="a_Node000003"><a xlink:href="../../dc/db9/group__utils__cose.html" target="_top" xlink:title="CBOR Object Signing and Encryption (COSE) implementation.">
<polygon fill="white" stroke="#666666" points="244.5,-215.5 93.5,-215.5 93.5,-185.5 244.5,-185.5 244.5,-215.5"/>
<text text-anchor="start" x="101.5" y="-203.5" font-family="Helvetica,sans-Serif" font-size="10.00">COSE (CBOR Object Signing</text>
<text text-anchor="middle" x="169" y="-192.5" font-family="Helvetica,sans-Serif" font-size="10.00"> and Encryption)</text>
</a>
</g>
</g>
<!-- Node1&#45;&gt;Node3 -->
<g id="edge2" class="edge">
<title>Node1&#45;&gt;Node3</title>
<path fill="none" stroke="black" d="M65.21,-215.97C73.94,-214.66 83.56,-213.21 93.31,-211.74"/>
<polygon fill="black" stroke="black" points="64.43,-212.55 55.07,-217.5 65.48,-219.47 64.43,-212.55"/>
</g>
<!-- Node9 -->
<g id="Node000009" class="node">
<title>Node9</title>
<g id="a_Node000009"><a xlink:href="../../da/d3f/group__utils__iterablequeue.html" target="_top" xlink:title="A queue implementation with iteration capabilities.">
<polygon fill="white" stroke="#666666" points="212,-167 126,-167 126,-148 212,-148 212,-167"/>
<text text-anchor="middle" x="169" y="-155" font-family="Helvetica,sans-Serif" font-size="10.00">IterableQueue</text>
</a>
</g>
</g>
<!-- Node1&#45;&gt;Node9 -->
<g id="edge8" class="edge">
<title>Node1&#45;&gt;Node9</title>
<path fill="none" stroke="black" d="M47.02,-205.26C58.87,-195.63 74.98,-183.9 91,-176.5 101.87,-171.47 114.25,-167.67 125.85,-164.84"/>
<polygon fill="black" stroke="black" points="44.62,-202.7 39.2,-211.81 49.12,-208.07 44.62,-202.7"/>
</g>
<!-- Node10 -->
<g id="Node000010" class="node">
<title>Node10</title>
<g id="a_Node000010"><a xlink:href="../../db/d9c/group__utils__limitedqueue.html" target="_top" xlink:title="A queue with a maximum size limit that automatically removes oldest elements when full.">
<polygon fill="white" stroke="#666666" points="211.5,-130 126.5,-130 126.5,-111 211.5,-111 211.5,-130"/>
<text text-anchor="middle" x="169" y="-118" font-family="Helvetica,sans-Serif" font-size="10.00">LimitedQueue</text>
</a>
</g>
</g>
<!-- Node1&#45;&gt;Node10 -->
<g id="edge9" class="edge">
<title>Node1&#45;&gt;Node10</title>
<path fill="none" stroke="black" d="M37.8,-202.85C48.19,-183.99 66.77,-155.4 91,-139.5 101.48,-132.63 114.23,-128.24 126.33,-125.44"/>
<polygon fill="black" stroke="black" points="34.57,-201.47 33.01,-211.95 40.77,-204.73 34.57,-201.47"/>
</g>
<!-- Node11 -->
<g id="Node000011" class="node">
<title>Node11</title>
<g id="a_Node000011"><a xlink:href="../../d5/d16/group__utils__map.html" target="_top" xlink:title="A simple map class that associates keys with values using an iterable queue.">
<polygon fill="white" stroke="#666666" points="188,-93 150,-93 150,-74 188,-74 188,-93"/>
<text text-anchor="middle" x="169" y="-81" font-family="Helvetica,sans-Serif" font-size="10.00">Map</text>
</a>
</g>
</g>
<!-- Node1&#45;&gt;Node11 -->
<g id="edge10" class="edge">
<title>Node1&#45;&gt;Node11</title>
<path fill="none" stroke="black" d="M33.32,-202.02C40.95,-175.4 58.39,-128.05 91,-102.5 108.02,-89.17 133.12,-85.04 149.99,-83.85"/>
<polygon fill="black" stroke="black" points="29.93,-201.16 30.72,-211.73 36.69,-202.98 29.93,-201.16"/>
</g>
<!-- Node12 -->
<g id="Node000012" class="node">
<title>Node12</title>
<g id="a_Node000012"><a xlink:href="../../db/d63/group__utils__singleton.html" target="_top" xlink:title="Template class implementing the Singleton design pattern.">
<polygon fill="white" stroke="#666666" points="200,-56 138,-56 138,-37 200,-37 200,-56"/>
<text text-anchor="middle" x="169" y="-44" font-family="Helvetica,sans-Serif" font-size="10.00">Singleton</text>
</a>
</g>
</g>
<!-- Node1&#45;&gt;Node12 -->
<g id="edge11" class="edge">
<title>Node1&#45;&gt;Node12</title>
<path fill="none" stroke="black" d="M30.7,-201.39C35.47,-168.01 49.84,-101.3 91,-65.5 103.88,-54.3 122.35,-49.49 137.97,-47.51"/>
<polygon fill="black" stroke="black" points="27.18,-201.34 29.39,-211.7 34.13,-202.22 27.18,-201.34"/>
</g>
<!-- Node13 -->
<g id="Node000013" class="node">
<title>Node13</title>
<g id="a_Node000013"><a xlink:href="../../db/d86/group__utils__typeid.html" target="_top" xlink:title="Provides a lightweight type identification system for runtime type checking and safe casting.">
<polygon fill="white" stroke="#666666" points="193,-19 145,-19 145,0 193,0 193,-19"/>
<text text-anchor="middle" x="169" y="-7" font-family="Helvetica,sans-Serif" font-size="10.00">TypeId</text>
</a>
</g>
</g>
<!-- Node1&#45;&gt;Node13 -->
<g id="edge12" class="edge">
<title>Node1&#45;&gt;Node13</title>
<path fill="none" stroke="black" d="M28.9,-201.68C30.81,-162.58 40.8,-75.25 91,-28.5 105.41,-15.08 127.75,-10.73 144.66,-9.49"/>
<polygon fill="black" stroke="black" points="25.4,-201.65 28.54,-211.77 32.39,-201.9 25.4,-201.65"/>
</g>
</g>
</svg>
