<?xml version="1.0" encoding="UTF-8" standalone="no"?>
<!DOCTYPE svg PUBLIC "-//W3C//DTD SVG 1.1//EN"
 "http://www.w3.org/Graphics/SVG/1.1/DTD/svg11.dtd">
<!-- Generated by graphviz version 2.43.0 (0)
 -->
<!-- Title: ClearQueue&lt; T &gt; Pages: 1 -->
<svg width="534pt" height="718pt"
 viewBox="0.00 0.00 534.00 717.50" xmlns="http://www.w3.org/2000/svg" xmlns:xlink="http://www.w3.org/1999/xlink">
<g id="graph0" class="graph" transform="scale(1 1) rotate(0) translate(4 713.5)">
<title>ClearQueue&lt; T &gt;</title>
<!-- Node1 -->
<g id="Node000001" class="node">
<title>Node1</title>
<g id="a_Node000001"><a xlink:title=" ">
<polygon fill="#999999" stroke="#666666" points="102,-380 0,-380 0,-361 102,-361 102,-380"/>
<text text-anchor="middle" x="51" y="-368" font-family="Helvetica,sans-Serif" font-size="10.00">ClearQueue&lt; T &gt;</text>
</a>
</g>
</g>
<!-- Node2 -->
<g id="Node000002" class="node">
<title>Node2</title>
<g id="a_Node000002"><a xlink:href="../../d4/d1a/class_iterable_queue.html" target="_top" xlink:title=" ">
<polygon fill="white" stroke="#666666" points="296,-709.5 165,-709.5 165,-657.5 296,-657.5 296,-709.5"/>
<text text-anchor="start" x="173" y="-697.5" font-family="Helvetica,sans-Serif" font-size="10.00">IterableQueue&lt; Pair</text>
<text text-anchor="start" x="173" y="-686.5" font-family="Helvetica,sans-Serif" font-size="10.00">&lt; String, SharedPointer</text>
<text text-anchor="start" x="173" y="-675.5" font-family="Helvetica,sans-Serif" font-size="10.00">&lt; uniot::Array&lt; uint8_t</text>
<text text-anchor="middle" x="230.5" y="-664.5" font-family="Helvetica,sans-Serif" font-size="10.00"> &gt; &gt; &gt; &gt;</text>
</a>
</g>
</g>
<!-- Node1&#45;&gt;Node2 -->
<g id="edge1_Node000001_Node000002" class="edge">
<title>Node1&#45;&gt;Node2</title>
<g id="a_edge1_Node000001_Node000002"><a xlink:title=" ">
<path fill="none" stroke="#63b8ff" d="M52.45,-390.18C54.64,-440.08 67.19,-572.9 138,-648.5 145.44,-656.44 154.88,-662.6 164.85,-667.37"/>
<polygon fill="#63b8ff" stroke="#63b8ff" points="55.94,-389.97 52.1,-380.1 48.95,-390.21 55.94,-389.97"/>
</a>
</g>
</g>
<!-- Node3 -->
<g id="Node000003" class="node">
<title>Node3</title>
<g id="a_Node000003"><a xlink:href="../../d4/d1a/class_iterable_queue.html" target="_top" xlink:title=" ">
<polygon fill="white" stroke="#666666" points="292.5,-639.5 168.5,-639.5 168.5,-609.5 292.5,-609.5 292.5,-639.5"/>
<text text-anchor="start" x="176.5" y="-627.5" font-family="Helvetica,sans-Serif" font-size="10.00">IterableQueue&lt; Pair</text>
<text text-anchor="middle" x="230.5" y="-616.5" font-family="Helvetica,sans-Serif" font-size="10.00">&lt; T_Key, T_Value &gt; &gt;</text>
</a>
</g>
</g>
<!-- Node1&#45;&gt;Node3 -->
<g id="edge2_Node000001_Node000003" class="edge">
<title>Node1&#45;&gt;Node3</title>
<g id="a_edge2_Node000001_Node000003"><a xlink:title=" ">
<path fill="none" stroke="#63b8ff" d="M53.43,-390.14C57.74,-434.52 74.56,-543.19 138,-600.5 146.53,-608.21 157.24,-613.49 168.29,-617.11"/>
<polygon fill="#63b8ff" stroke="#63b8ff" points="56.91,-389.74 52.56,-380.08 49.93,-390.34 56.91,-389.74"/>
</a>
</g>
</g>
<!-- Node5 -->
<g id="Node000005" class="node">
<title>Node5</title>
<g id="a_Node000005"><a xlink:href="../../d4/d1a/class_iterable_queue.html" target="_top" xlink:title=" ">
<polygon fill="white" stroke="#666666" points="308.5,-591.5 152.5,-591.5 152.5,-539.5 308.5,-539.5 308.5,-591.5"/>
<text text-anchor="start" x="160.5" y="-579.5" font-family="Helvetica,sans-Serif" font-size="10.00">IterableQueue&lt; Pair</text>
<text text-anchor="start" x="160.5" y="-568.5" font-family="Helvetica,sans-Serif" font-size="10.00">&lt; String, SharedPointer</text>
<text text-anchor="start" x="160.5" y="-557.5" font-family="Helvetica,sans-Serif" font-size="10.00">&lt; uniot::Array&lt; Pair&lt; uint32</text>
<text text-anchor="middle" x="230.5" y="-546.5" font-family="Helvetica,sans-Serif" font-size="10.00">_t, RecordPtr &gt; &gt; &gt; &gt; &gt;</text>
</a>
</g>
</g>
<!-- Node1&#45;&gt;Node5 -->
<g id="edge4_Node000001_Node000005" class="edge">
<title>Node1&#45;&gt;Node5</title>
<g id="a_edge4_Node000001_Node000005"><a xlink:title=" ">
<path fill="none" stroke="#63b8ff" d="M57.6,-390.2C68.03,-423.57 93.54,-491.39 138,-530.5 142.34,-534.32 147.14,-537.74 152.21,-540.8"/>
<polygon fill="#63b8ff" stroke="#63b8ff" points="60.85,-388.87 54.63,-380.3 54.14,-390.88 60.85,-388.87"/>
</a>
</g>
</g>
<!-- Node6 -->
<g id="Node000006" class="node">
<title>Node6</title>
<g id="a_Node000006"><a xlink:href="../../d4/d1a/class_iterable_queue.html" target="_top" xlink:title=" ">
<polygon fill="white" stroke="#666666" points="323,-521 138,-521 138,-480 323,-480 323,-521"/>
<text text-anchor="start" x="146" y="-509" font-family="Helvetica,sans-Serif" font-size="10.00">IterableQueue&lt; Pair</text>
<text text-anchor="start" x="146" y="-498" font-family="Helvetica,sans-Serif" font-size="10.00">&lt; T_channel, SharedPointer</text>
<text text-anchor="middle" x="230.5" y="-487" font-family="Helvetica,sans-Serif" font-size="10.00">&lt; LimitedQueue&lt; T_data &gt; &gt; &gt; &gt;</text>
</a>
</g>
</g>
<!-- Node1&#45;&gt;Node6 -->
<g id="edge5_Node000001_Node000006" class="edge">
<title>Node1&#45;&gt;Node6</title>
<g id="a_edge5_Node000001_Node000006"><a xlink:title=" ">
<path fill="none" stroke="#63b8ff" d="M63.25,-388.87C77.84,-411.23 105.34,-448.69 138,-470.5 143.28,-474.03 149.01,-477.17 154.94,-479.96"/>
<polygon fill="#63b8ff" stroke="#63b8ff" points="66.12,-386.86 57.81,-380.3 60.21,-390.62 66.12,-386.86"/>
</a>
</g>
</g>
<!-- Node7 -->
<g id="Node000007" class="node">
<title>Node7</title>
<g id="a_Node000007"><a xlink:href="../../d4/d1a/class_iterable_queue.html" target="_top" xlink:title=" ">
<polygon fill="white" stroke="#666666" points="300.5,-461.5 160.5,-461.5 160.5,-409.5 300.5,-409.5 300.5,-461.5"/>
<text text-anchor="start" x="168.5" y="-449.5" font-family="Helvetica,sans-Serif" font-size="10.00">IterableQueue&lt; Pair</text>
<text text-anchor="start" x="168.5" y="-438.5" font-family="Helvetica,sans-Serif" font-size="10.00">&lt; T_topic, SharedPointer</text>
<text text-anchor="start" x="168.5" y="-427.5" font-family="Helvetica,sans-Serif" font-size="10.00">&lt; LimitedQueue&lt; T_data</text>
<text text-anchor="middle" x="230.5" y="-416.5" font-family="Helvetica,sans-Serif" font-size="10.00"> &gt; &gt; &gt; &gt;</text>
</a>
</g>
</g>
<!-- Node1&#45;&gt;Node7 -->
<g id="edge6_Node000001_Node000007" class="edge">
<title>Node1&#45;&gt;Node7</title>
<g id="a_edge6_Node000001_Node000007"><a xlink:title=" ">
<path fill="none" stroke="#63b8ff" d="M87.58,-383.53C108.4,-391.15 135.39,-401.04 160.24,-410.14"/>
<polygon fill="#63b8ff" stroke="#63b8ff" points="88.78,-380.24 78.19,-380.09 86.38,-386.82 88.78,-380.24"/>
</a>
</g>
</g>
<!-- Node8 -->
<g id="Node000008" class="node">
<title>Node8</title>
<g id="a_Node000008"><a xlink:href="../../d4/d1a/class_iterable_queue.html" target="_top" xlink:title=" ">
<polygon fill="white" stroke="#666666" points="291.5,-391 169.5,-391 169.5,-350 291.5,-350 291.5,-391"/>
<text text-anchor="start" x="177.5" y="-379" font-family="Helvetica,sans-Serif" font-size="10.00">IterableQueue&lt; uniot</text>
<text text-anchor="start" x="177.5" y="-368" font-family="Helvetica,sans-Serif" font-size="10.00">::EventBus&lt; T_topic,</text>
<text text-anchor="middle" x="230.5" y="-357" font-family="Helvetica,sans-Serif" font-size="10.00"> T_msg, T_data &gt; * &gt;</text>
</a>
</g>
</g>
<!-- Node1&#45;&gt;Node8 -->
<g id="edge7_Node000001_Node000008" class="edge">
<title>Node1&#45;&gt;Node8</title>
<g id="a_edge7_Node000001_Node000008"><a xlink:title=" ">
<path fill="none" stroke="#63b8ff" d="M112.63,-370.5C130.91,-370.5 150.97,-370.5 169.22,-370.5"/>
<polygon fill="#63b8ff" stroke="#63b8ff" points="112.39,-367 102.39,-370.5 112.39,-374 112.39,-367"/>
</a>
</g>
</g>
<!-- Node9 -->
<g id="Node000009" class="node">
<title>Node9</title>
<g id="a_Node000009"><a xlink:href="../../d4/d1a/class_iterable_queue.html" target="_top" xlink:title=" ">
<polygon fill="white" stroke="#666666" points="299,-332 162,-332 162,-313 299,-313 299,-332"/>
<text text-anchor="middle" x="230.5" y="-320" font-family="Helvetica,sans-Serif" font-size="10.00">IterableQueue&lt; String &gt;</text>
</a>
</g>
</g>
<!-- Node1&#45;&gt;Node9 -->
<g id="edge8_Node000001_Node000009" class="edge">
<title>Node1&#45;&gt;Node9</title>
<g id="a_edge8_Node000001_Node000009"><a xlink:title=" ">
<path fill="none" stroke="#63b8ff" d="M87.38,-357.5C102.8,-352.11 121.16,-346.07 138,-341.5 150.84,-338.02 164.84,-334.81 177.94,-332.07"/>
<polygon fill="#63b8ff" stroke="#63b8ff" points="85.97,-354.28 77.72,-360.92 88.31,-360.88 85.97,-354.28"/>
</a>
</g>
</g>
<!-- Node10 -->
<g id="Node000010" class="node">
<title>Node10</title>
<g id="a_Node000010"><a xlink:href="../../d4/d1a/class_iterable_queue.html" target="_top" xlink:title=" ">
<polygon fill="white" stroke="#666666" points="304,-295 157,-295 157,-254 304,-254 304,-295"/>
<text text-anchor="start" x="165" y="-283" font-family="Helvetica,sans-Serif" font-size="10.00">IterableQueue&lt; Pair</text>
<text text-anchor="start" x="165" y="-272" font-family="Helvetica,sans-Serif" font-size="10.00">&lt; String, SharedPointer</text>
<text text-anchor="middle" x="230.5" y="-261" font-family="Helvetica,sans-Serif" font-size="10.00">&lt; uniot::Array&lt; T &gt; &gt; &gt; &gt;</text>
</a>
</g>
</g>
<!-- Node1&#45;&gt;Node10 -->
<g id="edge9_Node000001_Node000010" class="edge">
<title>Node1&#45;&gt;Node10</title>
<g id="a_edge9_Node000001_Node000010"><a xlink:title=" ">
<path fill="none" stroke="#63b8ff" d="M69.83,-353.9C86.41,-339.2 112.35,-318.04 138,-304.5 144.5,-301.07 151.48,-297.93 158.56,-295.08"/>
<polygon fill="#63b8ff" stroke="#63b8ff" points="67.13,-351.62 62.06,-360.92 71.83,-356.81 67.13,-351.62"/>
</a>
</g>
</g>
<!-- Node11 -->
<g id="Node000011" class="node">
<title>Node11</title>
<g id="a_Node000011"><a xlink:href="../../d4/d1a/class_iterable_queue.html" target="_top" xlink:title=" ">
<polygon fill="white" stroke="#666666" points="320.5,-236 140.5,-236 140.5,-195 320.5,-195 320.5,-236"/>
<text text-anchor="start" x="148.5" y="-224" font-family="Helvetica,sans-Serif" font-size="10.00">IterableQueue&lt; Pair</text>
<text text-anchor="start" x="148.5" y="-213" font-family="Helvetica,sans-Serif" font-size="10.00">&lt; String, SharedPointer</text>
<text text-anchor="middle" x="230.5" y="-202" font-family="Helvetica,sans-Serif" font-size="10.00">&lt; LimitedQueue&lt; Bytes &gt; &gt; &gt; &gt;</text>
</a>
</g>
</g>
<!-- Node1&#45;&gt;Node11 -->
<g id="edge10_Node000001_Node000011" class="edge">
<title>Node1&#45;&gt;Node11</title>
<g id="a_edge10_Node000001_Node000011"><a xlink:title=" ">
<path fill="none" stroke="#63b8ff" d="M60.2,-351.5C72.94,-324.17 100.04,-273.91 138,-245.5 142.68,-241.99 147.8,-238.89 153.14,-236.13"/>
<polygon fill="#63b8ff" stroke="#63b8ff" points="56.94,-350.21 56.03,-360.77 63.33,-353.09 56.94,-350.21"/>
</a>
</g>
</g>
<!-- Node12 -->
<g id="Node000012" class="node">
<title>Node12</title>
<g id="a_Node000012"><a xlink:href="../../d4/d1a/class_iterable_queue.html" target="_top" xlink:title=" ">
<polygon fill="white" stroke="#666666" points="287.5,-177 173.5,-177 173.5,-158 287.5,-158 287.5,-177"/>
<text text-anchor="middle" x="230.5" y="-165" font-family="Helvetica,sans-Serif" font-size="10.00">IterableQueue&lt; T &gt;</text>
</a>
</g>
</g>
<!-- Node1&#45;&gt;Node12 -->
<g id="edge11_Node000001_Node000012" class="edge">
<title>Node1&#45;&gt;Node12</title>
<g id="a_edge11_Node000001_Node000012"><a xlink:title=" ">
<path fill="none" stroke="#63b8ff" d="M55.26,-350.74C62.65,-312.6 84.38,-228.9 138,-186.5 148.05,-178.55 160.62,-173.7 173.18,-170.79"/>
<polygon fill="#63b8ff" stroke="#63b8ff" points="51.81,-350.15 53.48,-360.61 58.7,-351.4 51.81,-350.15"/>
</a>
</g>
</g>
<!-- Node19 -->
<g id="Node000019" class="node">
<title>Node19</title>
<g id="a_Node000019"><a xlink:href="../../da/d92/class_limited_queue.html" target="_top" xlink:title=" ">
<polygon fill="white" stroke="#666666" points="287,-140 174,-140 174,-121 287,-121 287,-140"/>
<text text-anchor="middle" x="230.5" y="-128" font-family="Helvetica,sans-Serif" font-size="10.00">LimitedQueue&lt; T &gt;</text>
</a>
</g>
</g>
<!-- Node1&#45;&gt;Node19 -->
<g id="edge18_Node000001_Node000019" class="edge">
<title>Node1&#45;&gt;Node19</title>
<g id="a_edge18_Node000001_Node000019"><a xlink:title=" ">
<path fill="none" stroke="#63b8ff" d="M53.58,-350.51C58.15,-306.82 75.39,-202.47 138,-149.5 148.03,-141.01 160.88,-135.99 173.75,-133.1"/>
<polygon fill="#63b8ff" stroke="#63b8ff" points="50.07,-350.41 52.63,-360.69 57.04,-351.06 50.07,-350.41"/>
</a>
</g>
</g>
<!-- Node4 -->
<g id="Node000004" class="node">
<title>Node4</title>
<g id="a_Node000004"><a xlink:href="../../df/d85/classuniot_1_1_map.html" target="_top" xlink:title=" ">
<polygon fill="white" stroke="#666666" points="498.5,-639.5 386.5,-639.5 386.5,-609.5 498.5,-609.5 498.5,-639.5"/>
<text text-anchor="start" x="394.5" y="-627.5" font-family="Helvetica,sans-Serif" font-size="10.00">uniot::Map&lt; T_Key,</text>
<text text-anchor="middle" x="442.5" y="-616.5" font-family="Helvetica,sans-Serif" font-size="10.00"> T_Value &gt;</text>
</a>
</g>
</g>
<!-- Node3&#45;&gt;Node4 -->
<g id="edge3_Node000003_Node000004" class="edge">
<title>Node3&#45;&gt;Node4</title>
<g id="a_edge3_Node000003_Node000004"><a xlink:title=" ">
<path fill="none" stroke="#63b8ff" d="M302.81,-624.5C330.13,-624.5 360.85,-624.5 386.42,-624.5"/>
<polygon fill="#63b8ff" stroke="#63b8ff" points="302.52,-621 292.52,-624.5 302.52,-628 302.52,-621"/>
</a>
</g>
</g>
<!-- Node13 -->
<g id="Node000013" class="node">
<title>Node13</title>
<g id="a_Node000013"><a xlink:href="../../df/d85/classuniot_1_1_map.html" target="_top" xlink:title=" ">
<polygon fill="white" stroke="#666666" points="506.5,-348 378.5,-348 378.5,-307 506.5,-307 506.5,-348"/>
<text text-anchor="start" x="386.5" y="-336" font-family="Helvetica,sans-Serif" font-size="10.00">uniot::Map&lt; String,</text>
<text text-anchor="start" x="386.5" y="-325" font-family="Helvetica,sans-Serif" font-size="10.00"> SharedPointer&lt; uniot</text>
<text text-anchor="middle" x="442.5" y="-314" font-family="Helvetica,sans-Serif" font-size="10.00">::Array&lt; uint8_t &gt; &gt; &gt;</text>
</a>
</g>
</g>
<!-- Node12&#45;&gt;Node13 -->
<g id="edge12_Node000012_Node000013" class="edge">
<title>Node12&#45;&gt;Node13</title>
<g id="a_edge12_Node000012_Node000013"><a xlink:title=" ">
<path fill="none" stroke="#63b8ff" d="M297.48,-172.41C306.84,-175.49 315.74,-179.99 323,-186.5 361.61,-221.12 322.98,-260.19 359,-297.5 364.5,-303.2 371.18,-307.82 378.32,-311.57"/>
<polygon fill="#63b8ff" stroke="#63b8ff" points="298.17,-168.97 287.6,-169.7 296.31,-175.72 298.17,-168.97"/>
</a>
</g>
</g>
<!-- Node14 -->
<g id="Node000014" class="node">
<title>Node14</title>
<g id="a_Node000014"><a xlink:href="../../df/d85/classuniot_1_1_map.html" target="_top" xlink:title=" ">
<polygon fill="white" stroke="#666666" points="504.5,-288.5 380.5,-288.5 380.5,-236.5 504.5,-236.5 504.5,-288.5"/>
<text text-anchor="start" x="388.5" y="-276.5" font-family="Helvetica,sans-Serif" font-size="10.00">uniot::Map&lt; String,</text>
<text text-anchor="start" x="388.5" y="-265.5" font-family="Helvetica,sans-Serif" font-size="10.00"> SharedPointer&lt; uniot</text>
<text text-anchor="start" x="388.5" y="-254.5" font-family="Helvetica,sans-Serif" font-size="10.00">::Array&lt; Pair&lt; uint32</text>
<text text-anchor="middle" x="442.5" y="-243.5" font-family="Helvetica,sans-Serif" font-size="10.00">_t, RecordPtr &gt; &gt; &gt; &gt;</text>
</a>
</g>
</g>
<!-- Node12&#45;&gt;Node14 -->
<g id="edge13_Node000012_Node000014" class="edge">
<title>Node12&#45;&gt;Node14</title>
<g id="a_edge13_Node000012_Node000014"><a xlink:title=" ">
<path fill="none" stroke="#63b8ff" d="M297.5,-175.82C306.41,-178.47 315.18,-181.94 323,-186.5 343.95,-198.71 339.34,-213.3 359,-227.5 365.56,-232.24 372.86,-236.5 380.32,-240.27"/>
<polygon fill="#63b8ff" stroke="#63b8ff" points="298.35,-172.43 287.79,-173.27 296.57,-179.2 298.35,-172.43"/>
</a>
</g>
</g>
<!-- Node15 -->
<g id="Node000015" class="node">
<title>Node15</title>
<g id="a_Node000015"><a xlink:href="../../df/d85/classuniot_1_1_map.html" target="_top" xlink:title=" ">
<polygon fill="white" stroke="#666666" points="526,-218 359,-218 359,-177 526,-177 526,-218"/>
<text text-anchor="start" x="367" y="-206" font-family="Helvetica,sans-Serif" font-size="10.00">uniot::Map&lt; T_channel,</text>
<text text-anchor="start" x="367" y="-195" font-family="Helvetica,sans-Serif" font-size="10.00"> SharedPointer&lt; LimitedQueue</text>
<text text-anchor="middle" x="442.5" y="-184" font-family="Helvetica,sans-Serif" font-size="10.00">&lt; T_data &gt; &gt; &gt;</text>
</a>
</g>
</g>
<!-- Node12&#45;&gt;Node15 -->
<g id="edge14_Node000012_Node000015" class="edge">
<title>Node12&#45;&gt;Node15</title>
<g id="a_edge14_Node000012_Node000015"><a xlink:title=" ">
<path fill="none" stroke="#63b8ff" d="M297.46,-176.92C316.91,-179.7 338.45,-182.78 358.81,-185.69"/>
<polygon fill="#63b8ff" stroke="#63b8ff" points="297.89,-173.45 287.5,-175.5 296.9,-180.38 297.89,-173.45"/>
</a>
</g>
</g>
<!-- Node16 -->
<g id="Node000016" class="node">
<title>Node16</title>
<g id="a_Node000016"><a xlink:href="../../df/d85/classuniot_1_1_map.html" target="_top" xlink:title=" ">
<polygon fill="white" stroke="#666666" points="526,-159 359,-159 359,-118 526,-118 526,-159"/>
<text text-anchor="start" x="367" y="-147" font-family="Helvetica,sans-Serif" font-size="10.00">uniot::Map&lt; T_topic,</text>
<text text-anchor="start" x="367" y="-136" font-family="Helvetica,sans-Serif" font-size="10.00"> SharedPointer&lt; LimitedQueue</text>
<text text-anchor="middle" x="442.5" y="-125" font-family="Helvetica,sans-Serif" font-size="10.00">&lt; T_data &gt; &gt; &gt;</text>
</a>
</g>
</g>
<!-- Node12&#45;&gt;Node16 -->
<g id="edge15_Node000012_Node000016" class="edge">
<title>Node12&#45;&gt;Node16</title>
<g id="a_edge15_Node000012_Node000016"><a xlink:title=" ">
<path fill="none" stroke="#63b8ff" d="M297.46,-158.39C316.91,-155.7 338.45,-152.73 358.81,-149.92"/>
<polygon fill="#63b8ff" stroke="#63b8ff" points="296.93,-154.93 287.5,-159.77 297.89,-161.87 296.93,-154.93"/>
</a>
</g>
</g>
<!-- Node17 -->
<g id="Node000017" class="node">
<title>Node17</title>
<g id="a_Node000017"><a xlink:href="../../df/d85/classuniot_1_1_map.html" target="_top" xlink:title=" ">
<polygon fill="white" stroke="#666666" points="504.5,-100 380.5,-100 380.5,-59 504.5,-59 504.5,-100"/>
<text text-anchor="start" x="388.5" y="-88" font-family="Helvetica,sans-Serif" font-size="10.00">uniot::Map&lt; String,</text>
<text text-anchor="start" x="388.5" y="-77" font-family="Helvetica,sans-Serif" font-size="10.00"> SharedPointer&lt; uniot</text>
<text text-anchor="middle" x="442.5" y="-66" font-family="Helvetica,sans-Serif" font-size="10.00">::Array&lt; T &gt; &gt; &gt;</text>
</a>
</g>
</g>
<!-- Node12&#45;&gt;Node17 -->
<g id="edge16_Node000012_Node000017" class="edge">
<title>Node12&#45;&gt;Node17</title>
<g id="a_edge16_Node000012_Node000017"><a xlink:title=" ">
<path fill="none" stroke="#63b8ff" d="M297.43,-159.87C306.36,-157.33 315.14,-153.96 323,-149.5 343.8,-137.7 339.17,-122.87 359,-109.5 365.57,-105.07 372.88,-101.2 380.35,-97.85"/>
<polygon fill="#63b8ff" stroke="#63b8ff" points="296.56,-156.48 287.72,-162.32 298.28,-163.27 296.56,-156.48"/>
</a>
</g>
</g>
<!-- Node18 -->
<g id="Node000018" class="node">
<title>Node18</title>
<g id="a_Node000018"><a xlink:href="../../df/d85/classuniot_1_1_map.html" target="_top" xlink:title=" ">
<polygon fill="white" stroke="#666666" points="526,-41 359,-41 359,0 526,0 526,-41"/>
<text text-anchor="start" x="367" y="-29" font-family="Helvetica,sans-Serif" font-size="10.00">uniot::Map&lt; String,</text>
<text text-anchor="start" x="367" y="-18" font-family="Helvetica,sans-Serif" font-size="10.00"> SharedPointer&lt; LimitedQueue</text>
<text text-anchor="middle" x="442.5" y="-7" font-family="Helvetica,sans-Serif" font-size="10.00">&lt; Bytes &gt; &gt; &gt;</text>
</a>
</g>
</g>
<!-- Node12&#45;&gt;Node18 -->
<g id="edge17_Node000012_Node000018" class="edge">
<title>Node12&#45;&gt;Node18</title>
<g id="a_edge17_Node000012_Node000018"><a xlink:title=" ">
<path fill="none" stroke="#63b8ff" d="M297.59,-163.02C306.86,-160.07 315.7,-155.75 323,-149.5 358.56,-119.05 325.89,-83.61 359,-50.5 362.56,-46.94 366.57,-43.81 370.85,-41.04"/>
<polygon fill="#63b8ff" stroke="#63b8ff" points="296.59,-159.67 287.83,-165.62 298.39,-166.43 296.59,-159.67"/>
</a>
</g>
</g>
</g>
</svg>
