<?xml version="1.0" encoding="UTF-8" standalone="no"?>
<!DOCTYPE svg PUBLIC "-//W3C//DTD SVG 1.1//EN"
 "http://www.w3.org/Graphics/SVG/1.1/DTD/svg11.dtd">
<!-- Generated by graphviz version 2.43.0 (0)
 -->
<!-- Title: /home/runner/work/uniot&#45;core/uniot&#45;core/lib/Core/EventBus/EventEmitter.h Pages: 1 -->
<svg width="1207pt" height="357pt"
 viewBox="0.00 0.00 1207.00 357.00" xmlns="http://www.w3.org/2000/svg" xmlns:xlink="http://www.w3.org/1999/xlink">
<g id="graph0" class="graph" transform="scale(1 1) rotate(0) translate(4 353)">
<title>/home/runner/work/uniot&#45;core/uniot&#45;core/lib/Core/EventBus/EventEmitter.h</title>
<!-- Node1 -->
<g id="Node000001" class="node">
<title>Node1</title>
<g id="a_Node000001"><a xlink:title=" ">
<polygon fill="#999999" stroke="#666666" points="759.5,-349 619.5,-349 619.5,-308 759.5,-308 759.5,-349"/>
<text text-anchor="start" x="627.5" y="-337" font-family="Helvetica,sans-Serif" font-size="10.00">/home/runner/work/uniot</text>
<text text-anchor="start" x="627.5" y="-326" font-family="Helvetica,sans-Serif" font-size="10.00">&#45;core/uniot&#45;core/lib/Core</text>
<text text-anchor="middle" x="689.5" y="-315" font-family="Helvetica,sans-Serif" font-size="10.00">/EventBus/EventEmitter.h</text>
</a>
</g>
</g>
<!-- Node2 -->
<g id="Node000002" class="node">
<title>Node2</title>
<g id="a_Node000002"><a xlink:href="../../d5/de5/_date_8h.html" target="_top" xlink:title=" ">
<polygon fill="white" stroke="#666666" points="1041,-195 904,-195 904,-154 1041,-154 1041,-195"/>
<text text-anchor="start" x="912" y="-183" font-family="Helvetica,sans-Serif" font-size="10.00">/home/runner/work/uniot</text>
<text text-anchor="start" x="912" y="-172" font-family="Helvetica,sans-Serif" font-size="10.00">&#45;core/uniot&#45;core/lib/Core</text>
<text text-anchor="middle" x="972.5" y="-161" font-family="Helvetica,sans-Serif" font-size="10.00">/Date/Date.h</text>
</a>
</g>
</g>
<!-- Node1&#45;&gt;Node2 -->
<g id="edge1_Node000001_Node000002" class="edge">
<title>Node1&#45;&gt;Node2</title>
<g id="a_edge1_Node000001_Node000002"><a xlink:title=" ">
<path fill="none" stroke="#63b8ff" d="M731.98,-302.5C746.01,-293.53 761.38,-282.93 774.5,-272 793.83,-255.91 792.37,-244.64 813.5,-231 829.47,-220.69 870.22,-206.54 906.47,-195.11"/>
<polygon fill="#63b8ff" stroke="#63b8ff" points="730.06,-299.57 723.45,-307.85 733.78,-305.5 730.06,-299.57"/>
</a>
</g>
</g>
<!-- Node10 -->
<g id="Node000010" class="node">
<title>Node10</title>
<g id="a_Node000010"><a xlink:href="../../de/d06/_event_bus_8cpp.html" target="_top" xlink:title=" ">
<polygon fill="white" stroke="#666666" points="137,-195 0,-195 0,-154 137,-154 137,-195"/>
<text text-anchor="start" x="8" y="-183" font-family="Helvetica,sans-Serif" font-size="10.00">/home/runner/work/uniot</text>
<text text-anchor="start" x="8" y="-172" font-family="Helvetica,sans-Serif" font-size="10.00">&#45;core/uniot&#45;core/lib/Core</text>
<text text-anchor="middle" x="68.5" y="-161" font-family="Helvetica,sans-Serif" font-size="10.00">/EventBus/EventBus.cpp</text>
</a>
</g>
</g>
<!-- Node1&#45;&gt;Node10 -->
<g id="edge12_Node000001_Node000010" class="edge">
<title>Node1&#45;&gt;Node10</title>
<g id="a_edge12_Node000001_Node000010"><a xlink:title=" ">
<path fill="none" stroke="#63b8ff" d="M609.57,-310.21C561.14,-299.56 498.16,-285.43 442.5,-272 335.59,-246.2 212.17,-213.86 137.27,-193.94"/>
<polygon fill="#63b8ff" stroke="#63b8ff" points="608.84,-313.63 619.36,-312.36 610.34,-306.8 608.84,-313.63"/>
</a>
</g>
</g>
<!-- Node11 -->
<g id="Node000011" class="node">
<title>Node11</title>
<g id="a_Node000011"><a xlink:href="../../d5/dfe/_event_emitter_8cpp.html" target="_top" xlink:title=" ">
<polygon fill="white" stroke="#666666" points="765.5,-272 613.5,-272 613.5,-231 765.5,-231 765.5,-272"/>
<text text-anchor="start" x="621.5" y="-260" font-family="Helvetica,sans-Serif" font-size="10.00">/home/runner/work/uniot</text>
<text text-anchor="start" x="621.5" y="-249" font-family="Helvetica,sans-Serif" font-size="10.00">&#45;core/uniot&#45;core/lib/Core</text>
<text text-anchor="middle" x="689.5" y="-238" font-family="Helvetica,sans-Serif" font-size="10.00">/EventBus/EventEmitter.cpp</text>
</a>
</g>
</g>
<!-- Node1&#45;&gt;Node11 -->
<g id="edge13_Node000001_Node000011" class="edge">
<title>Node1&#45;&gt;Node11</title>
<g id="a_edge13_Node000001_Node000011"><a xlink:title=" ">
<path fill="none" stroke="#63b8ff" d="M689.5,-297.69C689.5,-289.08 689.5,-279.9 689.5,-272.07"/>
<polygon fill="#63b8ff" stroke="#63b8ff" points="686,-297.79 689.5,-307.79 693,-297.79 686,-297.79"/>
</a>
</g>
</g>
<!-- Node12 -->
<g id="Node000012" class="node">
<title>Node12</title>
<g id="a_Node000012"><a xlink:href="../../d6/da1/_event_listener_8h.html" target="_top" xlink:title=" ">
<polygon fill="white" stroke="#666666" points="595,-272 452,-272 452,-231 595,-231 595,-272"/>
<text text-anchor="start" x="460" y="-260" font-family="Helvetica,sans-Serif" font-size="10.00">/home/runner/work/uniot</text>
<text text-anchor="start" x="460" y="-249" font-family="Helvetica,sans-Serif" font-size="10.00">&#45;core/uniot&#45;core/lib/Core</text>
<text text-anchor="middle" x="523.5" y="-238" font-family="Helvetica,sans-Serif" font-size="10.00">/EventBus/EventListener.h</text>
</a>
</g>
</g>
<!-- Node1&#45;&gt;Node12 -->
<g id="edge14_Node000001_Node000012" class="edge">
<title>Node1&#45;&gt;Node12</title>
<g id="a_edge14_Node000001_Node000012"><a xlink:title=" ">
<path fill="none" stroke="#63b8ff" d="M637.17,-303.86C614.51,-293.62 588.29,-281.77 566.75,-272.04"/>
<polygon fill="#63b8ff" stroke="#63b8ff" points="635.76,-307.06 646.32,-307.99 638.65,-300.68 635.76,-307.06"/>
</a>
</g>
</g>
<!-- Node18 -->
<g id="Node000018" class="node">
<title>Node18</title>
<g id="a_Node000018"><a xlink:href="../../da/dc0/_network_scheduler_8h.html" target="_top" xlink:title=" ">
<polygon fill="white" stroke="#666666" points="983,-272 822,-272 822,-231 983,-231 983,-272"/>
<text text-anchor="start" x="830" y="-260" font-family="Helvetica,sans-Serif" font-size="10.00">/home/runner/work/uniot</text>
<text text-anchor="start" x="830" y="-249" font-family="Helvetica,sans-Serif" font-size="10.00">&#45;core/uniot&#45;core/lib/Core</text>
<text text-anchor="middle" x="902.5" y="-238" font-family="Helvetica,sans-Serif" font-size="10.00">/Network/NetworkScheduler.h</text>
</a>
</g>
</g>
<!-- Node1&#45;&gt;Node18 -->
<g id="edge27_Node000001_Node000018" class="edge">
<title>Node1&#45;&gt;Node18</title>
<g id="a_edge27_Node000001_Node000018"><a xlink:title=" ">
<path fill="none" stroke="#63b8ff" d="M754.71,-304.54C784.22,-294.15 818.75,-281.99 847,-272.04"/>
<polygon fill="#63b8ff" stroke="#63b8ff" points="753.18,-301.37 744.91,-307.99 755.5,-307.97 753.18,-301.37"/>
</a>
</g>
</g>
<!-- Node3 -->
<g id="Node000003" class="node">
<title>Node3</title>
<g id="a_Node000003"><a xlink:href="../../dc/d7b/_app_kit_8h.html" target="_top" xlink:title=" ">
<polygon fill="white" stroke="#666666" points="719.5,-41 575.5,-41 575.5,0 719.5,0 719.5,-41"/>
<text text-anchor="start" x="583.5" y="-29" font-family="Helvetica,sans-Serif" font-size="10.00">/home/runner/work/uniot</text>
<text text-anchor="start" x="583.5" y="-18" font-family="Helvetica,sans-Serif" font-size="10.00">&#45;core/uniot&#45;core/lib/AppKit</text>
<text text-anchor="middle" x="647.5" y="-7" font-family="Helvetica,sans-Serif" font-size="10.00">/AppKit.h</text>
</a>
</g>
</g>
<!-- Node2&#45;&gt;Node3 -->
<g id="edge2_Node000002_Node000003" class="edge">
<title>Node2&#45;&gt;Node3</title>
<g id="a_edge2_Node000002_Node000003"><a xlink:title=" ">
<path fill="none" stroke="#63b8ff" d="M917.79,-149.34C900.62,-140.61 882.09,-129.92 866.5,-118 846.76,-102.91 849.54,-90.21 828.5,-77 795.51,-56.3 754.28,-42.87 719.51,-34.42"/>
<polygon fill="#63b8ff" stroke="#63b8ff" points="916.64,-152.68 927.16,-153.99 919.75,-146.41 916.64,-152.68"/>
</a>
</g>
</g>
<!-- Node4 -->
<g id="Node000004" class="node">
<title>Node4</title>
<g id="a_Node000004"><a xlink:href="../../d8/de7/_lisp_device_8h.html" target="_top" xlink:title=" ">
<polygon fill="white" stroke="#666666" points="613.5,-118 469.5,-118 469.5,-77 613.5,-77 613.5,-118"/>
<text text-anchor="start" x="477.5" y="-106" font-family="Helvetica,sans-Serif" font-size="10.00">/home/runner/work/uniot</text>
<text text-anchor="start" x="477.5" y="-95" font-family="Helvetica,sans-Serif" font-size="10.00">&#45;core/uniot&#45;core/lib/AppKit</text>
<text text-anchor="middle" x="541.5" y="-84" font-family="Helvetica,sans-Serif" font-size="10.00">/LispDevice.h</text>
</a>
</g>
</g>
<!-- Node2&#45;&gt;Node4 -->
<g id="edge3_Node000002_Node000004" class="edge">
<title>Node2&#45;&gt;Node4</title>
<g id="a_edge3_Node000002_Node000004"><a xlink:title=" ">
<path fill="none" stroke="#63b8ff" d="M893.78,-154C853.11,-147.2 704.42,-123.95 613.54,-109.75"/>
<polygon fill="#63b8ff" stroke="#63b8ff" points="893.27,-157.47 903.73,-155.75 894.48,-150.57 893.27,-157.47"/>
</a>
</g>
</g>
<!-- Node5 -->
<g id="Node000005" class="node">
<title>Node5</title>
<g id="a_Node000005"><a xlink:href="../../db/dfc/_top_device_8h.html" target="_top" xlink:title=" ">
<polygon fill="white" stroke="#666666" points="819.5,-118 675.5,-118 675.5,-77 819.5,-77 819.5,-118"/>
<text text-anchor="start" x="683.5" y="-106" font-family="Helvetica,sans-Serif" font-size="10.00">/home/runner/work/uniot</text>
<text text-anchor="start" x="683.5" y="-95" font-family="Helvetica,sans-Serif" font-size="10.00">&#45;core/uniot&#45;core/lib/AppKit</text>
<text text-anchor="middle" x="747.5" y="-84" font-family="Helvetica,sans-Serif" font-size="10.00">/TopDevice.h</text>
</a>
</g>
</g>
<!-- Node2&#45;&gt;Node5 -->
<g id="edge5_Node000002_Node000005" class="edge">
<title>Node2&#45;&gt;Node5</title>
<g id="a_edge5_Node000002_Node000005"><a xlink:title=" ">
<path fill="none" stroke="#63b8ff" d="M904.43,-150.81C873.07,-140.36 836.23,-128.08 806.13,-118.04"/>
<polygon fill="#63b8ff" stroke="#63b8ff" points="903.38,-154.15 913.97,-153.99 905.59,-147.51 903.38,-154.15"/>
</a>
</g>
</g>
<!-- Node6 -->
<g id="Node000006" class="node">
<title>Node6</title>
<g id="a_Node000006"><a xlink:href="../../dc/d26/_m_q_t_t_kit_8h.html" target="_top" xlink:title=" ">
<polygon fill="white" stroke="#666666" points="1175,-118 1032,-118 1032,-77 1175,-77 1175,-118"/>
<text text-anchor="start" x="1040" y="-106" font-family="Helvetica,sans-Serif" font-size="10.00">/home/runner/work/uniot</text>
<text text-anchor="start" x="1040" y="-95" font-family="Helvetica,sans-Serif" font-size="10.00">&#45;core/uniot&#45;core/lib/Core</text>
<text text-anchor="middle" x="1103.5" y="-84" font-family="Helvetica,sans-Serif" font-size="10.00">/MQTTWrapper/MQTTKit.h</text>
</a>
</g>
</g>
<!-- Node2&#45;&gt;Node6 -->
<g id="edge7_Node000002_Node000006" class="edge">
<title>Node2&#45;&gt;Node6</title>
<g id="a_edge7_Node000002_Node000006"><a xlink:title=" ">
<path fill="none" stroke="#63b8ff" d="M1015.43,-148.92C1032.86,-138.95 1052.7,-127.58 1069.14,-118.17"/>
<polygon fill="#63b8ff" stroke="#63b8ff" points="1013.52,-145.98 1006.58,-153.99 1016.99,-152.06 1013.52,-145.98"/>
</a>
</g>
</g>
<!-- Node8 -->
<g id="Node000008" class="node">
<title>Node8</title>
<g id="a_Node000008"><a xlink:href="../../d4/d2b/_uniot_8h.html" target="_top" xlink:title=" ">
<polygon fill="white" stroke="#666666" points="1013.5,-118 875.5,-118 875.5,-77 1013.5,-77 1013.5,-118"/>
<text text-anchor="start" x="883.5" y="-106" font-family="Helvetica,sans-Serif" font-size="10.00">/home/runner/work/uniot</text>
<text text-anchor="start" x="883.5" y="-95" font-family="Helvetica,sans-Serif" font-size="10.00">&#45;core/uniot&#45;core/lib/Uniot</text>
<text text-anchor="middle" x="944.5" y="-84" font-family="Helvetica,sans-Serif" font-size="10.00">/Uniot.h</text>
</a>
</g>
</g>
<!-- Node2&#45;&gt;Node8 -->
<g id="edge10_Node000002_Node000008" class="edge">
<title>Node2&#45;&gt;Node8</title>
<g id="a_edge10_Node000002_Node000008"><a xlink:title=" ">
<path fill="none" stroke="#63b8ff" d="M961.58,-144.26C958.31,-135.48 954.79,-126.07 951.81,-118.07"/>
<polygon fill="#63b8ff" stroke="#63b8ff" points="958.37,-145.65 965.14,-153.79 964.92,-143.2 958.37,-145.65"/>
</a>
</g>
</g>
<!-- Node4&#45;&gt;Node3 -->
<g id="edge4_Node000004_Node000003" class="edge">
<title>Node4&#45;&gt;Node3</title>
<g id="a_edge4_Node000004_Node000003"><a xlink:title=" ">
<path fill="none" stroke="#63b8ff" d="M577.41,-71.09C591.22,-61.32 606.76,-50.32 619.7,-41.17"/>
<polygon fill="#63b8ff" stroke="#63b8ff" points="575.22,-68.36 569.07,-76.99 579.26,-74.07 575.22,-68.36"/>
</a>
</g>
</g>
<!-- Node5&#45;&gt;Node3 -->
<g id="edge6_Node000005_Node000003" class="edge">
<title>Node5&#45;&gt;Node3</title>
<g id="a_edge6_Node000005_Node000003"><a xlink:title=" ">
<path fill="none" stroke="#63b8ff" d="M713.25,-70.82C700.32,-61.11 685.82,-50.24 673.73,-41.17"/>
<polygon fill="#63b8ff" stroke="#63b8ff" points="711.39,-73.79 721.49,-76.99 715.59,-68.19 711.39,-73.79"/>
</a>
</g>
</g>
<!-- Node6&#45;&gt;Node3 -->
<g id="edge8_Node000006_Node000003" class="edge">
<title>Node6&#45;&gt;Node3</title>
<g id="a_edge8_Node000006_Node000003"><a xlink:title=" ">
<path fill="none" stroke="#63b8ff" d="M1021.57,-76.9C910.7,-55.72 793.25,-39.58 719.71,-30.24"/>
<polygon fill="#63b8ff" stroke="#63b8ff" points="1021.1,-80.38 1031.58,-78.83 1022.43,-73.5 1021.1,-80.38"/>
</a>
</g>
</g>
<!-- Node7 -->
<g id="Node000007" class="node">
<title>Node7</title>
<g id="a_Node000007"><a xlink:href="../../da/d02/_m_q_t_t_device_8cpp.html" target="_top" xlink:title=" ">
<polygon fill="white" stroke="#666666" points="1199,-41 1024,-41 1024,0 1199,0 1199,-41"/>
<text text-anchor="start" x="1032" y="-29" font-family="Helvetica,sans-Serif" font-size="10.00">/home/runner/work/uniot</text>
<text text-anchor="start" x="1032" y="-18" font-family="Helvetica,sans-Serif" font-size="10.00">&#45;core/uniot&#45;core/lib/Core</text>
<text text-anchor="middle" x="1111.5" y="-7" font-family="Helvetica,sans-Serif" font-size="10.00">/MQTTWrapper/MQTTDevice.cpp</text>
</a>
</g>
</g>
<!-- Node6&#45;&gt;Node7 -->
<g id="edge9_Node000006_Node000007" class="edge">
<title>Node6&#45;&gt;Node7</title>
<g id="a_edge9_Node000006_Node000007"><a xlink:title=" ">
<path fill="none" stroke="#63b8ff" d="M1106.68,-66.69C1107.6,-58.08 1108.58,-48.9 1109.41,-41.07"/>
<polygon fill="#63b8ff" stroke="#63b8ff" points="1103.18,-66.48 1105.6,-76.79 1110.14,-67.22 1103.18,-66.48"/>
</a>
</g>
</g>
<!-- Node9 -->
<g id="Node000009" class="node">
<title>Node9</title>
<g id="a_Node000009"><a xlink:href="../../d9/d1c/_uniot_8cpp.html" target="_top" xlink:title=" ">
<polygon fill="white" stroke="#666666" points="1005.5,-41 867.5,-41 867.5,0 1005.5,0 1005.5,-41"/>
<text text-anchor="start" x="875.5" y="-29" font-family="Helvetica,sans-Serif" font-size="10.00">/home/runner/work/uniot</text>
<text text-anchor="start" x="875.5" y="-18" font-family="Helvetica,sans-Serif" font-size="10.00">&#45;core/uniot&#45;core/lib/Uniot</text>
<text text-anchor="middle" x="936.5" y="-7" font-family="Helvetica,sans-Serif" font-size="10.00">/Uniot.cpp</text>
</a>
</g>
</g>
<!-- Node8&#45;&gt;Node9 -->
<g id="edge11_Node000008_Node000009" class="edge">
<title>Node8&#45;&gt;Node9</title>
<g id="a_edge11_Node000008_Node000009"><a xlink:title=" ">
<path fill="none" stroke="#63b8ff" d="M941.32,-66.69C940.4,-58.08 939.42,-48.9 938.59,-41.07"/>
<polygon fill="#63b8ff" stroke="#63b8ff" points="937.86,-67.22 942.4,-76.79 944.82,-66.48 937.86,-67.22"/>
</a>
</g>
</g>
<!-- Node12&#45;&gt;Node4 -->
<g id="edge15_Node000012_Node000004" class="edge">
<title>Node12&#45;&gt;Node4</title>
<g id="a_edge15_Node000012_Node000004"><a xlink:title=" ">
<path fill="none" stroke="#63b8ff" d="M527,-220.98C530.57,-190.76 536.04,-144.64 539.14,-118.47"/>
<polygon fill="#63b8ff" stroke="#63b8ff" points="523.52,-220.6 525.82,-230.94 530.47,-221.42 523.52,-220.6"/>
</a>
</g>
</g>
<!-- Node12&#45;&gt;Node6 -->
<g id="edge24_Node000012_Node000006" class="edge">
<title>Node12&#45;&gt;Node6</title>
<g id="a_edge24_Node000012_Node000006"><a xlink:title=" ">
<path fill="none" stroke="#63b8ff" d="M605.54,-231.15C718.53,-217.28 969.56,-247.4 1050.5,-195 1064.62,-185.86 1084.38,-143.68 1095.34,-118.2"/>
<polygon fill="#63b8ff" stroke="#63b8ff" points="604.79,-227.72 595.37,-232.58 605.76,-234.65 604.79,-227.72"/>
</a>
</g>
</g>
<!-- Node12&#45;&gt;Node10 -->
<g id="edge19_Node000012_Node000010" class="edge">
<title>Node12&#45;&gt;Node10</title>
<g id="a_edge19_Node000012_Node000010"><a xlink:title=" ">
<path fill="none" stroke="#63b8ff" d="M441.62,-240.93C364.77,-231.37 246.81,-215.21 145.5,-195 142.8,-194.46 140.04,-193.89 137.27,-193.29"/>
<polygon fill="#63b8ff" stroke="#63b8ff" points="441.36,-244.43 451.71,-242.18 442.22,-237.48 441.36,-244.43"/>
</a>
</g>
</g>
<!-- Node13 -->
<g id="Node000013" class="node">
<title>Node13</title>
<g id="a_Node000013"><a xlink:href="../../d1/d2e/_callback_event_listener_8h.html" target="_top" xlink:title=" ">
<polygon fill="white" stroke="#666666" points="340,-195 155,-195 155,-154 340,-154 340,-195"/>
<text text-anchor="start" x="163" y="-183" font-family="Helvetica,sans-Serif" font-size="10.00">/home/runner/work/uniot</text>
<text text-anchor="start" x="163" y="-172" font-family="Helvetica,sans-Serif" font-size="10.00">&#45;core/uniot&#45;core/lib/Core</text>
<text text-anchor="middle" x="247.5" y="-161" font-family="Helvetica,sans-Serif" font-size="10.00">/EventBus/CallbackEventListener.h</text>
</a>
</g>
</g>
<!-- Node12&#45;&gt;Node13 -->
<g id="edge16_Node000012_Node000013" class="edge">
<title>Node12&#45;&gt;Node13</title>
<g id="a_edge16_Node000012_Node000013"><a xlink:title=" ">
<path fill="none" stroke="#63b8ff" d="M441.98,-228.35C403.1,-217.78 356.98,-205.25 319.41,-195.04"/>
<polygon fill="#63b8ff" stroke="#63b8ff" points="441.14,-231.75 451.7,-230.99 442.97,-224.99 441.14,-231.75"/>
</a>
</g>
</g>
<!-- Node15 -->
<g id="Node000015" class="node">
<title>Node15</title>
<g id="a_Node000015"><a xlink:href="../../d0/def/_event_listener_8cpp.html" target="_top" xlink:title=" ">
<polygon fill="white" stroke="#666666" points="707,-195 552,-195 552,-154 707,-154 707,-195"/>
<text text-anchor="start" x="560" y="-183" font-family="Helvetica,sans-Serif" font-size="10.00">/home/runner/work/uniot</text>
<text text-anchor="start" x="560" y="-172" font-family="Helvetica,sans-Serif" font-size="10.00">&#45;core/uniot&#45;core/lib/Core</text>
<text text-anchor="middle" x="629.5" y="-161" font-family="Helvetica,sans-Serif" font-size="10.00">/EventBus/EventListener.cpp</text>
</a>
</g>
</g>
<!-- Node12&#45;&gt;Node15 -->
<g id="edge20_Node000012_Node000015" class="edge">
<title>Node12&#45;&gt;Node15</title>
<g id="a_edge20_Node000012_Node000015"><a xlink:title=" ">
<path fill="none" stroke="#63b8ff" d="M559.41,-225.09C573.22,-215.32 588.76,-204.32 601.7,-195.17"/>
<polygon fill="#63b8ff" stroke="#63b8ff" points="557.22,-222.36 551.07,-230.99 561.26,-228.07 557.22,-222.36"/>
</a>
</g>
</g>
<!-- Node16 -->
<g id="Node000016" class="node">
<title>Node16</title>
<g id="a_Node000016"><a xlink:href="../../dc/d47/un_lisp_8h.html" target="_top" xlink:title=" ">
<polygon fill="white" stroke="#666666" points="495,-195 358,-195 358,-154 495,-154 495,-195"/>
<text text-anchor="start" x="366" y="-183" font-family="Helvetica,sans-Serif" font-size="10.00">/home/runner/work/uniot</text>
<text text-anchor="start" x="366" y="-172" font-family="Helvetica,sans-Serif" font-size="10.00">&#45;core/uniot&#45;core/lib/Core</text>
<text text-anchor="middle" x="426.5" y="-161" font-family="Helvetica,sans-Serif" font-size="10.00">/LispWrapper/unLisp.h</text>
</a>
</g>
</g>
<!-- Node12&#45;&gt;Node16 -->
<g id="edge21_Node000012_Node000016" class="edge">
<title>Node12&#45;&gt;Node16</title>
<g id="a_edge21_Node000012_Node000016"><a xlink:title=" ">
<path fill="none" stroke="#63b8ff" d="M490.28,-224.82C477.73,-215.11 463.67,-204.24 451.94,-195.17"/>
<polygon fill="#63b8ff" stroke="#63b8ff" points="488.22,-227.64 498.27,-230.99 492.5,-222.1 488.22,-227.64"/>
</a>
</g>
</g>
<!-- Node17 -->
<g id="Node000017" class="node">
<title>Node17</title>
<g id="a_Node000017"><a xlink:href="../../d9/d89/_network_controller_8h.html" target="_top" xlink:title=" ">
<polygon fill="white" stroke="#666666" points="886,-195 725,-195 725,-154 886,-154 886,-195"/>
<text text-anchor="start" x="733" y="-183" font-family="Helvetica,sans-Serif" font-size="10.00">/home/runner/work/uniot</text>
<text text-anchor="start" x="733" y="-172" font-family="Helvetica,sans-Serif" font-size="10.00">&#45;core/uniot&#45;core/lib/Core</text>
<text text-anchor="middle" x="805.5" y="-161" font-family="Helvetica,sans-Serif" font-size="10.00">/Network/NetworkController.h</text>
</a>
</g>
</g>
<!-- Node12&#45;&gt;Node17 -->
<g id="edge25_Node000012_Node000017" class="edge">
<title>Node12&#45;&gt;Node17</title>
<g id="a_edge25_Node000012_Node000017"><a xlink:title=" ">
<path fill="none" stroke="#63b8ff" d="M604.79,-228.88C644.95,-218.2 693.05,-205.41 732.09,-195.03"/>
<polygon fill="#63b8ff" stroke="#63b8ff" points="603.79,-225.52 595.03,-231.48 605.59,-232.29 603.79,-225.52"/>
</a>
</g>
</g>
<!-- Node13&#45;&gt;Node3 -->
<g id="edge17_Node000013_Node000003" class="edge">
<title>Node13&#45;&gt;Node3</title>
<g id="a_edge17_Node000013_Node000003"><a xlink:title=" ">
<path fill="none" stroke="#63b8ff" d="M294.08,-149.34C312.85,-139.61 334.71,-128.27 354.5,-118 389.61,-99.78 396.57,-91.17 433.5,-77 479.55,-59.34 533.29,-45.42 575.4,-35.94"/>
<polygon fill="#63b8ff" stroke="#63b8ff" points="292.4,-146.27 285.14,-153.98 295.62,-152.48 292.4,-146.27"/>
</a>
</g>
</g>
<!-- Node14 -->
<g id="Node000014" class="node">
<title>Node14</title>
<g id="a_Node000014"><a xlink:href="../../dd/db0/_callback_event_listener_8cpp.html" target="_top" xlink:title=" ">
<polygon fill="white" stroke="#666666" points="346,-118 149,-118 149,-77 346,-77 346,-118"/>
<text text-anchor="start" x="157" y="-106" font-family="Helvetica,sans-Serif" font-size="10.00">/home/runner/work/uniot</text>
<text text-anchor="start" x="157" y="-95" font-family="Helvetica,sans-Serif" font-size="10.00">&#45;core/uniot&#45;core/lib/Core</text>
<text text-anchor="middle" x="247.5" y="-84" font-family="Helvetica,sans-Serif" font-size="10.00">/EventBus/CallbackEventListener.cpp</text>
</a>
</g>
</g>
<!-- Node13&#45;&gt;Node14 -->
<g id="edge18_Node000013_Node000014" class="edge">
<title>Node13&#45;&gt;Node14</title>
<g id="a_edge18_Node000013_Node000014"><a xlink:title=" ">
<path fill="none" stroke="#63b8ff" d="M247.5,-143.69C247.5,-135.08 247.5,-125.9 247.5,-118.07"/>
<polygon fill="#63b8ff" stroke="#63b8ff" points="244,-143.79 247.5,-153.79 251,-143.79 244,-143.79"/>
</a>
</g>
</g>
<!-- Node16&#45;&gt;Node3 -->
<g id="edge22_Node000016_Node000003" class="edge">
<title>Node16&#45;&gt;Node3</title>
<g id="a_edge22_Node000016_Node000003"><a xlink:title=" ">
<path fill="none" stroke="#63b8ff" d="M429.85,-143.48C433.76,-122.17 442.22,-94.38 460.5,-77 491.3,-47.71 536.84,-33.8 575.27,-27.23"/>
<polygon fill="#63b8ff" stroke="#63b8ff" points="426.35,-143.21 428.23,-153.64 433.26,-144.31 426.35,-143.21"/>
</a>
</g>
</g>
<!-- Node16&#45;&gt;Node4 -->
<g id="edge23_Node000016_Node000004" class="edge">
<title>Node16&#45;&gt;Node4</title>
<g id="a_edge23_Node000016_Node000004"><a xlink:title=" ">
<path fill="none" stroke="#63b8ff" d="M465.03,-148.37C480.12,-138.53 497.17,-127.41 511.34,-118.17"/>
<polygon fill="#63b8ff" stroke="#63b8ff" points="462.88,-145.6 456.41,-153.99 466.7,-151.46 462.88,-145.6"/>
</a>
</g>
</g>
<!-- Node17&#45;&gt;Node3 -->
<g id="edge26_Node000017_Node000003" class="edge">
<title>Node17&#45;&gt;Node3</title>
<g id="a_edge26_Node000017_Node000003"><a xlink:title=" ">
<path fill="none" stroke="#63b8ff" d="M715.4,-152.62C696.94,-144.55 679.28,-133.4 666.5,-118 648.51,-96.32 645.82,-62.5 646.18,-41.19"/>
<polygon fill="#63b8ff" stroke="#63b8ff" points="714.22,-155.92 724.8,-156.46 716.86,-149.44 714.22,-155.92"/>
</a>
</g>
</g>
<!-- Node18&#45;&gt;Node6 -->
<g id="edge28_Node000018_Node000006" class="edge">
<title>Node18&#45;&gt;Node6</title>
<g id="a_edge28_Node000018_Node000006"><a xlink:title=" ">
<path fill="none" stroke="#63b8ff" d="M993.18,-241.91C1025.85,-234.35 1060.33,-220.43 1083.5,-195 1102.63,-174 1105.36,-139.66 1104.91,-118.11"/>
<polygon fill="#63b8ff" stroke="#63b8ff" points="992.16,-238.55 983.11,-244.06 993.62,-245.39 992.16,-238.55"/>
</a>
</g>
</g>
<!-- Node18&#45;&gt;Node17 -->
<g id="edge29_Node000018_Node000017" class="edge">
<title>Node18&#45;&gt;Node17</title>
<g id="a_edge29_Node000018_Node000017"><a xlink:title=" ">
<path fill="none" stroke="#63b8ff" d="M869.28,-224.82C856.73,-215.11 842.67,-204.24 830.94,-195.17"/>
<polygon fill="#63b8ff" stroke="#63b8ff" points="867.22,-227.64 877.27,-230.99 871.5,-222.1 867.22,-227.64"/>
</a>
</g>
</g>
</g>
</svg>
