<?xml version="1.0" encoding="UTF-8" standalone="no"?>
<!DOCTYPE svg PUBLIC "-//W3C//DTD SVG 1.1//EN"
 "http://www.w3.org/Graphics/SVG/1.1/DTD/svg11.dtd">
<!-- Generated by graphviz version 2.43.0 (0)
 -->
<!-- Title: /home/runner/work/uniot&#45;core/uniot&#45;core/lib/Core/Utils/Map.h Pages: 1 -->
<svg width="1434pt" height="665pt"
 viewBox="0.00 0.00 1434.00 665.00" xmlns="http://www.w3.org/2000/svg" xmlns:xlink="http://www.w3.org/1999/xlink">
<g id="graph0" class="graph" transform="scale(1 1) rotate(0) translate(4 661)">
<title>/home/runner/work/uniot&#45;core/uniot&#45;core/lib/Core/Utils/Map.h</title>
<!-- Node1 -->
<g id="Node000001" class="node">
<title>Node1</title>
<g id="a_Node000001"><a xlink:title=" ">
<polygon fill="#999999" stroke="#666666" points="1035.5,-657 898.5,-657 898.5,-616 1035.5,-616 1035.5,-657"/>
<text text-anchor="start" x="906.5" y="-645" font-family="Helvetica,sans-Serif" font-size="10.00">/home/runner/work/uniot</text>
<text text-anchor="start" x="906.5" y="-634" font-family="Helvetica,sans-Serif" font-size="10.00">&#45;core/uniot&#45;core/lib/Core</text>
<text text-anchor="middle" x="967" y="-623" font-family="Helvetica,sans-Serif" font-size="10.00">/Utils/Map.h</text>
</a>
</g>
</g>
<!-- Node2 -->
<g id="Node000002" class="node">
<title>Node2</title>
<g id="a_Node000002"><a xlink:href="../../d9/d37/_data_channels_8h.html" target="_top" xlink:title=" ">
<polygon fill="white" stroke="#666666" points="989,-349 843,-349 843,-308 989,-308 989,-349"/>
<text text-anchor="start" x="851" y="-337" font-family="Helvetica,sans-Serif" font-size="10.00">/home/runner/work/uniot</text>
<text text-anchor="start" x="851" y="-326" font-family="Helvetica,sans-Serif" font-size="10.00">&#45;core/uniot&#45;core/lib/Core</text>
<text text-anchor="middle" x="916" y="-315" font-family="Helvetica,sans-Serif" font-size="10.00">/EventBus/DataChannels.h</text>
</a>
</g>
</g>
<!-- Node1&#45;&gt;Node2 -->
<g id="edge1_Node000001_Node000002" class="edge">
<title>Node1&#45;&gt;Node2</title>
<g id="a_edge1_Node000001_Node000002"><a xlink:title=" ">
<path fill="none" stroke="#63b8ff" d="M962.08,-605.97C951.75,-543.99 928.04,-401.73 919.31,-349.34"/>
<polygon fill="#63b8ff" stroke="#63b8ff" points="958.64,-606.6 963.73,-615.89 965.54,-605.45 958.64,-606.6"/>
</a>
</g>
</g>
<!-- Node17 -->
<g id="Node000017" class="node">
<title>Node17</title>
<g id="a_Node000017"><a xlink:href="../../d9/d77/_register_8h.html" target="_top" xlink:title=" ">
<polygon fill="white" stroke="#666666" points="1131.5,-580 994.5,-580 994.5,-539 1131.5,-539 1131.5,-580"/>
<text text-anchor="start" x="1002.5" y="-568" font-family="Helvetica,sans-Serif" font-size="10.00">/home/runner/work/uniot</text>
<text text-anchor="start" x="1002.5" y="-557" font-family="Helvetica,sans-Serif" font-size="10.00">&#45;core/uniot&#45;core/lib/Core</text>
<text text-anchor="middle" x="1063" y="-546" font-family="Helvetica,sans-Serif" font-size="10.00">/Register/Register.h</text>
</a>
</g>
</g>
<!-- Node1&#45;&gt;Node17 -->
<g id="edge20_Node000001_Node000017" class="edge">
<title>Node1&#45;&gt;Node17</title>
<g id="a_edge20_Node000001_Node000017"><a xlink:title=" ">
<path fill="none" stroke="#63b8ff" d="M999.88,-609.82C1012.29,-600.11 1026.22,-589.24 1037.82,-580.17"/>
<polygon fill="#63b8ff" stroke="#63b8ff" points="997.7,-607.08 991.97,-615.99 1002.01,-612.59 997.7,-607.08"/>
</a>
</g>
</g>
<!-- Node3 -->
<g id="Node000003" class="node">
<title>Node3</title>
<g id="a_Node000003"><a xlink:href="../../d6/d96/_data_channels_8cpp.html" target="_top" xlink:title=" ">
<polygon fill="white" stroke="#666666" points="994.5,-272 837.5,-272 837.5,-231 994.5,-231 994.5,-272"/>
<text text-anchor="start" x="845.5" y="-260" font-family="Helvetica,sans-Serif" font-size="10.00">/home/runner/work/uniot</text>
<text text-anchor="start" x="845.5" y="-249" font-family="Helvetica,sans-Serif" font-size="10.00">&#45;core/uniot&#45;core/lib/Core</text>
<text text-anchor="middle" x="916" y="-238" font-family="Helvetica,sans-Serif" font-size="10.00">/EventBus/DataChannels.cpp</text>
</a>
</g>
</g>
<!-- Node2&#45;&gt;Node3 -->
<g id="edge2_Node000002_Node000003" class="edge">
<title>Node2&#45;&gt;Node3</title>
<g id="a_edge2_Node000002_Node000003"><a xlink:title=" ">
<path fill="none" stroke="#63b8ff" d="M916,-297.69C916,-289.08 916,-279.9 916,-272.07"/>
<polygon fill="#63b8ff" stroke="#63b8ff" points="912.5,-297.79 916,-307.79 919.5,-297.79 912.5,-297.79"/>
</a>
</g>
</g>
<!-- Node4 -->
<g id="Node000004" class="node">
<title>Node4</title>
<g id="a_Node000004"><a xlink:href="../../de/d03/_event_bus_8h.html" target="_top" xlink:title=" ">
<polygon fill="white" stroke="#666666" points="816.5,-272 679.5,-272 679.5,-231 816.5,-231 816.5,-272"/>
<text text-anchor="start" x="687.5" y="-260" font-family="Helvetica,sans-Serif" font-size="10.00">/home/runner/work/uniot</text>
<text text-anchor="start" x="687.5" y="-249" font-family="Helvetica,sans-Serif" font-size="10.00">&#45;core/uniot&#45;core/lib/Core</text>
<text text-anchor="middle" x="748" y="-238" font-family="Helvetica,sans-Serif" font-size="10.00">/EventBus/EventBus.h</text>
</a>
</g>
</g>
<!-- Node2&#45;&gt;Node4 -->
<g id="edge3_Node000002_Node000004" class="edge">
<title>Node2&#45;&gt;Node4</title>
<g id="a_edge3_Node000002_Node000004"><a xlink:title=" ">
<path fill="none" stroke="#63b8ff" d="M863.04,-303.86C840.11,-293.62 813.57,-281.77 791.77,-272.04"/>
<polygon fill="#63b8ff" stroke="#63b8ff" points="861.74,-307.11 872.3,-307.99 864.59,-300.72 861.74,-307.11"/>
</a>
</g>
</g>
<!-- Node5 -->
<g id="Node000005" class="node">
<title>Node5</title>
<g id="a_Node000005"><a xlink:href="../../dc/d7b/_app_kit_8h.html" target="_top" xlink:title=" ">
<polygon fill="white" stroke="#666666" points="1126,-41 982,-41 982,0 1126,0 1126,-41"/>
<text text-anchor="start" x="990" y="-29" font-family="Helvetica,sans-Serif" font-size="10.00">/home/runner/work/uniot</text>
<text text-anchor="start" x="990" y="-18" font-family="Helvetica,sans-Serif" font-size="10.00">&#45;core/uniot&#45;core/lib/AppKit</text>
<text text-anchor="middle" x="1054" y="-7" font-family="Helvetica,sans-Serif" font-size="10.00">/AppKit.h</text>
</a>
</g>
</g>
<!-- Node4&#45;&gt;Node5 -->
<g id="edge4_Node000004_Node000005" class="edge">
<title>Node4&#45;&gt;Node5</title>
<g id="a_edge4_Node000004_Node000005"><a xlink:title=" ">
<path fill="none" stroke="#63b8ff" d="M790.36,-225.18C804.11,-216.27 819.14,-205.77 832,-195 851.28,-178.85 852.07,-170.56 871,-154 921.49,-109.85 986.18,-65.56 1023.57,-41.02"/>
<polygon fill="#63b8ff" stroke="#63b8ff" points="788.09,-222.47 781.53,-230.79 791.85,-228.38 788.09,-222.47"/>
</a>
</g>
</g>
<!-- Node6 -->
<g id="Node000006" class="node">
<title>Node6</title>
<g id="a_Node000006"><a xlink:href="../../de/d06/_event_bus_8cpp.html" target="_top" xlink:title=" ">
<polygon fill="white" stroke="#666666" points="1016.5,-195 879.5,-195 879.5,-154 1016.5,-154 1016.5,-195"/>
<text text-anchor="start" x="887.5" y="-183" font-family="Helvetica,sans-Serif" font-size="10.00">/home/runner/work/uniot</text>
<text text-anchor="start" x="887.5" y="-172" font-family="Helvetica,sans-Serif" font-size="10.00">&#45;core/uniot&#45;core/lib/Core</text>
<text text-anchor="middle" x="948" y="-161" font-family="Helvetica,sans-Serif" font-size="10.00">/EventBus/EventBus.cpp</text>
</a>
</g>
</g>
<!-- Node4&#45;&gt;Node6 -->
<g id="edge5_Node000004_Node000006" class="edge">
<title>Node4&#45;&gt;Node6</title>
<g id="a_edge5_Node000004_Node000006"><a xlink:title=" ">
<path fill="none" stroke="#63b8ff" d="M809.59,-227.4C837.23,-217.04 869.47,-204.95 895.89,-195.04"/>
<polygon fill="#63b8ff" stroke="#63b8ff" points="808.16,-224.2 800.03,-230.99 810.62,-230.76 808.16,-224.2"/>
</a>
</g>
</g>
<!-- Node7 -->
<g id="Node000007" class="node">
<title>Node7</title>
<g id="a_Node000007"><a xlink:href="../../d5/dfe/_event_emitter_8cpp.html" target="_top" xlink:title=" ">
<polygon fill="white" stroke="#666666" points="152,-195 0,-195 0,-154 152,-154 152,-195"/>
<text text-anchor="start" x="8" y="-183" font-family="Helvetica,sans-Serif" font-size="10.00">/home/runner/work/uniot</text>
<text text-anchor="start" x="8" y="-172" font-family="Helvetica,sans-Serif" font-size="10.00">&#45;core/uniot&#45;core/lib/Core</text>
<text text-anchor="middle" x="76" y="-161" font-family="Helvetica,sans-Serif" font-size="10.00">/EventBus/EventEmitter.cpp</text>
</a>
</g>
</g>
<!-- Node4&#45;&gt;Node7 -->
<g id="edge6_Node000004_Node000007" class="edge">
<title>Node4&#45;&gt;Node7</title>
<g id="a_edge6_Node000004_Node000007"><a xlink:title=" ">
<path fill="none" stroke="#63b8ff" d="M669.1,-246.34C556.02,-239.63 341.56,-224.12 161,-195 158.16,-194.54 155.27,-194.04 152.36,-193.52"/>
<polygon fill="#63b8ff" stroke="#63b8ff" points="669.21,-249.85 679.39,-246.94 669.62,-242.86 669.21,-249.85"/>
</a>
</g>
</g>
<!-- Node8 -->
<g id="Node000008" class="node">
<title>Node8</title>
<g id="a_Node000008"><a xlink:href="../../dc/d2d/_event_entity_8cpp.html" target="_top" xlink:title=" ">
<polygon fill="white" stroke="#666666" points="313.5,-195 170.5,-195 170.5,-154 313.5,-154 313.5,-195"/>
<text text-anchor="start" x="178.5" y="-183" font-family="Helvetica,sans-Serif" font-size="10.00">/home/runner/work/uniot</text>
<text text-anchor="start" x="178.5" y="-172" font-family="Helvetica,sans-Serif" font-size="10.00">&#45;core/uniot&#45;core/lib/Core</text>
<text text-anchor="middle" x="242" y="-161" font-family="Helvetica,sans-Serif" font-size="10.00">/EventBus/EventEntity.cpp</text>
</a>
</g>
</g>
<!-- Node4&#45;&gt;Node8 -->
<g id="edge7_Node000004_Node000008" class="edge">
<title>Node4&#45;&gt;Node8</title>
<g id="a_edge7_Node000004_Node000008"><a xlink:title=" ">
<path fill="none" stroke="#63b8ff" d="M669.03,-242.73C583.39,-233.71 442.88,-217.19 323,-195 320.01,-194.45 316.97,-193.85 313.9,-193.23"/>
<polygon fill="#63b8ff" stroke="#63b8ff" points="668.88,-246.23 679.19,-243.79 669.61,-239.27 668.88,-246.23"/>
</a>
</g>
</g>
<!-- Node9 -->
<g id="Node000009" class="node">
<title>Node9</title>
<g id="a_Node000009"><a xlink:href="../../d0/def/_event_listener_8cpp.html" target="_top" xlink:title=" ">
<polygon fill="white" stroke="#666666" points="486.5,-195 331.5,-195 331.5,-154 486.5,-154 486.5,-195"/>
<text text-anchor="start" x="339.5" y="-183" font-family="Helvetica,sans-Serif" font-size="10.00">/home/runner/work/uniot</text>
<text text-anchor="start" x="339.5" y="-172" font-family="Helvetica,sans-Serif" font-size="10.00">&#45;core/uniot&#45;core/lib/Core</text>
<text text-anchor="middle" x="409" y="-161" font-family="Helvetica,sans-Serif" font-size="10.00">/EventBus/EventListener.cpp</text>
</a>
</g>
</g>
<!-- Node4&#45;&gt;Node9 -->
<g id="edge8_Node000004_Node000009" class="edge">
<title>Node4&#45;&gt;Node9</title>
<g id="a_edge8_Node000004_Node000009"><a xlink:title=" ">
<path fill="none" stroke="#63b8ff" d="M669.23,-233.23C619.53,-222.31 553.99,-207.89 496,-195 492.98,-194.33 489.9,-193.64 486.78,-192.95"/>
<polygon fill="#63b8ff" stroke="#63b8ff" points="668.75,-236.71 679.27,-235.43 670.25,-229.87 668.75,-236.71"/>
</a>
</g>
</g>
<!-- Node10 -->
<g id="Node000010" class="node">
<title>Node10</title>
<g id="a_Node000010"><a xlink:href="../../d3/d99/_i_event_bus_connection_kit_8h.html" target="_top" xlink:title="Defines the interface for components that can connect to an EventBus.">
<polygon fill="white" stroke="#666666" points="1229,-195 1035,-195 1035,-154 1229,-154 1229,-195"/>
<text text-anchor="start" x="1043" y="-183" font-family="Helvetica,sans-Serif" font-size="10.00">/home/runner/work/uniot</text>
<text text-anchor="start" x="1043" y="-172" font-family="Helvetica,sans-Serif" font-size="10.00">&#45;core/uniot&#45;core/lib/Core</text>
<text text-anchor="middle" x="1132" y="-161" font-family="Helvetica,sans-Serif" font-size="10.00">/EventBus/IEventBusConnectionKit.h</text>
</a>
</g>
</g>
<!-- Node4&#45;&gt;Node10 -->
<g id="edge9_Node000004_Node000010" class="edge">
<title>Node4&#45;&gt;Node10</title>
<g id="a_edge9_Node000004_Node000010"><a xlink:title=" ">
<path fill="none" stroke="#63b8ff" d="M826.38,-229.67C908.83,-212.44 932.7,-210.46 1017,-195 1022.8,-193.94 1028.77,-192.84 1034.81,-191.73"/>
<polygon fill="#63b8ff" stroke="#63b8ff" points="825.65,-226.25 816.58,-231.73 827.09,-233.1 825.65,-226.25"/>
</a>
</g>
</g>
<!-- Node11 -->
<g id="Node000011" class="node">
<title>Node11</title>
<g id="a_Node000011"><a xlink:href="../../da/dc0/_network_scheduler_8h.html" target="_top" xlink:title=" ">
<polygon fill="white" stroke="#666666" points="822.5,-195 661.5,-195 661.5,-154 822.5,-154 822.5,-195"/>
<text text-anchor="start" x="669.5" y="-183" font-family="Helvetica,sans-Serif" font-size="10.00">/home/runner/work/uniot</text>
<text text-anchor="start" x="669.5" y="-172" font-family="Helvetica,sans-Serif" font-size="10.00">&#45;core/uniot&#45;core/lib/Core</text>
<text text-anchor="middle" x="742" y="-161" font-family="Helvetica,sans-Serif" font-size="10.00">/Network/NetworkScheduler.h</text>
</a>
</g>
</g>
<!-- Node4&#45;&gt;Node11 -->
<g id="edge12_Node000004_Node000011" class="edge">
<title>Node4&#45;&gt;Node11</title>
<g id="a_edge12_Node000004_Node000011"><a xlink:title=" ">
<path fill="none" stroke="#63b8ff" d="M745.62,-220.69C744.93,-212.08 744.19,-202.9 743.57,-195.07"/>
<polygon fill="#63b8ff" stroke="#63b8ff" points="742.14,-221.11 746.42,-230.79 749.11,-220.55 742.14,-221.11"/>
</a>
</g>
</g>
<!-- Node15 -->
<g id="Node000015" class="node">
<title>Node15</title>
<g id="a_Node000015"><a xlink:href="../../d4/d2b/_uniot_8h.html" target="_top" xlink:title=" ">
<polygon fill="white" stroke="#666666" points="643,-195 505,-195 505,-154 643,-154 643,-195"/>
<text text-anchor="start" x="513" y="-183" font-family="Helvetica,sans-Serif" font-size="10.00">/home/runner/work/uniot</text>
<text text-anchor="start" x="513" y="-172" font-family="Helvetica,sans-Serif" font-size="10.00">&#45;core/uniot&#45;core/lib/Uniot</text>
<text text-anchor="middle" x="574" y="-161" font-family="Helvetica,sans-Serif" font-size="10.00">/Uniot.h</text>
</a>
</g>
</g>
<!-- Node4&#45;&gt;Node15 -->
<g id="edge18_Node000004_Node000015" class="edge">
<title>Node4&#45;&gt;Node15</title>
<g id="a_edge18_Node000004_Node000015"><a xlink:title=" ">
<path fill="none" stroke="#63b8ff" d="M693.47,-227C669.64,-216.72 642.02,-204.82 619.34,-195.04"/>
<polygon fill="#63b8ff" stroke="#63b8ff" points="692.17,-230.25 702.74,-230.99 694.94,-223.82 692.17,-230.25"/>
</a>
</g>
</g>
<!-- Node10&#45;&gt;Node4 -->
<g id="edge11_Node000010_Node000004" class="edge">
<title>Node10&#45;&gt;Node4</title>
<g id="a_edge11_Node000010_Node000004"><a xlink:title=" ">
<path fill="none" stroke="#63b8ff" d="M1025.28,-196.77C945.61,-211.2 921.68,-213.3 838,-231 831.07,-232.47 823.82,-234.09 816.57,-235.75"/>
<polygon fill="#63b8ff" stroke="#63b8ff" points="1026.07,-200.19 1035.28,-194.95 1024.81,-193.3 1026.07,-200.19"/>
</a>
</g>
</g>
<!-- Node10&#45;&gt;Node5 -->
<g id="edge10_Node000010_Node000005" class="edge">
<title>Node10&#45;&gt;Node5</title>
<g id="a_edge10_Node000010_Node000005"><a xlink:title=" ">
<path fill="none" stroke="#63b8ff" d="M1096.95,-147.24C1087.89,-138.84 1079.01,-128.86 1073,-118 1059.61,-93.79 1055.56,-61.58 1054.39,-41.19"/>
<polygon fill="#63b8ff" stroke="#63b8ff" points="1094.72,-149.94 1104.54,-153.91 1099.34,-144.68 1094.72,-149.94"/>
</a>
</g>
</g>
<!-- Node12 -->
<g id="Node000012" class="node">
<title>Node12</title>
<g id="a_Node000012"><a xlink:href="../../dc/d26/_m_q_t_t_kit_8h.html" target="_top" xlink:title=" ">
<polygon fill="white" stroke="#666666" points="723.5,-118 580.5,-118 580.5,-77 723.5,-77 723.5,-118"/>
<text text-anchor="start" x="588.5" y="-106" font-family="Helvetica,sans-Serif" font-size="10.00">/home/runner/work/uniot</text>
<text text-anchor="start" x="588.5" y="-95" font-family="Helvetica,sans-Serif" font-size="10.00">&#45;core/uniot&#45;core/lib/Core</text>
<text text-anchor="middle" x="652" y="-84" font-family="Helvetica,sans-Serif" font-size="10.00">/MQTTWrapper/MQTTKit.h</text>
</a>
</g>
</g>
<!-- Node11&#45;&gt;Node12 -->
<g id="edge13_Node000011_Node000012" class="edge">
<title>Node11&#45;&gt;Node12</title>
<g id="a_edge13_Node000011_Node000012"><a xlink:title=" ">
<path fill="none" stroke="#63b8ff" d="M710.62,-147.35C699.08,-137.73 686.22,-127.01 675.49,-118.07"/>
<polygon fill="#63b8ff" stroke="#63b8ff" points="708.43,-150.08 718.35,-153.79 712.91,-144.7 708.43,-150.08"/>
</a>
</g>
</g>
<!-- Node14 -->
<g id="Node000014" class="node">
<title>Node14</title>
<g id="a_Node000014"><a xlink:href="../../d9/d89/_network_controller_8h.html" target="_top" xlink:title=" ">
<polygon fill="white" stroke="#666666" points="902.5,-118 741.5,-118 741.5,-77 902.5,-77 902.5,-118"/>
<text text-anchor="start" x="749.5" y="-106" font-family="Helvetica,sans-Serif" font-size="10.00">/home/runner/work/uniot</text>
<text text-anchor="start" x="749.5" y="-95" font-family="Helvetica,sans-Serif" font-size="10.00">&#45;core/uniot&#45;core/lib/Core</text>
<text text-anchor="middle" x="822" y="-84" font-family="Helvetica,sans-Serif" font-size="10.00">/Network/NetworkController.h</text>
</a>
</g>
</g>
<!-- Node11&#45;&gt;Node14 -->
<g id="edge16_Node000011_Node000014" class="edge">
<title>Node11&#45;&gt;Node14</title>
<g id="a_edge16_Node000011_Node000014"><a xlink:title=" ">
<path fill="none" stroke="#63b8ff" d="M770.49,-146.79C780.59,-137.32 791.77,-126.84 801.12,-118.07"/>
<polygon fill="#63b8ff" stroke="#63b8ff" points="767.92,-144.4 763.02,-153.79 772.71,-149.51 767.92,-144.4"/>
</a>
</g>
</g>
<!-- Node12&#45;&gt;Node5 -->
<g id="edge14_Node000012_Node000005" class="edge">
<title>Node12&#45;&gt;Node5</title>
<g id="a_edge14_Node000012_Node000005"><a xlink:title=" ">
<path fill="none" stroke="#63b8ff" d="M733.87,-76.88C824.9,-58.29 918.78,-42.62 981.72,-32.62"/>
<polygon fill="#63b8ff" stroke="#63b8ff" points="733.02,-73.48 723.93,-78.93 734.43,-80.34 733.02,-73.48"/>
</a>
</g>
</g>
<!-- Node13 -->
<g id="Node000013" class="node">
<title>Node13</title>
<g id="a_Node000013"><a xlink:href="../../da/d02/_m_q_t_t_device_8cpp.html" target="_top" xlink:title=" ">
<polygon fill="white" stroke="#666666" points="739.5,-41 564.5,-41 564.5,0 739.5,0 739.5,-41"/>
<text text-anchor="start" x="572.5" y="-29" font-family="Helvetica,sans-Serif" font-size="10.00">/home/runner/work/uniot</text>
<text text-anchor="start" x="572.5" y="-18" font-family="Helvetica,sans-Serif" font-size="10.00">&#45;core/uniot&#45;core/lib/Core</text>
<text text-anchor="middle" x="652" y="-7" font-family="Helvetica,sans-Serif" font-size="10.00">/MQTTWrapper/MQTTDevice.cpp</text>
</a>
</g>
</g>
<!-- Node12&#45;&gt;Node13 -->
<g id="edge15_Node000012_Node000013" class="edge">
<title>Node12&#45;&gt;Node13</title>
<g id="a_edge15_Node000012_Node000013"><a xlink:title=" ">
<path fill="none" stroke="#63b8ff" d="M652,-66.69C652,-58.08 652,-48.9 652,-41.07"/>
<polygon fill="#63b8ff" stroke="#63b8ff" points="648.5,-66.79 652,-76.79 655.5,-66.79 648.5,-66.79"/>
</a>
</g>
</g>
<!-- Node14&#45;&gt;Node5 -->
<g id="edge17_Node000014_Node000005" class="edge">
<title>Node14&#45;&gt;Node5</title>
<g id="a_edge17_Node000014_Node000005"><a xlink:title=" ">
<path fill="none" stroke="#63b8ff" d="M892.19,-73.81C924.52,-63.36 962.51,-51.08 993.55,-41.04"/>
<polygon fill="#63b8ff" stroke="#63b8ff" points="890.79,-70.58 882.35,-76.99 892.94,-77.24 890.79,-70.58"/>
</a>
</g>
</g>
<!-- Node16 -->
<g id="Node000016" class="node">
<title>Node16</title>
<g id="a_Node000016"><a xlink:href="../../d9/d1c/_uniot_8cpp.html" target="_top" xlink:title=" ">
<polygon fill="white" stroke="#666666" points="562,-118 424,-118 424,-77 562,-77 562,-118"/>
<text text-anchor="start" x="432" y="-106" font-family="Helvetica,sans-Serif" font-size="10.00">/home/runner/work/uniot</text>
<text text-anchor="start" x="432" y="-95" font-family="Helvetica,sans-Serif" font-size="10.00">&#45;core/uniot&#45;core/lib/Uniot</text>
<text text-anchor="middle" x="493" y="-84" font-family="Helvetica,sans-Serif" font-size="10.00">/Uniot.cpp</text>
</a>
</g>
</g>
<!-- Node15&#45;&gt;Node16 -->
<g id="edge19_Node000015_Node000016" class="edge">
<title>Node15&#45;&gt;Node16</title>
<g id="a_edge19_Node000015_Node000016"><a xlink:title=" ">
<path fill="none" stroke="#63b8ff" d="M545.15,-146.79C534.92,-137.32 523.61,-126.84 514.14,-118.07"/>
<polygon fill="#63b8ff" stroke="#63b8ff" points="543,-149.57 552.72,-153.79 547.76,-144.43 543,-149.57"/>
</a>
</g>
</g>
<!-- Node18 -->
<g id="Node000018" class="node">
<title>Node18</title>
<g id="a_Node000018"><a xlink:href="../../df/d6e/_gpio_register_8h.html" target="_top" xlink:title=" ">
<polygon fill="white" stroke="#666666" points="1131.5,-503 994.5,-503 994.5,-462 1131.5,-462 1131.5,-503"/>
<text text-anchor="start" x="1002.5" y="-491" font-family="Helvetica,sans-Serif" font-size="10.00">/home/runner/work/uniot</text>
<text text-anchor="start" x="1002.5" y="-480" font-family="Helvetica,sans-Serif" font-size="10.00">&#45;core/uniot&#45;core/lib/Core</text>
<text text-anchor="middle" x="1063" y="-469" font-family="Helvetica,sans-Serif" font-size="10.00">/Register/GpioRegister.h</text>
</a>
</g>
</g>
<!-- Node17&#45;&gt;Node18 -->
<g id="edge21_Node000017_Node000018" class="edge">
<title>Node17&#45;&gt;Node18</title>
<g id="a_edge21_Node000017_Node000018"><a xlink:title=" ">
<path fill="none" stroke="#63b8ff" d="M1063,-528.69C1063,-520.08 1063,-510.9 1063,-503.07"/>
<polygon fill="#63b8ff" stroke="#63b8ff" points="1059.5,-528.79 1063,-538.79 1066.5,-528.79 1059.5,-528.79"/>
</a>
</g>
</g>
<!-- Node25 -->
<g id="Node000025" class="node">
<title>Node25</title>
<g id="a_Node000025"><a xlink:href="../../da/d7e/_object_register_8h.html" target="_top" xlink:title=" ">
<polygon fill="white" stroke="#666666" points="1292.5,-503 1149.5,-503 1149.5,-462 1292.5,-462 1292.5,-503"/>
<text text-anchor="start" x="1157.5" y="-491" font-family="Helvetica,sans-Serif" font-size="10.00">/home/runner/work/uniot</text>
<text text-anchor="start" x="1157.5" y="-480" font-family="Helvetica,sans-Serif" font-size="10.00">&#45;core/uniot&#45;core/lib/Core</text>
<text text-anchor="middle" x="1221" y="-469" font-family="Helvetica,sans-Serif" font-size="10.00">/Register/ObjectRegister.h</text>
</a>
</g>
</g>
<!-- Node17&#45;&gt;Node25 -->
<g id="edge31_Node000017_Node000025" class="edge">
<title>Node17&#45;&gt;Node25</title>
<g id="a_edge31_Node000017_Node000025"><a xlink:title=" ">
<path fill="none" stroke="#63b8ff" d="M1113.38,-534.59C1134.82,-524.41 1159.51,-512.69 1179.83,-503.04"/>
<polygon fill="#63b8ff" stroke="#63b8ff" points="1111.63,-531.54 1104.1,-538.99 1114.63,-537.86 1111.63,-531.54"/>
</a>
</g>
</g>
<!-- Node19 -->
<g id="Node000019" class="node">
<title>Node19</title>
<g id="a_Node000019"><a xlink:href="../../dd/d11/_register_manager_8h.html" target="_top" xlink:title=" ">
<polygon fill="white" stroke="#666666" points="1298.5,-426 1143.5,-426 1143.5,-385 1298.5,-385 1298.5,-426"/>
<text text-anchor="start" x="1151.5" y="-414" font-family="Helvetica,sans-Serif" font-size="10.00">/home/runner/work/uniot</text>
<text text-anchor="start" x="1151.5" y="-403" font-family="Helvetica,sans-Serif" font-size="10.00">&#45;core/uniot&#45;core/lib/Core</text>
<text text-anchor="middle" x="1221" y="-392" font-family="Helvetica,sans-Serif" font-size="10.00">/Register/RegisterManager.h</text>
</a>
</g>
</g>
<!-- Node18&#45;&gt;Node19 -->
<g id="edge22_Node000018_Node000019" class="edge">
<title>Node18&#45;&gt;Node19</title>
<g id="a_edge22_Node000018_Node000019"><a xlink:title=" ">
<path fill="none" stroke="#63b8ff" d="M1113.38,-457.59C1134.82,-447.41 1159.51,-435.69 1179.83,-426.04"/>
<polygon fill="#63b8ff" stroke="#63b8ff" points="1111.63,-454.54 1104.1,-461.99 1114.63,-460.86 1111.63,-454.54"/>
</a>
</g>
</g>
<!-- Node20 -->
<g id="Node000020" class="node">
<title>Node20</title>
<g id="a_Node000020"><a xlink:href="../../d8/dc9/_register_manager_proxy_8h.html" target="_top" xlink:title=" ">
<polygon fill="white" stroke="#666666" points="1336,-349 1154,-349 1154,-308 1336,-308 1336,-349"/>
<text text-anchor="start" x="1162" y="-337" font-family="Helvetica,sans-Serif" font-size="10.00">/home/runner/work/uniot</text>
<text text-anchor="start" x="1162" y="-326" font-family="Helvetica,sans-Serif" font-size="10.00">&#45;core/uniot&#45;core/lib/Core</text>
<text text-anchor="middle" x="1245" y="-315" font-family="Helvetica,sans-Serif" font-size="10.00">/Register/RegisterManagerProxy.h</text>
</a>
</g>
</g>
<!-- Node19&#45;&gt;Node20 -->
<g id="edge23_Node000019_Node000020" class="edge">
<title>Node19&#45;&gt;Node20</title>
<g id="a_edge23_Node000019_Node000020"><a xlink:title=" ">
<path fill="none" stroke="#63b8ff" d="M1230.36,-375.26C1233.17,-366.48 1236.18,-357.07 1238.74,-349.07"/>
<polygon fill="#63b8ff" stroke="#63b8ff" points="1227.02,-374.2 1227.31,-384.79 1233.69,-376.34 1227.02,-374.2"/>
</a>
</g>
</g>
<!-- Node21 -->
<g id="Node000021" class="node">
<title>Node21</title>
<g id="a_Node000021"><a xlink:href="../../dd/dcc/_primitive_expeditor_8h.html" target="_top" xlink:title=" ">
<polygon fill="white" stroke="#666666" points="1348,-272 1166,-272 1166,-231 1348,-231 1348,-272"/>
<text text-anchor="start" x="1174" y="-260" font-family="Helvetica,sans-Serif" font-size="10.00">/home/runner/work/uniot</text>
<text text-anchor="start" x="1174" y="-249" font-family="Helvetica,sans-Serif" font-size="10.00">&#45;core/uniot&#45;core/lib/Core</text>
<text text-anchor="middle" x="1257" y="-238" font-family="Helvetica,sans-Serif" font-size="10.00">/LispWrapper/PrimitiveExpeditor.h</text>
</a>
</g>
</g>
<!-- Node20&#45;&gt;Node21 -->
<g id="edge24_Node000020_Node000021" class="edge">
<title>Node20&#45;&gt;Node21</title>
<g id="a_edge24_Node000020_Node000021"><a xlink:title=" ">
<path fill="none" stroke="#63b8ff" d="M1249.77,-297.69C1251.15,-289.08 1252.62,-279.9 1253.87,-272.07"/>
<polygon fill="#63b8ff" stroke="#63b8ff" points="1246.28,-297.37 1248.15,-307.79 1253.19,-298.47 1246.28,-297.37"/>
</a>
</g>
</g>
<!-- Node22 -->
<g id="Node000022" class="node">
<title>Node22</title>
<g id="a_Node000022"><a xlink:href="../../d1/d24/_lisp_primitives_8h.html" target="_top" xlink:title=" ">
<polygon fill="white" stroke="#666666" points="1226,-118 1082,-118 1082,-77 1226,-77 1226,-118"/>
<text text-anchor="start" x="1090" y="-106" font-family="Helvetica,sans-Serif" font-size="10.00">/home/runner/work/uniot</text>
<text text-anchor="start" x="1090" y="-95" font-family="Helvetica,sans-Serif" font-size="10.00">&#45;core/uniot&#45;core/lib/AppKit</text>
<text text-anchor="middle" x="1154" y="-84" font-family="Helvetica,sans-Serif" font-size="10.00">/LispPrimitives.h</text>
</a>
</g>
</g>
<!-- Node21&#45;&gt;Node22 -->
<g id="edge25_Node000021_Node000022" class="edge">
<title>Node21&#45;&gt;Node22</title>
<g id="a_edge25_Node000021_Node000022"><a xlink:title=" ">
<path fill="none" stroke="#63b8ff" d="M1256.98,-220.44C1255.63,-200.15 1251.14,-173.6 1238,-154 1227.97,-139.05 1212.42,-127.14 1197.4,-118.25"/>
<polygon fill="#63b8ff" stroke="#63b8ff" points="1253.5,-220.86 1257.44,-230.7 1260.49,-220.55 1253.5,-220.86"/>
</a>
</g>
</g>
<!-- Node23 -->
<g id="Node000023" class="node">
<title>Node23</title>
<g id="a_Node000023"><a xlink:href="../../dc/d47/un_lisp_8h.html" target="_top" xlink:title=" ">
<polygon fill="white" stroke="#666666" points="1422.5,-195 1285.5,-195 1285.5,-154 1422.5,-154 1422.5,-195"/>
<text text-anchor="start" x="1293.5" y="-183" font-family="Helvetica,sans-Serif" font-size="10.00">/home/runner/work/uniot</text>
<text text-anchor="start" x="1293.5" y="-172" font-family="Helvetica,sans-Serif" font-size="10.00">&#45;core/uniot&#45;core/lib/Core</text>
<text text-anchor="middle" x="1354" y="-161" font-family="Helvetica,sans-Serif" font-size="10.00">/LispWrapper/unLisp.h</text>
</a>
</g>
</g>
<!-- Node21&#45;&gt;Node23 -->
<g id="edge27_Node000021_Node000023" class="edge">
<title>Node21&#45;&gt;Node23</title>
<g id="a_edge27_Node000021_Node000023"><a xlink:title=" ">
<path fill="none" stroke="#63b8ff" d="M1290.22,-224.82C1302.77,-215.11 1316.83,-204.24 1328.56,-195.17"/>
<polygon fill="#63b8ff" stroke="#63b8ff" points="1288,-222.1 1282.23,-230.99 1292.28,-227.64 1288,-222.1"/>
</a>
</g>
</g>
<!-- Node22&#45;&gt;Node5 -->
<g id="edge26_Node000022_Node000005" class="edge">
<title>Node22&#45;&gt;Node5</title>
<g id="a_edge26_Node000022_Node000005"><a xlink:title=" ">
<path fill="none" stroke="#63b8ff" d="M1119.75,-70.82C1106.82,-61.11 1092.32,-50.24 1080.23,-41.17"/>
<polygon fill="#63b8ff" stroke="#63b8ff" points="1117.89,-73.79 1127.99,-76.99 1122.09,-68.19 1117.89,-73.79"/>
</a>
</g>
</g>
<!-- Node23&#45;&gt;Node5 -->
<g id="edge28_Node000023_Node000005" class="edge">
<title>Node23&#45;&gt;Node5</title>
<g id="a_edge28_Node000023_Node000005"><a xlink:title=" ">
<path fill="none" stroke="#63b8ff" d="M1313.48,-148.31C1300.12,-139.34 1285.49,-128.78 1273,-118 1254.19,-101.77 1256.04,-90.21 1235,-77 1202.01,-56.3 1160.78,-42.87 1126.01,-34.42"/>
<polygon fill="#63b8ff" stroke="#63b8ff" points="1311.76,-151.38 1322.04,-153.96 1315.62,-145.53 1311.76,-151.38"/>
</a>
</g>
</g>
<!-- Node24 -->
<g id="Node000024" class="node">
<title>Node24</title>
<g id="a_Node000024"><a xlink:href="../../d8/de7/_lisp_device_8h.html" target="_top" xlink:title=" ">
<polygon fill="white" stroke="#666666" points="1426,-118 1282,-118 1282,-77 1426,-77 1426,-118"/>
<text text-anchor="start" x="1290" y="-106" font-family="Helvetica,sans-Serif" font-size="10.00">/home/runner/work/uniot</text>
<text text-anchor="start" x="1290" y="-95" font-family="Helvetica,sans-Serif" font-size="10.00">&#45;core/uniot&#45;core/lib/AppKit</text>
<text text-anchor="middle" x="1354" y="-84" font-family="Helvetica,sans-Serif" font-size="10.00">/LispDevice.h</text>
</a>
</g>
</g>
<!-- Node23&#45;&gt;Node24 -->
<g id="edge29_Node000023_Node000024" class="edge">
<title>Node23&#45;&gt;Node24</title>
<g id="a_edge29_Node000023_Node000024"><a xlink:title=" ">
<path fill="none" stroke="#63b8ff" d="M1354,-143.69C1354,-135.08 1354,-125.9 1354,-118.07"/>
<polygon fill="#63b8ff" stroke="#63b8ff" points="1350.5,-143.79 1354,-153.79 1357.5,-143.79 1350.5,-143.79"/>
</a>
</g>
</g>
<!-- Node24&#45;&gt;Node5 -->
<g id="edge30_Node000024_Node000005" class="edge">
<title>Node24&#45;&gt;Node5</title>
<g id="a_edge30_Node000024_Node000005"><a xlink:title=" ">
<path fill="none" stroke="#63b8ff" d="M1271.9,-75.97C1226.28,-64.57 1170.05,-50.51 1126.13,-39.53"/>
<polygon fill="#63b8ff" stroke="#63b8ff" points="1271.21,-79.41 1281.76,-78.44 1272.91,-72.62 1271.21,-79.41"/>
</a>
</g>
</g>
<!-- Node25&#45;&gt;Node19 -->
<g id="edge32_Node000025_Node000019" class="edge">
<title>Node25&#45;&gt;Node19</title>
<g id="a_edge32_Node000025_Node000019"><a xlink:title=" ">
<path fill="none" stroke="#63b8ff" d="M1221,-451.69C1221,-443.08 1221,-433.9 1221,-426.07"/>
<polygon fill="#63b8ff" stroke="#63b8ff" points="1217.5,-451.79 1221,-461.79 1224.5,-451.79 1217.5,-451.79"/>
</a>
</g>
</g>
</g>
</svg>
