<?xml version="1.0" encoding="UTF-8" standalone="no"?>
<!DOCTYPE svg PUBLIC "-//W3C//DTD SVG 1.1//EN"
 "http://www.w3.org/Graphics/SVG/1.1/DTD/svg11.dtd">
<!-- Generated by graphviz version 2.43.0 (0)
 -->
<!-- Title: /home/runner/work/uniot&#45;core/uniot&#45;core/lib/Core/Network/ConfigCaptivePortal.h Pages: 1 -->
<svg width="399pt" height="159pt"
 viewBox="0.00 0.00 398.50 159.00" xmlns="http://www.w3.org/2000/svg" xmlns:xlink="http://www.w3.org/1999/xlink">
<g id="graph0" class="graph" transform="scale(1 1) rotate(0) translate(4 155)">
<title>/home/runner/work/uniot&#45;core/uniot&#45;core/lib/Core/Network/ConfigCaptivePortal.h</title>
<!-- Node1 -->
<g id="Node000001" class="node">
<title>Node1</title>
<g id="a_Node000001"><a xlink:title=" ">
<polygon fill="#999999" stroke="#666666" points="306.5,-151 136.5,-151 136.5,-110 306.5,-110 306.5,-151"/>
<text text-anchor="start" x="144.5" y="-139" font-family="Helvetica,sans-Serif" font-size="10.00">/home/runner/work/uniot</text>
<text text-anchor="start" x="144.5" y="-128" font-family="Helvetica,sans-Serif" font-size="10.00">&#45;core/uniot&#45;core/lib/Core</text>
<text text-anchor="middle" x="221.5" y="-117" font-family="Helvetica,sans-Serif" font-size="10.00">/Network/ConfigCaptivePortal.h</text>
</a>
</g>
</g>
<!-- Node2 -->
<g id="Node000002" class="node">
<title>Node2</title>
<g id="a_Node000002"><a xlink:title=" ">
<polygon fill="#e0e0e0" stroke="#999999" points="119,-74 0,-74 0,-55 119,-55 119,-74"/>
<text text-anchor="middle" x="59.5" y="-62" font-family="Helvetica,sans-Serif" font-size="10.00">ESP8266WebServer.h</text>
</a>
</g>
</g>
<!-- Node1&#45;&gt;Node2 -->
<g id="edge1_Node000001_Node000002" class="edge">
<title>Node1&#45;&gt;Node2</title>
<g id="a_edge1_Node000001_Node000002"><a xlink:title=" ">
<path fill="none" stroke="#63b8ff" d="M172.01,-109.95C145.59,-99.51 113.87,-86.98 90.85,-77.88"/>
<polygon fill="#63b8ff" stroke="#63b8ff" points="91.83,-74.51 81.25,-74.09 89.26,-81.02 91.83,-74.51"/>
</a>
</g>
</g>
<!-- Node3 -->
<g id="Node000003" class="node">
<title>Node3</title>
<g id="a_Node000003"><a xlink:title=" ">
<polygon fill="#e0e0e0" stroke="#999999" points="214,-74 137,-74 137,-55 214,-55 214,-74"/>
<text text-anchor="middle" x="175.5" y="-62" font-family="Helvetica,sans-Serif" font-size="10.00">DNSServer.h</text>
</a>
</g>
</g>
<!-- Node1&#45;&gt;Node3 -->
<g id="edge2_Node000001_Node000003" class="edge">
<title>Node1&#45;&gt;Node3</title>
<g id="a_edge2_Node000001_Node000003"><a xlink:title=" ">
<path fill="none" stroke="#63b8ff" d="M207.45,-109.95C201.16,-101.2 193.82,-90.99 187.76,-82.56"/>
<polygon fill="#63b8ff" stroke="#63b8ff" points="190.48,-80.34 181.8,-74.26 184.79,-84.42 190.48,-80.34"/>
</a>
</g>
</g>
<!-- Node4 -->
<g id="Node000004" class="node">
<title>Node4</title>
<g id="a_Node000004"><a xlink:href="../../db/d1f/_common_8h.html" target="_top" xlink:title=" ">
<polygon fill="white" stroke="#666666" points="302.5,-74 232.5,-74 232.5,-55 302.5,-55 302.5,-74"/>
<text text-anchor="middle" x="267.5" y="-62" font-family="Helvetica,sans-Serif" font-size="10.00">Common.h</text>
</a>
</g>
</g>
<!-- Node1&#45;&gt;Node4 -->
<g id="edge3_Node000001_Node000004" class="edge">
<title>Node1&#45;&gt;Node4</title>
<g id="a_edge3_Node000001_Node000004"><a xlink:title=" ">
<path fill="none" stroke="#63b8ff" d="M235.55,-109.95C241.84,-101.2 249.18,-90.99 255.24,-82.56"/>
<polygon fill="#63b8ff" stroke="#63b8ff" points="258.21,-84.42 261.2,-74.26 252.52,-80.34 258.21,-84.42"/>
</a>
</g>
</g>
<!-- Node7 -->
<g id="Node000007" class="node">
<title>Node7</title>
<g id="a_Node000007"><a xlink:href="../../de/db7/_i_executor_8h.html" target="_top" xlink:title=" ">
<polygon fill="white" stroke="#666666" points="390.5,-74 320.5,-74 320.5,-55 390.5,-55 390.5,-74"/>
<text text-anchor="middle" x="355.5" y="-62" font-family="Helvetica,sans-Serif" font-size="10.00">IExecutor.h</text>
</a>
</g>
</g>
<!-- Node1&#45;&gt;Node7 -->
<g id="edge6_Node000001_Node000007" class="edge">
<title>Node1&#45;&gt;Node7</title>
<g id="a_edge6_Node000001_Node000007"><a xlink:title=" ">
<path fill="none" stroke="#63b8ff" d="M262.43,-109.95C283.8,-99.75 309.36,-87.54 328.28,-78.5"/>
<polygon fill="#63b8ff" stroke="#63b8ff" points="330,-81.56 337.51,-74.09 326.98,-75.24 330,-81.56"/>
</a>
</g>
</g>
<!-- Node5 -->
<g id="Node000005" class="node">
<title>Node5</title>
<g id="a_Node000005"><a xlink:title=" ">
<polygon fill="#e0e0e0" stroke="#999999" points="261.5,-19 203.5,-19 203.5,0 261.5,0 261.5,-19"/>
<text text-anchor="middle" x="232.5" y="-7" font-family="Helvetica,sans-Serif" font-size="10.00">memory</text>
</a>
</g>
</g>
<!-- Node4&#45;&gt;Node5 -->
<g id="edge4_Node000004_Node000005" class="edge">
<title>Node4&#45;&gt;Node5</title>
<g id="a_edge4_Node000004_Node000005"><a xlink:title=" ">
<path fill="none" stroke="#63b8ff" d="M261.72,-54.75C256.88,-47.42 249.82,-36.73 243.86,-27.7"/>
<polygon fill="#63b8ff" stroke="#63b8ff" points="246.6,-25.5 238.17,-19.09 240.76,-29.36 246.6,-25.5"/>
</a>
</g>
</g>
<!-- Node6 -->
<g id="Node000006" class="node">
<title>Node6</title>
<g id="a_Node000006"><a xlink:title=" ">
<polygon fill="#e0e0e0" stroke="#999999" points="325,-19 280,-19 280,0 325,0 325,-19"/>
<text text-anchor="middle" x="302.5" y="-7" font-family="Helvetica,sans-Serif" font-size="10.00">utility</text>
</a>
</g>
</g>
<!-- Node4&#45;&gt;Node6 -->
<g id="edge5_Node000004_Node000006" class="edge">
<title>Node4&#45;&gt;Node6</title>
<g id="a_edge5_Node000004_Node000006"><a xlink:title=" ">
<path fill="none" stroke="#63b8ff" d="M273.28,-54.75C278.12,-47.42 285.18,-36.73 291.14,-27.7"/>
<polygon fill="#63b8ff" stroke="#63b8ff" points="294.24,-29.36 296.83,-19.09 288.4,-25.5 294.24,-29.36"/>
</a>
</g>
</g>
</g>
</svg>
